<?xml version="1.0" encoding="utf-8"?>
<!-- Generator: Adobe Illustrator 24.1.1, SVG Export Plug-In . SVG Version: 6.00 Build 0)  -->
<svg version="1.1" id="Laag_1" xmlns="http://www.w3.org/2000/svg" xmlns:xlink="http://www.w3.org/1999/xlink" x="0px" y="0px"
	 viewBox="0 0 192 192" style="enable-background:new 0 0 192 192;" xml:space="preserve">
<g>
	<linearGradient id="SVGID_1_" gradientUnits="userSpaceOnUse" x1="187.5799" y1="-28.7777" x2="165.2621" y2="6.4156">
		<stop  offset="0" style="stop-color:#CF5C2B"/>
		<stop  offset="1" style="stop-color:#59173E"/>
	</linearGradient>
	<path style="fill:url(#SVGID_1_);" d="M172.2,130.4c-0.3,3.7-0.6,7.5-1.9,11c-3.8,9.8-11.6,20.7-19.7,27.4
		c-8.9,7.3-20.2,10.5-30.4,15.3c-4.3,2-8.7,3.5-13.6,3.5c-5.3,0.1-10.4-2.1-14.8-5C77.9,173.5,68.2,160,56,149.1
		c-2-1.8-5.6-5.3-5-8.3c0.4-1.8,2.5-2.5,4.3-2.9c-1.1-0.2-2.2-0.5-3.4-0.7c-2.7-0.6-5.4-1.4-7.9-2.6c-4.1-2-6.7-5.4-9.6-8.8
		c-5.7-6.9-12-13.6-14.4-22.4c-3.4-12.6,6.2-22.7,13.5-32c3-3.8,6.3-7.4,9.5-11.1c0.4-0.4,0.6-0.9,0.8-1.4c0.3-0.6,0.9-1.1,1.4-1.5
		c1.1-1.1,2.3-2,3.6-3c1.2-0.9,2.5-1.8,3.9-2.6c0.7-0.4,1.3-0.8,2-1.1c0.3-0.1,2-0.7,2-1c0-0.2,0.1-0.3,0.1-0.5
		c0.8-2.6,2.4-5,4.6-6.8C71.9,34.1,82.6,26,93.7,18.5c11-7.5,19.9-16.1,34.1-14.4c10.1,1.2,19.4,6.1,28.3,10.6
		c1.4,0.7,2.8,1.5,4.1,2.4c3,2.1,6,4,7.6,7.5c1.6,3.4,1.9,7.1,2.1,10.8c0.6,7.2,1.1,14.4,1.5,21.7c0.1,1.4,0,2.8,0.1,4.1
		c0,0.6,0.2,1.2,0.2,1.9c0,1.4,0,3-0.8,4.2c-0.4,0.5-0.7,0.9-0.9,1.5c-0.1,0.3-0.8,2.1-1.1,2.1c1.2,0,2.3,0.9,2.9,1.9
		c0.6,1.1,0.7,2.3,0.8,3.5c0.3,3.2,0.5,6.4,0.3,9.5c-0.1,1.6-0.3,3.1-0.5,4.7c-0.1,0.8-0.3,1.6-0.5,2.3c-0.3,0.9-0.6,1.8-1,2.7
		c-0.4,0.9-0.8,1.7-1.3,2.5c-0.2,0.3-0.8,1.5-1.1,1.6c0.8-0.2,1.5,0.5,2,1.1c1.9,2.5,2.7,5.1,2.3,8.2c-0.1,0.5,0,1,0.1,1.5
		c0.1,0.8,0,1.5,0,2.3c0,1.8-0.1,3.6-0.1,5.3C172.6,122.1,172.4,126.3,172.2,130.4z"/>
	<linearGradient id="SVGID_2_" gradientUnits="userSpaceOnUse" x1="135.4351" y1="-2.6665" x2="35.4379" y2="320.9301">
		<stop  offset="0" style="stop-color:#CF5C2B"/>
		<stop  offset="1" style="stop-color:#59173E"/>
	</linearGradient>
	<path style="fill:url(#SVGID_2_);" d="M173,115.6c-0.1,2.3-0.3,4.6-0.4,6.9c-0.1,2.6-0.3,5.2-0.4,7.8c-0.3,3.7-0.6,7.5-1.9,11
		c-0.8,2.1-2,4.1-3.4,5.9c-8,10.3-24.2,15-35.2,20.1c-4.3,2-8.7,3.5-13.6,3.5c-5.3,0-10.4-2.1-14.8-5c-2.2-1.4-4.6-3.1-6.4-4.9
		c-6.1-6.3-13.6-12.1-19.8-18.6c-2.5-2.6-4.8-5.4-6.8-8.4c-1.8-2.8,0.9-3.6,3.9-3.8c0.8,0,1.6,0,2.4,0h0.5c1.3,0.1,2.3,0.1,2.8,0.2
		c2,0.1,4,0.2,6,0.3c5.1,0.3,10.2,0.6,15.3,0c-1.7-0.3-3.5-0.5-5.2-0.8c-8.7-1.2-17.3-2.3-26.1-3.1c-0.8-0.1-1.6-0.2-2.4-0.2
		c-9.4-0.8-15.9-10.7-21.5-17.4c0-0.1-0.1-0.1-0.1-0.1c-1.7-2.1-3.6-4.2-5.3-6.4c-3.9-4.8-7.4-9.9-9-15.9c-0.7-2.7-1.1-5.6-0.6-8.3
		c0.2-1,0.5-2.1,0.9-3.1c1.5-3.5,4-6.7,6.2-9.6c4.1-5.5,9.4-12.5,15.7-16.1c0.7-0.4,1.4-0.8,2.2-1.1c2.1-0.9,4.4-1.2,6.7-1.5
		s4.6-0.5,6.9-0.6c0.6-0.1,1.3-0.1,1.9-0.1c5.1-0.4,10.3-0.6,15.4-1.3c2.2-0.3,4.4-0.7,6.6-1.2c-6.1-0.6-12.2-0.9-18.3-0.7
		c-2.2,0.1-4.5,0.2-6.7,0.4c-0.7,0-1.5,0.1-2.2,0.1c-0.7,0-1.3-0.2-1.9-0.6c-1.1-0.7-0.5-1.6,0.3-2.2c4.9-3.5,9.3-7.7,13.9-11.5
		c4.7-4,9.9-7.2,15-10.7c11-7.5,19.9-16.1,34.1-14.4c10.1,1.2,19.4,6.1,28.3,10.6c1.4,0.7,2.8,1.5,4.1,2.4c3,2.1,6,4,7.6,7.5
		c1.6,3.4,1.9,7.1,2.1,10.8c0.3,3.4,0.4,6.8,0.5,10.2c0.2,5.8,0.2,11.6,0.4,17.3c0,0.5,0.1,1,0.1,1.5c0,0.4,0,0.8-0.1,1.1
		c-0.1,0.4-0.4,0.6-0.7,0.9c-0.1,0.1-0.2,0.2-0.3,0.2c-1.4,1-2.8,1.8-4.3,2.5c-0.4,0.2-0.7,0.3-1.1,0.5c1.7-0.2,5.1-0.6,6.3,1.2
		c0.9,1.2,1.1,2.6,1,4c-0.1,3.4-0.3,6.7,0,10.1c0,0.1,0,0.2,0,0.3c0.2,2.4,0.1,5.2-1.9,7c-0.5,0.4-1,0.8-1.5,1.1
		c-0.5,0.3-1.1,0.6-1.6,0.9c-1.4,0.8-2.9,1.4-4.4,2c-2.5,1-5.2,1.8-7.8,2.3c1.4-0.1,2.9-0.1,4.3-0.2c2.4-0.1,4.7-0.2,7.1-0.3
		c2.2-0.1,4.8,0,6.1,1.8c0.5,0.8,0.7,1.7,0.8,2.7C173.3,106.8,173.2,111.2,173,115.6z"/>
	<linearGradient id="SVGID_3_" gradientUnits="userSpaceOnUse" x1="118.4152" y1="44.7605" x2="39.874" y2="334.8906">
		<stop  offset="0" style="stop-color:#CF5C2B"/>
		<stop  offset="1" style="stop-color:#59173E"/>
	</linearGradient>
	<path style="fill:url(#SVGID_3_);" d="M171.6,84.9c-4.1,0.8-8.2,1.7-12.3,2.8c-13.9,3.6-27.9,6.9-41.9,10
		c-22.9,5.1-47.5,10.9-71.5,11.2c-1.7-2.1-3.6-4.2-5.3-6.4c25.2-8.4,52-12.6,77.5-20.2c12.7-3.8,25.1-8.3,37.5-13.1
		c-15.1,1-30.1,3.1-45.2,3.9c-17.2,0.9-34.5,2.6-51.7,3.3c-9.8,0.4-18.4,0.6-26.7-1.1c1.5-3.5,4-6.7,6.2-9.6
		c4.1-5.5,9.4-12.5,15.7-16.1c3.2-0.5,6.5-0.9,9.7-1.3c16.3-2.1,32.9-2.9,49.3-3.7c17.4-0.9,34.4,0.9,51.8,1.2c1.8,0,3.7,0,5.6-0.1
		c0.2,5.8,0.2,11.6,0.4,17.3c0,0.5,0.1,1,0.1,1.5c0,0.4,0,0.8-0.1,1.1c-0.2,0.5-0.6,0.8-1,1.1c-1.7,1.2-3.5,2.2-5.4,3
		c1.7-0.2,5.1-0.6,6.3,1.2c0.9,1.2,1.1,2.6,1,4C171.5,78.1,171.3,81.5,171.6,84.9z M145.4,114.4c-17.4-0.3-34.6,0.8-51.7,3.8
		c-0.6,0.1-0.5,1,0.1,1c16.9-1.4,34-1.5,50.7,1.3c4.7,0.8,9.3,1.8,13.9,2.9c-11.6,2.5-23.3,4-35.1,5c-9.1,0.8-18.2,1.1-27.3,1.3
		c-6.3,0.2-12.6,0.2-18.9,0.3h-0.5c-0.8,0-1.6,0-2.4,0c-3,0.2-5.7,1-3.9,3.8c1.9,3,4.3,5.8,6.8,8.4c15.2,2.3,30.6,3.3,46.2,4
		c12.8,0.6,25.7,0.5,38.6,0.8c1.7,0.1,3.4,0.1,5,0.2c1.4-1.8,2.5-3.7,3.4-5.9c1.3-3.5,1.6-7.3,1.9-11c0.2-2.6,0.3-5.2,0.4-7.8
		c0.1-2.3,0.3-4.6,0.4-6.9C163.6,114.9,154.2,114.5,145.4,114.4z"/>
	<path style="fill:#EB924D;" d="M61.9,121.5c2.5,1.9,5.1,3.6,7.9,5c-4.2,0.2-8.3-1.7-11.7-4.2c-4.1-3.1-9.7-8.6-12.1-13.3
		c0-0.1-0.1-0.1-0.1-0.1c-1.7-2.1-3.6-4.2-5.3-6.4c-3.9-4.8-7.4-9.9-9-15.9c-0.7-2.7-1.1-5.6-0.6-8.3c0.2-1,0.5-2.1,0.9-3.1
		c1.5-3.5,4-6.7,6.2-9.6c4.1-5.5,9.4-12.5,15.7-16.1c0.7-0.4,1.4-0.8,2.2-1.1c2.1-0.9,4.4-1.2,6.7-1.5c8-1,16.2-1,24.2-2
		c-6.3,1.7-12.9,3.2-19.3,3.9c-4.2,0.5-8.4,0.8-12.3,2.3c-3.9,1.6-5.1,5.5-7.7,8.3c-3.2,3.5-6.9,6.8-10.1,10.3
		c-0.5,0.6-1.1,1.2-1.3,2c-0.6,2.6,3.7,3.1,5.4,3.3c6.7,0.6,13.4,1.1,20,1.9c-4.4-0.6-8.6,1-13,0.9c-4.7-0.1-8.8-0.1-13.3,1.7
		c-1.6,0.7-1.3,1.3-0.9,2.9c0.5,1.7,1,3.3,1.5,5c0.4,1.2,0.8,2.3,1.2,3.5c2.5,6.7,8.7,13.7,13.2,19.2
		C53.9,114.3,57.7,118.2,61.9,121.5z"/>
	<path style="fill:#EB924D;" d="M173,115.6c-0.1,2.3-0.3,4.6-0.4,6.9c-0.1,2.6-0.3,5.2-0.4,7.8c-0.3,3.7-0.6,7.5-1.9,11
		c-0.8,2.1-2,4.1-3.4,5.9c-8,10.3-24.2,15-35.2,20.1c-4.3,2-8.7,3.5-13.6,3.5c-5.3,0-10.4-2.1-14.8-5c-2.2-1.4-4.6-3.1-6.4-4.9
		c-6.1-6.3-13.6-12.1-19.8-18.6c-2.5-2.6-4.8-5.4-6.8-8.4c-1.8-2.8,0.9-3.6,3.9-3.8c0.8,0,1.6,0,2.4,0h0.5c1.3,0.1,2.3,0.1,2.8,0.2
		c2,0.1,4,0.2,6,0.3c-2.1,0.4-4.3,0.7-6.3,0.9c-0.6,0.1-1.2,0.1-1.7,0.4c-0.9,0.4-1.4,1.3-1.6,2.2c-0.5,2.7,1.4,5.3,3.3,7.3
		c8.6,9.4,18.3,17.8,28.7,25.1c3.8,2.6,8.4,2.2,13,1.5c15.2-2.5,29.7-9.3,41.4-19.4c2.7-2.3,3.4-5.9,4.3-9.4
		c2.7-9.7,3.9-19.8,3.8-29.8c0-1.8-0.1-3.7-1.1-5.2c-2.2-3.6-7.5-3.5-11.1-5.7c2.4-0.1,4.7-0.2,7.1-0.3c2.2-0.1,4.8,0,6.1,1.8
		c0.5,0.8,0.7,1.7,0.8,2.7C173.3,106.8,173.2,111.2,173,115.6z"/>
	<path style="fill:#EB924D;" d="M169.7,92.2c-0.5,0.4-1,0.8-1.5,1.1c0.1-0.5,0.3-1,0.4-1.4c0.2-0.8,0.4-1.7,0.6-2.5
		c0.4-1.7,0.6-3.4,0.8-5.1c0.2-1.9,0.3-3.9,0.2-5.9c0-1.2-0.1-2.4-0.6-3.4c-0.8-1.8-2.6-2.9-4.4-3.9c-0.9-0.5-1.8-1.1-2.7-1.6
		c0.9-0.1,1.9-0.2,2.8-0.3c-0.4,0.2-0.7,0.3-1.1,0.5c1.7-0.2,5.1-0.6,6.3,1.2c0.9,1.2,1.1,2.6,1,4c-0.1,3.4-0.3,6.7,0,10.1
		c0,0.1,0,0.2,0,0.3C171.8,87.6,171.7,90.4,169.7,92.2z"/>
	<path style="fill:#EB924D;" d="M170.7,65.6c-0.1,0.4-0.4,0.6-0.7,0.9c-0.4-11.2-2.4-22.3-4.4-33.4c-0.3-1.5-0.5-3.1-1-4.6
		c-0.3-1-1-2-1.4-3c-3-6.3-10.5-8.2-16.5-10.7c-8.1-3.4-19.9-10.2-28.9-7.4c-3.9,1.2-7.3,3.6-10.6,6c-5.8,4.2-11.5,8.6-17.4,12.8
		c-5.6,3.9-12.8,6.7-17.7,11.5c-1.2,1.2-3.4,3.3-3.5,5.1c0,0.2,0,0.4,0.1,0.6c-0.7,0-1.5,0.1-2.2,0.1c-0.7,0-1.3-0.2-1.9-0.6
		c-1.1-0.7-0.5-1.6,0.3-2.2c4.9-3.5,9.3-7.7,13.9-11.5c4.7-4,9.9-7.2,15-10.7c11-7.5,19.9-16.1,34.1-14.4
		c10.1,1.2,19.4,6.1,28.3,10.6c1.4,0.7,2.8,1.5,4.1,2.4c3,2.1,6,4,7.6,7.5c1.6,3.4,1.9,7.1,2.1,10.8c0.3,3.4,0.4,6.8,0.5,10.2
		c0.2,5.8,0.2,11.6,0.4,17.3c0,0.5,0.1,1,0.1,1.5C170.8,64.8,170.8,65.2,170.7,65.6z"/>
</g>
</svg>
