<?xml version="1.0" encoding="utf-8"?>
<!-- Generator: Adobe Illustrator 24.1.1, SVG Export Plug-In . SVG Version: 6.00 Build 0)  -->
<svg version="1.1" id="Laag_1" xmlns="http://www.w3.org/2000/svg" xmlns:xlink="http://www.w3.org/1999/xlink" x="0px" y="0px"
	 viewBox="0 0 192 192" style="enable-background:new 0 0 192 192;" xml:space="preserve">
<g>
	<linearGradient id="SVGID_1_" gradientUnits="userSpaceOnUse" x1="129.6775" y1="-24.3633" x2="109.8751" y2="33.7799">
		<stop  offset="0" style="stop-color:#CF5C2B"/>
		<stop  offset="1" style="stop-color:#59173E"/>
	</linearGradient>
	<path style="fill:url(#SVGID_1_);" d="M174.9,86.7c-3.2,11.9-12.5,22.7-20.2,32c-6.7,8-13.7,15.7-20.9,23.2
		c-8.8,9.2-17.3,18.6-26.6,27.3c-4.9,4.6-9.6,9.6-14.9,13.8c-16.7,13-39.1-4-54.8-10.7c-5.1-2.2-10.4-4.4-14.4-8.3
		c-2.5-2.4-4.4-5.6-5-9.1c-0.3-1.7-0.1-3.3,0-5c0.1-0.6-0.1-1.2-0.1-1.8c-0.3-3.5,0.6-7.5,1.6-10.8c0.2-0.7,0.4-1.4,1-1.8
		c0.4-0.4,1-0.5,1.6-0.7c1.7-0.4,3.4-0.8,5.1-0.9c-3.6-0.5-6.9-2.8-8.6-6.1c-2.7-5.1-0.8-12.3-0.7-17.9c0.2-7,0.3-14.4,0.8-21.6
		c0.2-3.7,0.6-7.4,1-11c0.4-3,0.3-7.3,2-9.9c1-1.7,3-2.5,4.8-3.3c-1.8-0.1-3.7-0.3-5.5-0.5c-0.3,0-0.1-4.5-0.1-5
		c0.1-2.6,0.2-5.9,0.7-8.6c0.3-1.6,0.8-3.2,1.4-4.6c0.5-1.1,1.3-1.7,1.9-2.7c6.2-9.2,11.2-18.9,20.5-25.4c1.3-0.9,2.7-1.7,4.1-2.4
		c9-4.6,18.3-9.4,28.5-10.6c14.4-1.7,23.3,6.9,34.4,14.4c7,4.7,14,9.5,20.7,14.6c4,3,7.7,6.3,11.3,9.8c2.3,2.2,4.8,4.2,6.6,6.8
		c0.9,1.2,1.2,2.9,0.7,4.4c-0.1,0.3-0.2,0.6-0.2,0.9c0.1,0.3,0.3,0.5,0.6,0.7c1.3,0.9,2.6,2,4.1,2.5c1,0.4,2,0.3,3,0.6
		c3,1.1,5.2,3.6,7.1,6c0.1,0.1,0.2,0.2,0.2,0.3c1.8,2.1,3.5,4.2,5.3,6.3c0.8,1,1.8,1.9,2.3,3.1c0.5,1.2,1,2.4,1.2,3.7
		C176,81.1,175.6,84,174.9,86.7z"/>
	<linearGradient id="SVGID_2_" gradientUnits="userSpaceOnUse" x1="127.8711" y1="-10.8365" x2="1.0701" y2="376.4912">
		<stop  offset="0" style="stop-color:#CF5C2B"/>
		<stop  offset="1" style="stop-color:#59173E"/>
	</linearGradient>
	<path style="fill:url(#SVGID_2_);" d="M175.7,82.1c-0.1,2.3-0.9,4.4-2.8,6.2c-0.5,0.4-0.9,0.8-1.4,1.2c-1.3,0.9-2.7,1.6-4.1,2.3
		c-0.3,0.1-0.5,0.3-0.8,0.4c-1.8,0.9-3.5,1.8-5.3,2.7c0.1,0,0.3,0,0.4-0.1c2.9-0.2,5.9-0.7,8.8-0.7c-0.7,1-1.3,2.1-2,3.1
		c-2.1,3.3-4.3,6.5-6.5,9.7c-1.5,2.1-2.9,4.1-4.5,6.2c-1.5,2-3.3,3.7-5,5.5c-0.5,0.5-1,1.1-1.6,1.4c-1,0.6-2.2,0.6-3.3,0.6
		c0,0,0,0-0.1,0c-4.7,0.1-9.5,0.6-14.1,1.4c0.9,0.2,1.9,0.4,2.8,0.6c2.6,0.6,5.2,1.1,7.9,1.7c0.9,0.2,1.9,0.4,2.5,1.1
		c-0.7,0.8-1.4,1.7-2.1,2.5c-2,2.2-4.1,4.3-6.4,6.2c-0.6,0.5-1.1,1-1.6,1.7c-1.1,1.7-2.9,3-4.4,4.4c-7.7,7.3-15.6,14.4-23,22.1
		c-1.9,1.9-4.2,3.5-6.5,5c-4.4,2.9-9.5,5.1-14.9,5.1c-4.9,0-9.4-1.5-13.7-3.5c-13-6.1-33.2-11.5-38.9-26.2c-0.6-1.5-1.2-3.2-1.4-4.8
		c-0.2-2-0.4-4-0.6-6c-0.1-0.8-0.1-1.6,0.2-2.3c0.6-1.4,2.5-1.8,4-2c8.4-0.9,16.9-1.9,25.3-2.8h0.1c1.1-0.1,2.2-0.2,3.3-0.4
		c-9.1-1.6-18.1-3.1-27.2-4.7c-0.7-0.1-1.4-0.3-2.2-0.5c-1.1-0.3-2.2-0.7-3-1.6c-1.4-1.4-1.7-3.5-1.6-5.4c0.1-1.6,0.3-3.1,0.2-4.7
		c0-3.6,0-7.2,0-10.8c0-2.8,0.1-5.5,0.2-8.3c0.1-2.4,0.4-5,0.1-7.4c-0.1-0.7-0.3-1.3-0.4-2c-0.2-0.8-0.4-1.6-0.3-2.4
		c0-0.6,0-1.2,0.1-1.8c0.2-4.7,0.8-9.4,1.2-14.1c0.1-1.3,0.3-2.7,1.2-3.6c0.9-0.9,2.4-1,3.7-1c4.2-0.1,8.5-0.1,12.8-0.1h1.6
		c4.7,0,9.3,0.1,14,0.1c-4.6-0.6-9.1-1.3-13.7-2.2c-3-0.6-6.2-1-9-2.2c-1-0.4-1.9-0.7-2.9-0.8c-0.8-0.1-1.7-0.1-2.5-0.2
		c-0.1,0-0.2,0-0.3,0c-0.6,0-1.6,0-1.9-0.5c-0.2-0.2-0.2-0.5-0.2-0.7c-0.2-3-0.3-6-0.3-9c0-0.9,0-1.8,0-2.6c0-4.6,0.3-9.2,2.2-13.3
		c1.6-3.5,4.7-5.4,7.7-7.6c1.3-0.9,2.7-1.7,4.1-2.4c9-4.6,18.3-9.5,28.5-10.7c14.4-1.7,23.3,7,34.4,14.5
		c7.9,5.4,15.7,10.8,23.2,16.7c0.3,0.2,0.5,0.4,0.8,0.6c2.1,1.6,4,3.1,5.5,5.2c0.9,1.3,2.3,2.3,3.4,3.4c1.3,1.3,2.6,2.6,3.8,4.1
		c0.2,0.3,0.5,0.6,0.4,0.9c0,0.6-0.8,0.9-1.4,1c-0.9,0.2-1.8,0.4-2.6,0.5c-4.9,1-9.8,2-14.6,2.9c1.6,0,3.2,0,4.8,0
		c5.1-0.1,10.1-0.2,15.2,0.5c2.1,0.3,4.5,0.7,6.6,1.4c1,0.4,1.9,0.8,2.8,1.3c0.5,0.3,0.8,0.7,1.1,1.1c1,1.5,2.1,2.8,3.2,4.2
		c4.2,4.9,9.6,9.7,10.9,16.3C175.6,80.1,175.7,81.1,175.7,82.1z"/>
	<linearGradient id="SVGID_3_" gradientUnits="userSpaceOnUse" x1="110.5957" y1="46.5949" x2="11.0652" y2="328.3103">
		<stop  offset="0" style="stop-color:#CF5C2B"/>
		<stop  offset="1" style="stop-color:#59173E"/>
	</linearGradient>
	<path style="fill:url(#SVGID_3_);" d="M35.5,40.9c0-0.9,0-1.8,0-2.6c7.3,0.1,14.7,0.9,22,1c13.5,0.1,26.9-1.1,40.4-1.9
		c12.8-0.7,25.6-1.4,38.5-1.3c2.1,1.6,4,3.1,5.5,5.2c0.9,1.3,2.3,2.3,3.4,3.4c1.3,1.3,2.6,2.6,3.8,4.1c0.2,0.3,0.5,0.6,0.4,0.9
		c0,0.6-0.8,0.9-1.4,1c-0.9,0.2-1.8,0.4-2.6,0.5c-4.9,1-9.8,2-14.6,2.9c1.6,0,3.2,0,4.8,0c5.1-0.1,10.1-0.2,15.2,0.5
		c2.1,0.3,4.5,0.7,6.6,1.4c-4.4,0.2-9.1,0-14.3-0.1c-15.1-0.3-30.2,0.3-45.3,1c-15,0.7-30.1,0.8-45.1-0.5c-0.7-0.1-1.3-0.1-2-0.2
		h1.6c4.7,0,9.3,0.1,14,0.1c-4.6-0.6-9.1-1.3-13.7-2.2c-3-0.6-6.2-1-9-2.2c-1-0.4-1.9-0.7-2.9-0.8c-0.8-0.1-1.7-0.1-2.5-0.2
		c-0.1,0-0.2,0-0.3,0c-0.6,0-1.6,0-1.9-0.5c-0.2-0.2-0.2-0.5-0.2-0.7C35.6,46.9,35.5,43.9,35.5,40.9z M115.7,76.7
		c-28.1,0-56,2.1-83.8-1.6c-0.1,0.6-0.1,1.2-0.1,1.8c0,0.8,0.2,1.7,0.3,2.4c24.8,8.9,51.4,10.2,77.5,11.4c9.2,0.4,18.4,1,27.5,1.9
		c-12.2,0.2-24.3,0.6-36.5,1.1c-20.2,0.8-40.4,1.1-60.6,2.7C39,96.5,36,96.6,32.4,97c-0.1,3.6-0.1,7.2,0,10.8c0,1.6-0.2,3.1-0.2,4.7
		c-0.1,1.9,0.2,4,1.6,5.4c0.8,0.8,1.9,1.3,3,1.6c0.7,0.2,1.4,0.3,2.2,0.5c9.1,1.6,18.1,3.1,27.2,4.7c-1.1,0.1-2.2,0.2-3.3,0.4
		c11,0.9,22,1.3,32.9,1.9c16.3,0.8,32.4,1.3,48.7,1.1c0.7-0.8,1.4-1.7,2.1-2.5c-0.6-0.7-1.6-0.9-2.5-1.1c-2.6-0.6-5.2-1.1-7.9-1.7
		c-0.9-0.2-1.9-0.4-2.8-0.6c4.6-0.8,9.4-1.3,14.1-1.4c0,0,0,0,0.1,0c1.1,0,2.3,0,3.3-0.6c0.6-0.3,1.1-0.9,1.6-1.4
		c1.7-1.8,3.5-3.6,5-5.5c1.6-2,3-4.1,4.5-6.2c2.2-3.2,4.4-6.4,6.5-9.7c0.7-1,1.4-2.1,2-3.1c-2.9,0-5.9,0.5-8.8,0.7
		c-0.1,0-0.3,0.1-0.4,0.1c1.8-0.9,3.5-1.8,5.3-2.7c0.3-0.1,0.5-0.3,0.8-0.4c1.4-0.7,2.8-1.4,4.1-2.3c0.5-0.4,1-0.7,1.4-1.2
		c1.9-1.8,2.8-3.8,2.8-6.2C155.9,77.8,134.8,76.7,115.7,76.7z"/>
	<path style="fill:#EB924D;" d="M146.5,125.5c-2.5,3.2-5.4,6.1-8.5,8.7c-0.6,0.5-1.1,1-1.6,1.7c-1.1,1.7-2.9,3-4.4,4.4
		c-7.7,7.3-15.6,14.4-23,22.1c-1.9,1.9-4.2,3.5-6.5,5c-4.4,2.9-9.5,5.1-14.9,5.1c-4.9,0-9.4-1.5-13.7-3.5
		c-13-6.1-33.2-11.5-38.9-26.2c-0.6-1.5-1.2-3.2-1.4-4.8c-0.2-2-0.4-4-0.6-6c-0.1-0.8-0.1-1.6,0.2-2.3c0.6-1.4,2.5-1.8,4-2
		c8.5-0.9,17-1.9,25.4-2.8c-3,1.5-6.3,2.4-9.5,3.2c-1.2,0.3-2.3,0.6-3.5,0.6c-1.3,0-2.8,0.4-4.2,0.6c-2.9,0.5-5.8,0.9-8.7,1.4
		c-0.3,0.1-0.7,0.1-0.9,0.4c-0.1,0.2-0.1,0.5-0.1,0.7c0.1,4.2,1,8.3,2.7,12.1c0.5,1.2,1.1,2.4,2,3.4c1,1.3,2.4,2.2,3.7,3.2
		c2.7,1.9,5.4,3.8,8.4,5.2c1.1,0.5,2.3,0.4,3.3,1c1.5,0.8,3,1.6,4.5,2.3c6.1,2.9,12.6,5.2,19,7.3c0.5,0.2,1,0.3,1.6,0.5
		c2.9,0.9,6,1.2,9,0.9c9.6-1,17.3-7.4,24.3-13.5c2.6-2.3,5.2-4.7,7.7-7.1c6.8-6.5,13.6-13,20.4-19.6c-1.9-2-4.2-3.6-6.7-4.8h0.2
		c2.6,0.6,5.2,1.1,7.9,1.7C144.9,124.6,145.8,124.8,146.5,125.5z"/>
	<path style="fill:#EB924D;" d="M34.7,61.8c-0.6,3.7-0.6,7.5-0.2,11.2c0.1,1.1,0.3,2.3,1.1,3.1c0.7,0.7,1.9,0.9,2.9,1.1
		c3.1,0.5,6.3,0.9,9.4,1.4c-2.9,0-5.9,0.4-8.7,1.1c-1.4,0.4-2.8,0.9-3.9,1.9c-1.6,1.7-1.8,4.2-1.8,6.5c-0.1,10.6,1,21.2,3.2,31.5
		c-1.1-0.3-2.2-0.7-3-1.6c-1.4-1.4-1.7-3.5-1.6-5.4c0.1-1.6,0.3-3.1,0.2-4.7c-0.1-6.4,0-12.7,0.2-19c0.1-2.4,0.4-5,0.1-7.4
		c-0.2-1.5-0.8-2.9-0.7-4.4c0.1-5.3,0.8-10.6,1.3-15.9c0.1-1.3,0.3-2.7,1.2-3.6c0.9-0.9,2.4-1,3.7-1c4.8-0.1,9.6-0.1,14.3-0.1
		C46.3,57.2,40.4,59.6,34.7,61.8z"/>
	<path style="fill:#EB924D;" d="M149.5,49.6c0,0.6-0.8,0.9-1.4,1c-0.9,0.2-1.8,0.4-2.6,0.5c0.9-2.1-1-4.8-2.8-6.5
		c-12.7-11.6-27.1-21-41.5-30.4c-3.4-2.2-6.9-4.5-10.7-5.9C86.7,7,83.4,6.2,79.4,7.3c-9.9,2.8-19.6,6.5-28.8,11.1
		c-3.5,1.7-7,3.7-9.3,6.8c-2.7,3.7-3.3,8.5-3.5,13.1c-0.2,4.3-0.2,8.6,0.1,12.8c-0.6,0-1.6,0-1.9-0.5c-0.2-0.2-0.2-0.5-0.2-0.7
		c-0.2-3-0.3-6-0.3-9c-0.1-5.3-0.1-11,2.2-15.9c1.6-3.5,4.7-5.4,7.7-7.6c1.3-0.9,2.7-1.7,4.1-2.4c9-4.6,18.3-9.5,28.5-10.7
		c14.4-1.7,23.3,7,34.4,14.5c7.9,5.4,15.7,10.8,23.2,16.7c2.3,1.8,4.7,3.4,6.3,5.8c0.9,1.3,2.3,2.3,3.4,3.4c1.3,1.3,2.6,2.6,3.8,4.1
		C149.3,49,149.6,49.3,149.5,49.6z"/>
	<path style="fill:#EB924D;" d="M172.8,88.3c-0.5,0.4-0.9,0.8-1.4,1.2c0.4-2.7,1.6-5.4,1.3-8.2c-0.2-2.1-1.3-4-2.4-5.8
		c-1.8-3-3.5-5.9-5.2-8.9c-1.1-2-2.3-3.9-4.1-5.3c-1.7-1.2-3.7-1.9-5.7-2.4c-3.4-0.9-6.8-1.8-10.2-2.5c-3.1-0.6-6.2-1.1-9.2-1.7
		c-0.6-0.1-0.6-0.3-0.1-0.7c5.1-0.1,10.1-0.2,15.2,0.5c3.1,0.4,6.8,1,9.4,2.8c0.5,0.3,0.8,0.7,1.1,1.1c1,1.5,2.1,2.8,3.2,4.2
		c4.2,4.9,9.6,9.7,10.9,16.3C176.1,82.6,175.6,85.8,172.8,88.3z"/>
	<path style="fill:#EB924D;" d="M170.4,94.2c-2.8,4.3-5.6,8.6-8.6,12.7c-1.5,2.1-2.9,4.1-4.5,6.2c-1.5,2-3.3,3.7-5,5.5
		c-0.5,0.5-1,1.1-1.6,1.4c-1,0.6-2.2,0.6-3.3,0.6c0,0,0,0-0.1,0c1.9-2.7,4.9-4.6,6.9-7.2c2.6-3.1,4.4-6.7,6.7-9.9
		c1.7-2.3,6.6-6.4,1.6-8.1c-0.5-0.2-1.3-0.5-1.8-0.3c0.3-0.1,0.5-0.2,0.8-0.2C164.5,94.7,167.5,94.2,170.4,94.2z"/>
</g>
</svg>
