<?xml version="1.0" encoding="utf-8"?>
<!-- Generator: Adobe Illustrator 24.1.1, SVG Export Plug-In . SVG Version: 6.00 Build 0)  -->
<svg version="1.1" id="Laag_1" xmlns="http://www.w3.org/2000/svg" xmlns:xlink="http://www.w3.org/1999/xlink" x="0px" y="0px"
	 viewBox="0 0 1920 1080" style="enable-background:new 0 0 1920 1080;" xml:space="preserve">
<linearGradient id="SVGID_1_" gradientUnits="userSpaceOnUse" x1="964.0929" y1="1079.056" x2="964.0929" y2="-9.094947e-13">
	<stop  offset="0" style="stop-color:#FFFFFF"/>
	<stop  offset="0.1034" style="stop-color:#EDF7FC"/>
	<stop  offset="0.3117" style="stop-color:#BDE2F5"/>
	<stop  offset="0.606" style="stop-color:#70C0EA"/>
	<stop  offset="0.9722" style="stop-color:#0893DB"/>
	<stop  offset="1" style="stop-color:#008FDA"/>
</linearGradient>
<polygon style="fill:url(#SVGID_1_);" points="1927.1,1079.1 1.4,1079.1 1.1,0 1927.1,0 "/>
<path style="opacity:0.4;fill:#7FE5FF;" d="M0.2,1078.7L0,790.5c0,0,105.7-52.9,122.3-69.9c16.5-17,63.3-32,73.8-27
	c10.5,5,31.7,22.1,51.2,31.1c19.5,9,49.6,36.1,49.6,36.1s18,40.1,40.6,51.1c22.5,11,46.6,10,60.1-2c13.5-12,45.1-23,69.1-23
	s54.1-11,70.6-21c16.5-10,48.1-17,63.1-9c15,8,10.5,20,57.1,30.1c46.6,10,109.7,33.1,135.2,34.1c25.5,1,111.2-25,123.2-27
	c12-2,106.7,7.1,151.8,29.1c45.1,22.1,126.2,39.1,195.3,47.2c69.1,8,166.6-33.2,214.7-55.2c48.1-22,144.3-74.1,159.3-74.1
	c15,0,84.2,12.1,111.2,26.1c27,14,59.2,26.1,89.2,28.1c30.1,2,89.5-9.6,89.5-9.6l-0.1,293.9L0.2,1078.7z"/>
<g>
	<path style="fill:#7AD6E5;" d="M1927.1,1079.1V849c0,0-96.4-109.7-104.4-114.6c-8-4.8-36.3,23.2-74.3,36.4
		c-38,13.2-94.1,59.2-114.1,50.8c-20-8.4-156.4-2.8-156.4-2.8l-188.1-1.4c0,0-76.1-8.4-100.2-12.5c-24-4.2-140.2,29.3-152.2,37.6
		c-12,8.4,0,33.5-104.2,41.8c-104.2,8.4-200.3,8.4-244.4-12.5c-44.1-20.9-72.1-33.5-140.2-46C480.7,813.3,421,716,421,716
		S296.5,825.8,280.4,834.2s-100.1,16.7-140.2,12.5C100.2,842.5,0,830.8,0,830.8l0.3,248.2H1927.1z"/>
	<path style="fill:#89DCE5;" d="M424.6,744.8L421,716L321,802.4l-40.5,34.4c0,0,28-5.8,40.5-12c12.5-6.3,31.6-15.2,31.6-15.2
		s4,12,6,13.1c2,1,6-11,16.5-25.1c10.5-14.1,21-21.4,23.5-16.7c2.5,4.7-1.5,22.5,6.5,12c8-10.5,8-19.3,10-27.2
		C417.1,757.8,424.6,744.8,424.6,744.8z"/>
	<path style="fill:#89DCE5;" d="M0.2,832.5c0,0,49,0.1,68.8,7.5c19.8,7.4,48.5,14.4,48.5,17.9c0,3.5,34,7,3.3,8.4
		c-30.7,1.4-45.4-3.5-63.4-7.7c-18-4.2-57.5,1.8-57.5,1.8L0.2,832.5z"/>
	<path style="fill:#89DCE5;" d="M1183.7,804.5c0,0-14.7,5.9-14.7,13.6c0,7.7,9.3,9.1,0,17.4c-9.3,8.4-40.1,11.9-46.1,12.5
		c-6,0.7-27.4-2.1-42.1,0c-14.7,2.1-28.7,6.3-30.7,6.3c-2,0-20.6-8.1-12.7-11.9c7.9-3.8,29.8-6.8,38.7-11.9c8.9-5,31-11.2,38.4-13.1
		C1122.1,815.7,1183.7,804.5,1183.7,804.5z"/>
	<path style="fill:#89DCE5;" d="M1822.7,734.4c0,0-26.9,12.2-32.7,15.7c-5.8,3.5-41.5,20.7-41.5,20.7s-23.2,10.4-27.6,12.8
		c-4.4,2.4-33.1,18.9-33.1,18.9s-19,21.5-23.3,18c-4.4-3.5-13,9.4-24,13.6c-11,4.2-61.1,20.9-61.1,20.9s43.1,1,50.1,0
		c7-1,11,18.8,11,22c0,3.1,25-1,40.1-9.4c15-8.4,26-7.3,52.1-12.5c26-5.2,28-16.7,45.1-33.5c17-16.7,16-36.6,23-47.1
		C1807.6,764.1,1822.7,734.4,1822.7,734.4z"/>
</g>
<g>
	<path style="fill:#5CC2B4;" d="M0.1,1079.1L0,875c0,0,25-42,49-95.6c24-53.7,66.9-92.6,83.4-93.5c16.5-0.9,71.2-5,92.8,20.7
		c21.6,25.7,57.1,72.5,75.6,91.5s36,33.8,70,45.2c34,11.4,101.6,30.7,115.8,43.6c14.2,12.9,44.2,21.5,74.1,4.3
		c30-17.2,92-44.3,159.9-47.9c68-3.6,187.9,4.7,238.9,16.7c51,11.9,116.9,14.1,184.9,11.9c68-2.1,190-92.8,214.9-104.4
		c24.9-11.5,88.9-41.7,140.9,0c52,41.7,143,97.9,196.5,113c53.5,15,224.8,11.3,224.8,11.3l0.8,187.2H0.1z"/>
	<path style="fill:#66CDAF;" d="M54.8,767.6c0,0,4.6-20.1,11.4-40.2c6.8-20,31.4-63,58.7-70.1c27.3-7.2,95.3-1.4,114.6,11.5
		c19.3,12.9,51.3,39.4,60.6,65.8c9.3,26.5,21.1,58.6,36.2,73.7c15.1,15.1,42.4,28.8,76.4,35.1c34,6.4,64.8,12.8,81.7,25
		c16.9,12.2,34.3,42.9,34.3,42.9s43.6,7.2,72.1-3.6c28.5-10.7,48.5-31.5,56.5-37.2c8-5.7,35.3-29.3,56.6-35.1
		c21.3-5.7,124.7-25.1,150.2-25.1c25.5,0,61.5,9.5,81,19.2c19.5,9.8,91.5,41.7,124.4,42.4s85.4,17.3,145.4,7.6
		c60-9.7,92.9-31.3,106.4-57.5c13.5-26.2,19.6-46.4,38-54.5c18.3-8.1,82.8-40.4,112.4-43.1s140.6,29.3,149.5,59.4
		c8.9,30.1,36.9,59.8,75.4,76.1c38.5,16.3,130,42.1,166,42.1c36,0,56.9-13.8,57.4,2.5c1.7,54.1,2.3,174.4,2.3,174.4H0.1L0,913.4
		c0,0,27-21.3,42-37.4c15-16.1,24.5-56.8,24.2-61.1C66,810.6,54.8,767.6,54.8,767.6z"/>
	<path style="fill:#82DCBA;" d="M237.9,950.3c-6,0-62-21.5-77-49.4c-15-27.9-35-58-49-78.9c-14-20.9-35-73.5-35-89.6
		c0-16.1-0.7-30.9,10.5-44.3c11.2-13.4,16.4-22.8,32.2-29c15.8-6.1,41.3-8.8,55.3-8.8c14,0,55.4,7.6,63,15
		c7.5,7.5,38.5,26.8,48.5,40.3c10,13.4,14.4,11.9,21.5,39.7c7.1,27.8,9.5,40.3,17,52.6c7.5,12.3,13,40.3,23,55.3
		c10,15,19,29,13,41.9c-6,12.9-22.5,30.1-39,38.6C305.3,942.3,237.9,950.3,237.9,950.3z"/>
	<path style="fill:#82DCBA;" d="M659.3,899.9c0.7-4.3-6.7-14.7,3.3-27.9c10-13.2,28.9-22.7,31.8-27.8c2.9-5.1,11.5-10.5,25.5-14.6
		c14-4.1,47.5-6.4,70.7-12.1c23.2-5.6,79.2-14.2,86.5-12.1c7.3,2.1,32,2.1,50,11.4c18,9.3,39.8,18.6,58.5,30.8
		c18.8,12.2,52.7,24.3,74.1,30.1c21.3,5.7,44,23.6,43.3,33.6c-0.7,10-48,22.2-81.3,22.9c-33.3,0.7-79.3,7.2-158.6,7.2
		c-79.3,0-162.6-3.6-182.6-8.6C660.6,927.8,659.3,899.9,659.3,899.9z"/>
	<path style="fill:#82DCBA;" d="M1340.9,867.7c1.3-15-2-44.4,0-55.1c2-10.7,12-38.6,22.7-48.7c10.7-10,58-30.8,66-32.9
		c8-2.1,33.6-10,42.1-10c8.5,0,41.1,4.8,57.8,13.1c16.7,8.3,59.1,8,67.9,15c8.8,7,17.5,14.1,26.8,33.4c9.3,19.3,17.3,44.4,24,52.2
		c6.7,7.9,42,28.6,54.6,32.9c12.7,4.3,18.7,16.5,7.3,22.2c-11.3,5.7-58.6,30.1-100.6,35.8c-42,5.7-101.3,0.7-152.6-7.9
		c-51.3-8.6-91.9-28.6-97.6-31.5C1353.6,883.4,1340.9,867.7,1340.9,867.7z"/>
	<path style="fill:#98E9C2;" d="M114.3,705.6c-1.3-0.4-6.9-33.8-3.3-39c3.6-5.2,15.7-10.1,21.5-11.3c5.8-1.2,26.6-6.5,42.5-5
		c15.9,1.5,62,10.6,62,10.6s34.5,28.7,42,36.7c7.5,8,22.5,16.9,21.9,27c-0.6,10,9.4,32.9,12.4,48.7c3,15.7,10.3,34.8,15.7,53.5
		c5.3,18.8,10.7,33.3,10.7,33.3s-14,22.6-16,22.6c-2,0-3.3-30-10.3-39.3c-7-9.4-31.3-5-36.8,0c-5.5,5-26.2,30.7-27.5,11.4
		c-1.3-19.3-6-50.8-16.7-63.7c-10.7-12.9-50-27.9-70.6-32.9c-20.7-5-32.4-16.5-29.2-25.8C135.6,723.1,114.3,705.6,114.3,705.6z"/>
	<path style="fill:#98E9C2;" d="M693.6,851c0,0,13.1-17.5,21.8-20c8.7-2.5,42.2-12.2,50.7-15.4c8.5-3.2,65-9.3,73.5-10.5
		c8.5-1.3,51.5-1.4,57,0c5.5,1.4,19.1,3.8,35.3,14.2c16.2,10.3,33.7,11.4,46.1,19.5c12.5,8.1,41,31.7,50,40.8
		c9,9.1-18.1,34.9-57,35.4c-38.9,0.5-96.4-9.7-115.9-9.7s-92.5,4.3-102.4-4.3c-10-8.6,18-19.3,24.5-24.2c6.5-4.8-9.5-26.3-25-23.6
		c-15.5,2.7-47.5,18.8-55,16.1C689.6,866.6,693.6,851,693.6,851z"/>
	<path style="fill:#98E9C2;" d="M1370.9,798.2c7.3-19.3,2.4-35.2,11.3-42.9c9-7.7,24-20.8,35.3-24.3c11.3-3.6,39.3-14.3,58-14.3
		c18.7,0,44,7.8,44,7.8s28.7,10.1,34.6,10.1s33.3,5.7,38,7.9c4.7,2.1,23.4,22.1,30.1,36.2c6.6,14.2,22.1,56,38.3,60
		c16.2,4,42.2,20.8,42.2,20.8s8.7,10.3-18,20.3c-26.7,10-109.9-1.4-139.3-16.5c-29.3-15-34-17.9-60-15.7c-26,2.1-55.3,32.9-85.3-3.6
		C1370.3,807.5,1370.9,798.2,1370.9,798.2z"/>
	<path style="fill:#AFECCB;" d="M219.8,727.6c-27.9-13.4-40.4-23.1-54.9-34.9c-14.5-11.8-34.4-37-29.2-38.2c5.2-1.1,17.2-4,26.4-4.2
		c9.2-0.2,27.7,0,36.2,0c8.5,0,30.5,8.2,38.5,10.6c8,2.3,24,14.7,29,16.8c5,2.1,14.5,23.7,20.5,27.9c6,4.2,11.5,24.7,15.5,40.3
		c4,15.6,13,36.5,8.5,49.4c-4.5,12.9-17,21.5-24,5.1c-7-16.4-10.5-41.1-19-43.2c-8.5-2.1-21,4.3-29-3.2
		C230.4,746.4,219.8,727.6,219.8,727.6z"/>
	<path style="fill:#AFECCB;" d="M775.5,813.5c5.6-2.5,34.6-8.5,43.3-8.4c8.7,0.1,34.2-1.2,42.3-2.3c8.1-1.2,42.1,1.3,49.4,3.5
		c7.2,2.1,18.7,9,24.8,15.1c6.2,6.1,16.4,5,10.9,16.8c-5.5,11.8-11,23.3-38.2,18.8c-27.2-4.6-35.7-13.1-51.2-10.5
		c-15.5,2.7-30.5,6.9-35.7,1.2c-5.2-5.7-9.5-16.5-20.2-17.4c-10.7-0.9-28-1.2-28.5-4.1C771.8,823.1,775.5,813.5,775.5,813.5z"/>
	<path style="fill:#AFECCB;" d="M1411.2,743.7c1-3.2,8.6-13.5,15.1-15.7c6.5-2.2,23.4-7.4,29.5-8.7c6.1-1.3,20.4-6.2,27-4.8
		c6.7,1.4,25.7,1,34,6.4c8.3,5.5,37,15.6,43.5,14.3c6.5-1.4,24.1,5.1,30.5,6.7c6.4,1.6,20.8,19.6,27.4,30.9
		c6.5,11.4,21.3,30.8,0,29.3c-21.3-1.4-44.6-3.6-65.6-12.9c-21-9.3-24.3-15-51.6-15c-27.3,0-57.6,4.3-72.9-7.2
		c-15.3-11.4-16.8-21.8-16.8-21.8V743.7z"/>
</g>
<path style="opacity:0.5;fill:#CAFEFF;" d="M491.4,420c-1.8,0-3.6,0.2-5.2,0.5c-4.3-10.6-20.6-18.5-40-18.5c-0.9,0-1.8,0-2.7,0.1
	c-2.5-3.8-7.4-6.4-13-6.4c-0.7,0-1.4,0.1-2.1,0.1c-3.1-8.8-13.7-16-27.5-18.9c2.6-5.7,4-11.7,4-17.9c0-33.7-40.9-61-91.4-61
	c-44.8,0-82,21.5-89.9,49.8c-11.1,0.2-20.1,6-20.5,13.2c-24.6,4.1-43.5,17.7-47.3,34.7c-0.2,0-0.5,0-0.7,0c-26.5,0-48,14.1-48,31.4
	c0,17.4,21.5,31.4,48,31.4c2,0,3.9-0.1,5.8-0.2c15.2,3.8,37.2,6.2,61.7,6.2c25.3,0,47.9-2.6,63.1-6.6c8.3,0.4,16.8,0.6,25.6,0.6
	c25.6,0,49.4-1.8,69.2-4.7c5.7,0.6,11.8,1,18.2,1c15,0,28.6-1.9,38.4-5.1c2.9,0.4,6,0.6,9.1,0.6c13.4,0,25.3-3.7,32.8-9.5
	c3.2,2.2,7.6,3.6,12.5,3.6c9.7,0,17.7-5.4,17.7-12.2C509.1,425.5,501.2,420,491.4,420z"/>
<path style="opacity:0.5;fill:#CAFEFF;" d="M1217.9,374.2c0-2.2-5.9-4.2-14.1-4.9c-2.2-5.6-10.1-9.8-19.6-9.8c-0.8,0-1.5,0-2.3,0.1
	c1.2-2.3,1.9-4.7,1.9-7.2c0-13.8-19.8-25.1-45.4-26.9c0.6-1.3,1-2.7,1-4.1c0-8.3-11.2-15-25-15c-3,0-5.9,0.3-8.6,0.9
	c-9.5-26.6-43.7-46.3-84.4-46.3c-27.3,0-51.7,8.9-67.6,22.8c-2-1.7-5-2.7-8.2-2.7c-6.1,0-11.1,3.7-11.1,8.3c0,3.7,3.2,6.8,7.7,7.8
	c-4.9,7.7-7.7,16.2-7.7,25.2c0,6,1.3,11.8,3.5,17.3c-1.2-0.1-2.3-0.2-3.5-0.2c-9.8,0-18.1,4.7-21.1,11.3
	c-21.1,0.8-37.7,10.2-37.7,21.8c0,12.1,18.1,21.8,40.5,21.8c9.6,0,18.5-1.8,25.4-4.8c10,3,23.2,4.8,37.7,4.8c16.2,0,30.9-2.3,41.2-6
	c11.2,3.7,25.6,6,41.4,6c17.9,0,34.1-2.9,45.8-7.6c8.1,2.2,18.4,3.5,29.7,3.5c15.4,0,29-2.4,37.5-6.2c2.8,0.9,5.9,1.5,9.3,1.5
	c7.2,0,13.5-2.4,17.1-6.1C1210.9,378.7,1217.9,376.6,1217.9,374.2z"/>
<path style="opacity:0.5;fill:#CAFEFF;" d="M1824.7,371.6c3.3-6.7,5.1-14,5.1-21.6c0-31.1-29.6-56.3-66.2-56.3c-0.1,0-0.1,0-0.2,0
	c-11.8-36.6-60.7-64-119.2-64c-61.6,0-112.6,30.4-120.8,69.9c-0.8,0-1.6-0.1-2.5-0.1c-15.2,0-29.3,2.5-40.8,6.6
	c-13.2-13.1-38.4-22-67.5-22c-38.9,0-71.1,15.9-76.3,36.6c-6.3-2.2-13.4-3.5-21-3.5c-24.7,0-44.8,13.4-44.8,29.9
	c0,0.7,0.1,1.5,0.2,2.2c-5-0.8-10.3-1.3-15.7-1.3c-24.5,0-45.1,9.1-51.3,21.4c-0.6,0-1.3,0-1.9,0c-42.7,0-77.8,16.1-82.5,36.8
	c-14.2,0.9-25.2,8.9-25.2,18.5c0,10.3,12.6,18.6,28.1,18.6c7,0,13.4-1.7,18.4-4.6c15.2,8.3,37,13.5,61.3,13.5
	c12.3,0,24-1.4,34.5-3.8c9.3,2.4,20.4,3.8,32.3,3.8c15.1,0,28.7-2.2,39.2-5.9c18,3.7,38.4,5.9,60.1,5.9c31,0,59.5-4.3,81.8-11.5
	c23.1,7.2,51.2,11.5,81.6,11.5c33.7,0,64.7-5.3,89-14c14.8,10.9,34,17.6,55,17.6c25.3,0,48-9.6,63.5-24.8
	c11.4,10,29.2,16.5,49.4,16.5c34.4,0,62.3-18.8,62.3-42C1850.5,391.6,1840.3,379.3,1824.7,371.6z"/>
<g style="opacity:0.4;">
	<path style="fill:#80EDFF;" d="M697.7,147.3c0.8-2.5,1.3-5.1,1.3-7.8c0-16.6-17.2-30-38.4-30c-0.5,0-1,0-1.6,0
		c-16-53.8-74.3-93.7-143.7-93.7c-64.6,0-119.5,34.6-139.7,82.8c-1.1,0-2.2-0.1-3.2-0.1c-32.4,0-58.7,17.9-58.7,40
		c0,0.5,0,1,0.1,1.5c-1.8-0.3-3.6-0.5-5.5-0.5c-13.6,0-24.6,8.7-24.6,19.5c0,2.2,0.5,4.3,1.4,6.3c-7.3,6.6-12.7,14.2-15.8,22.5
		c-1.2-0.1-2.5-0.1-3.7-0.1c-24,0-43.4,15.7-43.4,35.1c0,19.4,19.4,35.1,43.4,35.1c10.8,0,20.7-3.2,28.3-8.5
		c17.8,12.3,42.7,19.9,70.2,19.9c30.3,0,57.3-9.2,75.3-23.6c22.2,11.1,48.2,17.5,76,17.5c28.9,0,55.8-6.9,78.6-18.9
		c15.7,11.6,37.6,18.9,61.9,18.9c47.6,0,86.2-27.7,86.2-61.8C742.1,178.1,724.2,157.8,697.7,147.3z"/>
	<linearGradient id="SVGID_2_" gradientUnits="userSpaceOnUse" x1="482.1304" y1="18.0595" x2="482.1304" y2="260.4066">
		<stop  offset="0.3717" style="stop-color:#FFFFFF"/>
		<stop  offset="1" style="stop-color:#D8FFFA"/>
	</linearGradient>
	<path style="fill:url(#SVGID_2_);" d="M364.1,260.4c-25.6,0-49.4-6.7-67.1-18.9l-3.2-2.2l-3.2,2.2c-7,4.8-15.9,7.5-25.2,7.5
		c-20.9,0-37.9-13.3-37.9-29.6c0-16.3,17-29.6,37.9-29.6c1,0,2.1,0,3.3,0.1l4.1,0.3l1.5-3.8c2.8-7.3,7.6-14.1,14.4-20.3l2.9-2.7
		l-1.6-3.6c-0.6-1.4-0.9-2.8-0.9-4.1c0-7.6,8.7-13.9,19-13.9c1.5,0,3,0.1,4.5,0.4l6.9,1.2l-0.4-7c0-0.4,0-0.8,0-1.2
		c0-19,23.9-34.4,53.2-34.4c1,0,2,0,3,0.1l3.8,0.1l1.5-3.5c19.9-47.5,74-79.4,134.6-79.4c32.6,0,63.3,8.9,88.8,25.8
		c24.5,16.2,42.1,38.9,49.6,64l1.2,4.1l4.3-0.1c0.5,0,0.9,0,1.4,0c18.1,0,32.9,11,32.9,24.4c0,2-0.3,4-1,6l-1.7,5l4.9,2
		c25.2,10.1,40.9,28.8,40.9,48.9c0,31-36.2,56.3-80.6,56.3c-22.4,0-43.2-6.3-58.6-17.8l-2.8-2.1l-3.1,1.6
		c-22.7,11.9-49,18.2-76,18.2c-26,0-51.4-5.9-73.5-16.9l-3.2-1.6l-2.8,2.2C418.2,252.2,392,260.4,364.1,260.4z"/>
	<path style="fill:#80EDFF;" d="M652.9,103.8c0,0,5.4,35.7-10.5,57.9C660.4,142.6,659,113,659,113L652.9,103.8z"/>
	<path style="fill:#80EDFF;" d="M386,158c0,0,18.1-30.9,49.9-15.4c43.3-53.7,89.1-14.9,89.1-14.9s-49.2-31.1-88,23.7
		C412.2,138.8,386,158,386,158z"/>
	<path style="fill:#80EDFF;" d="M690.8,147.1c0,0-6.7,14.5-17.4,11c11.9,7.5,23.4-8.6,23.4-8.6l-1.1-5.7L690.8,147.1z"/>
	<path style="fill:#80EDFF;" d="M287.6,162.1c0,0,18.9-7.8,30.3,8.5c-18.1-12.6-31.6-2-31.6-2L287.6,162.1z"/>
	<linearGradient id="SVGID_3_" gradientUnits="userSpaceOnUse" x1="468.8841" y1="168.7422" x2="456.1221" y2="118.8038">
		<stop  offset="0.3717" style="stop-color:#FFFFFF"/>
		<stop  offset="1" style="stop-color:#D8FFFA"/>
	</linearGradient>
	<path style="fill:url(#SVGID_3_);" d="M525.1,127.7c-56.1-28.9-84.7,16.6-88,23.7c-25.8-12.1-51,6.7-51,6.7s17.1,13.1,58.8,8.2
		C486.5,161.4,581.2,156.5,525.1,127.7z"/>
	<linearGradient id="SVGID_4_" gradientUnits="userSpaceOnUse" x1="667.6136" y1="161.6942" x2="667.6136" y2="111.7859">
		<stop  offset="0.3717" style="stop-color:#FFFFFF"/>
		<stop  offset="1" style="stop-color:#D8FFFA"/>
	</linearGradient>
	<path style="fill:url(#SVGID_4_);" d="M642.3,161.7c54.5-6.3,50.5-30.4,50.5-30.4s-5-19.5-33.6-19.5
		C658.5,133.7,654.5,148.5,642.3,161.7z"/>
</g>
<g style="opacity:0.4;">
	<path style="fill:#80EDFF;" d="M1755,116.3c-1-4.1-4.8-7.1-9.2-7.1c-0.1,0-0.2,0-0.3,0c-2.8-17.6-20.8-31.1-42.7-31.1
		c-1.3,0-2.7,0.1-4,0.2c0-0.1,0-0.1,0-0.2c0-23.8-24.4-43.1-54.4-43.1c-30,0-54.4,19.3-54.4,43.1c0,4.4,0.8,8.7,2.4,12.7
		c-10.1,4.4-17.1,14-17.1,25.2c0,2.8,0.4,5.4,1.2,7.9c-4.5,2.8-7.5,7.3-7.5,12.5c0,8.4,7.9,15.2,17.6,15.2c1,0,2-0.1,3-0.2
		c3.7,2.9,10.5,4.8,18.2,4.8c7.1,0,13.3-1.6,17.2-4.1c6.3,2.6,13.6,4.1,21.4,4.1c9.3,0,17.9-2.1,24.9-5.7c3.2,3.5,8.2,5.7,13.9,5.7
		c3.8,0,7.3-1,10.2-2.8c4.8,1.5,10.5,2.3,16.7,2.3c7.4,0,14.1-1.2,19.4-3.3c5,2.3,11.1,3.7,17.7,3.7c16.9,0,30.6-9,30.6-20.1
		C1780,126.2,1769.2,118,1755,116.3z"/>
	<linearGradient id="SVGID_5_" gradientUnits="userSpaceOnUse" x1="1674.5477" y1="36.0083" x2="1674.5477" y2="152.1406">
		<stop  offset="0.5759" style="stop-color:#FFFFFF"/>
		<stop  offset="1" style="stop-color:#C5FFFA"/>
	</linearGradient>
	<path style="fill:url(#SVGID_5_);" d="M1749.4,152.1c-6,0-11.8-1.2-16.6-3.5l-1-0.5l-1,0.4c-5.2,2-11.8,3.1-18.5,3.1
		c-5.7,0-11.2-0.8-15.9-2.2l-1.1-0.3l-1,0.6c-2.6,1.6-5.7,2.4-8.9,2.4c-4.8,0-9.1-1.8-12-4.9l-1.3-1.4l-1.7,0.9
		c-6.9,3.6-15.1,5.5-23.8,5.5c-7.2,0-14.2-1.4-20.4-3.9l-1.2-0.5l-1.1,0.7c-3.6,2.3-9.5,3.7-15.8,3.7c-6.9,0-13.3-1.6-16.7-4.3
		l-0.8-0.7l-1.1,0.2c-0.9,0.1-1.8,0.2-2.6,0.2c-8.3,0-15.1-5.7-15.1-12.7c0-4.1,2.4-7.9,6.3-10.3l1.7-1l-0.6-1.9
		c-0.7-2.3-1.1-4.7-1.1-7.2c0-9.8,6.1-18.8,15.6-22.9l2.2-1l-0.9-2.3c-1.5-3.8-2.2-7.8-2.2-11.8c0-22.4,23.3-40.5,51.9-40.5
		c28.6,0,52.1,18.2,52.1,40.5l0.2,0.2v2.7l2.5-0.2c1.3-0.1,2.4-0.2,3.7-0.2c20.2,0,37.4,12.5,40.1,29l0.3,2.2l2.2,0
		c0.1,0,0.1,0.1,0.2,0.1h0c3.2,0,6,2.1,6.7,5.2l0.4,1.6l1.7,0.2c13.2,1.6,22.7,8.9,22.7,17.3
		C1777.4,144.3,1764.8,152.1,1749.4,152.1z"/>
	<path style="fill:#80EDFF;" d="M1696.4,76.7c0,0-15.2,8.1-10.7,23.6c-2.6-14.6,13.4-21.1,13.4-21.1L1696.4,76.7z"/>
	<path style="fill:#80EDFF;" d="M1594.9,88.3c0,0,12.6-6.2,27,10c-15.2-13.6-28.4-6.8-28.4-6.8L1594.9,88.3z"/>
	<linearGradient id="SVGID_6_" gradientUnits="userSpaceOnUse" x1="1599.7703" y1="123.485" x2="1599.7703" y2="89.8828">
		<stop  offset="0.3717" style="stop-color:#FFFFFF"/>
		<stop  offset="1" style="stop-color:#BDFFFA"/>
	</linearGradient>
	<path style="fill:url(#SVGID_6_);" d="M1621.9,98.3c0,0-11.2-11.2-26.1-7.7c-26.6,11.8-16.1,32.9-16.1,32.9L1621.9,98.3z"/>
	<linearGradient id="SVGID_7_" gradientUnits="userSpaceOnUse" x1="1714.3186" y1="110.2168" x2="1714.3186" y2="79.1773">
		<stop  offset="0.3717" style="stop-color:#FFFFFF"/>
		<stop  offset="1" style="stop-color:#BDFFFA"/>
	</linearGradient>
	<path style="fill:url(#SVGID_7_);" d="M1709.2,105.1l-23.5-4.8c0,0-4.5-12.2,13.4-21.1c39.8-1.3,44.3,31,44.3,31L1709.2,105.1z"/>
</g>
<g style="opacity:0.4;">
	<path style="fill:#80EDFF;" d="M88.5,574.7c-0.4-1.1-0.6-2.2-0.6-3.4c0-7.3,7.6-13.2,16.9-13.2c0.2,0,0.5,0,0.7,0
		c7.1-23.7,32.7-41.3,63.3-41.3c28.5,0,52.6,15.2,61.6,36.5c0.5,0,0.9,0,1.4,0c14.3,0,25.9,7.9,25.9,17.6c0,0.2,0,0.4,0,0.7
		c0.8-0.1,1.6-0.2,2.4-0.2c6,0,10.8,3.8,10.8,8.6c0,1-0.2,1.9-0.6,2.8c3.2,2.9,5.6,6.3,7,9.9c0.5,0,1.1-0.1,1.6-0.1
		c10.6,0,19.1,6.9,19.1,15.5c0,8.5-8.6,15.5-19.1,15.5c-4.8,0-9.1-1.4-12.5-3.8c-7.8,5.4-18.8,8.8-30.9,8.8
		c-13.3,0-25.3-4-33.2-10.4c-9.8,4.9-21.2,7.7-33.5,7.7c-12.7,0-24.6-3-34.6-8.3c-6.9,5.1-16.6,8.3-27.3,8.3c-21,0-38-12.2-38-27.2
		C69,588.3,76.9,579.4,88.5,574.7z"/>
	
		<linearGradient id="SVGID_8_" gradientUnits="userSpaceOnUse" x1="371.0227" y1="517.7988" x2="371.0227" y2="624.5553" gradientTransform="matrix(-1 0 0 1 554.5347 0)">
		<stop  offset="0.3717" style="stop-color:#FFFFFF"/>
		<stop  offset="1" style="stop-color:#D8FFFA"/>
	</linearGradient>
	<path style="fill:url(#SVGID_8_);" d="M235.5,624.6c11.3,0,21.8-3,29.6-8.3l1.4-1l1.4,1c3.1,2.1,7,3.3,11.1,3.3
		c9.2,0,16.7-5.8,16.7-13c0-7.2-7.5-13-16.7-13c-0.5,0-0.9,0-1.5,0.1l-1.8,0.1L275,592c-1.2-3.2-3.4-6.2-6.3-9l-1.3-1.2l0.7-1.6
		c0.3-0.6,0.4-1.2,0.4-1.8c0-3.3-3.8-6.1-8.4-6.1c-0.6,0-1.3,0.1-2,0.2l-3,0.5l0.2-3.1c0-0.2,0-0.4,0-0.5c0-8.4-10.5-15.2-23.4-15.2
		c-0.4,0-0.9,0-1.3,0l-1.7,0.1l-0.7-1.6c-8.8-20.9-32.6-35-59.3-35c-14.4,0-27.9,3.9-39.1,11.3c-10.8,7.1-18.5,17.2-21.8,28.2
		l-0.5,1.8l-1.9-0.1c-0.2,0-0.4,0-0.6,0c-8,0-14.5,4.8-14.5,10.8c0,0.9,0.1,1.8,0.4,2.6l0.8,2.2l-2.2,0.9c-11.1,4.4-18,12.7-18,21.6
		c0,13.7,15.9,24.8,35.5,24.8c9.9,0,19-2.8,25.8-7.8l1.2-0.9l1.4,0.7c10,5.3,21.6,8,33.5,8c11.4,0,22.6-2.6,32.4-7.5l1.4-0.7l1.2,1
		C211.7,621,223.2,624.6,235.5,624.6z"/>
	<path style="fill:#80EDFF;" d="M108.3,555.6c0,0-2.4,15.7,4.6,25.5c-8-8.4-7.3-21.4-7.3-21.4L108.3,555.6z"/>
	<path style="fill:#80EDFF;" d="M91.6,574.7c0,0,3,6.4,7.7,4.9c-5.3,3.3-10.3-3.8-10.3-3.8l0.5-2.5L91.6,574.7z"/>
	<path style="fill:#80EDFF;" d="M269.2,581.2c0,0-8.3-3.4-13.4,3.7c8-5.5,13.9-0.9,13.9-0.9L269.2,581.2z"/>
	
		<linearGradient id="SVGID_9_" gradientUnits="userSpaceOnUse" x1="452.7298" y1="581.0712" x2="452.7298" y2="559.0864" gradientTransform="matrix(-1 0 0 1 554.5347 0)">
		<stop  offset="0.3717" style="stop-color:#FFFFFF"/>
		<stop  offset="1" style="stop-color:#D8FFFA"/>
	</linearGradient>
	<path style="fill:url(#SVGID_9_);" d="M112.9,581.1c-24-2.8-22.3-13.4-22.3-13.4s2.2-8.6,14.8-8.6
		C105.8,568.8,107.6,575.2,112.9,581.1z"/>
</g>
<path style="fill:#279173;" d="M1927.1,880.7c-1.9-1.1-7-2.6-9.6-2.6c-7.1,0-13.4,4.8-16.1,11.8c-1.7-0.4-3.4-0.6-5.2-0.6
	c-9.1,0-17,5.2-20,12.4c-2.2-1.9-4.9-3.1-8-3.1c-5.7,0-10.5,4.2-12,9.9c-2.7-1.1-5.8-1.7-9-1.7c-11.1,0-20.1,7.1-20.5,16
	c-1.2-0.1-2.3-0.2-3.5-0.2c-11.5,0-21.2,5.4-24.1,12.7c-2.9-2.9-7.1-4.7-11.7-4.7c-6.2,0-11.5,3.2-14.1,7.8
	c-2.7-1.2-5.9-1.8-9.2-1.8c-5,0-9.5,1.5-12.9,3.9c-3.7-1.3-8.2-2.1-12.9-2.1c-9.8,0-18.2,3.2-21.7,7.7c-2.3-0.7-4.9-1.1-7.6-1.1
	c-10,0-18.3,5.5-19.7,12.6c-1.6-0.4-3.4-0.6-5.2-0.6c-4.9,0-9.2,1.5-12.3,3.9c-4.1-2.4-9.7-3.9-16-3.9c-5.7,0-10.9,1.2-14.9,3.3
	c-2.8-3.3-7.2-5.5-12.1-5.5c-7.1,0-13,4.4-14.8,10.5c-3-0.9-6.4-1.4-9.9-1.4c-4.2,0-8.2,0.7-11.7,2c-9.7-4.4-20.9-6.9-32.7-6.9
	c-2.4,0-4.7,0.1-7.1,0.3c-2-2.3-5.7-4.1-10.2-4.9c-1.7-4-7.1-7.2-14.2-8.5c0.4-1,0.7-2.1,0.7-3.2c0-5.3-5.2-9.5-11.5-9.5
	c-1.1,0-2.2,0.1-3.2,0.4c-6.1-5.7-14.7-10-24.6-11.8c-1.9-3.9-8.3-6.7-16-6.7c-3.4,0-6.6,0.6-9.2,1.5c-0.7-10-11.6-18-24.9-18
	c-10.4,0-19.3,4.9-23,11.8c-3.6-1.9-8-3.1-12.9-3.5c0,0,0-0.1,0-0.1c0-4.5-5.1-8.2-11.4-8.2s-11.4,3.7-11.4,8.2
	c0,1.8,0.8,3.4,2.1,4.8c-0.6,0.4-1.2,0.8-1.8,1.3c-2.3-1.3-5.1-2-8.2-2c-6.4,0-11.8,3.3-13.2,7.7c-1.6-0.3-3.2-0.5-4.9-0.5
	c-10.6,0-19.2,6.8-19.2,15.1c0,2.1,0.5,4,1.5,5.8c-1.6-0.3-3.3-0.5-5-0.5c-7.3,0-13.6,2.9-16.6,7.2c-2.3-1.2-4.9-1.9-7.7-1.9
	c-3.3,0-6.4,1-9,2.8c-2-3.2-6.5-5.5-11.8-5.5c-7.1,0-12.8,4.1-12.9,9.2c-0.5-0.1-1.1-0.1-1.6-0.1c-5.4,0-10,2.8-11.6,6.6
	c-1.4-1.6-4.2-2.7-7.4-2.7c-2.8,0-5.2,0.8-6.8,2c-1.9-2.8-4.8-4.6-8.2-4.6c-4.6,0-8.6,3.5-9.8,8.2c-2.8-1.3-6-2-9.5-2
	c-7.9,0-14.7,3.8-17.6,9.3c-3.1-2.4-7.3-3.8-11.9-3.8c-5.2,0-9.8,1.9-13,4.8c-0.2-1.2-0.7-2.3-1.4-3.4c1.3-1.4,2-3.1,2-4.9
	c0-4.5-4.5-8.2-10-8.2c-3.4,0-6.4,1.4-8.2,3.5c-5.2-1.6-11.2-2.9-17.9-3.8c-0.3-1.9-3.6-3.3-7.7-3.3c-1.2,0-2.4,0.1-3.4,0.4
	c-0.6-0.5-1.3-0.9-2.1-1.2c-1.4-3.5-5.8-6-11.1-6c-4.4,0-8.2,1.7-10.1,4.3c-0.9-0.5-1.8-0.8-2.8-1c-2.4-0.5-4.9-0.2-7,0.7
	c-1.7-2.4-4.7-4-8.1-4c-3.2,0-6,1.4-7.8,3.6c-0.5-0.5-1.1-0.8-1.8-0.8c-1.5,0-2.7,1.4-2.7,3.2c0,0,0,0,0,0.1
	c-0.6-0.1-1.2-0.2-1.8-0.2c-2.5,0-4.7,1-6,2.6c-1.1-0.4-2.3-0.7-3.6-0.7c-2.5,0-4.8,0.9-6.3,2.3c-0.9-0.6-2.2-1-3.5-1
	c-2.8,0-5,1.5-5.2,3.4c-0.5-0.1-1-0.1-1.5-0.1c-2.2,0-4.2,0.7-5.4,1.7c-1.2-1.1-3-1.7-5-1.7c-3.1,0-5.6,1.6-6.4,3.7
	c-0.6,0.1-1.1,0.3-1.6,0.5c-0.2-0.7-0.7-1.3-1.3-1.8c-0.7-1.9-3.1-3.4-6-3.4c-1.2,0-2.3,0.2-3.2,0.6c0.2-0.5,0.3-1.1,0.3-1.7
	c0-3.1-2.5-5.6-5.8-6.1c0.2-0.5,0.4-1,0.4-1.5c0-2.7-3.6-4.9-8-4.9c0.3-1.8-0.6-3.8-2.4-4.8c-2.5-1.4-5.8-0.8-7.4,1.5
	c-0.7,1-0.9,2.2-0.7,3.4c-0.3,0-0.7-0.1-1.1-0.1c-3.2,0-5.9,1.7-6.3,3.9c-0.8-0.2-1.7-0.3-2.6-0.3c-3.9,0-7,1.9-7,4.3
	c0,0.3,0.1,0.7,0.2,1c-1.7,0.9-2.9,2.4-2.9,4.1c0,0.1,0,0.2,0,0.3c-0.7-0.2-1.5-0.3-2.4-0.3c-0.9,0-1.8,0.1-2.6,0.4
	c-1.4-2.5-4.3-4.3-7.6-4.3c-3.5,0-6.4,1.9-7.7,4.5c-0.2,0-0.5,0-0.7,0c0.1-0.2,0.1-0.4,0.1-0.6c0-1.7-2.7-3.1-6.1-3.1
	c-3.4,0-6.1,1.4-6.1,3.1c0,0.4,0.2,0.8,0.5,1.2c-1-0.3-2.2-0.5-3.4-0.6c0.3-0.7,0.4-1.5,0.4-2.3c0-3.3-2.5-6-5.6-6
	c-2.8,0-5.1,2.2-5.5,5.1c-0.9-0.3-1.9-0.4-3-0.4c-0.7,0-1.5,0.1-2.2,0.2c-0.1,0-0.3-0.1-0.4-0.1c0,0,0-0.1,0-0.1
	c0-3.4-3.1-6.2-6.9-6.2c-2.6,0-4.8,1.3-6,3.1c-1.1-1.1-2.9-1.9-5.1-1.9c-1.5,0-2.9,0.4-4,1c-1.4-0.2-2.9-0.4-4.3-0.7
	c0.1-0.4,0.2-0.7,0.2-1.1c0-2.7-3-4.9-6.6-4.9c-2.6,0-4.8,1.1-5.9,2.7c-1.8-0.7-3.9-1.1-6.2-1.1c-2.7,0-5.2,0.6-7.2,1.6
	c-2.1-0.2-4.1-0.3-6.2-0.5c-0.7-0.2-1.5-0.4-2.3-0.4c-0.5-1.8-2.3-3.1-4.5-3.1c0,0,0,0,0,0c0-0.2,0-0.3,0-0.5c0-5.5-4.9-9.9-11-9.9
	c-4.3,0-8.1,2.3-9.9,5.6c-2.1-1-4.6-1.7-7.4-1.7c-1.8,0-3.4,0.3-4.9,0.7c-2-2.7-6.3-4.5-11.4-4.5c-5.6,0-10.4,2.3-12,5.5
	c-2.4-1.1-5.5-1.7-8.8-1.7c-3.4,0-6.5,0.7-8.9,1.7c-2.4-1.1-5.4-1.7-8.6-1.7c-8.2,0-14.9,4.3-14.9,9.5c0,0.8,0.2,1.6,0.5,2.3
	c-0.4,0-0.7,0-1.1,0c-1.6,0-3.1,0.2-4.6,0.5c0.2-0.5,0.3-1,0.3-1.5c0-4-5.8-7.3-13.3-7.8c0-0.2,0-0.3,0-0.5c0-3.5-4.3-6.4-9.7-6.4
	c-1.7,0-3.3,0.3-4.6,0.8c-3.5-2.4-9.2-3.9-15.6-3.9c-9.2,0-16.9,3.2-18.8,7.4c-3.7-2.6-9.4-4.3-15.8-4.3c-5,0-9.7,1-13.2,2.7
	c-0.4,0-0.8,0-1.2,0c-5.7,0-10.4,2.5-11.2,5.7c0,0-0.1,0-0.1,0c-9.8,0-17.7,3.2-17.7,7.2c0,0.7,0.2,1.3,0.7,1.9
	c-2.5-1-5.7-1.5-9.2-1.5c-8,0-14.5,3.1-14.5,6.9c0,0.4,0.1,0.8,0.2,1.2c-2.5-1-5.5-1.5-8.7-1.5c-4,0-7.7,0.9-10.6,2.4
	c-0.6-5-6.9-8.9-14.5-8.9c-3.3,0-6.4,0.8-8.9,2c-1.4-5.5-8.1-9.6-16.1-9.6c-1.5,0-3,0.2-4.4,0.5c1.6-1.5,2.6-3.4,2.6-5.4
	c0-5.1-6.3-9.3-14-9.3c-0.3,0-0.6,0-0.9,0c-1.6-2.3-5.3-4-9.5-4c-1.5,0-3,0.2-4.2,0.6c-2.2-6.2-10.5-10.9-20.4-10.9
	c-8.4,0-15.6,3.3-19,8.1c-3.2-1.5-7.2-2.4-11.4-2.4c-2.3,0-4.5,0.3-6.6,0.7c0-0.2,0-0.5,0-0.7c0-7.9-8.1-14.3-18-14.3
	c-1.2,0-2.4,0.1-3.5,0.3c-4.2-3.5-11-5.7-18.7-5.7c-10,0-18.5,3.8-21.8,9.1c-2.7-0.9-5.7-1.4-8.8-1.4c-9.5,0-17.6,4.5-20.7,10.8
	c-2.7-1.2-6-2-9.5-2c-5.9,0-11.2,2-14.3,5.2c-2.2-0.6-4.6-0.9-7.1-0.9c-5.9,0-11.2,1.7-14.7,4.3c-2.9-2.5-6.8-4-11.1-4
	c-8.9,0-16.2,6.5-16.2,14.5c0,0.7,0.1,1.4,0.2,2.1c-3.8-0.7-7.8-1.1-12.1-1.1c-0.6,0-1.3,0-1.9,0c-0.9-6.3-6.9-11.2-14.1-11.2
	c-6.6,0-12.1,4-13.8,9.5c-2.3-0.7-4.8-1.1-7.4-1.1c-8.4,0-15.5,4-18.2,9.5c-0.4,0-0.8,0-1.2,0c-3.7,0-7.2,0.5-10.4,1.4
	c0.3-1.3,0.5-2.7,0.5-4.1c0-4.6-1.8-8.9-4.9-12.4c2.2-2.1,3.5-4.7,3.5-7.5c0-7.3-8.9-13.1-19.9-13.2c-3.1,0-6,0.5-8.6,1.3
	c-0.2-0.1-0.5-0.2-0.7-0.3c0.5-1,0.8-2.2,0.8-3.3c0-6.1-8.4-11.1-18.7-11.1c-9.1,0-16.7,3.9-18.3,9c-0.1,0-0.2,0-0.3,0
	c-5.7,0-11,1.3-15.1,3.4c-1.9-7.2-8.1-12.4-15.5-12.4c-7.7,0-14.2,5.8-15.8,13.5c-8.3,0.5-15.7,3.1-21.5,7.1
	c-0.9-0.1-1.8-0.1-2.8-0.1c-7.6,0-13.9,3.2-14.9,7.3c-4.7,0.4-9.3,1.3-13.5,2.5c-3.6-2.3-8.3-3.8-13.5-3.8c-8.1,0-15.1,3.5-18.3,8.5
	c-7.6,2.1-13.3,8.2-14.5,15.9c-3.3,0.8-7.3,2.1-10.1,3.7l0.3,137.6l1926.8,0.5L1927.1,880.7z M541.2,938.9
	C541.2,938.9,541.2,938.9,541.2,938.9C541.2,938.9,541.2,938.9,541.2,938.9C541.2,938.9,541.2,938.9,541.2,938.9z M633.1,956
	c-0.4-0.1-0.8-0.2-1.2-0.3c0.7-0.1,1.3-0.3,1.9-0.4C633.6,955.5,633.3,955.7,633.1,956z M641.1,949.3c0-0.7-0.2-1.4-0.7-2
	c0.7,0.3,1.6,0.6,2.4,0.8C642.1,948.4,641.6,948.8,641.1,949.3z M698.7,939.3c0-0.1,0.1-0.2,0.1-0.4c0.1,0.1,0.2,0.1,0.3,0.2
	C699,939.2,698.9,939.2,698.7,939.3z M948.2,954.7c-0.2-0.1-0.4-0.1-0.7-0.2c0.3,0,0.5,0.1,0.8,0.1
	C948.3,954.6,948.3,954.7,948.2,954.7z M1284.6,959.6c0-0.1,0-0.2,0-0.3c0,0,0-0.1,0-0.1c0.1,0,0.2,0,0.3,0
	C1284.8,959.4,1284.7,959.5,1284.6,959.6z M1520.7,969c-0.5,0-1,0-1.5,0c0-0.1,0.1-0.1,0.1-0.2c0.5,0,1.1,0,1.7,0
	C1520.8,968.9,1520.7,968.9,1520.7,969z M1668.6,981.6c-0.2-0.1-0.3-0.2-0.5-0.3c0.4-0.2,0.8-0.3,1.2-0.5
	C1669,981.1,1668.8,981.4,1668.6,981.6z M1801.8,952c-0.3-0.1-0.6-0.1-0.9-0.2c0.4-0.7,0.8-1.4,1.1-2.2c0.6,0.6,1.2,1.2,1.8,1.7
	C1803.2,951.5,1802.5,951.8,1801.8,952z"/>
<path style="fill:#23AB77;" d="M-1,947.3c2.3-3.3,13-5.3,14-6.6c1-1.3-0.7-9.5,6-11.5c6.7-2,7-3.6,14.7-5.6c7.7-2,10-1.3,16.7,0
	c6.7,1.3,5-4.9,15.7-4.9s13,0.3,16,0c3-0.3,3.3-7.2,10.7-9.5c7.3-2.3,9.7,3,17.4-3c7.7-5.9,14.3-13.5,20-8.6
	c5.7,4.9,14.4,15.1,16.7,12.2c2.3-3,3.3-10.5,13.4-10.5c10,0,28.1,7.2,28.1,7.2s5.7-5.3,14.7-0.3c9,4.9,8.7,4.9,7.7,11.8
	c-1,6.9,3.9,11.2,4.6,16.1c0.7,4.9,5.7,20.4-3.3,7.2c-9-13.2-18.7-20.7-23-19.7c-4.3,1-9.4,9.8-9.4,9.8s-3.3-9.5-10.7-9.8
	c-7.3-0.4-16.7,3.9-18.7,5.2c-2,1.3-10-2.3-13.4-1c-3.3,1.3-16.7,7.2-17.7,9.2c-1,2-20.4-2.6-27.1-1c-6.7,1.6-13.4,9.5-14.4,9.9
	c-1,0.3-10.9-4.9-16.5-5.9c-5.6-1-14.3,3.9-14.3,3.9s-10.4-5.3-14.7-1.6s-11,9.5-11,9.5s-3-0.3-9.4,0c-6.3,0.3-10.4,7.6-10.4,7.6
	L-1,947.3z"/>
<path style="fill:#23AB77;" d="M220.2,940.1c0,0,3.4-1,7.1-1c3.7,0,4.2,2.6,5.2-1.5c1-4.1,1.8-6.4,7-7.2c5.2-0.8,14.7-1,16,0
	c1.3,1,2.3-5.4,8.9-6.1c6.5-0.7,15.4,4.3,16.4,5.4c1,1.2,3,3.1,3.7,3.1c0.7,0,9-1.5,14.9,0c5.8,1.5,0.2-3.9,4.2-8.6
	c4-4.7,11.4-7.3,18.5-4.5c7.2,2.8,5.8,4.6,10.9,2.3c5-2.3,7-3.3,12-2.3c5,1,7.3-3.8,17.2-4.3c9.9-0.5,11.7,0.2,15.7,0.8
	c4,0.7,8.4-4.9,13.7-5.4c5.3-0.5,15.2,0.8,15.2,0.8s-9.9,1.2-11.7,7.9c-1.8,6.7-3.5,14.8-3,17.1c0.5,2.3-15.7-9-19.7-5.8
	c-4,3.3-8.5,15.1-8.7,15.8c-0.2,0.7-20.9-6.4-26.6-5.6c-5.7,0.8-15.7,9.5-17.2,9.9c-1.5,0.3-6.3-3.1-13.5-3.3
	c-7.2-0.2-12.4-2.6-19.2,0.2c-6.8,2.8-15.5-4.4-19.9-5.8c-4.3-1.3-11.9-2.6-16,2.1c-4.2,4.8-6,7.6-11.2,6.8
	c-5.2-0.8-7.2-2.3-10.4-2.7C226.4,948,220.2,940.1,220.2,940.1z"/>
<path style="fill:#23AB77;" d="M404.6,902.1c1-0.7,10.8-3.2,14.3-3.9c3.5-0.7,15.2-0.2,17.5,2c2.3,2.2,7.8-1.7,12.6,3.5
	c4.8,5.2,8.3,11.8,8.3,11.8s4-2.5,10.5,0c6.5,2.5,15,5.4,19.8,10.1c4.8,4.7,9.8,15.8,9.8,15.8l9,11.8c0,0,5.5-5.2,14.3,2
	c8.8,7.2,8.8,16.8,8.8,16.8s-3.5-13.1-12-13.1c-8.5,0-18,3-18,3s0-6.2-8.3-12.6c-8.3-6.4-14.5-6.2-14-8.1c0.5-2,4.5-9.4-3-14.3
	c-7.5-4.9-17-5.7-18.3-5.7c-1.3,0,0-0.7-4.5-5.7c-4.5-4.9-7.8-8.1-11.8-8.1c-4,0-9.8,1.7-9.8,1.7s6-0.2-2-3.7
	C419.6,901.8,404.6,902.1,404.6,902.1z"/>
<path style="fill:#23AB77;" d="M483.1,915.9c1.3-1.1,9.3-4.2,13-4.9c3.6-0.7,13.6-1.6,15.4,1.4c1.9,3,6.4,6.9,6.4,6.9h4.1
	c0,0,8.3,2.2,10.3,3.1c2,1,9.3,1.1,11,2.6c1.8,1.5,1.9,6.7,1,7.5c-0.9,0.9-3.3-4.7-5.8-4.3c-2.5,0.4-7.9,1.5-9.3,1.5
	s-0.5-0.9-6.6-3.3c-6.1-2.5-11.1-0.5-11.9-3c-0.8-2.5-4-9-8.1-9.1C498.5,914.2,483.1,915.9,483.1,915.9z"/>
<path style="fill:#23AB77;" d="M527.7,940.5c0,0,4.8-1.6,9.4-2.1c4.5-0.5,9.7,0.5,12.4,0c2.8-0.5,7.9,0.5,10.9,3.5
	c3,3,5.9,7.1,6.8,6.5c0.9-0.6,4.8-3,10.1,0c5.4,3,12.3,7,12.3,7s6-3.7,11.4-3.2c5.4,0.5,11.5,1.9,12,1.4c0.5-0.5,9.4-5.9,13.5-6.8
	c4.1-0.9,15.9-5.2,15.9-5.2s-7.9,3.2-10,7.3c-2.1,4.1-9.8,1-12.8,6.5c-3,5.5-3,14-4.4,13c-1.4-1-2.8-6.9-12-6.5
	c-9.3,0.4-13.5,5.2-16.9,1.6c-3.4-3.6-7.5-8.6-17.3-9.4c-9.8-0.7-13.9-0.7-13.9-1.2c0-0.5,1.5-7.8-5.4-9c-6.9-1.2-11.6-0.6-13.3-0.5
	C534.8,943.4,527.7,940.5,527.7,940.5z"/>
<path style="fill:#23AB77;" d="M643.3,943.7c0.8,0,3.3-3.7,6.8-5c3.5-1.3,4-6.6,9-6.9c5-0.2,12.3-3,17.3-2.3c5,0.7,13,5.5,13,5.5
	s-0.6-4.1,5.2-5.5c5.9-1.4,10.1-4.8,17.4-3.1c7.3,1.7,12,3.5,12,3.5s3.8-3.7,6.8-0.7c3,3,6.5,6.3,6.5,6.3s4.8-0.9,8.5,2.7
	c3.8,3.6,4.8,9.1,4.8,9.1l9.8-2.3c0,0-6-3.5,1-6.8c7-3.3,3.8-6.5,13.3-3.3c9.5,3.2,15.8,4.5,16,4.5c0.3,0,0.5-6,8.8-3.7
	c8.3,2.2,11.5-2,16.3-2.2c4.8-0.2,14.3,5.2,15.8,6c1.5,0.7,5-4.7,11.3-4.2c6.3,0.5,13.3,5.4,14.5,7.9c1.2,2.5,9.3,6.3,9.3,6.3
	s10.8-0.6,13-1c2.3-0.4-6,5-6,5s4.8,1.3,8,5.3c3.3,3.9,8.5,13.1,8.5,13.1s-6.3-3.2-10-6.2c-3.8-3-10-7.4-14.3-7.9
	c-4.3-0.5-6.2,1.4-8.5-2.3c-2.3-3.7-7.3-7.9-16.3-6c-9,1.9-11.3,8.5-16.8,8c-5.5-0.5-16.3-4.7-18.3-5.7c-2-1-11.3-8.6-14.3-6.6
	c-3,2-4.8-0.3-11.8,5.7c-7,5.9-7.8,7.6-15.5,7.6c-7.8,0-21,3.2-26.1,1.7c-5-1.5-12.8-4.8-16-5.4c-3.3-0.6-6.8-10.1-1-9.7
	c5.8,0.5-4.8-7.7-7-8.4c-2.3-0.7-12.8,0.8-15.8,2.4c-3,1.6-6.6,3.5-9.1,3.1c-2.4-0.5-8.5-3.2-12-3.8c-3.5-0.6-12,1.4-13,2.6
	c-1,1.2-3.3,1.3-6.5,0.8c-3.3-0.5-8.3,0.9-8.3,2.1C649.6,948.6,643.3,943.7,643.3,943.7z"/>
<path style="fill:#23AB77;" d="M891.3,958.3c0.8-1.8,3.8-7.7,8-7.7s7.7-0.1,10.4-1.8c2.7-1.7,8.2,1.4,9,1.8c0.8,0.3,3.3,4.6,8.4,2.7
	c5-1.9,7.9-5,9.5-1.2c1.7,3.9,5.6,7.2,7.1,6.2c1.4-1,2.4-1.8,6-1.5c3.5,0.3,5.7-4.3,9.4-4.6c3.7-0.3,9.5,4.1,10.7,4.1
	c1.2,0,2.3,3.7,5.3-1.9c3-5.5,5.5-6.5,7-7c1.5-0.5,6-2.5,9.5-3.8c3.5-1.3,4.8-5.9,10-3.8c5.2,2.1,6.7,8.9,6.7,8.9s4.5,0.6,5.2,4.1
	c0.7,3.5,4,1.6,7.3,4.3c3.3,2.6,4.6,5.9,6.6,5.9s1.3-4.3,6.1-4.4c4.8-0.2,12.9-1,15.9,2c3,3,7-1.2,9.5-2.3c2.5-1.2,3.3-9.5,8.4-1.6
	c5,7.9-1.8,9.9-2.2,8.2c-0.3-1.6,2.3-4.9-2-3.3c-4.3,1.6-6.5,2.8-6.7,5.3c-0.2,2.5,0.3,5.9-0.5,4.8c-0.8-1.2-2.2-5.3-5.2-6.1
	c-3-0.8-10.9,2.1-10.9,2.1s-2.3-3.5-3.3-3c-1,0.5-7.3,3.8-7.7,4.6c-0.3,0.8-6.8-2.8-10.5-2.8c-3.7,0-10.7,3.9-10.7,3.9
	s4.3-8.2-0.8-10.5c-5.2-2.3-14.5-0.5-14.5-0.5s3.5-4.1-2.5-3.9c-6,0.2-13,6.2-13.7,6.8c-0.7,0.7-5-3.8-5.7-3.6
	c-0.7,0.2-7.7,3.6-7.7,4.1c0,0.5,1.2-4.6-3.7-4.6c-4.8,0-9.4,4.8-9.4,4.8s0.1,6.1-4.4,2.8c-4.5-3.3-4.5-5.3-7.3-4.6
	c-2.8,0.7-7.3,5.1-7.3,5.1s4.2-6.4-4.8-6.6c-9-0.2-11.2,1.2-11.5,1.6c-0.3,0.5,7-5.3-3.7-5.8c-10.7-0.6-13.4,1.4-13.4,1.4
	L891.3,958.3z"/>
<path style="fill:#23AB77;" d="M1078.7,959.3c1.5-0.5,13.4-8.4,22.2-9.9c8.8-1.5,13.1,4.9,13.1,4.9s8.5-3.7,14-1.2
	c5.5,2.5,14.8,9.4,14.8,9.4s7-8.6,13-5.4c6,3.2,11.8,12.2,11.8,12.2s-3.5,8.2,4.8,7.5c8.3-0.7,20.5,6.4,21.5,7.6
	c1,1.2,5.3,5.7,14.8,4.9c9.5-0.7,16.3,7.4,17.8,10.6c1.5,3.2,1.3-4.4,8.8,0c7.5,4.4,14.5,20,14.5,20s-14-10.5-18-9
	c-4,1.6-10.8,3.3-10.8,3.3s0-11.6-7.8-14.1c-7.8-2.5-20.3,2.7-20.3,2.7s-1.3-4.8-7.8-6.6c-6.5-1.8-23.8,2.9-23.8,2.9
	s-15-4.1-17.5-2.9c-2.5,1.2-23,10.3-23,10.3s-5.8-10.4-18.5-2.5c-12.8,7.9-17.8,14.1-17.8,14.1s2.8-11.8-6.8-7.2c-9.5,4.5-15,9-15,9
	s-10.8-2.2,2.3-12.6c13-10.4,23.5-8.6,23.5-8.6s-1.8-13.6,14-12.8c15.8,0.7,27.8,0.7,27.8,0.7s10.3-9.4,12-9.9
	c1.8-0.5-13-12.6-19.5-10.4c-6.5,2.2-6.5-3.9-16-4.2c-9.5-0.2-18.8,4.2-18.8,4.2s3-6.3,0.3-7
	C1085.5,958.8,1078.7,959.3,1078.7,959.3z"/>
<path style="fill:#23AB77;" d="M1205.5,978c1-3.7,7.5-8.6,12.2-9.4c4.7-0.8,4.8,2.3,10.9-2.7c6-4.9,17.2-4.1,17.2-4.1
	s9.5-1.8,11.7-1.5c2.2,0.3,3.3,3.9,6.7-1c3.3-4.9,14.2-3.1,14.2-3.1s10.2-9.5,20.2-3.5c10,6.1,15.4,5.4,16.2,0.5
	c0.8-4.9,21.2-7.2,22-7.2c0.8,0,0.8-7.1,0-12.5c-0.8-5.4,6.7-11,12.4-11.2c5.7-0.2,19.5,2,19.5,2s-9.6-2-1.8-6.2
	c7.8-4.2,24.6-1.9,24.6-1.9s1.3-6.5,8.8-5c7.5,1.5,21.8,1.7,21.8,1c0-0.7,5-6.4,9.5-7.4c4.5-1,11.5-5.4,15,0
	c3.5,5.4,12.5,18.3,13.3,18.7c0.8,0.5,4.5-3.9,9-0.2c4.5,3.7,10.5,18.5,10.5,19.2c0,0.7-12.5-10.9-15.8-9.1
	c-3.3,1.7-3.8-8.9-15-10.1c-11.3-1.2-23.3,6.2-23.3,6.2s-4.5-11.3-19.3-6.2c-14.8,5.2-16.8,11.8-16.8,11.8s-9.8-8.9-14.5-6.4
	c-4.8,2.5-10,12.3-10,12.3s-7.3-4.8-10.5-1c-3.3,3.7-6.5,14.8-6.5,14.8s-16-7.8-22.8,2.3c-6.8,10.1-11,15.3-11,15.3s3-4.7-13-7.4
	c-16-2.7-24.8,4.7-24.8,4.7s-8-5.2-17-3.7c-9,1.5-14,8.9-14,8.9s-8-4.1-15.5-2.7s-13,5.8-13,5.8H1205.5z"/>
<path style="fill:#23AB77;" d="M1366.8,996.4c6.7-8.6,32.1-29.3,43.1-27.5c11,1.8,10-7.2,18.7-11.7c8.7-4.6,22.7,0,22.7,0
	s1.3-4.6,11.4-6.2c10-1.6,22,1.3,22,1.3s-3-6.6,12-6.9c15-0.3,22.4,5.6,22.4,5.6s18,3,19.3,4.6c1.3,1.6,8.4,9.9,8.4,9.9
	s6.7-5.6,15.4-3c8.7,2.6,20.7,8.4,20.7,8.4s3-3.5,10.7-2c7.7,1.5,18,10.4,18,10.4s-12.4-6.2-18.7-1.6c-6.3,4.6-15.7,10.9-15.7,10.9
	s9.4-12.2-12.7-10.9c-22,1.3-26.7,3-26.7,3s-7.7-10.7-16.4-12c-8.7-1.3-17,3.7-17,3.7s-1-8.6-15.2-9.2c-14.2-0.7-29.6,2.3-30.2,3.9
	c-0.7,1.6-13.4-1.6-17.7,0c-4.3,1.6-12.7,10.2-13.7,12.2c-1,2-10.7-4.9-17.7-1.6c-7,3.3-12.4,11.8-12.4,11.8s-4.9-2.5-13.7-2
	C1375.1,988,1366.8,996.4,1366.8,996.4z"/>
<path style="fill:#23AB77;" d="M1920,888.1c-0.7-1-1.7-5.9-10,0c-8.4,5.9-12,10.9-12,10.9s-10.7-2.3-13.7,0c-3,2.3-14,17.3-14,17.3
	s-9-5.1-14-1.5c-5,3.6-9,9.2-9,9.2s-13,3.9-18.7,3.9c-5.7,0-12.4,0-13.7,3.9c-1.3,3.9-6.7,6.8-8,8c-1.3,1.2-8.7,1.5-13,2.8
	c-4.3,1.3-7.3,7.5-13,6.7c-5.7-0.8-24.1-3.2-33.1,0c-9,3.2-14.4,9.8-15.7,9.8c-1.3,0-14-1.7-18.7-2c-4.7-0.3-20.4,10.5-21,11.5
	c-0.7,1-18.4,0-25.4,0.2c-7,0.2-19.4,5.1-20.7,6.8c-1.3,1.6-12.4,13.2-12.4,13.2s1.3-0.7,7.3-2.3c6-1.6,28.7-3.6,32.1,0
	c3.3,3.6,12.7,15.5,12.7,15.5s-6.7-8.6,12-9.2c18.7-0.7,26.4,3.9,26.7,2.3c0.3-1.6-10.7-16.4,7-24.2c17.7-7.7,45.3-3.5,45.3-3.5
	s9.2,8.6,9.2,10.2c0,1.6-5.8-9.5,10.2-15.5c15.9-5.9,35.9-0.7,35.9-0.7s3-13.5,13.4-14.8c10.4-1.3,25.4,3.9,25.4,3.9s2.3-6,9.4-10.7
	c7-4.7,15-7.7,16.7-8.3c1.7-0.7,11.4-6.2,13-10.9c1.7-4.6-1.3-19.4,1.7-21.7C1914.6,896.7,1920,888.1,1920,888.1z"/>
<path style="fill:#C7D93B;" d="M229.5,1034.8c4-1.9,9.8-8.9,51,0c41.2,8.9,112.2,17.6,134.3,13.9c22-3.7,53.9-20.3,92.9-12.6
	c39.1,7.7,35.5,24.2,9,24.2c-26.4,0-57.9-8.9-70.9,0c-13,8.9-33,15.9-54.5,15.9c-21.5,0-55.5-12.8-70-12.8
	c-14.5,0-34.7,1.3-54.3,6.4c-19.5,5.1-42.3,15.9-49.2-0.6c-6.9-16.6,9.4-31.9,9.4-31.9L229.5,1034.8z"/>
<path style="fill:#C7D93B;" d="M602.6,1060.3c4-8.1,53.4-26.8,81.5-25.9c28.1,0.8,69.5,6.3,118.2,12.9c48.8,6.6,39.4,7.2,97.5,6.9
	c58.1-0.3,123.6,2.6,150.3-6.9c26.7-9.5,124.3-9.5,128.3-7c4,2.6,1.3,17.9-42.1,23.8c-43.4,6-99.8,3.4-129.4,8.5
	c-29.6,5.1-43.6,5.8-89.7,5.5c-46.1-0.4-77.5-10.6-116.2-11.4c-38.7-0.9-77.2-7.7-106.4-0.9c-29.2,6.8-66,13.5-74,12.3
	C612.6,1076.9,602.6,1060.3,602.6,1060.3z"/>
<path style="fill:#C7D93B;" d="M853.1,1029.7c10.7-8.1,17.4-9.8,70.1-9.8c52.8,0,84.2,6.9,74.2,9.8c-10,2.9-60.8,8.9-76.2,8.9
	C905.9,1038.6,853.1,1029.7,853.1,1029.7z"/>
<path style="fill:#C7D93B;" d="M1209.1,1060.7c26.7,0.9,103.5-26.3,85.5-31.4c-18-5.1-79.5-5.1-69.5-9.4c10-4.3,45.4-6.9,76.2-4.7
	c30.7,2.2,82.2,12.7,120.9,15.1c38.7,2.4,105.6-18,112.2-10.4c6.7,7.7,22,34.5-36.1,36.4c-58.1,1.9-74.8-4.9-106.9,4
	c-32.1,8.9-68.1,21-102.9,17.9c-34.7-3-72.3,2.1-89.3-4.7C1182.4,1066.7,1209.1,1060.7,1209.1,1060.7z"/>
<path style="opacity:0.1;" d="M328.4,1004.6c2-0.4,3.1,7.2,12.6,16c9.5,8.8,14.2,10.4,25,10.6c10.8,0.2,12.2,5.4,24.6,6.4
	c12.4,1,27,1.8,36.5-2.7c9.4-4.5,31.4-11.4,38-12.6c6.7-1.1,22.9-19.1,20.2-22.8c-2.7-3.7-10.9-2.4-23.9-1.1
	c-13,1.3-20.2,1.8-33-5.6c-12.8-7.3-13.3-5-24.7-3.4c-11.3,1.6-9.5,5.5-27.4,6c-17.9,0.5-27.6-10.5-33.5-7.7
	C336.9,990.7,328.4,1004.6,328.4,1004.6z"/>
<path style="fill:#E0F04B;" d="M1926.2,1012.4c0,0-2.2-4.2-4-7.1c-1.8-3-5-4-5-4s2.2,5.4,0,7.8c-2.2,2.5-7.5,3.1-7.5,3.1
	s-1.4-1-1.2-2.8c0.2-1.8,1.2-2.7,1.2-2.7s-3.8,1.1-5.6,3.2c-1.8,2.1-2.8,4.1-2.8,4.1s-4.4-1.6-6.2-3.8c-1.8-2.1-1.8-6.6-1.8-6.6
	s-4.8,5.6-5,7.2c-0.2,1.6-2.6,1.5-3.6,0.3c-1-1.1-3.8-9.2-3.8-9.2s0,5.9-1.2,8.7c-1.2,2.8-3,1.3-4,0c-1-1.3-1.2-2.2-1.2-2.2
	s-2.2,3.1-2.2,3.2c0,0.2-1-1.1-0.7-2.6c0.3-1.5,1.7-3.7,1.7-3.7s-2.6,1.6-3.7,3.2c-0.8,1.2-1.2,2.5-1.3,3.1c0.1-0.6,0-2-2.3-2.4
	c-2.9-0.5-1,0.1-0.8,1c0.2,0.9-0.3,2.3-0.3,2.3s-3.7,0.4-4.4-0.4c-0.7-0.9,0-3.1,0-3.1s-3.4,2-4,2.5c-0.5,0.5-0.6-1.5-2.6-2.3
	c-1.9-0.8-4.2-1-4.2-1l2.1,3.2c0,0-1.9,1.4-4-0.2c-2-1.5-0.7-6.5,0-7.3c0.7-0.8,1.6-2.1,1.6-2.1s-3.4,2.4-4.7,4.5
	c-1.3,2.1-1.8,5.2-1.8,5.2s-1,0.6-2-0.4c-1-1-3.4-1.5-3.4-1.5v1.7c0,0-2.1-1.3-1.9-2.6c0.2-1.3,0.7-2.7,0.3-2.6
	c-0.3,0.1-2.3,1-2.7,3.2c-0.1,0.5-0.2,0.9-0.3,1.3c-0.7-1.4-2-3.8-3.2-5.7c-1.8-2.9-4.9-3.8-4.9-3.8s2.2,5.3,0.1,7.8
	c-0.1-0.1-0.1-0.1-0.2-0.2c-1.2-1-1.7-1.2-1.7-1.2s0.3,0.9,0.5,1.7c0.1,0.3,0,0.6,0,0.9c-0.6,0.4-1.3,0.7-1.9,1
	c-0.2-0.4-0.5-1-0.7-1.1c-0.4-0.2,0-0.2-0.3,0.5c-0.3,0.7-1.3,1.1-1.6,1c-0.3-0.2-0.9-2.4-0.9-2.4s-0.8,1.8-0.8,2.1
	c0,0,0,0.4,0.1,0.9c-0.3-0.2-1.3-1.2-1.1-2.7c0.2-1.8,1.2-2.7,1.2-2.7s-3.8,1.1-5.6,3.2c-1.8,2.1-2.8,4.1-2.8,4.1s-4.4-1.6-6.2-3.8
	c-1.8-2.1-1.8-6.6-1.8-6.6s-4.8,5.6-5,7.2c-0.2,1.6-2.6,1.5-3.6,0.3c-1-1.1-3.8-9.2-3.8-9.2s0,5.9-1.2,8.7c-1.2,2.8-3,1.3-4,0
	c-1-1.3-1.2-2.2-1.2-2.2s-2.2,3.1-2.2,3.2c0,0.2-1-1.1-0.7-2.6c0.3-1.5,1.7-3.7,1.7-3.7s-2.6,1.6-3.7,3.2c-0.8,1.2-1.2,2.5-1.3,3.1
	c0.1-0.6,0-2-2.3-2.4c-2.9-0.5-1,0.1-0.8,1c0.2,0.9-0.3,2.3-0.3,2.3s-3.7,0.4-4.4-0.4c-0.7-0.9,0-3.1,0-3.1s-3.4,2-4,2.5
	c-0.5,0.5-0.6-1.5-2.6-2.3c-1.9-0.8-4.2-1-4.2-1l2.1,3.2c0,0-1.9,1.4-4-0.2c-2-1.5-0.7-6.5,0-7.3c0.7-0.8,1.6-2.1,1.6-2.1
	s-3.4,2.4-4.7,4.5c-1.3,2.1-1.8,5.2-1.8,5.2s-1.9,0.6-2.9-0.4c-1-1-4.3-1.5-4.3-1.5v1.7c0,0-1.2-1.3-1-2.6c0.2-1.3,1.1-2.7,0.8-2.6
	c-0.3,0.1-2.1,1-2.5,3.2c-0.4,2.2-0.3,2.9-0.3,2.9s-2.6-1.2-2.9-1.6c-0.4-0.4-0.6-1.1-0.6-1.3c0-0.2,0.1-1.2,0-1.2
	c-0.1,0-1.3,0.6-1.7,1.6c-0.4,1-0.5,2.1-0.5,2.1s-0.8-0.5-1.1-1.2c-0.3-0.7,0.1-1-1.2-2c-1.2-1-1.7-1.2-1.7-1.2s0.3,0.9,0.5,1.7
	c0.2,0.8-0.3,2.2-0.5,2.2c-0.1,0-0.3,0-0.6,0.1c0-0.2,0-0.3,0-0.3c0-0.3-0.8-2.1-0.8-2.1s-0.2,0.8-0.4,1.4c-0.1-0.2-0.3-0.4-0.4-0.5
	c-0.4-0.2,0-0.2-0.3,0.5c-0.1,0.3-0.4,0.5-0.7,0.7c-0.3-0.2-0.5-0.4-0.7-0.7c-0.3-0.7,0.1-0.7-0.3-0.5c-0.1,0.1-0.3,0.3-0.4,0.5
	c-0.2-0.7-0.4-1.4-0.4-1.4s-0.8,1.8-0.8,2.1c0,0,0,0.1,0,0.3c-0.2,0-0.5-0.1-0.6-0.1c-0.2,0-0.7-1.4-0.5-2.2
	c0.2-0.8,0.5-1.7,0.5-1.7s-0.5,0.1-1.7,1.2c-1.2,1-0.8,1.4-1.2,2c-0.3,0.7-1.1,1.2-1.1,1.2s-0.1-1.1-0.5-2.1c-0.4-1-1.6-1.5-1.7-1.6
	c-0.1,0,0,1,0,1.2c0,0.2-0.3,0.9-0.6,1.3c-0.4,0.4-2.9,1.6-2.9,1.6s0-0.8-0.4-2.9c-0.4-2.2-2.2-3.1-2.6-3.2
	c-0.3-0.1,0.6,1.3,0.8,2.6c0.2,1.3-1.2,2.6-1.2,2.6v-1.7c0,0-3.1,0.5-4.1,1.5c-1,1-2.7,0.4-2.7,0.4s-0.6-3.2-1.8-5.2
	c-1.3-2.1-4.7-4.5-4.7-4.5s0.9,1.3,1.6,2.1c0.7,0.8,2,5.8,0,7.3c-2,1.5-4,0.2-4,0.2l2.1-3.2c0,0-2.2,0.2-4.2,1
	c-1.9,0.8-2,2.8-2.6,2.3c-0.5-0.5-4-2.5-4-2.5s0.7,2.2,0,3.1c-0.7,0.9-4.4,0.4-4.4,0.4s-0.5-1.5-0.3-2.3c0.2-0.9,2.1-1.5-0.8-1
	c-2.3,0.4-2.3,1.8-2.3,2.4c-0.1-0.6-0.5-1.9-1.3-3.1c-1.1-1.5-3.7-3.2-3.7-3.2s1.3,2.2,1.7,3.7c0.3,1.5-0.7,2.7-0.7,2.6
	c0-0.2-2.2-3.2-2.2-3.2s-0.2,1-1.2,2.2c-1,1.3-2.8,2.8-4,0c-1.2-2.8-1.2-8.7-1.2-8.7s-2.8,8-3.8,9.2c-1,1.1-3.4,1.3-3.6-0.3
	c-0.2-1.6-5-7.2-5-7.2s0,4.4-1.8,6.6c-1.8,2.1-6.2,3.8-6.2,3.8s-1-2-2.8-4.1c-1.8-2.1-5.6-3.2-5.6-3.2s1,0.9,1.2,2.7
	c0.2,1.8-1.2,2.8-1.2,2.8s-5.2-0.7-7.4-3.1c-2.2-2.5,0.1-7.9,0.1-7.9s-3.1,0.9-4.9,3.8c-1.5,2.5-3.1,5.6-3.6,6.6
	c-0.3,0-0.6-0.1-0.7-0.1c-0.2,0-0.7-1.4-0.5-2.2c0.2-0.8,0.5-1.7,0.5-1.7s-0.5,0.1-1.7,1.2c-1.2,1-0.8,1.4-1.2,2
	c-0.3,0.7-1.1,1.2-1.1,1.2s-0.1-1.1-0.5-2.1c-0.4-1-1.6-1.5-1.7-1.6c-0.1,0,0,1,0,1.2c0,0.2-0.3,0.9-0.6,1.3
	c-0.4,0.4-2.9,1.6-2.9,1.6s0-0.8-0.4-2.9c-0.4-2.2-2.2-3.1-2.6-3.2c-0.3-0.1,0.6,1.3,0.8,2.6c0.2,1.3-1.1,2.6-1.1,2.6v-1.7
	c0,0-3.1,0.5-4.1,1.5c-1,1-2.7,0.4-2.7,0.4s-0.6-3.2-1.8-5.2c-1.3-2.1-4.7-4.5-4.7-4.5s0.9,1.3,1.6,2.1c0.7,0.8,2,5.8,0,7.3
	c-2,1.5-4,0.2-4,0.2l2.1-3.2c0,0-2.2,0.2-4.2,1c-1.9,0.8-2,2.8-2.6,2.3c-0.5-0.5-4-2.5-4-2.5s0.7,2.2,0,3.1
	c-0.7,0.9-4.4,0.4-4.4,0.4s-0.5-1.5-0.3-2.3c0.2-0.9,2.1-1.5-0.8-1c-2.3,0.4-2.3,1.8-2.3,2.4c-0.1-0.6-0.5-1.9-1.3-3.1
	c-1.1-1.5-3.7-3.2-3.7-3.2s1.3,2.2,1.7,3.7c0.3,1.5-0.7,2.7-0.7,2.6c0-0.2-2.2-3.2-2.2-3.2s-0.2,1-1.2,2.2c-1,1.3-2.8,2.8-4,0
	c-1.2-2.8-1.2-8.7-1.2-8.7s-2.8,8-3.8,9.2c-1,1.1-3.4,1.3-3.6-0.3c-0.2-1.6-5-7.2-5-7.2s0,4.4-1.8,6.6c-1.8,2.1-6.2,3.8-6.2,3.8
	s-1-2-2.8-4.1c-1.8-2.1-5.6-3.2-5.6-3.2s1,0.9,1.2,2.7c0,0.2,0,0.4,0,0.5c-0.7-1.4-1.8-3.3-2.8-5c-1.8-2.9-4.9-3.8-4.9-3.8
	s2.3,5.5,0.1,7.9c-0.2,0.2-0.3,0.3-0.5,0.5c-0.2-0.2-0.3-0.3-0.5-0.5c-2.2-2.5,0.1-7.9,0.1-7.9s-3.1,0.9-4.9,3.8
	c-1,1.6-2,3.4-2.7,4.8c0-0.1-0.1-0.1-0.1-0.2c0,0,0-0.1,0-0.1c0.2-1.8,1.2-2.7,1.2-2.7s-1,0.3-2.3,0.9c-0.5-0.9-1-1.8-1.5-2.6
	c-1.8-2.9-4.9-3.8-4.9-3.8s2.3,5.5,0.1,7.9c-1.1,1.2-3,2-4.6,2.5c-0.6-0.4-1.1-0.8-1.5-1.3c-0.8-0.9-1.2-2.2-1.5-3.4
	c0.1-0.1,0.1-0.1,0.1-0.1s-0.1,0-0.1,0c-0.3-1.6-0.3-3.1-0.3-3.1s-2.6,3-4,5.2c-0.4,0.3-0.8,0.7-1.1,1c-0.7,0.8-1.2,1.5-1.6,2.2
	c-0.7,0-1.4-0.3-1.9-0.9c-1-1.1-3.8-9.2-3.8-9.2s0,5.9-1.2,8.7c0,0,0,0,0,0c-0.2-0.2-0.4-0.3-0.5-0.5c-1.8-2.1-1.8-6.6-1.8-6.6
	s-4.8,5.6-5,7.2c0,0.2-0.1,0.4-0.2,0.6c-0.3-0.4-0.7-1.3-0.5-2.3c0.3-1.5,1.7-3.7,1.7-3.7s-2.6,1.6-3.7,3.2
	c-0.6,0.8-0.9,1.7-1.1,2.4c-1.1-1.8-3.6-8.9-3.6-8.9s0,5.9-1.2,8.7c-1,2.3-2.3,1.7-3.3,0.7c-0.1-1,0.3-2.4,0.3-2.4s-0.7,0.4-1.5,0.9
	c-0.5-0.9-0.7-1.5-0.7-1.5s-1.9,2.6-2.2,3.1c-0.2-0.2-0.4-0.6-0.7-1c-0.1-0.4-0.2-0.9,0-1.4c0.3-1.5,1.7-3.7,1.7-3.7
	s-2.6,1.6-3.7,3.2c-0.1,0.1-0.2,0.3-0.3,0.4c-1.7-0.6-3.4-0.7-3.4-0.7l0.8,1.2c-0.2-0.1-0.4-0.1-0.7-0.2c-2.9-0.5-1,0.1-0.8,1
	c0.1,0.5,0,1.1-0.1,1.6c-0.3-0.1-0.7-0.3-1-0.5c-2-1.5-0.7-6.5,0-7.3c0.7-0.8,1.6-2.1,1.6-2.1s-3.4,2.4-4.7,4.5
	c-0.6,1-1,2.2-1.3,3.3c-0.9,0.5-2.2,1.3-2.8,1.8c-0.1-0.1-0.2-0.1-0.2-0.2c-0.3-0.2-0.6-0.5-1-0.7c-0.3-0.5-0.8-0.9-1.5-1.3
	c-0.9-0.4-1.9-0.6-2.6-0.8c0.2-1.2,0.9-2.5,0.6-2.3c-0.3,0.1-2.2,1-2.6,3.2c-0.1,0.5-0.2,0.9-0.2,1.3c-0.5-0.9-1.2-2.4-2-3.8
	c0.2-1.4,0.6-2.6,1-2.9c0.7-0.8,1.6-2.1,1.6-2.1s-2.2,1.5-3.7,3.2c0,0,0-0.1,0-0.1c-1.8-2.9-4.9-3.8-4.9-3.8s2.2,5.3,0.1,7.8
	c-0.1-0.1-0.1-0.1-0.2-0.2c-1.2-1-1.7-1.2-1.7-1.2s0.3,0.9,0.5,1.7c0.1,0.3,0,0.6,0,0.9c-0.2,0.1-0.3,0.2-0.4,0.3
	c-1.2-0.5-2.5-0.7-2.5-0.7v0.9c0,0.2-0.3,0.3-0.4,0.4c-0.4-0.5-1.2-1.4-1-2.3c0.2-1.3,0.9-2.7,0.6-2.6c-0.3,0.1-2.2,1-2.6,3.2
	c-0.2,0.9-0.3,1.6-0.3,2.1c-0.3-0.5-0.6-1.2-0.5-2.1c0.2-1.8,1.2-2.7,1.2-2.7s-2.4,0.7-4.3,2c0-0.2,0-0.4,0-0.4
	c-0.1,0-1.3,0.6-1.7,1.6c-0.1,0.2-0.2,0.5-0.2,0.7c-0.3,0.4-0.5,0.7-0.8,1c-0.2-0.2-0.5-0.5-0.6-0.8c-0.3-0.7,0.1-1-1.2-2
	c-1.2-1-1.7-1.2-1.7-1.2s0.3,0.9,0.5,1.7c0.2,0.8-0.3,2.2-0.5,2.2c-0.1,0-0.4,0.1-0.7,0.1c-0.5-1-2.1-4.1-3.6-6.6
	c-1.8-2.9-4.9-3.8-4.9-3.8s1.1,2.7,1,5.2c-1.1,1.4-2.3,3-2.7,4c-1,0.6-2.2,1-3.2,1.3c-0.2-0.1-0.4-0.3-0.5-0.4
	c-0.5-0.5-1.3-2.4-2-4.3c0.1-0.1,0.2-0.2,0.2-0.2s-0.1,0-0.2,0.1c-0.9-2.4-1.8-4.7-1.8-4.7s0,2.9-0.4,5.6c-1.1,0.5-2.4,1.3-3.3,2.3
	c-0.4,0.5-0.7,0.9-1,1.3c-0.2-0.2-0.3-0.3-0.4-0.5c-1-1.3-1.2-2.2-1.2-2.2s-2.2,3.1-2.2,3.2c0,0.2-1-1.1-0.7-2.6
	c0.3-1.5,1.7-3.7,1.7-3.7s-2.6,1.6-3.7,3.2c-0.5,0.7-0.8,1.5-1,2.1c-0.2-0.2-0.3-0.3-0.4-0.5c-1.8-2.1-1.8-6.6-1.8-6.6
	s-4.8,5.6-5,7.2c-0.1,0.6-0.4,0.9-0.8,1.1c-0.4-1,0.1-2.9,0.1-2.9s-1.9,1.1-3.1,1.9c-1.1-1.7-3.7-8.9-3.7-8.9s0,4-0.7,6.9
	c-1.7-0.5-3.2-0.7-3.2-0.7l2.1,3.2c0,0-0.8,0.6-2,0.6c-0.5-0.3-1.1-0.8-1.4-1.3c-1-1.3-1.2-2.2-1.2-2.2s-0.2,0.2-0.4,0.5
	c-0.2-2,0.5-4.5,1-5c0.7-0.8,1.6-2.1,1.6-2.1s-3.2,2.3-4.6,4.3c-0.8,0.6-2,1.5-2.6,2.4c-0.8,1.1-1.1,2.4-1.3,3c0,0,0,0,0,0
	c0-0.6-0.1-1.9-2.3-2.3c-2.6-0.4-2.2,0-1.8,0.7c-0.7-0.2-2.2-0.3-2.2-0.3v1.7c0,0-0.7-1.3-0.5-2.6c0.2-1.3,1.4-2.7,1-2.6
	c-0.3,0.1-1.8,1-2.3,3c-0.4,0.2-2,1.2-3,1.9c-0.1-0.1-0.2-0.2-0.2-0.2c-0.4-0.4-0.6-1.1-0.6-1.3c0-0.2,0.1-1.2,0-1.2
	c-0.1,0-1.1,0.5-1.6,1.4c-0.2-0.2-0.5-0.3-0.8-0.5c-0.7-0.3-1.5-0.5-2.2-0.7c-1.1-0.9-1.6-1-1.6-1s0.1,0.4,0.3,0.8
	c-0.4-0.1-0.7-0.1-0.7-0.1l0.9,1.4c0,0.8-0.3,1.8-0.5,1.8c-0.1,0-0.3,0-0.6,0.1c0-0.2,0-0.3,0-0.3c0-0.3-0.8-2.1-0.8-2.1
	s-0.2,0.8-0.4,1.4c-0.1-0.2-0.3-0.4-0.4-0.5c-0.4-0.2,0-0.2-0.3,0.5c0,0.1-0.1,0.2-0.2,0.3c-1.3-1.9-0.2-6,0.5-6.8
	c0.7-0.8,1.6-2.1,1.6-2.1s-3.4,2.4-4.7,4.5c-0.7,1.2-1.2,2.7-1.5,3.8c-0.1-0.3-0.1-0.7,0-0.9c0.2-0.8,0.5-1.7,0.5-1.7
	s-0.5,0.1-1.7,1.2c-1.2,1-0.8,1.4-1.2,2c-0.1,0.2-0.2,0.4-0.3,0.5c0,0-0.1-0.1-0.1-0.1c-0.2-0.2-0.5-0.4-0.9-0.6
	c-0.1-0.2-0.1-0.5-0.2-0.7c-0.4-1-1.6-1.5-1.7-1.6c-0.1,0,0,1,0,1.2c0,0.1,0,0.2,0,0.4c-0.6-0.2-0.9-0.2-0.9-0.2v1.4
	c0-0.4-1.5-1.4-1.3-2.4c0.2-1.3,0.8-2.7,0.5-2.6c-0.3,0.1-1.7,0.8-2.4,2.3c-0.7-1.5-2-2.2-2.3-2.3c-0.3-0.1,0.4,1.3,0.6,2.6
	c0.2,1.1-1.2,2.2-1.5,2.5c0,0-0.4,0-0.4,0v-1.6c0,0-0.1,0.1-0.8,0.3c-0.1-0.2,0-0.4,0-0.5c0-0.2,0.2-1.2,0.1-1.2
	c-0.1,0-1.2,0.6-1.6,1.6c-0.1,0.3-0.2,0.5-0.2,0.8c-0.3,0.2-0.6,0.3-0.8,0.5c-0.1,0.1-0.1,0.1-0.2,0.1c-0.1-0.2-0.3-0.4-0.4-0.6
	c-0.3-0.7,0.1-1-1.1-2c-1.2-1-1.7-1.2-1.7-1.2s0.3,0.9,0.5,1.7c0.1,0.3,0,0.6,0,0.9c-0.3-1.1-0.8-2.6-1.5-3.8
	c-1.3-2.1-4.7-4.5-4.7-4.5s0.9,1.3,1.6,2.1c0.7,0.7,1.8,4.9,0.5,6.8c-0.1-0.1-0.2-0.2-0.2-0.3c-0.3-0.7,0.1-0.7-0.3-0.5
	c-0.1,0.1-0.3,0.3-0.4,0.5c-0.2-0.7-0.4-1.4-0.4-1.4s-0.8,1.8-0.8,2.1c0,0,0,0.1,0,0.3c-0.2,0-0.5-0.1-0.6-0.1c-0.2,0-0.5-1-0.5-1.8
	l0.9-1.4c0,0-0.3,0-0.7,0.1c0.1-0.5,0.3-0.8,0.3-0.8s-0.5,0.1-1.6,1c-0.7,0.1-1.5,0.4-2.2,0.7c-0.3,0.1-0.6,0.3-0.8,0.5
	c-0.4-0.9-1.5-1.4-1.6-1.4c-0.1,0,0,1,0,1.2c0,0.2-0.3,0.9-0.6,1.3c-0.1,0.1-0.2,0.1-0.3,0.2c-1-0.7-2.6-1.6-3.1-1.9
	c-0.5-2-2.2-2.9-2.5-3c-0.3-0.1,1,1.3,1.2,2.6c0.2,1.3-0.7,2.6-0.7,2.6v-1.7c0,0-1.3,0.1-2.1,0.4c0.4-0.7,1.4-1.2-1.2-0.8
	c-2.2,0.4-2.5,2.3-2.5,2.3h0c-0.1,0-0.5-1.9-1.3-3c-0.6-0.9-1.7-1.8-2.6-2.4c-1.3-2-4.6-4.3-4.6-4.3s0.9,1.3,1.6,2.1
	c0.5,0.6,1.2,3,1,5c-0.2-0.3-0.4-0.5-0.4-0.5s-0.2,1-1.2,2.2c-0.4,0.5-0.9,1-1.4,1.3c-1.1,0-2-0.6-2-0.6l2.2-3.2
	c0,0-1.6,0.1-3.2,0.7c-0.7-3-0.7-6.9-0.7-6.9s-2.5,7.2-3.7,8.9c-1.2-0.8-3.1-1.9-3.1-1.9s0.6,1.9,0.1,2.9c-0.4-0.2-0.8-0.5-0.8-1.1
	c-0.2-1.6-5-7.2-5-7.2s0,4.4-1.8,6.6c-0.1,0.2-0.3,0.3-0.4,0.5c-0.2-0.6-0.5-1.4-1-2.1c-1.1-1.5-3.7-3.2-3.7-3.2s1.3,2.2,1.7,3.7
	c0.3,1.5-0.7,2.7-0.7,2.6c0-0.2-2.2-3.2-2.2-3.2s-0.2,1-1.2,2.2c-0.1,0.2-0.3,0.3-0.4,0.5c-0.3-0.4-0.7-0.9-1-1.3
	c-0.8-1-2.1-1.8-3.3-2.3c-0.4-2.7-0.4-5.6-0.4-5.6s-0.8,2.4-1.8,4.7c-0.1,0-0.2-0.1-0.2-0.1s0.1,0.1,0.2,0.2c-0.8,1.9-1.6,3.8-2,4.3
	c-0.2,0.2-0.3,0.3-0.5,0.4c-1-0.3-2.2-0.7-3.2-1.3c-0.4-1-1.6-2.6-2.7-4c-0.1-2.5,1-5.2,1-5.2s-3.1,0.9-4.9,3.8
	c-1.5,2.5-3.1,5.6-3.6,6.6c-0.3,0-0.6-0.1-0.7-0.1c-0.2,0-0.7-1.4-0.5-2.2c0.2-0.8,0.5-1.7,0.5-1.7s-0.5,0.1-1.7,1.2
	c-1.2,1-0.8,1.4-1.2,2c-0.1,0.3-0.4,0.6-0.6,0.8c-0.2-0.3-0.5-0.7-0.8-1c-0.1-0.2-0.1-0.5-0.2-0.7c-0.4-1-1.6-1.5-1.7-1.6
	c0,0,0,0.2,0,0.4c-1.9-1.3-4.3-2-4.3-2s1,0.9,1.2,2.7c0.1,0.9-0.2,1.6-0.5,2c-0.1-0.5-0.1-1.1-0.3-2c-0.4-2.2-2.2-3.1-2.6-3.2
	c-0.3-0.1,0.4,1.3,0.6,2.6c0.1,0.9-0.9,1.9-1.3,2.3c-0.1-0.1-0.6-0.2-0.6-0.3v-1.2c0,0-1.1,0.3-2.4,0.8c-0.2-0.1-0.2-0.2-0.4-0.3
	c0-0.3,0-0.6,0.1-0.9c0.2-0.8,0.5-1.7,0.5-1.7s-0.5,0.1-1.7,1.2c-0.1,0.1-0.1,0.1-0.2,0.2c-2.1-2.5,0.1-7.8,0.1-7.8
	s-3.1,0.9-4.9,3.8c0,0,0,0.1,0,0.1c-1.5-1.7-3.7-3.2-3.7-3.2s0.9,1.3,1.6,2.1c0.3,0.4,0.8,1.6,1,2.9c-0.8,1.4-1.5,2.8-2,3.8
	c-0.1-0.4-0.1-0.8-0.2-1.3c-0.4-2.2-2.2-3.1-2.6-3.2c-0.3-0.1,0.3,1.1,0.6,2.3c-0.8,0.1-1.8,0.4-2.7,0.8c-0.8,0.3-1.3,0.9-1.6,1.3
	c-0.4,0.2-0.7,0.4-0.9,0.6c-0.1,0.1-0.2,0.1-0.3,0.2c-0.6-0.4-1.9-1.3-2.9-1.8c-0.3-1-0.7-2.3-1.3-3.3c-1.3-2.1-4.7-4.5-4.7-4.5
	s0.9,1.3,1.6,2.1c0.7,0.8,2,5.8,0,7.3c-0.3,0.3-0.7,0.4-1,0.5c-0.1-0.5-0.2-1.1-0.1-1.6c0.2-0.9,2.1-1.5-0.8-1
	c-0.3,0-0.5,0.1-0.7,0.2l0.8-1.2c0,0-1.7,0.1-3.4,0.7c-0.1-0.1-0.2-0.3-0.3-0.4c-1.1-1.5-3.7-3.2-3.7-3.2s1.3,2.2,1.7,3.7
	c0.1,0.5,0.1,1,0,1.4c-0.3,0.4-0.5,0.9-0.7,1c-0.3-0.6-2.2-3.1-2.2-3.1s-0.1,0.6-0.7,1.5c-0.8-0.5-1.5-0.9-1.5-0.9s0.4,1.3,0.3,2.4
	c-1,1-2.3,1.5-3.3-0.7c-1.2-2.8-1.2-8.7-1.2-8.7s-2.5,7.2-3.6,8.9c-0.2-0.7-0.5-1.6-1.1-2.4c-1.1-1.5-3.7-3.2-3.7-3.2
	s1.3,2.2,1.7,3.7c0.2,1-0.2,1.9-0.5,2.3c-0.1-0.2-0.2-0.4-0.2-0.6c-0.2-1.6-5-7.2-5-7.2s0,4.4-1.8,6.6c-0.1,0.2-0.3,0.3-0.5,0.5
	c0,0,0,0,0,0c-1.2-2.8-1.2-8.7-1.2-8.7s-2.8,8-3.8,9.2c-0.4,0.5-1.2,0.8-1.9,0.9c-0.4-0.6-1-1.4-1.6-2.2c-0.3-0.4-0.7-0.7-1.1-1
	c-1.5-2.2-4-5.2-4-5.2s0,1.4-0.3,3.1c-0.1,0-0.1,0-0.1,0s0.1,0,0.1,0.1c-0.3,1.2-0.7,2.5-1.5,3.4c-0.4,0.5-0.9,0.9-1.5,1.3
	c-1.6-0.5-3.5-1.3-4.6-2.5c-2.2-2.5,0.1-7.9,0.1-7.9s-3.1,0.9-4.9,3.8c-0.5,0.8-1,1.7-1.5,2.6c-1.2-0.6-2.3-0.9-2.3-0.9
	s1,0.9,1.2,2.7c0,0,0,0.1,0,0.1c0,0.1-0.1,0.1-0.1,0.2c-0.7-1.4-1.7-3.2-2.7-4.8c-1.8-2.9-4.9-3.8-4.9-3.8s2.3,5.5,0.1,7.9
	c-0.2,0.2-0.3,0.3-0.5,0.5c-0.2-0.2-0.3-0.3-0.5-0.5c-2.2-2.5,0.1-7.9,0.1-7.9s-3.1,0.9-4.9,3.8c-1,1.6-2.1,3.6-2.8,5
	c0-0.2,0-0.3,0-0.5c0.2-1.8,1.2-2.7,1.2-2.7s-3.8,1.1-5.6,3.2c-1.8,2.1-2.8,4.1-2.8,4.1s-4.4-1.6-6.2-3.8c-1.8-2.1-1.8-6.6-1.8-6.6
	s-4.8,5.6-5,7.2c-0.2,1.6-2.6,1.5-3.6,0.3c-1-1.1-3.8-9.2-3.8-9.2s0,5.9-1.2,8.7c-1.2,2.8-3,1.3-4,0c-1-1.3-1.2-2.2-1.2-2.2
	s-2.2,3.1-2.2,3.2c0,0.2-1-1.1-0.7-2.6c0.3-1.5,1.7-3.7,1.7-3.7s-2.6,1.6-3.7,3.2c-0.8,1.2-1.2,2.5-1.3,3.1c0.1-0.6,0-2-2.3-2.4
	c-2.9-0.5-1,0.1-0.8,1c0.2,0.9-0.3,2.3-0.3,2.3s-3.7,0.4-4.4-0.4c-0.7-0.9,0-3.1,0-3.1s-3.4,2-4,2.5c-0.5,0.5-0.6-1.5-2.6-2.3
	c-1.9-0.8-4.2-1-4.2-1l2.2,3.2c0,0-1.9,1.4-4-0.2c-2-1.5-0.7-6.5,0-7.3c0.7-0.8,1.6-2.1,1.6-2.1s-3.4,2.4-4.7,4.5
	c-1.3,2.1-1.8,5.2-1.8,5.2s-2,0.6-3-0.4c-1-1-4.3-1.5-4.3-1.5v1.7c0,0-1.1-1.3-0.9-2.6c0.2-1.3,1.1-2.7,0.8-2.6
	c-0.3,0.1-2.1,1-2.5,3.2c-0.4,2.2-0.3,2.9-0.3,2.9s-2.6-1.2-2.9-1.6c-0.4-0.4-0.6-1.1-0.6-1.3c0-0.2,0.1-1.2,0-1.2
	c-0.1,0-1.3,0.6-1.7,1.6c-0.4,1-0.5,2.1-0.5,2.1s-0.8-0.5-1.1-1.2c-0.3-0.7,0.1-1-1.1-2c-1.2-1-1.7-1.2-1.7-1.2s0.3,0.9,0.5,1.7
	c0.2,0.8-0.3,2.2-0.5,2.2c-0.1,0-0.4,0.1-0.7,0.1c-0.5-1-2.1-4.1-3.6-6.6c-1.8-2.9-4.9-3.8-4.9-3.8s2.3,5.5,0.1,7.9
	c-2.2,2.5-7.4,3.1-7.4,3.1s-1.4-1-1.2-2.8s1.2-2.7,1.2-2.7s-3.8,1.1-5.6,3.2c-1.8,2.1-2.8,4.1-2.8,4.1s-4.4-1.6-6.2-3.8
	c-1.8-2.1-1.8-6.6-1.8-6.6s-4.8,5.6-5,7.2c-0.2,1.6-2.6,1.5-3.6,0.3c-1-1.1-3.8-9.2-3.8-9.2s0,5.9-1.2,8.7c-1.2,2.8-3,1.3-4,0
	c-1-1.3-1.2-2.2-1.2-2.2s-2.2,3.1-2.2,3.2c0,0.2-1-1.1-0.7-2.6c0.3-1.5,1.7-3.7,1.7-3.7s-2.6,1.6-3.7,3.2c-0.8,1.2-1.2,2.5-1.3,3.1
	c0.1-0.6,0-2-2.3-2.4c-2.9-0.5-1,0.1-0.8,1c0.2,0.9-0.3,2.3-0.3,2.3s-3.7,0.4-4.4-0.4c-0.7-0.9,0-3.1,0-3.1s-3.4,2-4,2.5
	c-0.5,0.5-0.6-1.5-2.6-2.3c-1.9-0.8-4.2-1-4.2-1l2.1,3.2c0,0-1.9,1.4-4-0.2c-2-1.5-0.7-6.5,0-7.3c0.7-0.8,1.6-2.1,1.6-2.1
	s-3.4,2.4-4.7,4.5c-1.3,2.1-1.8,5.2-1.8,5.2s-2,0.6-3-0.4c-1-1-4.3-1.5-4.3-1.5v1.7c0,0-1.2-1.3-1-2.6c0.2-1.3,1.1-2.7,0.8-2.6
	c-0.3,0.1-2.1,1-2.5,3.2c-0.4,2.2-0.3,2.9-0.3,2.9s-2.6-1.2-2.9-1.6c-0.4-0.4-0.6-1.1-0.6-1.3c0-0.2,0.1-1.2,0-1.2
	c-0.1,0-1.3,0.6-1.7,1.6c-0.4,1-0.5,2.1-0.5,2.1s-0.8-0.5-1.1-1.2c-0.3-0.7,0.1-1-1.2-2c-1.2-1-1.7-1.2-1.7-1.2s0.3,0.9,0.5,1.7
	c0.2,0.8-0.3,2.2-0.5,2.2c-0.1,0-0.3,0-0.6,0.1c0-0.2,0-0.3,0-0.3c0-0.3-0.8-2.1-0.8-2.1s-0.2,0.8-0.4,1.4c-0.1-0.2-0.3-0.4-0.4-0.5
	c-0.4-0.2,0-0.2-0.3,0.5c-0.1,0.3-0.4,0.5-0.7,0.7c-0.3-0.2-0.5-0.4-0.7-0.7c-0.3-0.7,0.1-0.7-0.3-0.5c-0.1,0.1-0.3,0.3-0.4,0.5
	c-0.2-0.7-0.4-1.4-0.4-1.4s-0.8,1.8-0.8,2.1c0,0,0,0.1,0,0.3c-0.2,0-0.5-0.1-0.6-0.1c-0.2,0-0.7-1.4-0.5-2.2
	c0.2-0.8,0.5-1.7,0.5-1.7s-0.5,0.1-1.7,1.2c-1.2,1-0.8,1.4-1.2,2c-0.3,0.7-1.1,1.2-1.1,1.2s-0.1-1.1-0.5-2.1c-0.4-1-1.6-1.5-1.7-1.6
	c-0.1,0,0,1,0,1.2c0,0.2-0.3,0.9-0.6,1.3c-0.4,0.4-2.9,1.6-2.9,1.6s0-0.8-0.4-2.9c-0.4-2.2-2.2-3.1-2.6-3.2
	c-0.3-0.1,0.5,1.3,0.7,2.6c0.2,1.3-1.2,2.6-1.2,2.6v-1.7c0,0-3.1,0.5-4.1,1.5c-1,1-2.7,0.4-2.7,0.4s-0.6-3.2-1.8-5.2
	c-1.3-2.1-4.7-4.5-4.7-4.5s0.9,1.3,1.6,2.1c0.7,0.8,2,5.8,0,7.3c-2,1.5-4,0.2-4,0.2l2.1-3.2c0,0-2.2,0.2-4.2,1
	c-1.9,0.8-2,2.8-2.6,2.3c-0.5-0.5-4-2.5-4-2.5s0.7,2.2,0,3.1c-0.7,0.9-4.4,0.4-4.4,0.4s-0.5-1.5-0.3-2.3c0.2-0.9,2.1-1.5-0.8-1
	c-2.3,0.4-2.3,1.8-2.3,2.4c-0.1-0.6-0.5-1.9-1.3-3.1c-1.1-1.5-3.7-3.2-3.7-3.2s1.3,2.2,1.7,3.7c0.3,1.5-0.7,2.7-0.7,2.6
	c0-0.2-2.2-3.2-2.2-3.2s-0.2,1-1.2,2.2c-1,1.3-2.8,2.8-4,0c-1.2-2.8-1.2-8.7-1.2-8.7s-2.8,8-3.8,9.2c-1,1.1-3.4,1.3-3.6-0.3
	c-0.2-1.6-5-7.2-5-7.2s0,4.4-1.8,6.6c-1.8,2.1-6.2,3.8-6.2,3.8s-1-2-2.8-4.1c-1.8-2.1-5.6-3.2-5.6-3.2s1,0.9,1.2,2.7
	c0.2,1.6-0.9,2.5-1.1,2.7c0.1-0.6,0.1-0.9,0.1-0.9c0-0.3-0.8-2.1-0.8-2.1s-0.6,2.2-0.9,2.4c-0.3,0.2-1.3-0.3-1.6-1
	c-0.3-0.7,0.1-0.7-0.3-0.5c-0.3,0.2-0.6,0.7-0.7,1.1c-0.7-0.3-1.3-0.6-1.9-1c0-0.3-0.1-0.6,0-0.9c0.2-0.8,0.5-1.7,0.5-1.7
	s-0.5,0.1-1.7,1.2c-0.1,0.1-0.1,0.1-0.2,0.2c-2.1-2.5,0.1-7.8,0.1-7.8s-3.1,0.9-4.9,3.8c-1.2,2-2.5,4.3-3.2,5.7
	c-0.1-0.4-0.1-0.8-0.2-1.3c-0.4-2.2-2.2-3.1-2.6-3.2c-0.3-0.1,0.8,1.3,1,2.6c0.2,1.3-0.9,2.6-0.9,2.6v-1.7c0,0-3.3,0.5-4.3,1.5
	c-1,1-2.8,0.4-2.8,0.4s-0.6-3.2-1.9-5.2c-1.3-2.1-4.7-4.5-4.7-4.5s0.9,1.3,1.6,2.1c0.7,0.8,2,5.8,0,7.3c-2,1.5-4,0.2-4,0.2l2.1-3.2
	c0,0-2.2,0.2-4.2,1c-1.9,0.8-2,2.8-2.6,2.3c-0.3-0.4-1.9-1.3-2.9-1.9c-0.6-1-1.2-2.1-1.8-3.1c-1.8-2.9-4.9-3.8-4.9-3.8
	s1.6,3.8,0.8,6.4c-0.2,0-0.4,0.1-0.6,0.1c-2.3,0.4-2.3,1.8-2.3,2.4c-0.1-0.6-0.5-1.9-1.3-3.1c-1.1-1.5-3.7-3.2-3.7-3.2
	s1.3,2.2,1.7,3.7c0.3,1.5-0.7,2.7-0.7,2.6c0-0.1-1.2-1.8-1.8-2.7c0.3-0.4,0.5-0.7,0.5-0.7s-0.3,0.1-0.8,0.3
	c-0.1-0.1-0.1-0.1-0.1-0.1s0,0.1,0,0.2c-1.3,0.5-3.4,1.4-4.7,2.9c-0.2-0.2-0.3-0.5-0.4-0.8c-1.2-2.8-1.2-8.7-1.2-8.7s-2.8,8-3.8,9.2
	c-1,1.1-3.4,1.3-3.6-0.3c-0.1-0.6-0.7-1.6-1.5-2.7c-0.3-1.5-0.3-2.9-0.3-2.9s-0.4,0.5-1,1.2c-1.2-1.5-2.3-2.8-2.3-2.8s0,4.4-1.8,6.6
	c-0.9,1-2.3,1.9-3.6,2.6c-1-1.2-3.8-9.1-3.8-9.1s0,4.3-0.8,7.3c-0.3-0.4-0.6-0.7-0.9-1.1c-1.8-2.1-5.6-3.2-5.6-3.2s1,0.9,1.2,2.7
	c0.1,0.5,0,0.9-0.1,1.3c-0.1-0.3-0.2-0.5-0.2-0.5s-0.8,1.1-1.4,2c-0.4-0.1-0.9-0.2-1.5-0.3c0-0.3,0-0.6,0-1c0.3-1.5,1.7-3.7,1.7-3.7
	s-2.6,1.6-3.7,3.2c-0.2,0.2-0.3,0.5-0.4,0.7c-1.1-0.5-2.2-1.1-3-1.9c-2.2-2.5,0.1-7.9,0.1-7.9s-2.8,0.9-4.6,3.8
	c-1.8,2.9-3.5,6.9-3.5,6.9v0.7c0,0.3-1.1,0.5-1.3,0.7c-0.5,0.5-0.8-1.5-2.7-2.3c-1.9-0.8-4.2-1-4.2-1l2.1,3.2c0,0-2,1.4-4-0.2
	c-2-1.5-0.7-6.5,0-7.3c0.7-0.8,1.6-2.1,1.6-2.1s-3.4,2.4-4.7,4.5c-1.3,2.1-1.8,5.2-1.8,5.2s-1.1,0.6-2.1-0.4c-1-1-3.5-1.5-3.5-1.5
	v1.7c0,0-2-1.3-1.8-2.6c0.2-1.3,0.7-2.7,0.4-2.6c-0.3,0.1-2.3,1-2.7,3.2c-0.1,0.5-0.2,0.9-0.3,1.3c-0.7-1.4-2-3.8-3.2-5.7
	c-1.8-2.9-4.9-3.8-4.9-3.8s2.2,5.3,0.1,7.8c-0.1-0.1-0.1-0.1-0.2-0.2c-1.2-1-1.7-1.2-1.7-1.2s0.3,0.9,0.5,1.7c0.1,0.3,0,0.6,0,0.9
	c-0.6,0.4-1.3,0.7-1.9,1c-0.2-0.4-0.5-1-0.7-1.1c-0.4-0.2,0-0.2-0.3,0.5c-0.3,0.7-1.3,1.1-1.6,1c-0.3-0.2-0.9-2.4-0.9-2.4
	s-0.8,1.8-0.8,2.1c0,0,0,0.4,0.1,0.9c-0.3-0.2-1.3-1.2-1.1-2.7c0.2-1.8,1.2-2.7,1.2-2.7s-3.8,1.1-5.6,3.2c-1.8,2.1-2.8,4.1-2.8,4.1
	s-4.4-1.6-6.2-3.8c-1.8-2.1-1.8-6.6-1.8-6.6s-4.8,5.6-5,7.2c-0.2,1.6-2.6,1.5-3.6,0.3c-1-1.1-3.8-9.2-3.8-9.2s0,5.9-1.2,8.7
	c-1.2,2.8-3,1.3-4,0c-1-1.3-1.2-2.2-1.2-2.2s-2.2,3.1-2.2,3.2c0,0.2-1-1.1-0.7-2.6c0.3-1.5,1.7-3.7,1.7-3.7s-2.6,1.6-3.7,3.2
	c-0.8,1.2-1.2,2.5-1.3,3.1c0.1-0.6,0-2-2.3-2.4c-2.9-0.5-1,0.1-0.8,1c0.2,0.9-0.3,2.3-0.3,2.3s-3.7,0.4-4.4-0.4
	c-0.7-0.9,0-3.1,0-3.1s-3.4,2-4,2.5c-0.5,0.5-0.6-1.5-2.6-2.3c-1.9-0.8-4.2-1-4.2-1l2.1,3.2c0,0-1.9,1.4-4-0.2s-0.7-6.5,0-7.3
	c0.7-0.8,1.6-2.1,1.6-2.1s-3.4,2.4-4.7,4.5c-1.3,2.1-1.8,5.2-1.8,5.2s-0.9,0.6-1.9-0.4c-1-1-3.2-1.5-3.2-1.5v1.7c0,0-2.2-1.3-2-2.6
	c0.2-1.3,0.6-2.7,0.3-2.6c-0.3,0.1-2.4,1-2.8,3.2c-0.4,2.2-0.5,3-0.5,3s-2.6-1.2-3-1.6c-0.4-0.4-0.6-1.1-0.6-1.3s0.1-1.2,0-1.2
	c-0.1,0-1.3,0.6-1.7,1.6c-0.4,1-0.5,2.1-0.5,2.1s-0.8-0.5-1.1-1.2c-0.3-0.7,0.1-1-1.2-2c-1.2-1-1.7-1.2-1.7-1.2s0.3,0.9,0.5,1.7
	c0.2,0.8-0.3,2.2-0.5,2.2c-0.1,0-0.3,0-0.6,0.1c0-0.2,0-0.3,0-0.3c0-0.3-0.8-2.1-0.8-2.1s-0.2,0.8-0.4,1.4c-0.1-0.2-0.3-0.4-0.4-0.5
	c-0.4-0.2,0-0.2-0.3,0.5c-0.1,0.3-0.4,0.5-0.7,0.7c-0.3-0.2-0.5-0.4-0.7-0.7c-0.3-0.7,0.1-0.7-0.3-0.5c-0.1,0.1-0.3,0.3-0.4,0.5
	c-0.2-0.7-0.4-1.4-0.4-1.4s-0.8,1.8-0.8,2.1c0,0,0,0.1,0,0.3c-0.2,0-0.5-0.1-0.6-0.1c-0.2,0-0.7-1.4-0.5-2.2
	c0.2-0.8,0.5-1.7,0.5-1.7s-0.5,0.1-1.7,1.2c-1.2,1-0.8,1.4-1.2,2c-0.3,0.7-1.1,1.2-1.1,1.2s-0.1-1.1-0.5-2.1c-0.4-1-1.6-1.5-1.7-1.6
	c-0.1,0,0,1,0,1.2s-0.3,0.9-0.6,1.3c-0.4,0.4-2.9,1.6-2.9,1.6s0-0.8-0.4-3c-0.4-2.2-2.2-3.1-2.6-3.2c-0.3-0.1,0.4,1.3,0.6,2.6
	c0.2,1.3-1.3,2.6-1.3,2.6v-1.7c0,0-3,0.5-4,1.5c-1,1-2.7,0.4-2.7,0.4s-0.5-3.2-1.8-5.2s-4.7-4.5-4.7-4.5s0.9,1.3,1.6,2.1
	c0.7,0.8,2,5.8,0,7.3c-2,1.5-4,0.2-4,0.2l2.2-3.2c0,0-2.2,0.2-4.2,1c-1.9,0.8-2,2.8-2.6,2.3c-0.5-0.5-4-2.5-4-2.5s0.7,2.2,0,3.1
	c-0.7,0.9-4.4,0.4-4.4,0.4s-0.5-1.5-0.3-2.3c0.2-0.9,2.1-1.5-0.8-1c-2.3,0.4-2.3,1.8-2.3,2.4c-0.1-0.6-0.5-1.9-1.3-3.1
	c-1.1-1.5-3.7-3.2-3.7-3.2s1.3,2.2,1.7,3.7c0.3,1.5-0.7,2.7-0.7,2.6c0-0.2-2.2-3.2-2.2-3.2s-0.2,1-1.2,2.2c-1,1.3-2.8,2.8-4,0
	c-1.2-2.8-1.2-8.7-1.2-8.7s-2.8,8-3.8,9.2c-1,1.1-3.4,1.3-3.6-0.3c-0.2-1.6-5-7.2-5-7.2s0,4.4-1.8,6.6c-1.8,2.1-6.2,3.8-6.2,3.8
	s-1-2-2.8-4.1c-1.8-2.1-5.6-3.2-5.6-3.2s1,0.9,1.2,2.7c0.2,1.8-1.2,2.8-1.2,2.8s-5.2-0.7-7.4-3.1c-2.2-2.5,0.1-7.9,0.1-7.9
	s-3.1,0.9-4.9,3.8c-1.5,2.5-3.1,5.6-3.6,6.6c-0.3,0-0.6-0.1-0.7-0.1c-0.2,0-0.7-1.4-0.5-2.2c0.2-0.8,0.5-1.7,0.5-1.7
	s-0.5,0.1-1.7,1.2c-1.2,1-0.8,1.4-1.2,2c-0.3,0.7-1.1,1.2-1.1,1.2s-0.1-1.1-0.5-2.1c-0.4-1-1.6-1.5-1.7-1.6c-0.1,0,0,1,0,1.2
	s-0.3,0.9-0.6,1.3c-0.4,0.4-2.9,1.6-2.9,1.6s0-0.8-0.4-3c-0.4-2.2-2.2-3.1-2.6-3.2c-0.3-0.1,0.5,1.3,0.7,2.6
	c0.2,1.3-1.2,2.6-1.2,2.6v-1.7c0,0-3,0.5-4,1.5c-1,1-2.7,0.4-2.7,0.4s-0.5-3.2-1.8-5.2c-1.3-2.1-4.7-4.5-4.7-4.5s0.9,1.3,1.6,2.1
	c0.7,0.8,2,5.8,0,7.3c-2,1.5-4,0.2-4,0.2l2.1-3.2c0,0-2.2,0.2-4.2,1c-1.9,0.8-2,2.8-2.6,2.3c-0.5-0.5-4-2.5-4-2.5s0.7,2.2,0,3.1
	c-0.7,0.9-4.4,0.4-4.4,0.4s-0.5-1.5-0.3-2.3c0.2-0.9,2.1-1.5-0.8-1c-2.3,0.4-2.3,1.8-2.3,2.4c-0.1-0.6-0.5-1.9-1.3-3.1
	c-1.1-1.5-3.7-3.2-3.7-3.2s1.3,2.2,1.7,3.7c0.3,1.5-0.7,2.7-0.7,2.6c0-0.2-2.2-3.2-2.2-3.2s-0.2,1-1.2,2.2c-1,1.3-2.8,2.8-4,0
	c-1.2-2.8-1.2-8.7-1.2-8.7s-2.8,8-3.8,9.2c-1,1.1-3.4,1.3-3.6-0.3c-0.2-1.6-5-7.2-5-7.2s0,4.4-1.8,6.6c-1.8,2.1-6.2,3.8-6.2,3.8
	s-1-2-2.8-4.1c-1.8-2.1-5.6-3.2-5.6-3.2s1,0.9,1.2,2.7c0,0.2,0,0.4,0,0.5c-0.7-1.4-1.8-3.3-2.8-5c-1.8-2.9-4.9-3.8-4.9-3.8
	s2.3,5.5,0.1,7.9c-0.2,0.2-0.3,0.3-0.5,0.5c-0.2-0.2-0.3-0.3-0.5-0.5c-2.2-2.5,0.1-7.9,0.1-7.9s-3.1,0.9-4.9,3.8
	c-1,1.6-2.1,3.6-2.8,5c0-0.2,0-0.3,0-0.5c0.2-1.8,1.2-2.7,1.2-2.7s-3.8,1.1-5.6,3.2c-1.8,2.1-2.8,4.1-2.8,4.1s-4.4-1.6-6.2-3.8
	c-1.8-2.1-1.8-6.6-1.8-6.6s-4.8,5.6-5,7.2c-0.2,1.6-2.6,1.5-3.6,0.3c-1-1.1-3.8-9.2-3.8-9.2s0,5.9-1.2,8.7c-1.2,2.8-3,1.3-4,0
	c-1-1.3-1.2-2.2-1.2-2.2s-2.2,3.1-2.2,3.2c0,0.2-1-1.1-0.7-2.6c0.3-1.5,1.7-3.7,1.7-3.7s-2.6,1.6-3.7,3.2c-0.8,1.2-1.2,2.5-1.3,3.1
	c0.1-0.6,0-2-2.3-2.4c-2.9-0.5-1,0.1-0.8,1c0.2,0.9-0.3,2.3-0.3,2.3s-3.7,0.4-4.4-0.4c-0.7-0.9,0-3.1,0-3.1s-3.4,2-4,2.5
	c-0.5,0.5-0.6-1.5-2.6-2.3c-1.9-0.8-4.2-1-4.2-1l2.1,3.2c0,0-1.9,1.4-4-0.2c-2-1.5-0.7-6.5,0-7.3c0.7-0.8,1.6-2.1,1.6-2.1
	s-3.4,2.4-4.7,4.5s-1.8,5.2-1.8,5.2s-1.6,0.6-2.6-0.4c-1-1-4-1.5-4-1.5v1.7c0,0-1.5-1.3-1.3-2.6c0.2-1.3,1-2.7,0.6-2.6
	c-0.3,0.1-2.2,1-2.6,3.2c-0.1,0.5-0.2,0.9-0.2,1.3c-0.7-1.4-2-3.8-3.2-5.7c-1.8-2.9-4.9-3.8-4.9-3.8s2.2,5.3,0.1,7.8
	c-0.1-0.1-0.1-0.1-0.2-0.2c-1.2-1-1.7-1.2-1.7-1.2s0.3,0.9,0.5,1.7c0.1,0.3,0,0.6,0,0.9c-0.6,0.4-1.3,0.7-1.9,1
	c-0.2-0.4-0.5-1-0.7-1.1c-0.4-0.2,0-0.2-0.3,0.5c-0.3,0.7-1.3,1.1-1.6,1c-0.3-0.2-0.9-2.4-0.9-2.4s-0.8,1.8-0.8,2.1
	c0,0,0,0.4,0.1,0.9c-0.3-0.2-1.3-1.2-1.1-2.7c0.2-1.8,1.2-2.7,1.2-2.7s-3.8,1.1-5.6,3.2c-1.8,2.1-2.8,4.1-2.8,4.1s-4.4-1.6-6.2-3.8
	c-1.8-2.1-1.8-6.6-1.8-6.6s-4.8,5.6-5,7.2c-0.2,1.6-2.6,1.5-3.6,0.3c-1-1.1-3.8-9.2-3.8-9.2s0,5.9-1.2,8.7c-1.2,2.8-3,1.3-4,0
	c-1-1.3-1.2-2.2-1.2-2.2s-2.2,3.1-2.2,3.2c0,0.2-1-1.1-0.7-2.6c0.3-1.5,1.7-3.7,1.7-3.7s-2.6,1.6-3.7,3.2c-0.8,1.2-1.2,2.5-1.3,3.1
	c0.1-0.6,0-2-2.3-2.4c-2.9-0.5-1,0.1-0.8,1c0.2,0.9-0.3,2.3-0.3,2.3s-3.7,0.4-4.4-0.4s0-3.1,0-3.1s-3.4,2-4,2.5
	c-0.5,0.5-0.6-1.5-2.6-2.3c-1.9-0.8-4.2-1-4.2-1l2.1,3.2c0,0-1.9,1.4-4-0.2c-2-1.5-0.7-6.5,0-7.3c0.7-0.8,1.6-2.1,1.6-2.1
	s-3.4,2.4-4.7,4.5c-1.3,2.1-1.8,5.2-1.8,5.2s-1.4,0.6-2.4-0.4c-1-1-3.7-1.5-3.7-1.5v1.7c0,0-1.8-1.3-1.6-2.6
	c0.2-1.3,0.8-2.7,0.5-2.6c-0.3,0.1-2.2,1-2.6,3.2c-0.4,2.2-0.4,3-0.4,3s-2.6-1.2-2.9-1.6s-0.6-1.1-0.6-1.3s0.1-1.2,0-1.2
	c-0.1,0-1.3,0.6-1.7,1.6c-0.4,1-0.5,2.1-0.5,2.1s-0.8-0.5-1.1-1.2c-0.3-0.7,0.1-1-1.2-2c-1.2-1-1.7-1.2-1.7-1.2s0.3,0.9,0.5,1.7
	c0.2,0.8-0.3,2.2-0.5,2.2c-0.1,0-0.3,0-0.6,0.1c0-0.2,0-0.3,0-0.3c0-0.3-0.8-2.1-0.8-2.1s-0.2,0.8-0.4,1.4c-0.1-0.2-0.3-0.4-0.4-0.5
	c-0.4-0.2,0-0.2-0.3,0.5c-0.1,0.3-0.4,0.5-0.7,0.7c-0.3-0.2-0.5-0.4-0.7-0.7c-0.3-0.7,0.1-0.7-0.3-0.5c-0.1,0.1-0.3,0.3-0.4,0.5
	c-0.2-0.7-0.4-1.4-0.4-1.4s-0.8,1.8-0.8,2.1c0,0,0,0.1,0,0.3c-0.2,0-0.5-0.1-0.6-0.1c-0.2,0-0.7-1.4-0.5-2.2
	c0.2-0.8,0.5-1.7,0.5-1.7s-0.5,0.1-1.7,1.2c-1.2,1-0.8,1.4-1.2,2c-0.3,0.7-1.1,1.2-1.1,1.2s-0.1-1.1-0.5-2.1c-0.4-1-1.6-1.5-1.7-1.6
	c-0.1,0,0,1,0,1.2s-0.3,0.9-0.6,1.3c-0.4,0.4-2.9,1.6-2.9,1.6s0-0.8-0.4-3c-0.4-2.2-2.2-3.1-2.6-3.2c-0.3-0.1,0,1.3,0.2,2.6
	c0.2,1.3-1.7,2.6-1.7,2.6v-1.7c0,0-2.5,0.5-3.5,1.5c-1,1-2.4,0.4-2.4,0.4s-0.4-3.2-1.7-5.2c-1.3-2.1-4.6-4.5-4.6-4.5
	s0.9,1.3,1.6,2.1c0.7,0.8,2,5.8,0,7.3c-2,1.5-4,0.2-4,0.2l2.2-3.2c0,0-2.2,0.2-4.2,1c-1.9,0.8-2,2.8-2.6,2.3c-0.5-0.5-4-2.5-4-2.5
	s0.7,2.2,0,3.1c-0.7,0.9-4.4,0.4-4.4,0.4s-0.5-1.5-0.3-2.3c0.2-0.9,2.1-1.5-0.8-1c-2.3,0.4-2.3,1.8-2.3,2.4
	c-0.1-0.6-0.5-1.9-1.3-3.1c-1.1-1.5-3.7-3.2-3.7-3.2s1.3,2.2,1.7,3.7c0.3,1.5-0.7,2.7-0.7,2.6c0-0.2-2.2-3.2-2.2-3.2s-0.2,1-1.2,2.2
	c-1,1.3-2.8,2.8-4,0c-1.2-2.8-1.2-8.7-1.2-8.7s-2.8,8-3.8,9.2c-1,1.1-3.4,1.3-3.6-0.3c-0.2-1.6-5-7.2-5-7.2s0,4.4-1.8,6.6
	c-1.8,2.1-6.2,3.8-6.2,3.8s-1-2-2.8-4.1c-1.8-2.1-5.6-3.2-5.6-3.2s1,0.9,1.2,2.7c0.2,1.8-1.2,2.8-1.2,2.8s-5.2-0.7-7.4-3.1
	c-2.2-2.5,0.1-7.9,0.1-7.9s-3.1,0.9-4.9,3.8c-1.5,2.5-3.1,5.6-3.6,6.6c-0.3,0-0.6-0.1-0.7-0.1c-0.2,0-0.7-1.4-0.5-2.2
	c0.2-0.8,0.5-1.7,0.5-1.7s-0.5,0.1-1.7,1.2c-1.2,1-0.8,1.4-1.2,2c-0.3,0.7-1.1,1.2-1.1,1.2s-0.1-1.1-0.5-2.1c-0.4-1-1.6-1.5-1.7-1.6
	c-0.1,0,0,1,0,1.2s-0.3,0.9-0.6,1.3c-0.4,0.4-2.9,1.6-2.9,1.6s0-0.8-0.4-3c-0.4-2.2-2.2-3.1-2.6-3.2c-0.3-0.1,0,1.3,0.2,2.6
	c0.2,1.3-1.7,2.6-1.7,2.6v-1.7c0,0-2.6,0.5-3.6,1.5c-1,1-2.4,0.4-2.4,0.4s-0.4-3.2-1.7-5.2c-1.3-2.1-4.6-4.5-4.6-4.5
	s0.9,1.3,1.6,2.1c0.7,0.8,2,5.8,0,7.3c-2,1.5-4,0.2-4,0.2l2.2-3.2c0,0-2.2,0.2-4.2,1c-1.9,0.8-2,2.8-2.6,2.3c-0.5-0.5-4-2.5-4-2.5
	s0.7,2.2,0,3.1s-4.4,0.4-4.4,0.4s-0.5-1.5-0.3-2.3c0.2-0.9,2.1-1.5-0.8-1c-2.3,0.4-2.3,1.8-2.3,2.4c-0.1-0.6-0.5-1.9-1.3-3.1
	c-1.1-1.5-3.7-3.2-3.7-3.2s1.3,2.2,1.7,3.7c0.3,1.5-0.7,2.7-0.7,2.6c0-0.2-2.2-3.2-2.2-3.2s-0.2,1-1.2,2.2c-1,1.3-2.8,2.8-4,0
	c-1.2-2.8-1.2-8.7-1.2-8.7s-2.8,8-3.8,9.2c-1,1.1-3.4,1.3-3.6-0.3c-0.2-1.6-5-7.2-5-7.2s0,4.4-1.8,6.6c-1.8,2.1-6.2,3.8-6.2,3.8
	s-1-2-2.8-4.1c-1.8-2.1-5.6-3.2-5.6-3.2s1,0.9,1.2,2.7c0.2,1.8-1.2,2.8-1.2,2.8s-5.2-0.7-7.4-3.1c-2.2-2.5,0.1-7.9,0.1-7.9
	s-3.1,0.9-4.9,3.8c-1.8,2.9-3.8,7.4-3.8,7.4l0.2,6.1l-1.1,1.6v58.3h1930.9v-59.6v-6.2L1926.2,1012.4z M1328,1011.2
	C1328,1011.2,1328,1011.3,1328,1011.2C1328,1011.3,1328,1011.2,1328,1011.2z"/>
</svg>
