<svg xmlns="http://www.w3.org/2000/svg" viewBox="0 0 1920 1080"  xmlns:v="https://vecta.io/nano"><linearGradient id="A" gradientUnits="userSpaceOnUse" x1="964.093" y1="1079.056" x2="964.093" y2="0"><stop offset="0" stop-color="#fff"/><stop offset=".103" stop-color="#edf7fc"/><stop offset=".312" stop-color="#bde2f5"/><stop offset=".606" stop-color="#70c0ea"/><stop offset=".972" stop-color="#0893db"/><stop offset="1" stop-color="#008fda"/></linearGradient><path d="M1927.1 1079.1H1.4L1.1 0h1926z" fill="url(#A)"/><path d="M.2 1078.7L0 790.5s105.7-52.9 122.3-69.9c16.5-17 63.3-32 73.8-27s31.7 22.1 51.2 31.1 49.6 36.1 49.6 36.1 18 40.1 40.6 51.1c22.5 11 46.6 10 60.1-2s45.1-23 69.1-23 54.1-11 70.6-21 48.1-17 63.1-9 10.5 20 57.1 30.1c46.6 10 109.7 33.1 135.2 34.1s111.2-25 123.2-27 106.7 7.1 151.8 29.1c45.1 22.1 126.2 39.1 195.3 47.2 69.1 8 166.6-33.2 214.7-55.2s144.3-74.1 159.3-74.1 84.2 12.1 111.2 26.1 59.2 26.1 89.2 28.1c30.1 2 89.5-9.6 89.5-9.6l-.1 293.9-1926.6-.9z" opacity=".4" fill="#7fe5ff"/><path d="M1927.1 1079.1V849s-96.4-109.7-104.4-114.6c-8-4.8-36.3 23.2-74.3 36.4s-94.1 59.2-114.1 50.8-156.4-2.8-156.4-2.8l-188.1-1.4s-76.1-8.4-100.2-12.5c-24-4.2-140.2 29.3-152.2 37.6-12 8.4 0 33.5-104.2 41.8-104.2 8.4-200.3 8.4-244.4-12.5s-72.1-33.5-140.2-46C480.7 813.3 421 716 421 716S296.5 825.8 280.4 834.2s-100.1 16.7-140.2 12.5L0 830.8.3 1079h1926.8z" fill="#7ad6e5"/><path d="M424.6 744.8L421 716l-100 86.4-40.5 34.4s28-5.8 40.5-12c12.5-6.3 31.6-15.2 31.6-15.2s4 12 6 13.1c2 1 6-11 16.5-25.1s21-21.4 23.5-16.7-1.5 22.5 6.5 12 8-19.3 10-27.2 9.5-20.9 9.5-20.9zM.2 832.5s49 .1 68.8 7.5 48.5 14.4 48.5 17.9 34 7 3.3 8.4-45.4-3.5-63.4-7.7-57.5 1.8-57.5 1.8l.3-27.9zm1183.5-28s-14.7 5.9-14.7 13.6 9.3 9.1 0 17.4c-9.3 8.4-40.1 11.9-46.1 12.5-6 .7-27.4-2.1-42.1 0s-28.7 6.3-30.7 6.3-20.6-8.1-12.7-11.9 29.8-6.8 38.7-11.9c8.9-5 31-11.2 38.4-13.1 7.6-1.7 69.2-12.9 69.2-12.9zm639-70.1s-26.9 12.2-32.7 15.7-41.5 20.7-41.5 20.7l-27.6 12.8c-4.4 2.4-33.1 18.9-33.1 18.9s-19 21.5-23.3 18c-4.4-3.5-13 9.4-24 13.6s-61.1 20.9-61.1 20.9 43.1 1 50.1 0 11 18.8 11 22c0 3.1 25-1 40.1-9.4 15-8.4 26-7.3 52.1-12.5 26-5.2 28-16.7 45.1-33.5 17-16.7 16-36.6 23-47.1 6.8-10.4 21.9-40.1 21.9-40.1z" fill="#89dce5"/><path d="M.1 1079.1L0 875s25-42 49-95.6c24-53.7 66.9-92.6 83.4-93.5s71.2-5 92.8 20.7 57.1 72.5 75.6 91.5 36 33.8 70 45.2 101.6 30.7 115.8 43.6 44.2 21.5 74.1 4.3c30-17.2 92-44.3 159.9-47.9 68-3.6 187.9 4.7 238.9 16.7 51 11.9 116.9 14.1 184.9 11.9 68-2.1 190-92.8 214.9-104.4 24.9-11.5 88.9-41.7 140.9 0s143 97.9 196.5 113c53.5 15 224.8 11.3 224.8 11.3l.8 187.2H.1z" fill="#5cc2b4"/><path d="M54.8 767.6s4.6-20.1 11.4-40.2c6.8-20 31.4-63 58.7-70.1 27.3-7.2 95.3-1.4 114.6 11.5s51.3 39.4 60.6 65.8c9.3 26.5 21.1 58.6 36.2 73.7s42.4 28.8 76.4 35.1c34 6.4 64.8 12.8 81.7 25s34.3 42.9 34.3 42.9 43.6 7.2 72.1-3.6c28.5-10.7 48.5-31.5 56.5-37.2s35.3-29.3 56.6-35.1c21.3-5.7 124.7-25.1 150.2-25.1s61.5 9.5 81 19.2c19.5 9.8 91.5 41.7 124.4 42.4s85.4 17.3 145.4 7.6 92.9-31.3 106.4-57.5 19.6-46.4 38-54.5c18.3-8.1 82.8-40.4 112.4-43.1s140.6 29.3 149.5 59.4 36.9 59.8 75.4 76.1 130 42.1 166 42.1 56.9-13.8 57.4 2.5c1.7 54.1 2.3 174.4 2.3 174.4H.1L0 913.4s27-21.3 42-37.4 24.5-56.8 24.2-61.1c-.2-4.3-11.4-47.3-11.4-47.3z" fill="#66cdaf"/><path d="M237.9 950.3c-6 0-62-21.5-77-49.4s-35-58-49-78.9-35-73.5-35-89.6-.7-30.9 10.5-44.3 16.4-22.8 32.2-29c15.8-6.1 41.3-8.8 55.3-8.8s55.4 7.6 63 15c7.5 7.5 38.5 26.8 48.5 40.3 10 13.4 14.4 11.9 21.5 39.7s9.5 40.3 17 52.6 13 40.3 23 55.3 19 29 13 41.9-22.5 30.1-39 38.6c-16.6 8.6-84 16.6-84 16.6zm421.4-50.4c.7-4.3-6.7-14.7 3.3-27.9s28.9-22.7 31.8-27.8 11.5-10.5 25.5-14.6 47.5-6.4 70.7-12.1c23.2-5.6 79.2-14.2 86.5-12.1s32 2.1 50 11.4 39.8 18.6 58.5 30.8c18.8 12.2 52.7 24.3 74.1 30.1 21.3 5.7 44 23.6 43.3 33.6s-48 22.2-81.3 22.9-79.3 7.2-158.6 7.2-162.6-3.6-182.6-8.6c-19.9-5-21.2-32.9-21.2-32.9zm681.6-32.2c1.3-15-2-44.4 0-55.1s12-38.6 22.7-48.7c10.7-10 58-30.8 66-32.9s33.6-10 42.1-10 41.1 4.8 57.8 13.1 59.1 8 67.9 15 17.5 14.1 26.8 33.4 17.3 44.4 24 52.2c6.7 7.9 42 28.6 54.6 32.9 12.7 4.3 18.7 16.5 7.3 22.2-11.3 5.7-58.6 30.1-100.6 35.8s-101.3.7-152.6-7.9-91.9-28.6-97.6-31.5c-5.7-2.8-18.4-18.5-18.4-18.5z" fill="#82dcba"/><path d="M114.3 705.6c-1.3-.4-6.9-33.8-3.3-39s15.7-10.1 21.5-11.3 26.6-6.5 42.5-5 62 10.6 62 10.6 34.5 28.7 42 36.7 22.5 16.9 21.9 27c-.6 10 9.4 32.9 12.4 48.7 3 15.7 10.3 34.8 15.7 53.5 5.3 18.8 10.7 33.3 10.7 33.3s-14 22.6-16 22.6-3.3-30-10.3-39.3c-7-9.4-31.3-5-36.8 0s-26.2 30.7-27.5 11.4-6-50.8-16.7-63.7-50-27.9-70.6-32.9c-20.7-5-32.4-16.5-29.2-25.8 3-9.3-18.3-26.8-18.3-26.8zM693.6 851s13.1-17.5 21.8-20l50.7-15.4c8.5-3.2 65-9.3 73.5-10.5 8.5-1.3 51.5-1.4 57 0s19.1 3.8 35.3 14.2c16.2 10.3 33.7 11.4 46.1 19.5 12.5 8.1 41 31.7 50 40.8s-18.1 34.9-57 35.4-96.4-9.7-115.9-9.7-92.5 4.3-102.4-4.3c-10-8.6 18-19.3 24.5-24.2 6.5-4.8-9.5-26.3-25-23.6s-47.5 18.8-55 16.1c-7.6-2.7-3.6-18.3-3.6-18.3zm677.3-52.8c7.3-19.3 2.4-35.2 11.3-42.9 9-7.7 24-20.8 35.3-24.3 11.3-3.6 39.3-14.3 58-14.3s44 7.8 44 7.8 28.7 10.1 34.6 10.1 33.3 5.7 38 7.9c4.7 2.1 23.4 22.1 30.1 36.2 6.6 14.2 22.1 56 38.3 60s42.2 20.8 42.2 20.8 8.7 10.3-18 20.3-109.9-1.4-139.3-16.5c-29.3-15-34-17.9-60-15.7-26 2.1-55.3 32.9-85.3-3.6-29.8-36.5-29.2-45.8-29.2-45.8z" fill="#98e9c2"/><path d="M219.8 727.6c-27.9-13.4-40.4-23.1-54.9-34.9s-34.4-37-29.2-38.2c5.2-1.1 17.2-4 26.4-4.2s27.7 0 36.2 0 30.5 8.2 38.5 10.6c8 2.3 24 14.7 29 16.8s14.5 23.7 20.5 27.9 11.5 24.7 15.5 40.3 13 36.5 8.5 49.4-17 21.5-24 5.1-10.5-41.1-19-43.2-21 4.3-29-3.2c-7.9-7.6-18.5-26.4-18.5-26.4zm555.7 85.9c5.6-2.5 34.6-8.5 43.3-8.4s34.2-1.2 42.3-2.3c8.1-1.2 42.1 1.3 49.4 3.5 7.2 2.1 18.7 9 24.8 15.1 6.2 6.1 16.4 5 10.9 16.8s-11 23.3-38.2 18.8c-27.2-4.6-35.7-13.1-51.2-10.5-15.5 2.7-30.5 6.9-35.7 1.2s-9.5-16.5-20.2-17.4-28-1.2-28.5-4.1c-.6-3.1 3.1-12.7 3.1-12.7zm635.7-69.8c1-3.2 8.6-13.5 15.1-15.7s23.4-7.4 29.5-8.7 20.4-6.2 27-4.8c6.7 1.4 25.7 1 34 6.4 8.3 5.5 37 15.6 43.5 14.3 6.5-1.4 24.1 5.1 30.5 6.7s20.8 19.6 27.4 30.9c6.5 11.4 21.3 30.8 0 29.3-21.3-1.4-44.6-3.6-65.6-12.9s-24.3-15-51.6-15-57.6 4.3-72.9-7.2c-15.3-11.4-16.8-21.8-16.8-21.8v-1.5z" fill="#afeccb"/><g fill="#cafeff"><path d="M491.4 420a28.67 28.67 0 0 0-5.2.5c-4.3-10.6-20.6-18.5-40-18.5-.9 0-1.8 0-2.7.1-2.5-3.8-7.4-6.4-13-6.4-.7 0-1.4.1-2.1.1-3.1-8.8-13.7-16-27.5-18.9 2.6-5.7 4-11.7 4-17.9 0-33.7-40.9-61-91.4-61-44.8 0-82 21.5-89.9 49.8-11.1.2-20.1 6-20.5 13.2-24.6 4.1-43.5 17.7-47.3 34.7h-.7c-26.5 0-48 14.1-48 31.4 0 17.4 21.5 31.4 48 31.4 2 0 3.9-.1 5.8-.2 15.2 3.8 37.2 6.2 61.7 6.2 25.3 0 47.9-2.6 63.1-6.6 8.3.4 16.8.6 25.6.6 25.6 0 49.4-1.8 69.2-4.7 5.7.6 11.8 1 18.2 1 15 0 28.6-1.9 38.4-5.1 2.9.4 6 .6 9.1.6 13.4 0 25.3-3.7 32.8-9.5 3.2 2.2 7.6 3.6 12.5 3.6 9.7 0 17.7-5.4 17.7-12.2-.1-6.7-8-12.2-17.8-12.2zm726.5-45.8c0-2.2-5.9-4.2-14.1-4.9-2.2-5.6-10.1-9.8-19.6-9.8-.8 0-1.5 0-2.3.1 1.2-2.3 1.9-4.7 1.9-7.2 0-13.8-19.8-25.1-45.4-26.9.6-1.3 1-2.7 1-4.1 0-8.3-11.2-15-25-15-3 0-5.9.3-8.6.9-9.5-26.6-43.7-46.3-84.4-46.3-27.3 0-51.7 8.9-67.6 22.8-2-1.7-5-2.7-8.2-2.7-6.1 0-11.1 3.7-11.1 8.3 0 3.7 3.2 6.8 7.7 7.8-4.9 7.7-7.7 16.2-7.7 25.2 0 6 1.3 11.8 3.5 17.3-1.2-.1-2.3-.2-3.5-.2-9.8 0-18.1 4.7-21.1 11.3-21.1.8-37.7 10.2-37.7 21.8 0 12.1 18.1 21.8 40.5 21.8 9.6 0 18.5-1.8 25.4-4.8 10 3 23.2 4.8 37.7 4.8 16.2 0 30.9-2.3 41.2-6 11.2 3.7 25.6 6 41.4 6 17.9 0 34.1-2.9 45.8-7.6 8.1 2.2 18.4 3.5 29.7 3.5 15.4 0 29-2.4 37.5-6.2 2.8.9 5.9 1.5 9.3 1.5 7.2 0 13.5-2.4 17.1-6.1 9.6-.8 16.6-2.9 16.6-5.3z" opacity=".5"/><path d="M1824.7 371.6c3.3-6.7 5.1-14 5.1-21.6 0-31.1-29.6-56.3-66.2-56.3h-.2c-11.8-36.6-60.7-64-119.2-64-61.6 0-112.6 30.4-120.8 69.9-.8 0-1.6-.1-2.5-.1-15.2 0-29.3 2.5-40.8 6.6-13.2-13.1-38.4-22-67.5-22-38.9 0-71.1 15.9-76.3 36.6-6.3-2.2-13.4-3.5-21-3.5-24.7 0-44.8 13.4-44.8 29.9 0 .7.1 1.5.2 2.2-5-.8-10.3-1.3-15.7-1.3-24.5 0-45.1 9.1-51.3 21.4h-1.9c-42.7 0-77.8 16.1-82.5 36.8-14.2.9-25.2 8.9-25.2 18.5 0 10.3 12.6 18.6 28.1 18.6 7 0 13.4-1.7 18.4-4.6 15.2 8.3 37 13.5 61.3 13.5 12.3 0 24-1.4 34.5-3.8 9.3 2.4 20.4 3.8 32.3 3.8 15.1 0 28.7-2.2 39.2-5.9 18 3.7 38.4 5.9 60.1 5.9 31 0 59.5-4.3 81.8-11.5 23.1 7.2 51.2 11.5 81.6 11.5 33.7 0 64.7-5.3 89-14 14.8 10.9 34 17.6 55 17.6 25.3 0 48-9.6 63.5-24.8 11.4 10 29.2 16.5 49.4 16.5 34.4 0 62.3-18.8 62.3-42-.1-13.9-10.3-26.2-25.9-33.9z" opacity=".5"/></g><g opacity=".4"><path d="M697.7 147.3c.8-2.5 1.3-5.1 1.3-7.8 0-16.6-17.2-30-38.4-30H659c-16-53.8-74.3-93.7-143.7-93.7-64.6 0-119.5 34.6-139.7 82.8-1.1 0-2.2-.1-3.2-.1-32.4 0-58.7 17.9-58.7 40 0 .5 0 1 .1 1.5-1.8-.3-3.6-.5-5.5-.5-13.6 0-24.6 8.7-24.6 19.5 0 2.2.5 4.3 1.4 6.3-7.3 6.6-12.7 14.2-15.8 22.5-1.2-.1-2.5-.1-3.7-.1-24 0-43.4 15.7-43.4 35.1s19.4 35.1 43.4 35.1c10.8 0 20.7-3.2 28.3-8.5 17.8 12.3 42.7 19.9 70.2 19.9 30.3 0 57.3-9.2 75.3-23.6 22.2 11.1 48.2 17.5 76 17.5 28.9 0 55.8-6.9 78.6-18.9 15.7 11.6 37.6 18.9 61.9 18.9 47.6 0 86.2-27.7 86.2-61.8 0-23.3-17.9-43.6-44.4-54.1z" fill="#80edff"/><linearGradient id="B" gradientUnits="userSpaceOnUse" x1="482.13" y1="18.06" x2="482.13" y2="260.407"><stop offset=".372" stop-color="#fff"/><stop offset="1" stop-color="#d8fffa"/></linearGradient><path d="M364.1 260.4c-25.6 0-49.4-6.7-67.1-18.9l-3.2-2.2-3.2 2.2c-7 4.8-15.9 7.5-25.2 7.5-20.9 0-37.9-13.3-37.9-29.6s17-29.6 37.9-29.6c1 0 2.1 0 3.3.1l4.1.3 1.5-3.8c2.8-7.3 7.6-14.1 14.4-20.3l2.9-2.7-1.6-3.6c-.6-1.4-.9-2.8-.9-4.1 0-7.6 8.7-13.9 19-13.9 1.5 0 3 .1 4.5.4l6.9 1.2-.4-7v-1.2c0-19 23.9-34.4 53.2-34.4 1 0 2 0 3 .1l3.8.1 1.5-3.5c19.9-47.5 74-79.4 134.6-79.4 32.6 0 63.3 8.9 88.8 25.8 24.5 16.2 42.1 38.9 49.6 64l1.2 4.1 4.3-.1h1.4c18.1 0 32.9 11 32.9 24.4 0 2-.3 4-1 6l-1.7 5 4.9 2c25.2 10.1 40.9 28.8 40.9 48.9 0 31-36.2 56.3-80.6 56.3-22.4 0-43.2-6.3-58.6-17.8l-2.8-2.1-3.1 1.6c-22.7 11.9-49 18.2-76 18.2-26 0-51.4-5.9-73.5-16.9l-3.2-1.6-2.8 2.2c-17.7 14.1-43.9 22.3-71.8 22.3z" fill="url(#B)"/><path d="M652.9 103.8s5.4 35.7-10.5 57.9c18-19.1 16.6-48.7 16.6-48.7l-6.1-9.2zM386 158s18.1-30.9 49.9-15.4c43.3-53.7 89.1-14.9 89.1-14.9s-49.2-31.1-88 23.7c-24.8-12.6-51 6.6-51 6.6zm304.8-10.9s-6.7 14.5-17.4 11c11.9 7.5 23.4-8.6 23.4-8.6l-1.1-5.7-4.9 3.3zm-403.2 15s18.9-7.8 30.3 8.5c-18.1-12.6-31.6-2-31.6-2l1.3-6.5z" fill="#80edff"/><linearGradient id="C" gradientUnits="userSpaceOnUse" x1="468.884" y1="168.742" x2="456.122" y2="118.804"><stop offset=".372" stop-color="#fff"/><stop offset="1" stop-color="#d8fffa"/></linearGradient><path d="M525.1 127.7c-56.1-28.9-84.7 16.6-88 23.7-25.8-12.1-51 6.7-51 6.7s17.1 13.1 58.8 8.2c41.6-4.9 136.3-9.8 80.2-38.6z" fill="url(#C)"/><linearGradient id="D" gradientUnits="userSpaceOnUse" x1="667.614" y1="161.694" x2="667.614" y2="111.786"><stop offset=".372" stop-color="#fff"/><stop offset="1" stop-color="#d8fffa"/></linearGradient><path d="M642.3 161.7c54.5-6.3 50.5-30.4 50.5-30.4s-5-19.5-33.6-19.5c-.7 21.9-4.7 36.7-16.9 49.9z" fill="url(#D)"/></g><g opacity=".4"><path d="M1755 116.3c-1-4.1-4.8-7.1-9.2-7.1h-.3c-2.8-17.6-20.8-31.1-42.7-31.1-1.3 0-2.7.1-4 .2v-.2c0-23.8-24.4-43.1-54.4-43.1S1590 54.3 1590 78.1c0 4.4.8 8.7 2.4 12.7-10.1 4.4-17.1 14-17.1 25.2 0 2.8.4 5.4 1.2 7.9-4.5 2.8-7.5 7.3-7.5 12.5 0 8.4 7.9 15.2 17.6 15.2 1 0 2-.1 3-.2 3.7 2.9 10.5 4.8 18.2 4.8 7.1 0 13.3-1.6 17.2-4.1 6.3 2.6 13.6 4.1 21.4 4.1 9.3 0 17.9-2.1 24.9-5.7 3.2 3.5 8.2 5.7 13.9 5.7 3.8 0 7.3-1 10.2-2.8 4.8 1.5 10.5 2.3 16.7 2.3 7.4 0 14.1-1.2 19.4-3.3 5 2.3 11.1 3.7 17.7 3.7 16.9 0 30.6-9 30.6-20.1.2-9.8-10.6-18-24.8-19.7z" fill="#80edff"/><linearGradient id="E" gradientUnits="userSpaceOnUse" x1="1674.548" y1="36.008" x2="1674.548" y2="152.141"><stop offset=".576" stop-color="#fff"/><stop offset="1" stop-color="#c5fffa"/></linearGradient><path d="M1749.4 152.1c-6 0-11.8-1.2-16.6-3.5l-1-.5-1 .4c-5.2 2-11.8 3.1-18.5 3.1-5.7 0-11.2-.8-15.9-2.2l-1.1-.3-1 .6c-2.6 1.6-5.7 2.4-8.9 2.4-4.8 0-9.1-1.8-12-4.9l-1.3-1.4-1.7.9c-6.9 3.6-15.1 5.5-23.8 5.5-7.2 0-14.2-1.4-20.4-3.9l-1.2-.5-1.1.7c-3.6 2.3-9.5 3.7-15.8 3.7-6.9 0-13.3-1.6-16.7-4.3l-.8-.7-1.1.2c-.9.1-1.8.2-2.6.2-8.3 0-15.1-5.7-15.1-12.7 0-4.1 2.4-7.9 6.3-10.3l1.7-1-.6-1.9c-.7-2.3-1.1-4.7-1.1-7.2 0-9.8 6.1-18.8 15.6-22.9l2.2-1-.9-2.3c-1.5-3.8-2.2-7.8-2.2-11.8 0-22.4 23.3-40.5 51.9-40.5s52.1 18.2 52.1 40.5l.2.2v2.7l2.5-.2c1.3-.1 2.4-.2 3.7-.2 20.2 0 37.4 12.5 40.1 29l.3 2.2h2.2c.1 0 .1.1.2.1h0c3.2 0 6 2.1 6.7 5.2l.4 1.6 1.7.2c13.2 1.6 22.7 8.9 22.7 17.3-.1 9.7-12.7 17.5-28.1 17.5z" fill="url(#E)"/><path d="M1696.4 76.7s-15.2 8.1-10.7 23.6c-2.6-14.6 13.4-21.1 13.4-21.1l-2.7-2.5zm-101.5 11.6s12.6-6.2 27 10c-15.2-13.6-28.4-6.8-28.4-6.8l1.4-3.2z" fill="#80edff"/><linearGradient id="F" gradientUnits="userSpaceOnUse" x1="1599.77" y1="123.485" x2="1599.77" y2="89.883"><stop offset=".372" stop-color="#fff"/><stop offset="1" stop-color="#bdfffa"/></linearGradient><path d="M1621.9 98.3s-11.2-11.2-26.1-7.7c-26.6 11.8-16.1 32.9-16.1 32.9l42.2-25.2z" fill="url(#F)"/><linearGradient id="G" gradientUnits="userSpaceOnUse" x1="1714.319" y1="110.217" x2="1714.319" y2="79.177"><stop offset=".372" stop-color="#fff"/><stop offset="1" stop-color="#bdfffa"/></linearGradient><path d="M1709.2 105.1l-23.5-4.8s-4.5-12.2 13.4-21.1c39.8-1.3 44.3 31 44.3 31l-34.2-5.1z" fill="url(#G)"/></g><g opacity=".4"><path d="M88.5 574.7c-.4-1.1-.6-2.2-.6-3.4 0-7.3 7.6-13.2 16.9-13.2h.7c7.1-23.7 32.7-41.3 63.3-41.3 28.5 0 52.6 15.2 61.6 36.5h1.4c14.3 0 25.9 7.9 25.9 17.6v.7c.8-.1 1.6-.2 2.4-.2 6 0 10.8 3.8 10.8 8.6a6.71 6.71 0 0 1-.6 2.8c3.2 2.9 5.6 6.3 7 9.9.5 0 1.1-.1 1.6-.1 10.6 0 19.1 6.9 19.1 15.5 0 8.5-8.6 15.5-19.1 15.5-4.8 0-9.1-1.4-12.5-3.8-7.8 5.4-18.8 8.8-30.9 8.8-13.3 0-25.3-4-33.2-10.4-9.8 4.9-21.2 7.7-33.5 7.7-12.7 0-24.6-3-34.6-8.3-6.9 5.1-16.6 8.3-27.3 8.3-21 0-38-12.2-38-27.2.1-10.4 8-19.3 19.6-24z" fill="#80edff"/><linearGradient id="H" gradientUnits="userSpaceOnUse" x1="183.512" y1="517.799" x2="183.512" y2="624.555"><stop offset=".372" stop-color="#fff"/><stop offset="1" stop-color="#d8fffa"/></linearGradient><path d="M235.5 624.6c11.3 0 21.8-3 29.6-8.3l1.4-1 1.4 1c3.1 2.1 7 3.3 11.1 3.3 9.2 0 16.7-5.8 16.7-13s-7.5-13-16.7-13c-.5 0-.9 0-1.5.1l-1.8.1-.7-1.8c-1.2-3.2-3.4-6.2-6.3-9l-1.3-1.2.7-1.6c.3-.6.4-1.2.4-1.8 0-3.3-3.8-6.1-8.4-6.1-.6 0-1.3.1-2 .2l-3 .5.2-3.1v-.5c0-8.4-10.5-15.2-23.4-15.2h-1.3l-1.7.1-.7-1.6c-8.8-20.9-32.6-35-59.3-35-14.4 0-27.9 3.9-39.1 11.3-10.8 7.1-18.5 17.2-21.8 28.2l-.5 1.8-1.9-.1h-.6c-8 0-14.5 4.8-14.5 10.8 0 .9.1 1.8.4 2.6l.8 2.2-2.2.9c-11.1 4.4-18 12.7-18 21.6 0 13.7 15.9 24.8 35.5 24.8 9.9 0 19-2.8 25.8-7.8l1.2-.9 1.4.7c10 5.3 21.6 8 33.5 8 11.4 0 22.6-2.6 32.4-7.5l1.4-.7 1.2 1c7.8 6.4 19.3 10 31.6 10z" fill="url(#H)"/><path d="M108.3 555.6s-2.4 15.7 4.6 25.5c-8-8.4-7.3-21.4-7.3-21.4l2.7-4.1zm-16.7 19.1s3 6.4 7.7 4.9c-5.3 3.3-10.3-3.8-10.3-3.8l.5-2.5 2.1 1.4zm177.6 6.5s-8.3-3.4-13.4 3.7c8-5.5 13.9-.9 13.9-.9l-.5-2.8z" fill="#80edff"/><linearGradient id="I" gradientUnits="userSpaceOnUse" x1="101.805" y1="581.071" x2="101.805" y2="559.086"><stop offset=".372" stop-color="#fff"/><stop offset="1" stop-color="#d8fffa"/></linearGradient><path d="M112.9 581.1c-24-2.8-22.3-13.4-22.3-13.4s2.2-8.6 14.8-8.6c.4 9.7 2.2 16.1 7.5 22z" fill="url(#I)"/></g><path d="M1927.1 880.7c-1.9-1.1-7-2.6-9.6-2.6-7.1 0-13.4 4.8-16.1 11.8-1.7-.4-3.4-.6-5.2-.6-9.1 0-17 5.2-20 12.4-2.2-1.9-4.9-3.1-8-3.1-5.7 0-10.5 4.2-12 9.9-2.7-1.1-5.8-1.7-9-1.7-11.1 0-20.1 7.1-20.5 16-1.2-.1-2.3-.2-3.5-.2-11.5 0-21.2 5.4-24.1 12.7-2.9-2.9-7.1-4.7-11.7-4.7-6.2 0-11.5 3.2-14.1 7.8-2.7-1.2-5.9-1.8-9.2-1.8-5 0-9.5 1.5-12.9 3.9-3.7-1.3-8.2-2.1-12.9-2.1-9.8 0-18.2 3.2-21.7 7.7-2.3-.7-4.9-1.1-7.6-1.1-10 0-18.3 5.5-19.7 12.6-1.6-.4-3.4-.6-5.2-.6-4.9 0-9.2 1.5-12.3 3.9-4.1-2.4-9.7-3.9-16-3.9-5.7 0-10.9 1.2-14.9 3.3-2.8-3.3-7.2-5.5-12.1-5.5-7.1 0-13 4.4-14.8 10.5-3-.9-6.4-1.4-9.9-1.4-4.2 0-8.2.7-11.7 2-9.7-4.4-20.9-6.9-32.7-6.9a84.28 84.28 0 0 0-7.1.3c-2-2.3-5.7-4.1-10.2-4.9-1.7-4-7.1-7.2-14.2-8.5.4-1 .7-2.1.7-3.2 0-5.3-5.2-9.5-11.5-9.5-1.1 0-2.2.1-3.2.4-6.1-5.7-14.7-10-24.6-11.8-1.9-3.9-8.3-6.7-16-6.7-3.4 0-6.6.6-9.2 1.5-.7-10-11.6-18-24.9-18-10.4 0-19.3 4.9-23 11.8-3.6-1.9-8-3.1-12.9-3.5v-.1c0-4.5-5.1-8.2-11.4-8.2s-11.4 3.7-11.4 8.2c0 1.8.8 3.4 2.1 4.8-.6.4-1.2.8-1.8 1.3-2.3-1.3-5.1-2-8.2-2-6.4 0-11.8 3.3-13.2 7.7-1.6-.3-3.2-.5-4.9-.5-10.6 0-19.2 6.8-19.2 15.1a11.66 11.66 0 0 0 1.5 5.8c-1.6-.3-3.3-.5-5-.5-7.3 0-13.6 2.9-16.6 7.2-2.3-1.2-4.9-1.9-7.7-1.9a15.73 15.73 0 0 0-9 2.8c-2-3.2-6.5-5.5-11.8-5.5-7.1 0-12.8 4.1-12.9 9.2-.5-.1-1.1-.1-1.6-.1-5.4 0-10 2.8-11.6 6.6-1.4-1.6-4.2-2.7-7.4-2.7-2.8 0-5.2.8-6.8 2-1.9-2.8-4.8-4.6-8.2-4.6-4.6 0-8.6 3.5-9.8 8.2-2.8-1.3-6-2-9.5-2-7.9 0-14.7 3.8-17.6 9.3-3.1-2.4-7.3-3.8-11.9-3.8-5.2 0-9.8 1.9-13 4.8-.2-1.2-.7-2.3-1.4-3.4 1.3-1.4 2-3.1 2-4.9 0-4.5-4.5-8.2-10-8.2-3.4 0-6.4 1.4-8.2 3.5-5.2-1.6-11.2-2.9-17.9-3.8-.3-1.9-3.6-3.3-7.7-3.3-1.2 0-2.4.1-3.4.4-.6-.5-1.3-.9-2.1-1.2-1.4-3.5-5.8-6-11.1-6-4.4 0-8.2 1.7-10.1 4.3-.9-.5-1.8-.8-2.8-1a11.86 11.86 0 0 0-7 .7c-1.7-2.4-4.7-4-8.1-4-3.2 0-6 1.4-7.8 3.6-.5-.5-1.1-.8-1.8-.8-1.5 0-2.7 1.4-2.7 3.2v.1c-.6-.1-1.2-.2-1.8-.2-2.5 0-4.7 1-6 2.6-1.1-.4-2.3-.7-3.6-.7-2.5 0-4.8.9-6.3 2.3-.9-.6-2.2-1-3.5-1-2.8 0-5 1.5-5.2 3.4-.5-.1-1-.1-1.5-.1-2.2 0-4.2.7-5.4 1.7-1.2-1.1-3-1.7-5-1.7-3.1 0-5.6 1.6-6.4 3.7-.6.1-1.1.3-1.6.5-.2-.7-.7-1.3-1.3-1.8-.7-1.9-3.1-3.4-6-3.4-1.2 0-2.3.2-3.2.6.2-.5.3-1.1.3-1.7 0-3.1-2.5-5.6-5.8-6.1.2-.5.4-1 .4-1.5 0-2.7-3.6-4.9-8-4.9.3-1.8-.6-3.8-2.4-4.8-2.5-1.4-5.8-.8-7.4 1.5-.7 1-.9 2.2-.7 3.4-.3 0-.7-.1-1.1-.1-3.2 0-5.9 1.7-6.3 3.9a10.9 10.9 0 0 0-2.6-.3c-3.9 0-7 1.9-7 4.3 0 .3.1.7.2 1-1.7.9-2.9 2.4-2.9 4.1v.3c-.7-.2-1.5-.3-2.4-.3s-1.8.1-2.6.4c-1.4-2.5-4.3-4.3-7.6-4.3-3.5 0-6.4 1.9-7.7 4.5h-.7c.1-.2.1-.4.1-.6 0-1.7-2.7-3.1-6.1-3.1s-6.1 1.4-6.1 3.1c0 .4.2.8.5 1.2-1-.3-2.2-.5-3.4-.6.3-.7.4-1.5.4-2.3 0-3.3-2.5-6-5.6-6-2.8 0-5.1 2.2-5.5 5.1-.9-.3-1.9-.4-3-.4-.7 0-1.5.1-2.2.2-.1 0-.3-.1-.4-.1v-.1c0-3.4-3.1-6.2-6.9-6.2-2.6 0-4.8 1.3-6 3.1-1.1-1.1-2.9-1.9-5.1-1.9-1.5 0-2.9.4-4 1-1.4-.2-2.9-.4-4.3-.7.1-.4.2-.7.2-1.1 0-2.7-3-4.9-6.6-4.9-2.6 0-4.8 1.1-5.9 2.7-1.8-.7-3.9-1.1-6.2-1.1-2.7 0-5.2.6-7.2 1.6l-6.2-.5c-.7-.2-1.5-.4-2.3-.4-.5-1.8-2.3-3.1-4.5-3.1v-.5c0-5.5-4.9-9.9-11-9.9-4.3 0-8.1 2.3-9.9 5.6-2.1-1-4.6-1.7-7.4-1.7-1.8 0-3.4.3-4.9.7-2-2.7-6.3-4.5-11.4-4.5-5.6 0-10.4 2.3-12 5.5-2.4-1.1-5.5-1.7-8.8-1.7-3.4 0-6.5.7-8.9 1.7-2.4-1.1-5.4-1.7-8.6-1.7-8.2 0-14.9 4.3-14.9 9.5 0 .8.2 1.6.5 2.3h-1.1c-1.6 0-3.1.2-4.6.5.2-.5.3-1 .3-1.5 0-4-5.8-7.3-13.3-7.8v-.5c0-3.5-4.3-6.4-9.7-6.4-1.7 0-3.3.3-4.6.8-3.5-2.4-9.2-3.9-15.6-3.9-9.2 0-16.9 3.2-18.8 7.4-3.7-2.6-9.4-4.3-15.8-4.3-5 0-9.7 1-13.2 2.7h-1.2c-5.7 0-10.4 2.5-11.2 5.7h-.1c-9.8 0-17.7 3.2-17.7 7.2 0 .7.2 1.3.7 1.9-2.5-1-5.7-1.5-9.2-1.5-8 0-14.5 3.1-14.5 6.9 0 .4.1.8.2 1.2-2.5-1-5.5-1.5-8.7-1.5-4 0-7.7.9-10.6 2.4-.6-5-6.9-8.9-14.5-8.9-3.3 0-6.4.8-8.9 2-1.4-5.5-8.1-9.6-16.1-9.6-1.5 0-3 .2-4.4.5 1.6-1.5 2.6-3.4 2.6-5.4 0-5.1-6.3-9.3-14-9.3h-.9c-1.6-2.3-5.3-4-9.5-4-1.5 0-3 .2-4.2.6-2.2-6.2-10.5-10.9-20.4-10.9-8.4 0-15.6 3.3-19 8.1-3.2-1.5-7.2-2.4-11.4-2.4-2.3 0-4.5.3-6.6.7v-.7c0-7.9-8.1-14.3-18-14.3-1.2 0-2.4.1-3.5.3-4.2-3.5-11-5.7-18.7-5.7-10 0-18.5 3.8-21.8 9.1-2.7-.9-5.7-1.4-8.8-1.4-9.5 0-17.6 4.5-20.7 10.8-2.7-1.2-6-2-9.5-2-5.9 0-11.2 2-14.3 5.2-2.2-.6-4.6-.9-7.1-.9-5.9 0-11.2 1.7-14.7 4.3-2.9-2.5-6.8-4-11.1-4-8.9 0-16.2 6.5-16.2 14.5 0 .7.1 1.4.2 2.1-3.8-.7-7.8-1.1-12.1-1.1h-1.9c-.9-6.3-6.9-11.2-14.1-11.2-6.6 0-12.1 4-13.8 9.5a25.46 25.46 0 0 0-7.4-1.1c-8.4 0-15.5 4-18.2 9.5H233c-3.7 0-7.2.5-10.4 1.4.3-1.3.5-2.7.5-4.1 0-4.6-1.8-8.9-4.9-12.4 2.2-2.1 3.5-4.7 3.5-7.5 0-7.3-8.9-13.1-19.9-13.2a29.26 29.26 0 0 0-8.6 1.3c-.2-.1-.5-.2-.7-.3a7.64 7.64 0 0 0 .8-3.3c0-6.1-8.4-11.1-18.7-11.1-9.1 0-16.7 3.9-18.3 9h-.3c-5.7 0-11 1.3-15.1 3.4-1.9-7.2-8.1-12.4-15.5-12.4-7.7 0-14.2 5.8-15.8 13.5-8.3.5-15.7 3.1-21.5 7.1-.9-.1-1.8-.1-2.8-.1-7.6 0-13.9 3.2-14.9 7.3-4.7.4-9.3 1.3-13.5 2.5-3.6-2.3-8.3-3.8-13.5-3.8-8.1 0-15.1 3.5-18.3 8.5-7.6 2.1-13.3 8.2-14.5 15.9-3.3.8-7.3 2.1-10.1 3.7l.3 137.6 1926.8.5-.5-199.1zM541.2 938.9zm91.9 17.1l-1.2-.3c.7-.1 1.3-.3 1.9-.4-.2.2-.5.4-.7.7zm8-6.7c0-.7-.2-1.4-.7-2 .7.3 1.6.6 2.4.8-.7.3-1.2.7-1.7 1.2zm57.6-10c0-.1.1-.2.1-.4.1.1.2.1.3.2-.1.1-.2.1-.4.2zm249.5 15.4c-.2-.1-.4-.1-.7-.2.3 0 .5.1.8.1 0 0 0 .1-.1.1zm336.4 4.9v-.4h.3c-.1.2-.2.3-.3.4zm236.1 9.4h-1.5c0-.1.1-.1.1-.2h1.7c-.2.1-.3.1-.3.2zm147.9 12.6c-.2-.1-.3-.2-.5-.3.4-.2.8-.3 1.2-.5-.3.3-.5.6-.7.8zm133.2-29.6c-.3-.1-.6-.1-.9-.2.4-.7.8-1.4 1.1-2.2.6.6 1.2 1.2 1.8 1.7-.6.2-1.3.5-2 .7z" fill="#279173"/><path d="M-1 947.3c2.3-3.3 13-5.3 14-6.6s-.7-9.5 6-11.5 7-3.6 14.7-5.6 10-1.3 16.7 0 5-4.9 15.7-4.9 13 .3 16 0 3.3-7.2 10.7-9.5c7.3-2.3 9.7 3 17.4-3 7.7-5.9 14.3-13.5 20-8.6s14.4 15.1 16.7 12.2c2.3-3 3.3-10.5 13.4-10.5 10 0 28.1 7.2 28.1 7.2s5.7-5.3 14.7-.3c9 4.9 8.7 4.9 7.7 11.8s3.9 11.2 4.6 16.1 5.7 20.4-3.3 7.2-18.7-20.7-23-19.7-9.4 9.8-9.4 9.8-3.3-9.5-10.7-9.8c-7.3-.4-16.7 3.9-18.7 5.2s-10-2.3-13.4-1c-3.3 1.3-16.7 7.2-17.7 9.2s-20.4-2.6-27.1-1-13.4 9.5-14.4 9.9c-1 .3-10.9-4.9-16.5-5.9s-14.3 3.9-14.3 3.9-10.4-5.3-14.7-1.6l-11 9.5s-3-.3-9.4 0c-6.3.3-10.4 7.6-10.4 7.6L-1 947.3zm221.2-7.2s3.4-1 7.1-1 4.2 2.6 5.2-1.5 1.8-6.4 7-7.2 14.7-1 16 0 2.3-5.4 8.9-6.1c6.5-.7 15.4 4.3 16.4 5.4 1 1.2 3 3.1 3.7 3.1s9-1.5 14.9 0c5.8 1.5.2-3.9 4.2-8.6s11.4-7.3 18.5-4.5c7.2 2.8 5.8 4.6 10.9 2.3 5-2.3 7-3.3 12-2.3s7.3-3.8 17.2-4.3 11.7.2 15.7.8c4 .7 8.4-4.9 13.7-5.4s15.2.8 15.2.8-9.9 1.2-11.7 7.9-3.5 14.8-3 17.1-15.7-9-19.7-5.8c-4 3.3-8.5 15.1-8.7 15.8s-20.9-6.4-26.6-5.6-15.7 9.5-17.2 9.9c-1.5.3-6.3-3.1-13.5-3.3s-12.4-2.6-19.2.2-15.5-4.4-19.9-5.8c-4.3-1.3-11.9-2.6-16 2.1-4.2 4.8-6 7.6-11.2 6.8s-7.2-2.3-10.4-2.7c-3.3-.2-9.5-8.1-9.5-8.1zm184.4-38c1-.7 10.8-3.2 14.3-3.9s15.2-.2 17.5 2 7.8-1.7 12.6 3.5 8.3 11.8 8.3 11.8 4-2.5 10.5 0 15 5.4 19.8 10.1 9.8 15.8 9.8 15.8l9 11.8s5.5-5.2 14.3 2 8.8 16.8 8.8 16.8-3.5-13.1-12-13.1-18 3-18 3 0-6.2-8.3-12.6-14.5-6.2-14-8.1c.5-2 4.5-9.4-3-14.3s-17-5.7-18.3-5.7 0-.7-4.5-5.7c-4.5-4.9-7.8-8.1-11.8-8.1s-9.8 1.7-9.8 1.7 6-.2-2-3.7c-8.2-3.6-23.2-3.3-23.2-3.3zm78.5 13.8c1.3-1.1 9.3-4.2 13-4.9 3.6-.7 13.6-1.6 15.4 1.4 1.9 3 6.4 6.9 6.4 6.9h4.1s8.3 2.2 10.3 3.1c2 1 9.3 1.1 11 2.6 1.8 1.5 1.9 6.7 1 7.5-.9.9-3.3-4.7-5.8-4.3s-7.9 1.5-9.3 1.5-.5-.9-6.6-3.3c-6.1-2.5-11.1-.5-11.9-3s-4-9-8.1-9.1-19.5 1.6-19.5 1.6zm44.6 24.6s4.8-1.6 9.4-2.1c4.5-.5 9.7.5 12.4 0 2.8-.5 7.9.5 10.9 3.5s5.9 7.1 6.8 6.5 4.8-3 10.1 0l12.3 7s6-3.7 11.4-3.2 11.5 1.9 12 1.4 9.4-5.9 13.5-6.8 15.9-5.2 15.9-5.2-7.9 3.2-10 7.3-9.8 1-12.8 6.5-3 14-4.4 13-2.8-6.9-12-6.5c-9.3.4-13.5 5.2-16.9 1.6s-7.5-8.6-17.3-9.4c-9.8-.7-13.9-.7-13.9-1.2s1.5-7.8-5.4-9-11.6-.6-13.3-.5c-1.6 0-8.7-2.9-8.7-2.9zm115.6 3.2c.8 0 3.3-3.7 6.8-5s4-6.6 9-6.9c5-.2 12.3-3 17.3-2.3s13 5.5 13 5.5-.6-4.1 5.2-5.5c5.9-1.4 10.1-4.8 17.4-3.1s12 3.5 12 3.5 3.8-3.7 6.8-.7 6.5 6.3 6.5 6.3 4.8-.9 8.5 2.7c3.8 3.6 4.8 9.1 4.8 9.1l9.8-2.3s-6-3.5 1-6.8 3.8-6.5 13.3-3.3 15.8 4.5 16 4.5c.3 0 .5-6 8.8-3.7 8.3 2.2 11.5-2 16.3-2.2s14.3 5.2 15.8 6c1.5.7 5-4.7 11.3-4.2s13.3 5.4 14.5 7.9 9.3 6.3 9.3 6.3 10.8-.6 13-1c2.3-.4-6 5-6 5s4.8 1.3 8 5.3c3.3 3.9 8.5 13.1 8.5 13.1s-6.3-3.2-10-6.2c-3.8-3-10-7.4-14.3-7.9s-6.2 1.4-8.5-2.3-7.3-7.9-16.3-6-11.3 8.5-16.8 8-16.3-4.7-18.3-5.7-11.3-8.6-14.3-6.6-4.8-.3-11.8 5.7c-7 5.9-7.8 7.6-15.5 7.6-7.8 0-21 3.2-26.1 1.7-5-1.5-12.8-4.8-16-5.4-3.3-.6-6.8-10.1-1-9.7 5.8.5-4.8-7.7-7-8.4-2.3-.7-12.8.8-15.8 2.4s-6.6 3.5-9.1 3.1c-2.4-.5-8.5-3.2-12-3.8s-12 1.4-13 2.6-3.3 1.3-6.5.8c-3.3-.5-8.3.9-8.3 2.1 0 4.7-6.3-.2-6.3-.2zm248 14.6c.8-1.8 3.8-7.7 8-7.7s7.7-.1 10.4-1.8 8.2 1.4 9 1.8c.8.3 3.3 4.6 8.4 2.7 5-1.9 7.9-5 9.5-1.2 1.7 3.9 5.6 7.2 7.1 6.2 1.4-1 2.4-1.8 6-1.5 3.5.3 5.7-4.3 9.4-4.6s9.5 4.1 10.7 4.1 2.3 3.7 5.3-1.9c3-5.5 5.5-6.5 7-7s6-2.5 9.5-3.8 4.8-5.9 10-3.8 6.7 8.9 6.7 8.9 4.5.6 5.2 4.1 4 1.6 7.3 4.3c3.3 2.6 4.6 5.9 6.6 5.9s1.3-4.3 6.1-4.4c4.8-.2 12.9-1 15.9 2s7-1.2 9.5-2.3c2.5-1.2 3.3-9.5 8.4-1.6 5 7.9-1.8 9.9-2.2 8.2-.3-1.6 2.3-4.9-2-3.3s-6.5 2.8-6.7 5.3.3 5.9-.5 4.8c-.8-1.2-2.2-5.3-5.2-6.1s-10.9 2.1-10.9 2.1-2.3-3.5-3.3-3-7.3 3.8-7.7 4.6c-.3.8-6.8-2.8-10.5-2.8s-10.7 3.9-10.7 3.9 4.3-8.2-.8-10.5c-5.2-2.3-14.5-.5-14.5-.5s3.5-4.1-2.5-3.9-13 6.2-13.7 6.8c-.7.7-5-3.8-5.7-3.6s-7.7 3.6-7.7 4.1 1.2-4.6-3.7-4.6c-4.8 0-9.4 4.8-9.4 4.8s.1 6.1-4.4 2.8-4.5-5.3-7.3-4.6-7.3 5.1-7.3 5.1 4.2-6.4-4.8-6.6-11.2 1.2-11.5 1.6c-.3.5 7-5.3-3.7-5.8-10.7-.6-13.4 1.4-13.4 1.4l-5.9 1.4zm187.4 1c1.5-.5 13.4-8.4 22.2-9.9s13.1 4.9 13.1 4.9 8.5-3.7 14-1.2 14.8 9.4 14.8 9.4 7-8.6 13-5.4 11.8 12.2 11.8 12.2-3.5 8.2 4.8 7.5 20.5 6.4 21.5 7.6 5.3 5.7 14.8 4.9c9.5-.7 16.3 7.4 17.8 10.6s1.3-4.4 8.8 0 14.5 20 14.5 20-14-10.5-18-9c-4 1.6-10.8 3.3-10.8 3.3s0-11.6-7.8-14.1-20.3 2.7-20.3 2.7-1.3-4.8-7.8-6.6-23.8 2.9-23.8 2.9-15-4.1-17.5-2.9-23 10.3-23 10.3-5.8-10.4-18.5-2.5c-12.8 7.9-17.8 14.1-17.8 14.1s2.8-11.8-6.8-7.2c-9.5 4.5-15 9-15 9s-10.8-2.2 2.3-12.6c13-10.4 23.5-8.6 23.5-8.6s-1.8-13.6 14-12.8c15.8.7 27.8.7 27.8.7s10.3-9.4 12-9.9c1.8-.5-13-12.6-19.5-10.4s-6.5-3.9-16-4.2c-9.5-.2-18.8 4.2-18.8 4.2s3-6.3.3-7c-2.8-.5-9.6 0-9.6 0zm126.8 18.7c1-3.7 7.5-8.6 12.2-9.4s4.8 2.3 10.9-2.7c6-4.9 17.2-4.1 17.2-4.1s9.5-1.8 11.7-1.5 3.3 3.9 6.7-1c3.3-4.9 14.2-3.1 14.2-3.1s10.2-9.5 20.2-3.5c10 6.1 15.4 5.4 16.2.5s21.2-7.2 22-7.2.8-7.1 0-12.5 6.7-11 12.4-11.2 19.5 2 19.5 2-9.6-2-1.8-6.2 24.6-1.9 24.6-1.9 1.3-6.5 8.8-5 21.8 1.7 21.8 1 5-6.4 9.5-7.4 11.5-5.4 15 0 12.5 18.3 13.3 18.7c.8.5 4.5-3.9 9-.2s10.5 18.5 10.5 19.2-12.5-10.9-15.8-9.1c-3.3 1.7-3.8-8.9-15-10.1-11.3-1.2-23.3 6.2-23.3 6.2s-4.5-11.3-19.3-6.2c-14.8 5.2-16.8 11.8-16.8 11.8s-9.8-8.9-14.5-6.4c-4.8 2.5-10 12.3-10 12.3s-7.3-4.8-10.5-1c-3.3 3.7-6.5 14.8-6.5 14.8s-16-7.8-22.8 2.3-11 15.3-11 15.3 3-4.7-13-7.4-24.8 4.7-24.8 4.7-8-5.2-17-3.7-14 8.9-14 8.9-8-4.1-15.5-2.7-13 5.8-13 5.8h-11.1zm161.3 18.4c6.7-8.6 32.1-29.3 43.1-27.5s10-7.2 18.7-11.7c8.7-4.6 22.7 0 22.7 0s1.3-4.6 11.4-6.2c10-1.6 22 1.3 22 1.3s-3-6.6 12-6.9 22.4 5.6 22.4 5.6 18 3 19.3 4.6 8.4 9.9 8.4 9.9 6.7-5.6 15.4-3 20.7 8.4 20.7 8.4 3-3.5 10.7-2 18 10.4 18 10.4-12.4-6.2-18.7-1.6-15.7 10.9-15.7 10.9 9.4-12.2-12.7-10.9c-22 1.3-26.7 3-26.7 3s-7.7-10.7-16.4-12-17 3.7-17 3.7-1-8.6-15.2-9.2c-14.2-.7-29.6 2.3-30.2 3.9-.7 1.6-13.4-1.6-17.7 0s-12.7 10.2-13.7 12.2-10.7-4.9-17.7-1.6-12.4 11.8-12.4 11.8-4.9-2.5-13.7-2c-8.7.5-17 8.9-17 8.9zM1920 888.1c-.7-1-1.7-5.9-10 0-8.4 5.9-12 10.9-12 10.9s-10.7-2.3-13.7 0-14 17.3-14 17.3-9-5.1-14-1.5-9 9.2-9 9.2-13 3.9-18.7 3.9-12.4 0-13.7 3.9-6.7 6.8-8 8-8.7 1.5-13 2.8-7.3 7.5-13 6.7-24.1-3.2-33.1 0-14.4 9.8-15.7 9.8-14-1.7-18.7-2-20.4 10.5-21 11.5c-.7 1-18.4 0-25.4.2s-19.4 5.1-20.7 6.8c-1.3 1.6-12.4 13.2-12.4 13.2s1.3-.7 7.3-2.3 28.7-3.6 32.1 0c3.3 3.6 12.7 15.5 12.7 15.5s-6.7-8.6 12-9.2c18.7-.7 26.4 3.9 26.7 2.3s-10.7-16.4 7-24.2c17.7-7.7 45.3-3.5 45.3-3.5s9.2 8.6 9.2 10.2-5.8-9.5 10.2-15.5c15.9-5.9 35.9-.7 35.9-.7s3-13.5 13.4-14.8 25.4 3.9 25.4 3.9 2.3-6 9.4-10.7c7-4.7 15-7.7 16.7-8.3 1.7-.7 11.4-6.2 13-10.9 1.7-4.6-1.3-19.4 1.7-21.7 2.7-2.2 8.1-10.8 8.1-10.8z" fill="#23ab77"/><path d="M229.5 1034.8c4-1.9 9.8-8.9 51 0s112.2 17.6 134.3 13.9c22-3.7 53.9-20.3 92.9-12.6 39.1 7.7 35.5 24.2 9 24.2-26.4 0-57.9-8.9-70.9 0s-33 15.9-54.5 15.9-55.5-12.8-70-12.8-34.7 1.3-54.3 6.4c-19.5 5.1-42.3 15.9-49.2-.6-6.9-16.6 9.4-31.9 9.4-31.9l2.3-2.5zm373.1 25.5c4-8.1 53.4-26.8 81.5-25.9 28.1.8 69.5 6.3 118.2 12.9 48.8 6.6 39.4 7.2 97.5 6.9s123.6 2.6 150.3-6.9 124.3-9.5 128.3-7c4 2.6 1.3 17.9-42.1 23.8-43.4 6-99.8 3.4-129.4 8.5s-43.6 5.8-89.7 5.5c-46.1-.4-77.5-10.6-116.2-11.4-38.7-.9-77.2-7.7-106.4-.9s-66 13.5-74 12.3-18-17.8-18-17.8zm250.5-30.6c10.7-8.1 17.4-9.8 70.1-9.8 52.8 0 84.2 6.9 74.2 9.8s-60.8 8.9-76.2 8.9c-15.3 0-68.1-8.9-68.1-8.9zm356 31c26.7.9 103.5-26.3 85.5-31.4s-79.5-5.1-69.5-9.4 45.4-6.9 76.2-4.7c30.7 2.2 82.2 12.7 120.9 15.1s105.6-18 112.2-10.4c6.7 7.7 22 34.5-36.1 36.4s-74.8-4.9-106.9 4-68.1 21-102.9 17.9c-34.7-3-72.3 2.1-89.3-4.7-16.8-6.8 9.9-12.8 9.9-12.8z" fill="#c7d93b"/><path d="M328.4 1004.6c2-.4 3.1 7.2 12.6 16s14.2 10.4 25 10.6 12.2 5.4 24.6 6.4 27 1.8 36.5-2.7c9.4-4.5 31.4-11.4 38-12.6 6.7-1.1 22.9-19.1 20.2-22.8s-10.9-2.4-23.9-1.1-20.2 1.8-33-5.6c-12.8-7.3-13.3-5-24.7-3.4-11.3 1.6-9.5 5.5-27.4 6s-27.6-10.5-33.5-7.7c-5.9 3-14.4 16.9-14.4 16.9z" opacity=".1"/><path d="M1926.2 1012.4l-4-7.1c-1.8-3-5-4-5-4s2.2 5.4 0 7.8c-2.2 2.5-7.5 3.1-7.5 3.1s-1.4-1-1.2-2.8 1.2-2.7 1.2-2.7-3.8 1.1-5.6 3.2-2.8 4.1-2.8 4.1-4.4-1.6-6.2-3.8c-1.8-2.1-1.8-6.6-1.8-6.6s-4.8 5.6-5 7.2-2.6 1.5-3.6.3c-1-1.1-3.8-9.2-3.8-9.2s0 5.9-1.2 8.7-3 1.3-4 0-1.2-2.2-1.2-2.2l-2.2 3.2c0 .2-1-1.1-.7-2.6s1.7-3.7 1.7-3.7-2.6 1.6-3.7 3.2c-.8 1.2-1.2 2.5-1.3 3.1.1-.6 0-2-2.3-2.4-2.9-.5-1 .1-.8 1s-.3 2.3-.3 2.3-3.7.4-4.4-.4c-.7-.9 0-3.1 0-3.1l-4 2.5c-.5.5-.6-1.5-2.6-2.3-1.9-.8-4.2-1-4.2-1l2.1 3.2s-1.9 1.4-4-.2c-2-1.5-.7-6.5 0-7.3s1.6-2.1 1.6-2.1-3.4 2.4-4.7 4.5-1.8 5.2-1.8 5.2-1 .6-2-.4-3.4-1.5-3.4-1.5v1.7s-2.1-1.3-1.9-2.6.7-2.7.3-2.6c-.3.1-2.3 1-2.7 3.2l-.3 1.3-3.2-5.7c-1.8-2.9-4.9-3.8-4.9-3.8s2.2 5.3.1 7.8l-.2-.2c-1.2-1-1.7-1.2-1.7-1.2l.5 1.7c.1.3 0 .6 0 .9-.6.4-1.3.7-1.9 1-.2-.4-.5-1-.7-1.1-.4-.2 0-.2-.3.5s-1.3 1.1-1.6 1c-.3-.2-.9-2.4-.9-2.4s-.8 1.8-.8 2.1c0 0 0 .4.1.9-.3-.2-1.3-1.2-1.1-2.7.2-1.8 1.2-2.7 1.2-2.7s-3.8 1.1-5.6 3.2-2.8 4.1-2.8 4.1-4.4-1.6-6.2-3.8c-1.8-2.1-1.8-6.6-1.8-6.6s-4.8 5.6-5 7.2-2.6 1.5-3.6.3c-1-1.1-3.8-9.2-3.8-9.2s0 5.9-1.2 8.7-3 1.3-4 0-1.2-2.2-1.2-2.2l-2.2 3.2c0 .2-1-1.1-.7-2.6s1.7-3.7 1.7-3.7-2.6 1.6-3.7 3.2c-.8 1.2-1.2 2.5-1.3 3.1.1-.6 0-2-2.3-2.4-2.9-.5-1 .1-.8 1s-.3 2.3-.3 2.3-3.7.4-4.4-.4c-.7-.9 0-3.1 0-3.1l-4 2.5c-.5.5-.6-1.5-2.6-2.3-1.9-.8-4.2-1-4.2-1l2.1 3.2s-1.9 1.4-4-.2c-2-1.5-.7-6.5 0-7.3s1.6-2.1 1.6-2.1-3.4 2.4-4.7 4.5-1.8 5.2-1.8 5.2-1.9.6-2.9-.4-4.3-1.5-4.3-1.5v1.7s-1.2-1.3-1-2.6 1.1-2.7.8-2.6-2.1 1-2.5 3.2-.3 2.9-.3 2.9-2.6-1.2-2.9-1.6c-.4-.4-.6-1.1-.6-1.3s.1-1.2 0-1.2-1.3.6-1.7 1.6-.5 2.1-.5 2.1-.8-.5-1.1-1.2.1-1-1.2-2c-1.2-1-1.7-1.2-1.7-1.2l.5 1.7c.2.8-.3 2.2-.5 2.2-.1 0-.3 0-.6.1v-.3c0-.3-.8-2.1-.8-2.1l-.4 1.4c-.1-.2-.3-.4-.4-.5-.4-.2 0-.2-.3.5-.1.3-.4.5-.7.7-.3-.2-.5-.4-.7-.7-.3-.7.1-.7-.3-.5-.1.1-.3.3-.4.5l-.4-1.4s-.8 1.8-.8 2.1v.3c-.2 0-.5-.1-.6-.1-.2 0-.7-1.4-.5-2.2l.5-1.7s-.5.1-1.7 1.2c-1.2 1-.8 1.4-1.2 2-.3.7-1.1 1.2-1.1 1.2s-.1-1.1-.5-2.1-1.6-1.5-1.7-1.6c-.1 0 0 1 0 1.2s-.3.9-.6 1.3c-.4.4-2.9 1.6-2.9 1.6s0-.8-.4-2.9c-.4-2.2-2.2-3.1-2.6-3.2-.3-.1.6 1.3.8 2.6s-1.2 2.6-1.2 2.6v-1.7s-3.1.5-4.1 1.5-2.7.4-2.7.4-.6-3.2-1.8-5.2c-1.3-2.1-4.7-4.5-4.7-4.5l1.6 2.1c.7.8 2 5.8 0 7.3s-4 .2-4 .2l2.1-3.2s-2.2.2-4.2 1c-1.9.8-2 2.8-2.6 2.3-.5-.5-4-2.5-4-2.5s.7 2.2 0 3.1-4.4.4-4.4.4-.5-1.5-.3-2.3c.2-.9 2.1-1.5-.8-1-2.3.4-2.3 1.8-2.3 2.4-.1-.6-.5-1.9-1.3-3.1-1.1-1.5-3.7-3.2-3.7-3.2s1.3 2.2 1.7 3.7c.3 1.5-.7 2.7-.7 2.6 0-.2-2.2-3.2-2.2-3.2s-.2 1-1.2 2.2c-1 1.3-2.8 2.8-4 0s-1.2-8.7-1.2-8.7-2.8 8-3.8 9.2c-1 1.1-3.4 1.3-3.6-.3s-5-7.2-5-7.2 0 4.4-1.8 6.6c-1.8 2.1-6.2 3.8-6.2 3.8s-1-2-2.8-4.1-5.6-3.2-5.6-3.2 1 .9 1.2 2.7-1.2 2.8-1.2 2.8-5.2-.7-7.4-3.1c-2.2-2.5.1-7.9.1-7.9s-3.1.9-4.9 3.8l-3.6 6.6c-.3 0-.6-.1-.7-.1-.2 0-.7-1.4-.5-2.2l.5-1.7s-.5.1-1.7 1.2c-1.2 1-.8 1.4-1.2 2-.3.7-1.1 1.2-1.1 1.2s-.1-1.1-.5-2.1-1.6-1.5-1.7-1.6c-.1 0 0 1 0 1.2s-.3.9-.6 1.3c-.4.4-2.9 1.6-2.9 1.6s0-.8-.4-2.9c-.4-2.2-2.2-3.1-2.6-3.2-.3-.1.6 1.3.8 2.6s-1.1 2.6-1.1 2.6v-1.7s-3.1.5-4.1 1.5-2.7.4-2.7.4-.6-3.2-1.8-5.2c-1.3-2.1-4.7-4.5-4.7-4.5l1.6 2.1c.7.8 2 5.8 0 7.3s-4 .2-4 .2l2.1-3.2s-2.2.2-4.2 1c-1.9.8-2 2.8-2.6 2.3-.5-.5-4-2.5-4-2.5s.7 2.2 0 3.1-4.4.4-4.4.4-.5-1.5-.3-2.3c.2-.9 2.1-1.5-.8-1-2.3.4-2.3 1.8-2.3 2.4-.1-.6-.5-1.9-1.3-3.1-1.1-1.5-3.7-3.2-3.7-3.2s1.3 2.2 1.7 3.7c.3 1.5-.7 2.7-.7 2.6 0-.2-2.2-3.2-2.2-3.2s-.2 1-1.2 2.2c-1 1.3-2.8 2.8-4 0s-1.2-8.7-1.2-8.7-2.8 8-3.8 9.2c-1 1.1-3.4 1.3-3.6-.3s-5-7.2-5-7.2 0 4.4-1.8 6.6c-1.8 2.1-6.2 3.8-6.2 3.8s-1-2-2.8-4.1-5.6-3.2-5.6-3.2 1 .9 1.2 2.7v.5l-2.8-5c-1.8-2.9-4.9-3.8-4.9-3.8s2.3 5.5.1 7.9l-.5.5-.5-.5c-2.2-2.5.1-7.9.1-7.9s-3.1.9-4.9 3.8l-2.7 4.8c0-.1-.1-.1-.1-.2v-.1c.2-1.8 1.2-2.7 1.2-2.7s-1 .3-2.3.9l-1.5-2.6c-1.8-2.9-4.9-3.8-4.9-3.8s2.3 5.5.1 7.9c-1.1 1.2-3 2-4.6 2.5-.6-.4-1.1-.8-1.5-1.3-.8-.9-1.2-2.2-1.5-3.4l.1-.1h-.1c-.3-1.6-.3-3.1-.3-3.1s-2.6 3-4 5.2c-.4.3-.8.7-1.1 1-.7.8-1.2 1.5-1.6 2.2-.7 0-1.4-.3-1.9-.9-1-1.1-3.8-9.2-3.8-9.2s0 5.9-1.2 8.7c-.2-.2-.4-.3-.5-.5-1.8-2.1-1.8-6.6-1.8-6.6s-4.8 5.6-5 7.2c0 .2-.1.4-.2.6a3.05 3.05 0 0 1-.5-2.3c.3-1.5 1.7-3.7 1.7-3.7s-2.6 1.6-3.7 3.2c-.6.8-.9 1.7-1.1 2.4-1.1-1.8-3.6-8.9-3.6-8.9s0 5.9-1.2 8.7c-1 2.3-2.3 1.7-3.3.7-.1-1 .3-2.4.3-2.4l-1.5.9c-.5-.9-.7-1.5-.7-1.5l-2.2 3.1c-.2-.2-.4-.6-.7-1-.1-.4-.2-.9 0-1.4.3-1.5 1.7-3.7 1.7-3.7s-2.6 1.6-3.7 3.2c-.1.1-.2.3-.3.4-1.7-.6-3.4-.7-3.4-.7l.8 1.2c-.2-.1-.4-.1-.7-.2-2.9-.5-1 .1-.8 1 .1.5 0 1.1-.1 1.6a4.67 4.67 0 0 1-1-.5c-2-1.5-.7-6.5 0-7.3s1.6-2.1 1.6-2.1-3.4 2.4-4.7 4.5c-.6 1-1 2.2-1.3 3.3-.9.5-2.2 1.3-2.8 1.8-.1-.1-.2-.1-.2-.2-.3-.2-.6-.5-1-.7-.3-.5-.8-.9-1.5-1.3-.9-.4-1.9-.6-2.6-.8.2-1.2.9-2.5.6-2.3-.3.1-2.2 1-2.6 3.2-.1.5-.2.9-.2 1.3l-2-3.8c.2-1.4.6-2.6 1-2.9.7-.8 1.6-2.1 1.6-2.1s-2.2 1.5-3.7 3.2v-.1c-1.8-2.9-4.9-3.8-4.9-3.8s2.2 5.3.1 7.8l-.2-.2c-1.2-1-1.7-1.2-1.7-1.2l.5 1.7c.1.3 0 .6 0 .9-.2.1-.3.2-.4.3-1.2-.5-2.5-.7-2.5-.7v.9c0 .2-.3.3-.4.4-.4-.5-1.2-1.4-1-2.3.2-1.3.9-2.7.6-2.6s-2.2 1-2.6 3.2c-.2.9-.3 1.6-.3 2.1-.3-.5-.6-1.2-.5-2.1.2-1.8 1.2-2.7 1.2-2.7s-2.4.7-4.3 2v-.4c-.1 0-1.3.6-1.7 1.6-.1.2-.2.5-.2.7-.3.4-.5.7-.8 1-.2-.2-.5-.5-.6-.8-.3-.7.1-1-1.2-2-1.2-1-1.7-1.2-1.7-1.2l.5 1.7c.2.8-.3 2.2-.5 2.2-.1 0-.4.1-.7.1l-3.6-6.6c-1.8-2.9-4.9-3.8-4.9-3.8s1.1 2.7 1 5.2c-1.1 1.4-2.3 3-2.7 4-1 .6-2.2 1-3.2 1.3-.2-.1-.4-.3-.5-.4-.5-.5-1.3-2.4-2-4.3l.2-.2s-.1 0-.2.1l-1.8-4.7s0 2.9-.4 5.6c-1.1.5-2.4 1.3-3.3 2.3l-1 1.3c-.2-.2-.3-.3-.4-.5-1-1.3-1.2-2.2-1.2-2.2l-2.2 3.2c0 .2-1-1.1-.7-2.6s1.7-3.7 1.7-3.7-2.6 1.6-3.7 3.2c-.5.7-.8 1.5-1 2.1-.2-.2-.3-.3-.4-.5-1.8-2.1-1.8-6.6-1.8-6.6s-4.8 5.6-5 7.2a1.37 1.37 0 0 1-.8 1.1c-.4-1 .1-2.9.1-2.9l-3.1 1.9c-1.1-1.7-3.7-8.9-3.7-8.9s0 4-.7 6.9c-1.7-.5-3.2-.7-3.2-.7l2.1 3.2s-.8.6-2 .6c-.5-.3-1.1-.8-1.4-1.3-1-1.3-1.2-2.2-1.2-2.2s-.2.2-.4.5c-.2-2 .5-4.5 1-5 .7-.8 1.6-2.1 1.6-2.1s-3.2 2.3-4.6 4.3c-.8.6-2 1.5-2.6 2.4-.8 1.1-1.1 2.4-1.3 3 0-.6-.1-1.9-2.3-2.3-2.6-.4-2.2 0-1.8.7-.7-.2-2.2-.3-2.2-.3v1.7s-.7-1.3-.5-2.6 1.4-2.7 1-2.6c-.3.1-1.8 1-2.3 3-.4.2-2 1.2-3 1.9l-.2-.2c-.4-.4-.6-1.1-.6-1.3s.1-1.2 0-1.2-1.1.5-1.6 1.4c-.2-.2-.5-.3-.8-.5-.7-.3-1.5-.5-2.2-.7-1.1-.9-1.6-1-1.6-1a4.42 4.42 0 0 0 .3.8c-.4-.1-.7-.1-.7-.1l.9 1.4c0 .8-.3 1.8-.5 1.8-.1 0-.3 0-.6.1v-.3c0-.3-.8-2.1-.8-2.1l-.4 1.4c-.1-.2-.3-.4-.4-.5-.4-.2 0-.2-.3.5 0 .1-.1.2-.2.3-1.3-1.9-.2-6 .5-6.8s1.6-2.1 1.6-2.1-3.4 2.4-4.7 4.5c-.7 1.2-1.2 2.7-1.5 3.8-.1-.3-.1-.7 0-.9l.5-1.7s-.5.1-1.7 1.2c-1.2 1-.8 1.4-1.2 2-.1.2-.2.4-.3.5l-.1-.1c-.2-.2-.5-.4-.9-.6-.1-.2-.1-.5-.2-.7-.4-1-1.6-1.5-1.7-1.6-.1 0 0 1 0 1.2v.4c-.6-.2-.9-.2-.9-.2v1.4c0-.4-1.5-1.4-1.3-2.4.2-1.3.8-2.7.5-2.6a4.78 4.78 0 0 0-2.4 2.3c-.7-1.5-2-2.2-2.3-2.3s.4 1.3.6 2.6c.2 1.1-1.2 2.2-1.5 2.5h-.4v-1.6s-.1.1-.8.3c-.1-.2 0-.4 0-.5 0-.2.2-1.2.1-1.2s-1.2.6-1.6 1.6c-.1.3-.2.5-.2.8-.3.2-.6.3-.8.5-.1.1-.1.1-.2.1-.1-.2-.3-.4-.4-.6-.3-.7.1-1-1.1-2s-1.7-1.2-1.7-1.2l.5 1.7c.1.3 0 .6 0 .9-.3-1.1-.8-2.6-1.5-3.8-1.3-2.1-4.7-4.5-4.7-4.5l1.6 2.1c.7.7 1.8 4.9.5 6.8-.1-.1-.2-.2-.2-.3-.3-.7.1-.7-.3-.5-.1.1-.3.3-.4.5l-.4-1.4s-.8 1.8-.8 2.1v.3c-.2 0-.5-.1-.6-.1-.2 0-.5-1-.5-1.8l.9-1.4s-.3 0-.7.1c.1-.5.3-.8.3-.8s-.5.1-1.6 1c-.7.1-1.5.4-2.2.7-.3.1-.6.3-.8.5-.4-.9-1.5-1.4-1.6-1.4s0 1 0 1.2-.3.9-.6 1.3c-.1.1-.2.1-.3.2-1-.7-2.6-1.6-3.1-1.9-.5-2-2.2-2.9-2.5-3s1 1.3 1.2 2.6-.7 2.6-.7 2.6v-1.7s-1.3.1-2.1.4c.4-.7 1.4-1.2-1.2-.8-2.2.4-2.5 2.3-2.5 2.3h0c-.1 0-.5-1.9-1.3-3-.6-.9-1.7-1.8-2.6-2.4-1.3-2-4.6-4.3-4.6-4.3l1.6 2.1c.5.6 1.2 3 1 5-.2-.3-.4-.5-.4-.5s-.2 1-1.2 2.2c-.4.5-.9 1-1.4 1.3-1.1 0-2-.6-2-.6l2.2-3.2s-1.6.1-3.2.7c-.7-3-.7-6.9-.7-6.9s-2.5 7.2-3.7 8.9l-3.1-1.9s.6 1.9.1 2.9c-.4-.2-.8-.5-.8-1.1-.2-1.6-5-7.2-5-7.2s0 4.4-1.8 6.6c-.1.2-.3.3-.4.5-.2-.6-.5-1.4-1-2.1-1.1-1.5-3.7-3.2-3.7-3.2s1.3 2.2 1.7 3.7c.3 1.5-.7 2.7-.7 2.6 0-.2-2.2-3.2-2.2-3.2s-.2 1-1.2 2.2c-.1.2-.3.3-.4.5l-1-1.3c-.8-1-2.1-1.8-3.3-2.3-.4-2.7-.4-5.6-.4-5.6l-1.8 4.7c-.1 0-.2-.1-.2-.1l.2.2-2 4.3c-.2.2-.3.3-.5.4-1-.3-2.2-.7-3.2-1.3-.4-1-1.6-2.6-2.7-4-.1-2.5 1-5.2 1-5.2s-3.1.9-4.9 3.8l-3.6 6.6c-.3 0-.6-.1-.7-.1-.2 0-.7-1.4-.5-2.2l.5-1.7s-.5.1-1.7 1.2c-1.2 1-.8 1.4-1.2 2-.1.3-.4.6-.6.8-.2-.3-.5-.7-.8-1-.1-.2-.1-.5-.2-.7-.4-1-1.6-1.5-1.7-1.6v.4c-1.9-1.3-4.3-2-4.3-2s1 .9 1.2 2.7c.1.9-.2 1.6-.5 2-.1-.5-.1-1.1-.3-2-.4-2.2-2.2-3.1-2.6-3.2-.3-.1.4 1.3.6 2.6.1.9-.9 1.9-1.3 2.3-.1-.1-.6-.2-.6-.3v-1.2s-1.1.3-2.4.8c-.2-.1-.2-.2-.4-.3 0-.3 0-.6.1-.9l.5-1.7s-.5.1-1.7 1.2l-.2.2c-2.1-2.5.1-7.8.1-7.8s-3.1.9-4.9 3.8v.1c-1.5-1.7-3.7-3.2-3.7-3.2l1.6 2.1c.3.4.8 1.6 1 2.9l-2 3.8c-.1-.4-.1-.8-.2-1.3-.4-2.2-2.2-3.1-2.6-3.2-.3-.1.3 1.1.6 2.3-.8.1-1.8.4-2.7.8-.8.3-1.3.9-1.6 1.3-.4.2-.7.4-.9.6-.1.1-.2.1-.3.2l-2.9-1.8c-.3-1-.7-2.3-1.3-3.3-1.3-2.1-4.7-4.5-4.7-4.5l1.6 2.1c.7.8 2 5.8 0 7.3-.3.3-.7.4-1 .5-.1-.5-.2-1.1-.1-1.6.2-.9 2.1-1.5-.8-1-.3 0-.5.1-.7.2l.8-1.2s-1.7.1-3.4.7c-.1-.1-.2-.3-.3-.4-1.1-1.5-3.7-3.2-3.7-3.2s1.3 2.2 1.7 3.7c.1.5.1 1 0 1.4-.3.4-.5.9-.7 1-.3-.6-2.2-3.1-2.2-3.1s-.1.6-.7 1.5l-1.5-.9s.4 1.3.3 2.4c-1 1-2.3 1.5-3.3-.7-1.2-2.8-1.2-8.7-1.2-8.7s-2.5 7.2-3.6 8.9c-.2-.7-.5-1.6-1.1-2.4-1.1-1.5-3.7-3.2-3.7-3.2s1.3 2.2 1.7 3.7a3.05 3.05 0 0 1-.5 2.3c-.1-.2-.2-.4-.2-.6-.2-1.6-5-7.2-5-7.2s0 4.4-1.8 6.6c-.1.2-.3.3-.5.5-1.2-2.8-1.2-8.7-1.2-8.7s-2.8 8-3.8 9.2c-.4.5-1.2.8-1.9.9l-1.6-2.2c-.3-.4-.7-.7-1.1-1-1.5-2.2-4-5.2-4-5.2s0 1.4-.3 3.1h-.1s.1 0 .1.1c-.3 1.2-.7 2.5-1.5 3.4-.4.5-.9.9-1.5 1.3-1.6-.5-3.5-1.3-4.6-2.5-2.2-2.5.1-7.9.1-7.9s-3.1.9-4.9 3.8l-1.5 2.6c-1.2-.6-2.3-.9-2.3-.9s1 .9 1.2 2.7v.1c0 .1-.1.1-.1.2l-2.7-4.8c-1.8-2.9-4.9-3.8-4.9-3.8s2.3 5.5.1 7.9l-.5.5-.5-.5c-2.2-2.5.1-7.9.1-7.9s-3.1.9-4.9 3.8l-2.8 5v-.5c.2-1.8 1.2-2.7 1.2-2.7s-3.8 1.1-5.6 3.2-2.8 4.1-2.8 4.1-4.4-1.6-6.2-3.8c-1.8-2.1-1.8-6.6-1.8-6.6s-4.8 5.6-5 7.2-2.6 1.5-3.6.3c-1-1.1-3.8-9.2-3.8-9.2s0 5.9-1.2 8.7-3 1.3-4 0-1.2-2.2-1.2-2.2l-2.2 3.2c0 .2-1-1.1-.7-2.6s1.7-3.7 1.7-3.7-2.6 1.6-3.7 3.2c-.8 1.2-1.2 2.5-1.3 3.1.1-.6 0-2-2.3-2.4-2.9-.5-1 .1-.8 1s-.3 2.3-.3 2.3-3.7.4-4.4-.4c-.7-.9 0-3.1 0-3.1l-4 2.5c-.5.5-.6-1.5-2.6-2.3-1.9-.8-4.2-1-4.2-1l2.2 3.2s-1.9 1.4-4-.2c-2-1.5-.7-6.5 0-7.3s1.6-2.1 1.6-2.1-3.4 2.4-4.7 4.5-1.8 5.2-1.8 5.2-2 .6-3-.4-4.3-1.5-4.3-1.5v1.7s-1.1-1.3-.9-2.6 1.1-2.7.8-2.6-2.1 1-2.5 3.2-.3 2.9-.3 2.9-2.6-1.2-2.9-1.6c-.4-.4-.6-1.1-.6-1.3s.1-1.2 0-1.2-1.3.6-1.7 1.6-.5 2.1-.5 2.1-.8-.5-1.1-1.2.1-1-1.1-2-1.7-1.2-1.7-1.2l.5 1.7c.2.8-.3 2.2-.5 2.2-.1 0-.4.1-.7.1l-3.6-6.6c-1.8-2.9-4.9-3.8-4.9-3.8s2.3 5.5.1 7.9c-2.2 2.5-7.4 3.1-7.4 3.1s-1.4-1-1.2-2.8 1.2-2.7 1.2-2.7-3.8 1.1-5.6 3.2-2.8 4.1-2.8 4.1-4.4-1.6-6.2-3.8c-1.8-2.1-1.8-6.6-1.8-6.6s-4.8 5.6-5 7.2-2.6 1.5-3.6.3c-1-1.1-3.8-9.2-3.8-9.2s0 5.9-1.2 8.7-3 1.3-4 0-1.2-2.2-1.2-2.2l-2.2 3.2c0 .2-1-1.1-.7-2.6s1.7-3.7 1.7-3.7-2.6 1.6-3.7 3.2c-.8 1.2-1.2 2.5-1.3 3.1.1-.6 0-2-2.3-2.4-2.9-.5-1 .1-.8 1s-.3 2.3-.3 2.3-3.7.4-4.4-.4c-.7-.9 0-3.1 0-3.1l-4 2.5c-.5.5-.6-1.5-2.6-2.3-1.9-.8-4.2-1-4.2-1l2.1 3.2s-1.9 1.4-4-.2c-2-1.5-.7-6.5 0-7.3s1.6-2.1 1.6-2.1-3.4 2.4-4.7 4.5-1.8 5.2-1.8 5.2-2 .6-3-.4-4.3-1.5-4.3-1.5v1.7s-1.2-1.3-1-2.6 1.1-2.7.8-2.6-2.1 1-2.5 3.2-.3 2.9-.3 2.9-2.6-1.2-2.9-1.6c-.4-.4-.6-1.1-.6-1.3s.1-1.2 0-1.2-1.3.6-1.7 1.6-.5 2.1-.5 2.1-.8-.5-1.1-1.2.1-1-1.2-2c-1.2-1-1.7-1.2-1.7-1.2l.5 1.7c.2.8-.3 2.2-.5 2.2a1.76 1.76 0 0 0-.6.1v-.3c0-.3-.8-2.1-.8-2.1l-.4 1.4c-.1-.2-.3-.4-.4-.5-.4-.2 0-.2-.3.5-.1.3-.4.5-.7.7-.3-.2-.5-.4-.7-.7-.3-.7.1-.7-.3-.5-.1.1-.3.3-.4.5l-.4-1.4s-.8 1.8-.8 2.1v.3c-.2 0-.5-.1-.6-.1-.2 0-.7-1.4-.5-2.2l.5-1.7s-.5.1-1.7 1.2c-1.2 1-.8 1.4-1.2 2-.3.7-1.1 1.2-1.1 1.2s-.1-1.1-.5-2.1-1.6-1.5-1.7-1.6c-.1 0 0 1 0 1.2s-.3.9-.6 1.3c-.4.4-2.9 1.6-2.9 1.6s0-.8-.4-2.9c-.4-2.2-2.2-3.1-2.6-3.2-.3-.1.5 1.3.7 2.6s-1.2 2.6-1.2 2.6v-1.7s-3.1.5-4.1 1.5-2.7.4-2.7.4-.6-3.2-1.8-5.2c-1.3-2.1-4.7-4.5-4.7-4.5l1.6 2.1c.7.8 2 5.8 0 7.3s-4 .2-4 .2l2.1-3.2s-2.2.2-4.2 1c-1.9.8-2 2.8-2.6 2.3-.5-.5-4-2.5-4-2.5s.7 2.2 0 3.1-4.4.4-4.4.4-.5-1.5-.3-2.3c.2-.9 2.1-1.5-.8-1-2.3.4-2.3 1.8-2.3 2.4-.1-.6-.5-1.9-1.3-3.1-1.1-1.5-3.7-3.2-3.7-3.2s1.3 2.2 1.7 3.7c.3 1.5-.7 2.7-.7 2.6 0-.2-2.2-3.2-2.2-3.2s-.2 1-1.2 2.2c-1 1.3-2.8 2.8-4 0s-1.2-8.7-1.2-8.7-2.8 8-3.8 9.2c-1 1.1-3.4 1.3-3.6-.3s-5-7.2-5-7.2 0 4.4-1.8 6.6c-1.8 2.1-6.2 3.8-6.2 3.8s-1-2-2.8-4.1-5.6-3.2-5.6-3.2 1 .9 1.2 2.7c.2 1.6-.9 2.5-1.1 2.7.1-.6.1-.9.1-.9 0-.3-.8-2.1-.8-2.1s-.6 2.2-.9 2.4-1.3-.3-1.6-1 .1-.7-.3-.5c-.3.2-.6.7-.7 1.1-.7-.3-1.3-.6-1.9-1 0-.3-.1-.6 0-.9l.5-1.7s-.5.1-1.7 1.2l-.2.2c-2.1-2.5.1-7.8.1-7.8s-3.1.9-4.9 3.8l-3.2 5.7c-.1-.4-.1-.8-.2-1.3-.4-2.2-2.2-3.1-2.6-3.2-.3-.1.8 1.3 1 2.6s-.9 2.6-.9 2.6v-1.7s-3.3.5-4.3 1.5-2.8.4-2.8.4-.6-3.2-1.9-5.2c-1.3-2.1-4.7-4.5-4.7-4.5l1.6 2.1c.7.8 2 5.8 0 7.3s-4 .2-4 .2l2.1-3.2s-2.2.2-4.2 1c-1.9.8-2 2.8-2.6 2.3-.3-.4-1.9-1.3-2.9-1.9l-1.8-3.1c-1.8-2.9-4.9-3.8-4.9-3.8s1.6 3.8.8 6.4c-.2 0-.4.1-.6.1-2.3.4-2.3 1.8-2.3 2.4-.1-.6-.5-1.9-1.3-3.1-1.1-1.5-3.7-3.2-3.7-3.2s1.3 2.2 1.7 3.7c.3 1.5-.7 2.7-.7 2.6s-1.2-1.8-1.8-2.7l.5-.7-.8.3-.1-.1v.2c-1.3.5-3.4 1.4-4.7 2.9-.2-.2-.3-.5-.4-.8-1.2-2.8-1.2-8.7-1.2-8.7s-2.8 8-3.8 9.2c-1 1.1-3.4 1.3-3.6-.3-.1-.6-.7-1.6-1.5-2.7-.3-1.5-.3-2.9-.3-2.9l-1 1.2-2.3-2.8s0 4.4-1.8 6.6c-.9 1-2.3 1.9-3.6 2.6-1-1.2-3.8-9.1-3.8-9.1s0 4.3-.8 7.3l-.9-1.1c-1.8-2.1-5.6-3.2-5.6-3.2s1 .9 1.2 2.7c.1.5 0 .9-.1 1.3-.1-.3-.2-.5-.2-.5l-1.4 2-1.5-.3v-1c.3-1.5 1.7-3.7 1.7-3.7s-2.6 1.6-3.7 3.2c-.2.2-.3.5-.4.7-1.1-.5-2.2-1.1-3-1.9-2.2-2.5.1-7.9.1-7.9s-2.8.9-4.6 3.8-3.5 6.9-3.5 6.9v.7c0 .3-1.1.5-1.3.7-.5.5-.8-1.5-2.7-2.3s-4.2-1-4.2-1l2.1 3.2s-2 1.4-4-.2c-2-1.5-.7-6.5 0-7.3s1.6-2.1 1.6-2.1-3.4 2.4-4.7 4.5-1.8 5.2-1.8 5.2-1.1.6-2.1-.4-3.5-1.5-3.5-1.5v1.7s-2-1.3-1.8-2.6.7-2.7.4-2.6-2.3 1-2.7 3.2l-.3 1.3-3.2-5.7c-1.8-2.9-4.9-3.8-4.9-3.8s2.2 5.3.1 7.8l-.2-.2c-1.2-1-1.7-1.2-1.7-1.2l.5 1.7c.1.3 0 .6 0 .9-.6.4-1.3.7-1.9 1-.2-.4-.5-1-.7-1.1-.4-.2 0-.2-.3.5s-1.3 1.1-1.6 1c-.3-.2-.9-2.4-.9-2.4s-.8 1.8-.8 2.1c0 0 0 .4.1.9-.3-.2-1.3-1.2-1.1-2.7.2-1.8 1.2-2.7 1.2-2.7s-3.8 1.1-5.6 3.2-2.8 4.1-2.8 4.1-4.4-1.6-6.2-3.8c-1.8-2.1-1.8-6.6-1.8-6.6s-4.8 5.6-5 7.2-2.6 1.5-3.6.3c-1-1.1-3.8-9.2-3.8-9.2s0 5.9-1.2 8.7-3 1.3-4 0-1.2-2.2-1.2-2.2l-2.2 3.2c0 .2-1-1.1-.7-2.6s1.7-3.7 1.7-3.7-2.6 1.6-3.7 3.2c-.8 1.2-1.2 2.5-1.3 3.1.1-.6 0-2-2.3-2.4-2.9-.5-1 .1-.8 1s-.3 2.3-.3 2.3-3.7.4-4.4-.4c-.7-.9 0-3.1 0-3.1l-4 2.5c-.5.5-.6-1.5-2.6-2.3-1.9-.8-4.2-1-4.2-1l2.1 3.2s-1.9 1.4-4-.2-.7-6.5 0-7.3 1.6-2.1 1.6-2.1-3.4 2.4-4.7 4.5-1.8 5.2-1.8 5.2-.9.6-1.9-.4-3.2-1.5-3.2-1.5v1.7s-2.2-1.3-2-2.6.6-2.7.3-2.6-2.4 1-2.8 3.2l-.5 3s-2.6-1.2-3-1.6-.6-1.1-.6-1.3.1-1.2 0-1.2-1.3.6-1.7 1.6-.5 2.1-.5 2.1-.8-.5-1.1-1.2.1-1-1.2-2c-1.2-1-1.7-1.2-1.7-1.2l.5 1.7c.2.8-.3 2.2-.5 2.2-.1 0-.3 0-.6.1v-.3c0-.3-.8-2.1-.8-2.1l-.4 1.4c-.1-.2-.3-.4-.4-.5-.4-.2 0-.2-.3.5-.1.3-.4.5-.7.7-.3-.2-.5-.4-.7-.7-.3-.7.1-.7-.3-.5-.1.1-.3.3-.4.5l-.4-1.4s-.8 1.8-.8 2.1v.3c-.2 0-.5-.1-.6-.1-.2 0-.7-1.4-.5-2.2l.5-1.7s-.5.1-1.7 1.2c-1.2 1-.8 1.4-1.2 2-.3.7-1.1 1.2-1.1 1.2s-.1-1.1-.5-2.1-1.6-1.5-1.7-1.6c-.1 0 0 1 0 1.2s-.3.9-.6 1.3c-.4.4-2.9 1.6-2.9 1.6s0-.8-.4-3-2.2-3.1-2.6-3.2c-.3-.1.4 1.3.6 2.6s-1.3 2.6-1.3 2.6v-1.7s-3 .5-4 1.5-2.7.4-2.7.4-.5-3.2-1.8-5.2-4.7-4.5-4.7-4.5l1.6 2.1c.7.8 2 5.8 0 7.3s-4 .2-4 .2l2.2-3.2s-2.2.2-4.2 1c-1.9.8-2 2.8-2.6 2.3-.5-.5-4-2.5-4-2.5s.7 2.2 0 3.1-4.4.4-4.4.4-.5-1.5-.3-2.3c.2-.9 2.1-1.5-.8-1-2.3.4-2.3 1.8-2.3 2.4-.1-.6-.5-1.9-1.3-3.1-1.1-1.5-3.7-3.2-3.7-3.2s1.3 2.2 1.7 3.7c.3 1.5-.7 2.7-.7 2.6 0-.2-2.2-3.2-2.2-3.2s-.2 1-1.2 2.2c-1 1.3-2.8 2.8-4 0s-1.2-8.7-1.2-8.7-2.8 8-3.8 9.2c-1 1.1-3.4 1.3-3.6-.3s-5-7.2-5-7.2 0 4.4-1.8 6.6c-1.8 2.1-6.2 3.8-6.2 3.8s-1-2-2.8-4.1-5.6-3.2-5.6-3.2 1 .9 1.2 2.7-1.2 2.8-1.2 2.8-5.2-.7-7.4-3.1c-2.2-2.5.1-7.9.1-7.9s-3.1.9-4.9 3.8l-3.6 6.6c-.3 0-.6-.1-.7-.1-.2 0-.7-1.4-.5-2.2l.5-1.7s-.5.1-1.7 1.2c-1.2 1-.8 1.4-1.2 2-.3.7-1.1 1.2-1.1 1.2s-.1-1.1-.5-2.1-1.6-1.5-1.7-1.6c-.1 0 0 1 0 1.2s-.3.9-.6 1.3c-.4.4-2.9 1.6-2.9 1.6s0-.8-.4-3-2.2-3.1-2.6-3.2c-.3-.1.5 1.3.7 2.6s-1.2 2.6-1.2 2.6v-1.7s-3 .5-4 1.5-2.7.4-2.7.4-.5-3.2-1.8-5.2c-1.3-2.1-4.7-4.5-4.7-4.5l1.6 2.1c.7.8 2 5.8 0 7.3s-4 .2-4 .2l2.1-3.2s-2.2.2-4.2 1c-1.9.8-2 2.8-2.6 2.3-.5-.5-4-2.5-4-2.5s.7 2.2 0 3.1-4.4.4-4.4.4-.5-1.5-.3-2.3c.2-.9 2.1-1.5-.8-1-2.3.4-2.3 1.8-2.3 2.4-.1-.6-.5-1.9-1.3-3.1-1.1-1.5-3.7-3.2-3.7-3.2s1.3 2.2 1.7 3.7c.3 1.5-.7 2.7-.7 2.6 0-.2-2.2-3.2-2.2-3.2s-.2 1-1.2 2.2c-1 1.3-2.8 2.8-4 0s-1.2-8.7-1.2-8.7-2.8 8-3.8 9.2c-1 1.1-3.4 1.3-3.6-.3s-5-7.2-5-7.2 0 4.4-1.8 6.6c-1.8 2.1-6.2 3.8-6.2 3.8s-1-2-2.8-4.1-5.6-3.2-5.6-3.2 1 .9 1.2 2.7v.5l-2.8-5c-1.8-2.9-4.9-3.8-4.9-3.8s2.3 5.5.1 7.9l-.5.5-.5-.5c-2.2-2.5.1-7.9.1-7.9s-3.1.9-4.9 3.8l-2.8 5v-.5c.2-1.8 1.2-2.7 1.2-2.7s-3.8 1.1-5.6 3.2-2.8 4.1-2.8 4.1-4.4-1.6-6.2-3.8c-1.8-2.1-1.8-6.6-1.8-6.6s-4.8 5.6-5 7.2-2.6 1.5-3.6.3c-1-1.1-3.8-9.2-3.8-9.2s0 5.9-1.2 8.7-3 1.3-4 0-1.2-2.2-1.2-2.2l-2.2 3.2c0 .2-1-1.1-.7-2.6s1.7-3.7 1.7-3.7-2.6 1.6-3.7 3.2c-.8 1.2-1.2 2.5-1.3 3.1.1-.6 0-2-2.3-2.4-2.9-.5-1 .1-.8 1s-.3 2.3-.3 2.3-3.7.4-4.4-.4c-.7-.9 0-3.1 0-3.1l-4 2.5c-.5.5-.6-1.5-2.6-2.3-1.9-.8-4.2-1-4.2-1l2.1 3.2s-1.9 1.4-4-.2c-2-1.5-.7-6.5 0-7.3s1.6-2.1 1.6-2.1-3.4 2.4-4.7 4.5-1.8 5.2-1.8 5.2-1.6.6-2.6-.4-4-1.5-4-1.5v1.7s-1.5-1.3-1.3-2.6 1-2.7.6-2.6c-.3.1-2.2 1-2.6 3.2-.1.5-.2.9-.2 1.3l-3.2-5.7c-1.8-2.9-4.9-3.8-4.9-3.8s2.2 5.3.1 7.8l-.2-.2c-1.2-1-1.7-1.2-1.7-1.2l.5 1.7c.1.3 0 .6 0 .9-.6.4-1.3.7-1.9 1-.2-.4-.5-1-.7-1.1-.4-.2 0-.2-.3.5s-1.3 1.1-1.6 1c-.3-.2-.9-2.4-.9-2.4s-.8 1.8-.8 2.1c0 0 0 .4.1.9-.3-.2-1.3-1.2-1.1-2.7.2-1.8 1.2-2.7 1.2-2.7s-3.8 1.1-5.6 3.2-2.8 4.1-2.8 4.1-4.4-1.6-6.2-3.8c-1.8-2.1-1.8-6.6-1.8-6.6s-4.8 5.6-5 7.2-2.6 1.5-3.6.3c-1-1.1-3.8-9.2-3.8-9.2s0 5.9-1.2 8.7-3 1.3-4 0-1.2-2.2-1.2-2.2l-2.2 3.2c0 .2-1-1.1-.7-2.6s1.7-3.7 1.7-3.7-2.6 1.6-3.7 3.2c-.8 1.2-1.2 2.5-1.3 3.1.1-.6 0-2-2.3-2.4-2.9-.5-1 .1-.8 1s-.3 2.3-.3 2.3-3.7.4-4.4-.4 0-3.1 0-3.1l-4 2.5c-.5.5-.6-1.5-2.6-2.3-1.9-.8-4.2-1-4.2-1l2.1 3.2s-1.9 1.4-4-.2c-2-1.5-.7-6.5 0-7.3s1.6-2.1 1.6-2.1-3.4 2.4-4.7 4.5-1.8 5.2-1.8 5.2-1.4.6-2.4-.4-3.7-1.5-3.7-1.5v1.7s-1.8-1.3-1.6-2.6.8-2.7.5-2.6-2.2 1-2.6 3.2l-.4 3s-2.6-1.2-2.9-1.6-.6-1.1-.6-1.3.1-1.2 0-1.2-1.3.6-1.7 1.6-.5 2.1-.5 2.1-.8-.5-1.1-1.2.1-1-1.2-2c-1.2-1-1.7-1.2-1.7-1.2l.5 1.7c.2.8-.3 2.2-.5 2.2-.1 0-.3 0-.6.1v-.3c0-.3-.8-2.1-.8-2.1l-.4 1.4c-.1-.2-.3-.4-.4-.5-.4-.2 0-.2-.3.5-.1.3-.4.5-.7.7-.3-.2-.5-.4-.7-.7-.3-.7.1-.7-.3-.5-.1.1-.3.3-.4.5l-.4-1.4s-.8 1.8-.8 2.1v.3c-.2 0-.5-.1-.6-.1-.2 0-.7-1.4-.5-2.2l.5-1.7s-.5.1-1.7 1.2c-1.2 1-.8 1.4-1.2 2-.3.7-1.1 1.2-1.1 1.2s-.1-1.1-.5-2.1-1.6-1.5-1.7-1.6c-.1 0 0 1 0 1.2s-.3.9-.6 1.3c-.4.4-2.9 1.6-2.9 1.6s0-.8-.4-3-2.2-3.1-2.6-3.2c-.3-.1 0 1.3.2 2.6s-1.7 2.6-1.7 2.6v-1.7s-2.5.5-3.5 1.5-2.4.4-2.4.4-.4-3.2-1.7-5.2c-1.3-2.1-4.6-4.5-4.6-4.5l1.6 2.1c.7.8 2 5.8 0 7.3s-4 .2-4 .2l2.2-3.2s-2.2.2-4.2 1c-1.9.8-2 2.8-2.6 2.3-.5-.5-4-2.5-4-2.5s.7 2.2 0 3.1-4.4.4-4.4.4-.5-1.5-.3-2.3c.2-.9 2.1-1.5-.8-1-2.3.4-2.3 1.8-2.3 2.4-.1-.6-.5-1.9-1.3-3.1-1.1-1.5-3.7-3.2-3.7-3.2s1.3 2.2 1.7 3.7c.3 1.5-.7 2.7-.7 2.6 0-.2-2.2-3.2-2.2-3.2s-.2 1-1.2 2.2c-1 1.3-2.8 2.8-4 0s-1.2-8.7-1.2-8.7-2.8 8-3.8 9.2c-1 1.1-3.4 1.3-3.6-.3s-5-7.2-5-7.2 0 4.4-1.8 6.6c-1.8 2.1-6.2 3.8-6.2 3.8s-1-2-2.8-4.1-5.6-3.2-5.6-3.2 1 .9 1.2 2.7-1.2 2.8-1.2 2.8-5.2-.7-7.4-3.1c-2.2-2.5.1-7.9.1-7.9s-3.1.9-4.9 3.8l-3.6 6.6c-.3 0-.6-.1-.7-.1-.2 0-.7-1.4-.5-2.2l.5-1.7s-.5.1-1.7 1.2c-1.2 1-.8 1.4-1.2 2-.3.7-1.1 1.2-1.1 1.2s-.1-1.1-.5-2.1-1.6-1.5-1.7-1.6c-.1 0 0 1 0 1.2s-.3.9-.6 1.3c-.4.4-2.9 1.6-2.9 1.6s0-.8-.4-3-2.2-3.1-2.6-3.2c-.3-.1 0 1.3.2 2.6s-1.7 2.6-1.7 2.6v-1.7s-2.6.5-3.6 1.5-2.4.4-2.4.4-.4-3.2-1.7-5.2c-1.3-2.1-4.6-4.5-4.6-4.5l1.6 2.1c.7.8 2 5.8 0 7.3s-4 .2-4 .2l2.2-3.2s-2.2.2-4.2 1c-1.9.8-2 2.8-2.6 2.3-.5-.5-4-2.5-4-2.5s.7 2.2 0 3.1-4.4.4-4.4.4-.5-1.5-.3-2.3c.2-.9 2.1-1.5-.8-1-2.3.4-2.3 1.8-2.3 2.4-.1-.6-.5-1.9-1.3-3.1-1.1-1.5-3.7-3.2-3.7-3.2s1.3 2.2 1.7 3.7c.3 1.5-.7 2.7-.7 2.6 0-.2-2.2-3.2-2.2-3.2s-.2 1-1.2 2.2c-1 1.3-2.8 2.8-4 0s-1.2-8.7-1.2-8.7-2.8 8-3.8 9.2c-1 1.1-3.4 1.3-3.6-.3s-5-7.2-5-7.2 0 4.4-1.8 6.6c-1.8 2.1-6.2 3.8-6.2 3.8s-1-2-2.8-4.1-5.6-3.2-5.6-3.2 1 .9 1.2 2.7-1.2 2.8-1.2 2.8-5.2-.7-7.4-3.1c-2.2-2.5.1-7.9.1-7.9s-3.1.9-4.9 3.8-3.8 7.4-3.8 7.4l.2 6.1-1.1 1.6v58.3h1930.9v-65.8l-2.1-2zm-598.2-1.2s0 .1 0 0c0 .1 0 0 0 0z" fill="#e0f04b"/></svg>