<?xml version="1.0" encoding="utf-8"?>
<!-- Generator: Adobe Illustrator 24.1.1, SVG Export Plug-In . SVG Version: 6.00 Build 0)  -->
<svg version="1.1" id="Laag_1" xmlns="http://www.w3.org/2000/svg" xmlns:xlink="http://www.w3.org/1999/xlink" x="0px" y="0px"
	 viewBox="0 0 48 48" style="enable-background:new 0 0 48 48;" xml:space="preserve">
<g>
	<g>
		<g>
			<g>
				<path style="fill:#FFCE33;" d="M9.5,17.4c2.8,2.2,5.9,7,14,9.4c8.4,2.4,19.2-1,20.9,2.5c2.1,4.3-11.7,9.8-24.1,7.2
					c-6-1.3-14.2-7-15.7-16.4c-0.4-2.6,1.2-3.2-0.3-6.7l1.8-0.8C6.1,12.6,5.3,14.1,9.5,17.4z"/>
			</g>
		</g>
		<g>
			<path style="fill:#FFFFFF;" d="M29.1,28.9c-0.3,0.2-0.6,0.4-0.8,0.7c-0.3,0.5,0.4,0.9,0.9,1c0.8,0.2,1.7,0.3,2.6,0.4
				c1.1,0.1,2.1-0.1,3.1-0.2c0.9-0.1,1.8-0.3,2.7-0.7c0.7-0.3,1.5-0.7,1.7-1.5c0,0,0-0.1,0-0.1c-2.4-0.2-5.7,0.2-9,0.1
				C29.8,28.5,29.4,28.7,29.1,28.9z"/>
		</g>
		<g>
			<path style="fill:#683C13;" d="M43.6,32.3c0,0,1.7-1.3,0.9-3.1c-0.4-0.9-1.5-1.2-2.1-1.4c0,0,0.8,1.2,1,2
				C43.7,30.8,43.6,32.3,43.6,32.3z"/>
		</g>
		<g>
			<path style="fill:#FDD998;" d="M44.4,29.3c2.1,4.3-11.7,9.8-24.1,7.2c-6-1.3-14.2-7-15.7-16.4c-0.4-2.6,1.2-3.2-0.3-6.7
				c0,0,3.6,15,16.1,18.4C35.1,35.8,44.4,29.3,44.4,29.3z"/>
		</g>
	</g>
	<g>
		<g>
			<g>
				<path style="fill:#FFCE33;" d="M8.8,14.5c3.3,1.5,7.6,5.6,16.1,5.7c8.8,0.1,18.2-6.5,20.8-3.3c3.2,3.8-8.5,13.4-21.2,14.2
					c-6.1,0.4-15.6-3.2-19.7-12.4c-1.1-2.6,0.3-3.7-2.1-6.8l1.5-1.3C4.3,10.5,3.9,12.3,8.8,14.5z"/>
			</g>
		</g>
		<g>
			<path style="fill:#FFFFFF;" d="M30.9,20.8c-0.2,0.3-0.5,0.6-0.6,0.9c-0.1,0.6,0.6,0.8,1.1,0.8c0.9,0,1.7-0.2,2.6-0.3
				c1-0.2,2-0.6,2.9-1.1c0.8-0.4,1.7-0.9,2.4-1.5c0.6-0.5,1.3-1.2,1.2-2c0,0,0-0.1,0-0.1c-2.3,0.5-5.4,1.8-8.7,2.6
				C31.5,20.3,31.2,20.5,30.9,20.8z"/>
		</g>
		<g>
			<path style="fill:#683C13;" d="M45.8,20.3c0,0,1.3-1.8,0-3.4C45.1,16,44,16,43.4,16c0,0,1.1,1,1.6,1.8
				C45.5,18.7,45.8,20.3,45.8,20.3z"/>
		</g>
		<g>
			<path style="fill:#FDD998;" d="M45.8,16.9c3.2,3.8-8.5,13.4-21.2,14.2c-6.1,0.4-15.6-3.2-19.7-12.4c-1.1-2.6,0.3-3.7-2.1-6.8
				c0,0,7.6,14.4,20.6,14.4C38.6,26.2,45.8,16.9,45.8,16.9z"/>
		</g>
		<g>
			<path style="fill:#683C13;" d="M4.6,17.8c0,0,0.7-2.5,3.8-3.4c0,0-1.8-0.8-2.8-2C5.1,11.8,4.7,10.1,4,9.9
				c-0.5-0.1-1.5,1.3-1.5,1.3C4.1,14.1,3.9,16,4.6,17.8z"/>
		</g>
	</g>
</g>
</svg>
