<?xml version="1.0" encoding="utf-8"?>
<!-- Generator: Adobe Illustrator 24.1.1, SVG Export Plug-In . SVG Version: 6.00 Build 0)  -->
<svg version="1.1" id="Laag_1" xmlns="http://www.w3.org/2000/svg" xmlns:xlink="http://www.w3.org/1999/xlink" x="0px" y="0px"
	 viewBox="0 0 192 192" style="enable-background:new 0 0 192 192;" xml:space="preserve">
<g>
	<linearGradient id="SVGID_1_" gradientUnits="userSpaceOnUse" x1="178.8632" y1="-87.3964" x2="128.4124" y2="24.7595">
		<stop  offset="0" style="stop-color:#CF5C2B"/>
		<stop  offset="1" style="stop-color:#59173E"/>
	</linearGradient>
	<path style="fill:url(#SVGID_1_);" d="M183.5,29.4c-1-13.8-12.3-24.6-26.1-25.2c-38.9-1.6-77.6-1.6-116.1,0
		c-2.8,0.1-5.6,0.7-8.2,1.6c-1.3,0.5-2.6,1-3.8,1.7c-6,3.3-10.1,9-13.2,14.9c-3,5.6-6,11.6-6.9,18c-0.6,4.7-0.8,9.4-1,14.1
		c-0.1,4-0.9,8.9,0.7,12.7c0.4,1.1,1.1,2.1,1.8,3c0.2,0.2,2.3,2.4,2.6,2.2c-1.9,1.8-4.8,2.4-6,4.7c-1.3,2.5-0.4,6.4-0.3,9
		c0.2,4.8-0.4,10.8,1.4,15.3c0.7,1.7,1.9,3.3,3.7,3.9C9.5,106.9,8.5,110,8,113c-0.8,4.9-0.6,9.8-0.4,14.7c0.2,4.1-0.2,9.2,1.4,13
		c0.9,2.2,3,4.2,5.4,4.3c-1.8,0.5-3.8,1.1-4.9,2.7c-1.5,2.3-1.3,7.2-1,9.9c0.6,7.3,3.6,15,8.8,20.2c3.1,3.1,7,5.5,11.2,6.9
		c2.2,0.7,4.6,1.3,6.9,1.3c40.9,2.4,80.3,2.6,118,0.2c0.2,0,0.3,0,0.5,0c4.6-0.4,9-1.9,12.9-4.4c3.7-2.4,6.9-5.8,9.1-9.6
		c2.5-4.5,3.7-9.8,5-14.7c0.4-1.4,0.7-2.8,1-4.2c0.9-4.4,2.8-12.2,0.5-16.5c-0.4-0.7-1.2-1.4-2-1.3c1.1-0.1,2-1,2.5-2
		c1-2.2,0.9-5.2,1.1-7.6c0.4-4.8,0.6-9.5,0.7-14.3c0.2-6.3,0.4-12.6,0.5-19c0.1-6.2,0.1-12.4,0.1-18.6c0-6.4,0.5-13.7-0.5-20.2
		c-0.2-1.4-0.7-2.7-1.4-3.8c-0.4-0.6-0.9-1.2-1.6-1.2c1-1.5,1.7-3.2,2.1-5C184.6,39,183.8,34,183.5,29.4z"/>
	<linearGradient id="SVGID_2_" gradientUnits="userSpaceOnUse" x1="157.6037" y1="-47.5027" x2="-20.9155" y2="364.644">
		<stop  offset="0" style="stop-color:#CF5C2B"/>
		<stop  offset="1" style="stop-color:#59173E"/>
	</linearGradient>
	<path style="fill:url(#SVGID_2_);" d="M185.3,61.2c0,4.8-0.1,9.6-0.1,14.5c0,2.3,0,4.6,0,7c0,1.3,0,2.5,0,3.7
		c-0.1,6.6-0.2,13.1-0.3,19.7c-0.1,3.3-0.2,6.5-0.3,9.8c-0.1,2,0,3.8-0.7,5.6c-0.7,2.1-0.7,4.5-0.9,6.7c-0.1,0.7-0.2,1.4-0.7,1.9
		c-0.5,0.5-1.2,0.5-1.8,0.6c-1.1,0.1-2.2,0.2-3.2,0.3c-10.9,1.1-21.8,2.1-32.6,0.8c3.5,0.5,7,1,10.5,1.6c8.2,1.2,16.3,2.4,24.5,3.6
		c0.6,0.1,1.3,0.2,1.8,0.7c0.7,0.6,0.8,1.7,0.7,2.7c-0.1,1.5-0.2,2.9-0.5,4.3c-0.4,2.9-0.9,5.7-1,8.6c0,0.6,0.1,1.2,0,1.8
		c-0.3,1.8-1.6,3.6-2.7,5c-4.8,6.7-12.4,10.9-20.6,11.4c-37,2.3-75.8,2.1-116.1-0.2c-5.8-0.3-11.4-2.6-15.9-6.3
		c-2.7-2.3-5.1-5.1-6.6-8.3c-0.7-1.5-0.9-3.1-1.5-4.6c-0.1-0.3-0.3-0.6-0.4-1c-0.2-1-0.1-2.1,0.7-2.7c0.9-0.7,2.1-0.8,3.3-0.8
		c12.8-0.4,25.6-1.2,38.4-1.6c4-0.1,8.1-0.2,12.1-0.2c-1.4-0.2-2.9-0.4-4.3-0.6c-6.6-0.8-13.3-1-19.9-1.3c-0.1,0-0.2,0-0.3,0
		c-8-0.3-16-0.6-24-1.9c-1.5-0.3-3.1-0.6-4.4-1.2c-1-0.5-1.9-1.1-2.5-2c0-0.1-0.1-0.2-0.1-0.2c-0.9-1.4-1.3-3.6-1-5.2
		c0.4-1.9,0.1-3.7,0-5.7c-0.2-3.4-0.4-6.8-0.5-10.2c-0.1-1.9-0.2-3.7-0.3-5.6c0-1-0.1-2.2,0.6-3c0.5-0.6,1.4-0.8,2.2-1
		c2.5-0.6,5-1.3,7.6-1.6c1.1-0.2,2.3-0.3,3.4-0.4c-2.9-0.7-5.9-1.3-8.8-2c-0.9-0.2-1.8-0.4-2.6-0.8c-0.2-0.1-0.4-0.2-0.5-0.3
		c-1.5-1-1.8-2.5-2-4c-0.1-0.5-0.1-1-0.2-1.6c-0.2-1.2-0.4-2.4-0.5-3.6c-0.2-1.9-0.3-3.7-0.4-5.6c-0.2-4.1-0.4-9.3,2.2-12.7
		c0.9-1.2,2.6-1.5,4.1-1.7c7.2-0.9,14.4-1.6,21.6-2.2c6-0.5,12.1-0.9,18.1-1.1c-11.9,0.5-23.8,0-35.6-1.6c-1.9-0.3-3.9-0.6-5.6-1.4
		c0,0-0.1,0-0.1-0.1c-0.5-0.2-0.9-0.5-1.3-0.8c-0.9-0.7-1.6-1.7-2-2.8c-0.4-1.2-0.2-2.1,0-3.3c0-0.4,0-0.8,0-1.3
		c-0.1-2.6,0.1-5.2,0.2-7.8c0-1.3,0.1-2.6,0.2-4c0.2-5.8,0.5-11.5,0.8-17.3c0.8-14,12.2-25,26.2-25.6c38.5-1.6,77.2-1.5,116.1,0
		c12.5,0.5,23.4,9.8,25.7,22.1c0.7,3.8,1,7.9,0.3,11.7c-0.2,1-0.4,1.9-0.8,2.8c-0.2,0.5-0.5,1.6-1,2c0,0-0.1,0.1-0.1,0.1
		c-0.3,0.2-0.8,0.3-1.2,0.3c-2.3,0.5-4.6,1-6.9,1.4c-4.6,0.8-9.2,1.4-13.9,1.8c-9.3,0.8-18.7,1-28,1.1h-0.3c2.6,0.2,5.1,0.3,7.7,0.5
		c11.6,0.7,23.1,1.4,34.7,2c2.8,0.2,5.7,0.4,8.1,1.8c0,0,0,0,0,0C185.1,53.9,185.3,57.7,185.3,61.2z"/>
	<linearGradient id="SVGID_3_" gradientUnits="userSpaceOnUse" x1="137.9785" y1="3.4215" x2="-40.5405" y2="415.5677">
		<stop  offset="0" style="stop-color:#CF5C2B"/>
		<stop  offset="1" style="stop-color:#59173E"/>
	</linearGradient>
	<path style="fill:url(#SVGID_3_);" d="M185.3,61.2c0,4.8-0.1,9.6-0.1,14.5c0,2.3,0,4.6,0,7c0,1.3,0,2.5,0,3.7
		c-17.8,1.2-35.7,2.7-53.6,3.8c-20.8,1.3-41.7,2.7-62.5,4c-11.2,0.7-22.3,1.6-33.5,2.8c-7.5,0.8-14.6,2.1-21.9,1.6
		c-0.1-0.5-0.1-1-0.2-1.6c-0.2-1.2-0.4-2.4-0.5-3.6c7.4-1.6,14.8-1.3,22.6-1.6c10.5-0.3,20.8-1.1,31.3-2c20.8-1.9,41.7-4,62.5-6.3
		c12.4-1.4,24.8-2.7,37.3-4.1c-0.4,0-0.8,0-1.2-0.1c-20.4-1.1-40.4-4.9-60.7-6.7c-20.1-1.8-40.3-3.4-60.5-4.6
		c-8.2-0.5-17.5-0.4-26.8-1c0,0-0.1,0-0.1-0.1c-0.5-0.2-0.9-0.5-1.3-0.8c-0.9-0.7-1.6-1.7-2-2.8c-0.4-1.2-0.2-2.1,0-3.3
		c0-0.4,0-0.8,0-1.3c-0.1-2.6,0.1-5.2,0.2-7.8c0-1.3,0.1-2.6,0.2-4c10.3-0.6,20.8,0.1,29.9,0.2c20.2,0.2,40.3,1.2,60.5,2.3
		c20.2,1.2,40.4,0.7,60.7,1.7c5.5,0.3,11,0.5,16.4,0.6C185.1,53.9,185.3,57.7,185.3,61.2z M118.4,108.5c-34.4,1.6-70.7,0.1-104.2,9
		c0.2,3.4,0.3,6.8,0.5,10.2c0.1,2,0.3,3.8,0,5.7c-0.3,1.6,0.1,3.8,1,5.2c10.1,2.7,20.5,4.3,31.1,5.4c0.1,0,0.2,0,0.3,0
		c6.6,0.7,13.3,1,19.9,1.3c17.2,0.6,34.6,0.3,51.4,0.4c21.1,0.2,42.2-0.2,63.2-1c0.2-1.4,0.4-2.9,0.5-4.3c0-1,0-2.1-0.7-2.7
		c-0.5-0.4-1.2-0.5-1.8-0.7c-8.2-1.2-16.3-2.4-24.5-3.6c-3.5-0.5-7-1-10.5-1.6c10.9,1.2,21.8,0.3,32.6-0.8c1.1-0.1,2.2-0.2,3.2-0.3
		c0.6,0,1.3-0.1,1.8-0.6c0.5-0.5,0.6-1.2,0.7-1.9c0.3-2.1,0.2-4.6,0.9-6.7c0.6-1.8,0.6-3.6,0.7-5.6c0.1-3.3,0.2-6.5,0.3-9.8
		C162.7,106.7,140.5,107.4,118.4,108.5z"/>
	<path style="fill:#EB924D;" d="M15.8,138.7c-1-1.4-1.4-3.7-1.1-5.4c0.4-1.9,0.1-3.7,0-5.7c-0.3-5.3-0.5-10.5-0.8-15.8
		c0-1-0.1-2.2,0.6-3c0.5-0.6,1.4-0.8,2.2-1c2.5-0.6,5-1.3,7.6-1.6c-1.4,1.1-2.8,2-4.5,2.8c-0.6,0.3-1.2,0.6-1.6,1.1
		c-0.5,0.5-0.6,1.3-0.8,1.9c-1.4,6.6-0.7,13.5,0.1,20.2c0.3,2.8,0.7,5.6,0.9,8.5C17.3,140.3,16.4,139.6,15.8,138.7z"/>
	<path style="fill:#EB924D;" d="M13.4,97c-0.5-3-0.7-6.2-0.9-9.2c-0.2-4.1-0.4-9.3,2.2-12.7c0.9-1.2,2.6-1.5,4.1-1.7
		c7.2-0.9,14.4-1.6,21.6-2.2c-6.8,2.3-14.7,2.3-21.3,5.1c-1.2,0.5-2.4,1.2-3.1,2.3c-0.5,0.8-0.6,1.6-0.8,2.5c-0.4,2.7-0.7,5.3-0.6,8
		c0.1,1.8,0.3,3.5,0.4,5.3c0.3,2.9,0.7,5.7,1.1,8.6c-0.2-0.1-0.4-0.2-0.5-0.3C13.8,101.2,13.8,99.1,13.4,97z"/>
	<path style="fill:#EB924D;" d="M153.9,132.8c0.3,0.1,0.6,0.3,0.9,0.4C154.4,133.1,154.1,133,153.9,132.8z"/>
	<path style="fill:#EB924D;" d="M182.1,140.3c-0.2,4.4-1.3,8.6-1.5,12.9c0,0.6,0.1,1.2,0,1.8c-0.3,1.8-1.6,3.6-2.7,5
		c-4.8,6.7-12.4,10.9-20.6,11.4c-37,2.3-75.8,2.1-116.1-0.2c-5.8-0.3-11.4-2.6-15.9-6.3c-2.7-2.3-5.1-5.1-6.6-8.3
		c-0.7-1.5-0.9-3.1-1.5-4.6c-0.1-0.3-0.3-0.6-0.4-1c-0.2-1-0.1-2.1,0.7-2.7c0.9-0.7,2.1-0.8,3.3-0.8c12.8-0.4,25.6-1.2,38.4-1.6
		c-11.3,0.6-22.5,2.2-33.6,4.2c-1.5,0.3-3.2,0.4-4.7,0.8c-0.2,0.1-0.5,0.1-0.7,0.3c-0.3,0.3-0.2,0.7-0.2,1.1
		c0.2,1.3,0.9,2.4,1.7,3.5c2.6,3.4,5.3,6.9,9.1,8.9c9.1,4.8,18.5,4.1,28.8,3.9c2.1-0.1,4.2,0,6.3-0.4c1.1-0.2,2.3,0,3.4,0
		c2.4,0.1,4.8,0.1,7.3,0.2c4.8,0.1,9.7,0.3,14.5,0.4c9.1,0.3,18.1,0.5,27.2,0.8c8.6,0.2,17.3,0.4,25.9-0.3c8.5-0.7,17-2.3,24.9-5.7
		c0.6-0.3,1.4-0.5,1.9-1c0.4-0.3,0.7-0.7,1.2-1c1.3-0.9,2.6-1.7,3.7-2.8c0.8-0.7,1.8-1.6,2.3-2.7c0.2-0.5,0.3-1.2,0.5-1.8
		c0.6-1.6,0.8-3.2,1-4.9c0.1-1.8,0-3.7-0.2-5.5c-0.1-0.8,0-2.3-0.5-3c-0.3-0.4-0.9-0.7-1.3-0.9c-1.1-0.6-2.4-0.8-3.6-1
		c-6.6-1.2-13-3.2-19.1-5.9c8.2,1.2,16.3,2.4,24.5,3.6c0.6,0.1,1.3,0.2,1.8,0.7C182.1,138.3,182.1,139.4,182.1,140.3z"/>
	<path style="fill:#EB924D;" d="M14.1,63.3c-0.3-1.3-0.3-2.8-0.3-4.1c0.2-6.7,0.4-13.5,0.7-20.2c0.3-6.2,0.2-12.7,2.8-18.4
		c4.2-9.4,13.6-15.9,23.9-16.3c38.5-1.6,77.2-1.5,116.1,0c12.5,0.5,23.4,9.8,25.7,22.1c0.7,3.8,1,7.9,0.3,11.7
		c-0.2,1-0.4,1.9-0.8,2.8c-0.2,0.5-0.5,1.6-1,2c-0.8-6.2,0.7-13-1.5-18.8c-1.3-3.5-3.2-7-6.2-9.3c-9.9-7.7-24.5-7.2-36.4-7.4
		C104.5,6.7,71.8,5.7,39,8.7c-1.5,0.1-3-0.4-4.4-0.2c-3.2,0.5-6.4,2.8-8.8,4.9c-3.3,3-5.8,6.8-7.3,11c-0.4,1.2-0.8,2.4-1.1,3.7
		c-3.2,12.2-1.8,26.3-0.3,38.7c-1.4-0.5-2.4-1.8-2.8-3.2C14.2,63.5,14.1,63.4,14.1,63.3z"/>
	<path style="fill:#EB924D;" d="M185.3,61.2c0,4.8-0.1,9.6-0.1,14.5c0,2.3,0,4.6,0,7c-0.1,11.1-0.2,22.2-0.7,33.2
		c-0.1,2,0,3.8-0.7,5.6c-0.7,2.1-0.7,4.5-0.9,6.7c-0.1,0.7-0.2,1.4-0.7,1.9c-0.5,0.5-1.2,0.5-1.8,0.6c-1.1,0.1-2.2,0.2-3.2,0.3
		c0.6-0.4,1.1-1,1.5-1.7c0.5-1.1,0.6-2.3,0.7-3.5c1.6-19.5,1.7-39.1,1.1-58.7c-0.1-2.6-0.2-5.2-0.3-7.8c0-0.6,0.1-1.2,0-1.7
		c-0.1-0.8-0.5-1.5-1-2.1c-1.1-1.3-2.8-2.2-4.4-2.7c-11.9-4-25.3-1.1-37.4-4.7h1.5c11.6,0.7,23.1,1.4,34.7,2
		c2.8,0.2,5.7,0.4,8.1,1.8C185.1,53.9,185.3,57.6,185.3,61.2z"/>
</g>
</svg>
