<?xml version="1.0" encoding="utf-8"?>
<!-- Generator: Adobe Illustrator 24.1.1, SVG Export Plug-In . SVG Version: 6.00 Build 0)  -->
<svg version="1.1" id="Laag_1" xmlns="http://www.w3.org/2000/svg" xmlns:xlink="http://www.w3.org/1999/xlink" x="0px" y="0px"
	 viewBox="0 0 48 48" style="enable-background:new 0 0 48 48;" xml:space="preserve">
<g id="_x36_68210775">
	<path style="fill:#5C2F10;" d="M46.4,40.1c1.5-3.1,0.8-6.2-1.7-8.5c-1.9-1.9-4.4-2.2-6.7-0.9c-2.3,1.3-2.6,4.5-0.7,6.3
		c0.7,0.6,2.6,1.4,3.9,1.1c0.1-0.1,0.2-0.2,0.4-0.3c0.4-0.4,0.6-0.7,0.7-1.2c0,0,0-0.1,0-0.1c0-0.7-0.4-1.6-1.1-1.8
		c-0.4-0.1-0.8-0.1-1.1,0.2c-0.2,0.1-0.5,0.4-0.6,0.7c0,0,0,0,0,0c0,0.1,0,0.2,0.1,0.3c0,0.3,0.2,0.6,0.4,0.7
		c-0.6,0.2-1.1,0-1.5-0.7c-0.5-0.6-0.6-1.4-0.4-2.1c0.4-2,2.9-2.1,4.4-1.3c2.7,1.4,2.2,5.2,1.2,7.5c-1.3,2.8-5.2,4-8.1,3.3
		c0,0,0,0-0.1,0c-4.3-1.3-5.5-6.7-5.2-10.7c0.1-1.8,0.9-3.5,1.4-5.2c0.5-1.8,0.6-3.5,0.2-5.3c-0.4-1.6-1-3.3-2-4.6
		c-0.4-0.6-0.3-1.4-0.8-2c-0.5-0.6-1.7-0.5-1.4-1.7c0.2-0.9-1.7-0.4-1.7-1.6c0-0.3-0.3-0.5-0.5-0.7c-0.1-0.1-0.3-0.1-0.4-0.2
		c-0.2,0-0.3-0.1-0.4-0.2c-0.5-0.4-0.7-0.8-0.6-1.5c0.1-0.4,0.1-0.8,0-1.3c-0.1-0.5-0.6-0.7-1.1-0.8c0.5-0.6,1.8-0.7,2.4-1.1
		c0.2-0.1,0.7-0.4,0.6-0.7c-0.2-0.8-1.6-1.1-2.2-1.3c-1.5-0.4-3-0.7-4.5-0.9c-0.5-0.1-2.7-0.3-2.9,0l0,0c0,0,0,0,0,0
		c-0.2-0.2-0.5-0.4-0.8-0.6c-1.1-0.5-2.3-0.2-3.3,0.4C11,3.5,9.9,3.5,8.8,3.7C7.8,4,6.6,4.4,5.6,4.9C5.3,5.2,1.6,7.4,3,7.9
		c0.1,0,0.3,0.1,0.4,0.1c0.4,0.1,0.8,0.1,1.2,0.2c0.7,0.2,1.3,0.6,1.9,1c0.6,0.4,1.2,1,1.7,1.6c-0.4-0.1-0.9-0.5-1.3-0.7
		C6.4,9.8,5.8,9.7,5.2,9.5C4.1,9.3,3,9.2,1.9,9.6c-0.4,0.1-1.3,0.5-1,1c0.1,0.1,0.3,0.1,0.4,0.1c0.5,0,1,0,1.5,0.1
		c-0.2,0.1-0.4,0.1-0.4,0.3c-0.1,0.4,0.5,0.7,0.8,0.8c1.2,0.6,2.4,1,3.4,1.9c1,0.8,1.9,1.7,3.1,2.3c0.9,0.5,2.1,1,3.2,0.9
		c0,0.2,0,0.3,0,0.4c0.2,1,0.4,1.7,0.6,2.5c0,0.2,0.1,0.4,0.1,0.6c-1.3-0.1-2.5-0.4-3.8-0.8c-0.5-0.4-0.9-0.9-1.5-1.2
		c-0.6-0.4-1.4-1-2.2-1c-0.4,0-0.6,0.1-0.5,0.6c0.1,0.3,0.3,0.4,0.5,0.6c0.5,0.4,1,0.5,1.4,0.9c-0.8-0.1-2.1-0.5-2.5-0.2
		c-0.5,0.4-0.4,1.1,0.2,1.3C5.7,20.9,6.1,21,6.5,21c0.8,0.1,1.5,0.2,2.1,0.8c0.2,0.2,0.5,0.4,0.8,0.6c0.4,0.3,1.1,0.6,1.4,0.1
		c1.2,0.3,2.5,0.5,3.8,0.7c0.2,0.5,0.5,1,0.8,1.6c0.8,1.4,1.8,2.6,2.9,3.8c1.2,1.3,2.3,2.7,3.7,3.8c0.1,0.6,0.2,1.2,0.3,1.8
		c-1-1.2-2.4-2.7-3-2.8c-0.6-0.1-1,0.3-0.7,0.9c0.2,0.4,0.8,0.7,1.1,1c0.5,0.4,0.9,0.8,1.3,1.3c-0.9-0.7-2-1.4-2.8-1.2
		c-1.5,0.3,0.3,1.4,0.9,1.7c1.3,0.5,2.3,1.2,3.2,2.2c0.5,0.5,0.8,1.1,1.5,1.4c0,0,0,0,0,0c0.8,0,1.1-0.7,1-1.4
		c0-0.2-0.1-0.5-0.1-0.7c0-0.1,0-0.1-0.1-0.2c0,0,0,0,0,0c0-0.3-0.1-0.7-0.1-1c0,0,0,0,0,0c0-0.2,0-0.5-0.1-0.7
		c0.7,1.2,1.7,2.2,2.5,3.3c1.2,1.6,2.6,3.1,4,4.5c2.2,2.1,5.5,3,8.4,3C42.6,45.3,45.1,43,46.4,40.1z"/>
	<path style="fill:#71CDE0;" d="M13.1,17c0.2,0,0.4,0,0.6,0c0.1,0.6,0.5,1,0.8,1.5c0.3,0.4,0.5,0.7,0.8,1.1c0.4,0.6-0.9,0.9-1.4,0.9
		C13.6,19.4,13.4,18.2,13.1,17z"/>
	<path style="fill:#71CDE0;" d="M34.5,44.2c-2.4-0.8-4-2.7-5.6-4.5c-0.9-1-1.7-2-2.5-3.1c-0.7-0.9-1.6-1.8-2-2.8c0,0,0,0,0,0
		c0-0.7,0-1.4-0.1-2.1c-0.1-0.8-0.1-1.6-0.3-2.3c-0.1-0.7-0.4-1.5-0.4-2.2c0,0,0-0.1,0-0.1c0-0.1,0-0.2,0-0.3c0,0,0,0,0,0
		c-0.5,1.3,0.1,3.2,0.3,4.5c0.1,0.9,0.1,1.9,0.2,2.8c0,0.5,0,1,0.1,1.5c0.1,0.6,0.3,1.2,0.4,1.8c0,0.3,0.1,0.9-0.2,1
		c-0.4,0.1-0.9-0.3-1.1-0.5c-0.3-0.2-0.5-0.5-0.7-0.8c-0.5-0.5-1-1-1.7-1.4c-0.4-0.2-0.7-0.4-1.1-0.6c-0.1,0-0.2-0.1-0.3-0.1
		c-0.1,0-0.2-0.1-0.3-0.1c-0.2-0.1-0.5-0.2-0.7-0.4c-0.2-0.3-0.3-0.8,0.2-0.9c0.7-0.1,1.4,0.5,2,0.9c0.4,0.3,0.9,0.7,1.4,0.9
		c0.1,0.1,0.3,0.1,0.4,0.2c-0.2-0.1-0.4-0.3-0.6-0.4c-0.3-0.5-0.6-0.9-1.1-1.4c-0.2-0.2-0.4-0.4-0.7-0.6c-0.1-0.1-0.2-0.1-0.3-0.2
		c-0.2-0.1-0.4-0.2-0.6-0.4c-0.2-0.2-0.3-0.6,0-0.7c0.6-0.4,1.4,0.5,1.7,1c0.6,0.6,1.2,1.3,1.7,2c0,0,0,0,0,0.1
		c0.3,0.3,0.5,0.5,0.8,0.8c0-0.1-0.2-0.4-0.5-0.8c-0.2-1.6-0.5-3.2-0.6-4.8c0-0.4,0-0.7-0.1-1.1c0-0.2,0-0.5,0-0.7c0,0,0-0.1,0-0.1
		c0-1.1,0-2.2,0.3-3.2c0.4-1.2,1-0.4,1.4,0.2c0.6,0.8,1,1.9,1.4,2.9c0.3,0.8,0.6,1.6,0.9,2.4c0.2,0.5,0.3,1.2,0.5,1.7
		c0,0,0.1,0,0.1,0c-0.3-0.8-0.4-1.8-0.6-2.7c-0.3-1.1-0.8-2.1-1.3-3.1c-0.2-0.5-1.2-2.6-2-2.5c-1,0.5-1,2-0.9,3c0,0.8,0,1.6-0.1,2.4
		c0,1,0.1,2,0.2,2.9c-2.4-2-4.6-4.7-6.2-7.3c-0.3-0.5-0.5-1-0.7-1.4c0,0,0.1,0,0.1,0c0.2,0,0.5,0.1,0.8,0.1c0,0,0,0,0.1,0
		c0.2,0.1,0.5,0.1,0.7,0.1c0.1,0,0.1,0,0.2,0.1c0,0,0,0,0,0c0.9,0.1,1.8,0.2,2.6,0c1.7-0.5-2.1-5.5-2.5-6c0,0-0.1,0-0.1,0
		c0.5,0.8,1,1.7,1.5,2.6c0.5,0.8,1.9,3.3-0.3,3.2c-1-0.1-1.9-0.2-2.9-0.3c-0.2,0-0.5-0.1-0.7-0.1c0,0,0,0,0,0
		c-1.4-0.3-2.8-0.6-4.2-0.9c-0.1,0-0.2,0-0.4,0.1c-0.1,0-0.1,0-0.1,0c0,0,0,0,0.1,0.1c0.2,0.1,0.4,0.1,0.6,0.2
		c-0.8,0.3-1.5-0.9-2-1.2c-0.7-0.3-1.5-0.4-2.3-0.5c-0.6,0-1.3-0.2-1.2-0.8c0.1-0.3,0.5-0.5,0.8-0.5c0.4,0,0.7,0.1,1.1,0.3
		c0.1,0,0.2,0,0.3,0.1c0.3,0.1,0.6,0.1,0.9,0.1c0.4,0,0.5-0.1,0.4-0.5c0,0-0.1,0-0.1,0c-0.1,0.2-0.3,0.2-0.6,0.2
		c-0.1-0.2-0.3-0.4-0.5-0.6c-0.4-0.2-0.8-0.4-1.1-0.8c-0.7-1,1.1-0.2,1.4,0c0.7,0.4,1.2,0.8,1.8,1.3c0.3,0.2,0.6,0.4,0.9,0.6
		c0,0,0,0,0,0c0.7,0.2,1.5,0.4,2.3,0.5c0.3,0.1,0.6,0.1,1,0.2c0.8,0.1,1.3,0,2-0.4c0.5-0.3,0.3-0.8,0.2-1c-0.2-0.4-0.4-0.7-0.7-1.1
		c-0.4-0.4-0.8-0.8-1.1-1.3c0.6,0,1.2-0.1,1.7-0.3c0.6-0.2,1-0.5,1.2-1.1c0.3-0.7-0.3-1.4,0.4-1.9c0.2,0,0.3,0,0.5,0
		c0.1-0.1,0.2-0.1,0.3-0.3c0.1-0.5-0.2-1.6,0.6-1.5c0.6,0.1,1.1,0.2,1.7,0.2c0.8,0.1,1.5-0.2,2-0.9c0.2-0.3,0.3-0.7,0.4-1.1
		c-0.1-0.6-0.1-1.3,0-1.9c0-0.2,0.1-0.7,0.3-0.8c1.4,0.8,0.4,1.5,0.6,2.7c0.1,0.4,0.3,0.6,0.6,0.8c0,0,0,0,0,0.1
		c0.5,0.4,1.6,0.1,1.5,1.1c0,0.3,0.1,0.7,0.4,0.8c0.1,0,0.3,0.2,0.5,0.2c1,0,0.7,0.6,0.8,1.1c0,0.3,0.5,0.6,0.7,0.6
		c1,0.5,1.1,1.6,1.6,2.4c1.3,1.9,2,4.1,2.2,6.4c0.2,2.1-0.6,4-1.2,6c-0.6,1.9-0.8,3.7-0.6,5.7c0.3,3.2,1.8,6.6,5,7.7
		c1.3,0.6,2.9,0.5,4.3,0.3c2-0.2,3.9-1.7,4.9-3.4c1.6-2.9,1.1-7.1-2.3-8.2c-2.6-0.9-5.8,2.1-3.4,4.4c0.3,0.3,0.6,0.5,1,0.7
		c0.2,0,0.4,0.1,0.6,0c0.3-0.1,0.6-0.2,0.8-0.5c0,0,0.2-0.4,0.2-0.6c-0.2-0.1-0.3-0.1-0.4-0.1c-0.1,0-0.1,0-0.1,0.1
		c-0.1,0.2-0.3,0.3-0.4,0.1c0,0,0-0.1,0-0.1c0,0,0,0,0-0.1c0,0,0,0,0,0c0.1-0.3,0.5-0.6,0.9-0.6c0.5,0,0.8,0.3,1,0.7
		c0.1,0.2,0.1,0.3,0,0.5c0,0.1,0,0.3,0,0.5c-0.2,1.4-2,1.1-2.9,0.8c-0.8-0.3-1.4-0.9-1.9-1.6c-1.3-2.1,0-4.4,2-5.4
		c2.5-1.2,4.8,0.4,6.3,2.3c1.6,2.1,1.5,4.6,0.5,7c-0.9,2-2.5,3.7-4.5,4.6C39.2,45.4,36.6,44.9,34.5,44.2z"/>
	<path style="fill:#47B7BE;" d="M22.7,13.2c-0.5,0.7-1.2,1.2-1.8,1.8c-0.5,0.5-2,1.7-1.8,2.5c0.2,0.6,1.1,0.6,1.6,0.6
		c1.8-0.2,3.7-0.8,5.4-1.5c0.8-0.3,1.6-0.6,2.4-1c-0.2-0.3-0.4-0.5-0.7-0.6c-0.2-0.1-0.6-0.4-0.7-0.6c-0.1-0.5,0.3-1.1-0.8-1.1
		c-0.2,0-0.4-0.1-0.5-0.2c-0.3-0.1-0.4-0.5-0.4-0.8c0-1-0.9-0.8-1.4-1C23.6,11.8,23.2,12.6,22.7,13.2z"/>
	<path style="fill:#47B7BE;" d="M24.1,22.6c0.3,0.4,0.9,0.5,1.4,0.6c1.4,0.3,2.9,0.3,4.3,0.2c0.6,0,1.2-0.1,1.9-0.1
		c-0.3-2-0.9-3.9-2-5.6c-0.7,0.6-1.5,1.2-2.2,1.7c-0.7,0.5-1.5,0.9-2.3,1.4C24.7,21,23.5,21.9,24.1,22.6z"/>
	<path style="fill:#47B7BE;" d="M27.1,28c1,0.7,2.2,1,3.5,1.3c0.4-1.1,0.7-2.2,0.9-3.4c-0.7,0.1-1.4,0.2-2,0.4
		C29,26.4,25.8,27.1,27.1,28z"/>
	<path style="fill:#47B7BE;" d="M27.4,34.2c0.8,0.3,1.6,0.3,2.4,0.4c0-0.5,0-1.1,0-1.6c-0.4,0-0.9,0.1-1.3,0.2
		C28.2,33.3,26.4,33.8,27.4,34.2z"/>
	<path style="fill:#47B7BE;" d="M28.7,38.5c0.5,0.3,1.3,0.4,2,0.3c-0.3-0.6-0.5-1.3-0.6-2C29.1,37.4,27.9,38.1,28.7,38.5z"/>
	<path style="fill:#47B7BE;" d="M32.6,42.7c0.1,0.3,0.5,0.3,0.7,0.3c0.4,0,0.7,0,1.1-0.1c-0.6-0.2-1-0.5-1.5-0.9
		C32.7,42.2,32.6,42.4,32.6,42.7z"/>
	<path style="fill:#47B7BE;" d="M38.3,43.4c0,0.5,0.1,1,0.4,1.3c0.1,0.1,0.2,0.2,0.4,0.3c0.2,0,0.3,0,0.5,0c0.5-0.2,0.8-1.1,0.9-1.6
		c0-0.1,0-0.3,0.1-0.4c-0.4,0.2-0.9,0.3-1.4,0.3C38.9,43.4,38.6,43.4,38.3,43.4z"/>
	<path style="opacity:0.7;fill:#9CD1F1;" d="M46.4,40.1c1.5-3.1,0.8-6.2-1.7-8.5c-1.9-1.9-4.4-2.2-6.7-0.9c-2.3,1.3-2.6,4.5-0.7,6.3
		c0.7,0.6,2.6,1.4,3.9,1.1c0.1-0.1,0.2-0.2,0.4-0.3c0.4-0.4,0.6-0.7,0.7-1.2c0,0,0-0.1,0-0.1c0-0.7-0.4-1.6-1.1-1.8
		c-0.4-0.1-0.8-0.1-1.1,0.2c-0.2,0.1-0.5,0.4-0.6,0.7c0,0,0,0,0,0c0,0.1,0,0.2,0.1,0.3c0,0.3,0.2,0.6,0.4,0.7
		c-0.6,0.2-1.1,0-1.5-0.7c-0.5-0.6-0.6-1.4-0.4-2.1c0.3-1.7,2.1-2,3.6-1.6c1.3-0.2,2.6,0.3,3.4,1.5c1.4,1.9,1.3,4.7,0.2,6.8
		c-1.2,2.3-3.7,3.2-6.1,3.6c-1.2,0.2-3.3,0.4-3.9-0.9c-0.3-0.1-0.7-0.2-1-0.3c-1.9-0.9-3.5-2.5-4.5-4.4c-1.4-2.7-1.7-5.6-2.5-8.5
		c-0.9-3-2.3-5.7-4.3-8.2c-1.1-1.3-2.3-2.4-3.2-3.8c-0.7-1.1-1.5-2.5-0.9-3.8c0.4-0.7,1.1-0.9,1.9-1c0.9,0,1.5-0.3,1.7-1.2
		c0.1-0.4,0.2-0.8,0.4-1.2c0.3-0.5,0.6-0.8,1-0.8c0-0.1,0-0.2,0-0.3c0.1-0.4,0.1-0.8,0-1.3c-0.1-0.5-0.6-0.7-1.1-0.8
		c0.5-0.6,1.8-0.7,2.4-1.1c0.2-0.1,0.7-0.4,0.6-0.7c-0.2-0.8-1.6-1.1-2.2-1.3c-1.5-0.4-3-0.7-4.5-0.9c-0.5-0.1-2.7-0.3-2.9,0l0,0
		c0,0,0,0,0,0c-0.2-0.2-0.5-0.4-0.8-0.6c-1.1-0.5-2.3-0.2-3.3,0.4C11,3.5,9.9,3.5,8.8,3.7C7.8,4,6.6,4.4,5.6,4.9
		C5.3,5.2,1.6,7.4,3,7.9c0.1,0,0.3,0.1,0.4,0.1c0.4,0.1,0.8,0.1,1.2,0.2c0.7,0.2,1.3,0.6,1.9,1c0.6,0.4,1.2,1,1.7,1.6
		c-0.4-0.1-0.9-0.5-1.3-0.7C6.4,9.8,5.8,9.7,5.2,9.5C4.1,9.3,3,9.2,1.9,9.6c-0.4,0.1-1.3,0.5-1,1c0.1,0.1,0.3,0.1,0.4,0.1
		c0.5,0,1,0,1.5,0.1c-0.2,0.1-0.4,0.1-0.4,0.3c-0.1,0.4,0.5,0.7,0.8,0.8c1.2,0.6,2.4,1,3.4,1.9c1,0.8,1.9,1.7,3.1,2.3
		c0.9,0.5,2.1,1,3.2,0.9c0,0.2,0,0.3,0,0.4c0.2,1,0.4,1.7,0.6,2.5c0,0.2,0.1,0.4,0.1,0.6c-1.3-0.1-2.5-0.4-3.8-0.8
		c-0.5-0.4-0.9-0.9-1.5-1.2c-0.2-0.1-0.4-0.3-0.6-0.4c0.4,0.4,0.7,1,0,1.2c-0.5,0.2-1.1-0.2-1.5-0.5c-0.2-0.1-0.4-0.2-0.5-0.4
		c0.1,0.1,0.2,0.2,0.3,0.3c0.5,0.4,1,0.5,1.4,0.9c-0.5-0.1-1.2-0.3-1.8-0.3c0,0,0,0,0,0c0.5,0.2,1,0.3,1.5,0.4
		c0.4,0.1,0.8,0.1,1.2,0.2c0.7,0.2,0.5,0.6-0.1,0.8c-0.9,0.3-2.1,0-3-0.4c-0.4-0.2-0.6-0.5-0.5-0.8c-0.4,0.4-0.3,1.1,0.3,1.3
		C5.7,20.9,6.1,21,6.5,21c0.8,0.1,1.5,0.2,2.1,0.8c0.2,0.2,0.5,0.4,0.8,0.6c0.4,0.3,1.1,0.6,1.4,0.1c1.2,0.3,2.5,0.5,3.8,0.7
		c0.2,0.5,0.5,1,0.8,1.6c0.8,1.4,1.8,2.6,2.9,3.8c1.2,1.3,2.3,2.7,3.7,3.8c0.1,0.6,0.2,1.2,0.3,1.8c-0.1-0.1-0.2-0.2-0.2-0.3
		c0.1,0.2,0.1,0.4,0.1,0.7c0,0.2-0.3,0.2-0.4,0.1c-0.6-0.7-1.2-1.5-2-2c-0.3-0.2-0.6-0.4-0.8-0.8c-0.1-0.2-0.1-0.3,0-0.4
		c-0.4,0.1-0.5,0.4-0.3,0.9c0.2,0.4,0.8,0.7,1.1,1c0.5,0.4,0.9,0.8,1.3,1.3c-0.4-0.3-0.8-0.6-1.3-0.8c0.6,0.4,1.2,0.9,1.6,1.5
		c0.1,0.2-0.1,0.4-0.2,0.3c-0.7-0.3-1.2-0.8-1.9-1.1c-0.5-0.2-1-0.2-1.4-0.4c-0.2-0.1-0.2-0.2-0.2-0.3c-0.1,0.5,1,1.1,1.4,1.3
		c1.3,0.5,2.3,1.2,3.2,2.2c0.5,0.5,0.8,1.1,1.5,1.4c0,0,0,0,0,0c0.8,0,1.1-0.7,1-1.4c0-0.2-0.1-0.5-0.1-0.7c0-0.1,0-0.1-0.1-0.2
		c0,0,0,0,0,0c0-0.3-0.1-0.7-0.1-1c0,0,0,0,0,0c0-0.2,0-0.5-0.1-0.7c0.7,1.2,1.7,2.2,2.5,3.3c1.2,1.6,2.6,3.1,4,4.5
		c2.2,2.1,5.5,3,8.4,3C42.6,45.3,45.1,43,46.4,40.1z M13.3,22c-1.2-0.3-2.6-0.5-3.5-1.4c-0.1-0.1,0-0.3,0.1-0.3
		c1-0.1,1.9,0.2,2.8,0.4c1.1,0.2,2,0,3-0.4c0.3-0.5-0.1-1.4-0.2-1.9c0-0.1,0.1-0.3,0.3-0.2c1.2,0.6,2.6,2.9,1.1,4
		C16,22.7,14.3,22.3,13.3,22z M22.6,33.8c-0.7-1-0.7-2.3-0.8-3.4c-0.2-1.5-0.3-3.1,0-4.6c0-0.1,0.1-0.1,0.1-0.2
		c0.1-0.3,0.2-0.5,0.3-0.8c0.1-0.1,0.3-0.1,0.4,0c0.2,0.6,0.2,1.2,0.2,1.9c0.1,0.8,0.2,1.6,0.3,2.4c0.1,1.5,0.1,3.1-0.2,4.6
		C23,33.8,22.8,33.9,22.6,33.8z"/>
	<path style="fill:#00B58F;" d="M37.1,36.1c0.3,0.4,0.6,0.8,1,1.1c-0.6-0.8-1-1.7-0.9-2.7c0.1-1.5,1.3-2.9,2.7-3.4
		c1.6-0.5,3.8,0.5,4.9,1.5c0.7,0.6,1.2,1.3,1.6,2.1c-0.2-0.6-0.5-1.2-1-1.8c-1.5-1.9-3.8-3.5-6.3-2.3C37.1,31.7,35.8,34,37.1,36.1z"
		/>
	<path style="opacity:0.5;fill:#00B58F;" d="M22.5,10.3c0,0.2-0.1,0.4-0.1,0.6c0,0.1,0,0.1,0.1,0.2c0.3,0.8,0.8,1,1.6,1.3
		c0.2,0.1,0.4,0.1,0.5,0.3c0.2,0.5,0.2,1.4,0.7,1.8c0.4,0.3,1,0.3,1.4,0.6c0.8,0.6,1,1.1,0.8,2.1c-0.2,1,0,1.6,0.9,2.1
		c0.4,0.2,0.8,0.4,1.1,0.8c0.6,0.8,0.3,1.7,0.2,2.7c0,1,0.6,1.5,1.2,2.2c0.2,0.3,0.2,0.7,0.1,1c-0.2,0.8-0.6,1.6-0.5,2.4
		c0,0.3,0.1,0.6,0.2,0.9c0.6-1.8,1.2-3.6,1-5.5c-0.2-2.3-1-4.5-2.2-6.4c-0.5-0.8-0.7-1.9-1.6-2.4c-0.2-0.1-0.6-0.4-0.7-0.6
		c-0.1-0.5,0.3-1.1-0.8-1.1c-0.2,0-0.4-0.1-0.5-0.2c-0.3-0.1-0.4-0.5-0.4-0.8c0-1.1-1.1-0.7-1.5-1.1c0,0,0,0,0-0.1
		c-0.3-0.2-0.5-0.5-0.6-0.8c-0.2-1.2,0.8-1.9-0.6-2.7c-0.2,0.2-0.3,0.7-0.3,0.8C22.4,9,22.5,9.6,22.5,10.3z"/>
	<path style="fill:#F7A8B5;" d="M1.9,10.5c-0.2,0-0.9-0.2-0.4-0.5c0.6-0.4,1.3-0.5,2.1-0.5c1,0,2,0.3,2.9,0.6
		c0.6,0.2,1.2,0.7,1.8,0.8c0.3,0.3,0.6,0.6,0.8,0.9c-0.8-0.4-1.8-0.7-2.7-0.9c-0.8-0.2-1.7-0.3-2.5-0.2c-0.2,0-0.4,0-0.6,0
		C2.9,10.6,2.4,10.5,1.9,10.5z"/>
	<path style="fill:#71CDE0;" d="M11.9,16.6C11.9,16.6,11.9,16.6,11.9,16.6c-0.2,0-0.3,0-0.5-0.1c-0.9-0.2-1.7-0.7-2.4-1.2
		c-1.5-1-2.6-2.3-4.2-3c-0.3-0.1-0.7-0.3-1-0.4c-0.2-0.1-0.4-0.2-0.5-0.2C2.8,11.4,3,11.2,3.6,11c1.2,0,2.4,0.2,3.6,0.4
		c0.1,0,0.3,0.1,0.4,0.1c0,0,0.1,0,0.1,0.1c0.2,0.1,0.4,0.1,0.5,0.2c0.5,0.2,0.9,0.5,1.4,0.6c0.1,0.1,0.3,0.1,0.4,0.2
		c0.5,0.4,1.1,0.7,1.6,0.5c0.2-0.1,0.4-0.4,0.4-0.7c0,0,0,0,0,0c-0.6,1.4-2.5-0.7-2.9-1.1C8.6,10.8,8,10.2,7.3,9.6
		c-1.1-1-2.3-1.5-3.7-1.8c-1-0.2-0.2-0.9,0.2-1.2c0.9-0.8,2-1.4,3.1-1.9c1-0.4,2.1-0.7,3.2-0.9c0.6-0.1,1.2-0.1,1.8-0.2
		c-0.4,0.3-0.9,0.7-1.2,1.1c0.4-0.3,0.9-0.7,1.4-0.9c1.3-0.8,2.8-1,4,0.3c1.2,1.2,1.2,2.6,1.1,4.2c0,0,0.1,0,0.1,0
		c0.1-1.1,0.3-2-0.1-3c-0.2-0.5-0.5-1-0.9-1.4c1-0.1,2.2,0.1,3.2,0.2c1.5,0.2,3,0.5,4.4,1C24.6,5,26,5.6,24.7,6.2
		c-0.5,0.2-1,0.3-1.5,0.6c-1,0.5-1.1,1.3-1.2,2.3c0,0.6,0,1.2-0.2,1.8c-0.4,1.1-1.6,1-2.5,0.8c-0.3-0.1-0.8-0.2-1.2-0.2
		c-0.4,0.1-0.5,0.4-0.6,0.8c0,0.3,0,0.6-0.1,0.9c-0.1,0.2-0.3,0.3-0.5,0.3c-0.1,0-0.2,0-0.2,0.1c-0.2,0.3-0.3,0.5-0.3,1
		c0,0.3,0,0.6-0.1,0.9c-0.2,0.6-0.7,1-1.3,1.1C13.9,16.8,12.9,16.8,11.9,16.6z"/>
	<path style="fill:#00B58F;" d="M3.5,6.8c0.7-0.4,1.3-0.8,2-1.1c1.7-0.8,3.4-1.3,5.2-1.6c0.1,0,0.2,0.1,0.2,0.2
		c0.3-0.3,0.7-0.6,1-0.9c-0.6,0.1-1.2,0.1-1.8,0.2C9.1,3.9,8,4.1,7,4.6C5.8,5.1,4.8,5.7,3.9,6.5C3.7,6.6,3.6,6.7,3.5,6.8z"/>
	<path style="fill:#00B58F;" d="M17.2,5c0,0.1,0.1,0.2,0.1,0.3c0-0.1,0.1-0.2,0.1-0.4c0.3-0.6,1.2-0.8,1.9-0.8
		c1.9,0,3.9,0.4,5.7,1.2c-0.3-0.3-0.8-0.5-1.1-0.6c-1.4-0.4-2.9-0.8-4.4-1c-1-0.1-2.2-0.3-3.2-0.2C16.7,4,17,4.5,17.2,5z"/>
	<path style="fill:#00B58F;" d="M9.9,5.3c0.5-0.4,1.1-0.8,1.5-1c1-0.6,2.3-1,3.4-0.5C16.2,4.4,17,6,17.1,7.5c0.1-0.4,0.1-0.9,0-1.4
		c0,0,0-0.1,0-0.1c-0.1-0.7-0.4-1.4-1.1-2.1c-1.2-1.3-2.7-1-4-0.3c-0.4,0.2-0.8,0.5-1.2,0.7c0,0.1,0,0.1-0.1,0.2
		C10.5,4.7,10.2,5,9.9,5.3z"/>
	<path style="opacity:0.7;fill:#9CD1F1;" d="M15.5,9.7c1.4-2.3-2.2-5.3-4.3-3.8c-0.2,0.1-0.3,0-0.3-0.2c-1,0.8-1.5,2.6-0.9,3.6
		C11,11.3,14.2,11.8,15.5,9.7z"/>
	<path style="opacity:0.7;fill:#9CD1F1;" d="M16.3,15.4c0.1-0.3,0.1-0.6,0.1-0.9c0-0.4,0.1-0.7,0.3-1c0.1,0,0.1,0,0.2-0.1
		c0.2,0,0.4-0.1,0.5-0.3c0.1-0.3,0.1-0.6,0.1-0.9c0.1-0.4,0.2-0.6,0.6-0.8c0.4,0,0.9,0.2,1.2,0.2c0.9,0.2,2.1,0.2,2.5-0.8
		C22,10.3,22,9.7,22,9.1c0-1,0.2-1.8,1.2-2.3c0.5-0.2,1-0.4,1.5-0.6c0.9-0.4,0.6-0.8,0-1.1C24.2,6.2,22.9,6,22,6.5
		c-1.7,0.9,0.3,3.9-2.3,4.1c-0.7,0.1-1.4-0.2-2-0.1c-1,0.2-0.7,1-1.1,1.7c-0.1,0.3-0.5,0.3-0.8,0.3c-0.9,0.1-0.4,0.6-0.4,1.2
		c0,1-1.4,1.7-2.3,1.7c-1.4,0.1-2.1-0.4-3.2-1.3c-0.2-0.1-0.1-0.4,0.2-0.4c1.6,0.3,2.7-0.6,2.4-2.1c-1.2,1.3-2.2-0.7-3.1-1.6
		C8,8.6,5.4,7.1,3.2,7.4c0,0.1,0.1,0.3,0.5,0.4c1.4,0.4,2.6,0.8,3.7,1.8c0.6,0.6,1.2,1.3,1.8,1.9c0.4,0.4,2.2,2.5,2.9,1.1
		c0,0,0,0,0,0c0,0.3-0.1,0.5-0.4,0.7c-0.5,0.1-1.1-0.2-1.6-0.5c-0.2,0-0.3-0.1-0.4-0.2c-0.5-0.2-0.9-0.4-1.4-0.6
		c-0.2-0.1-0.4-0.1-0.5-0.2c0,0-0.1,0-0.1-0.1c-0.1,0-0.3-0.1-0.4-0.1C6,11.2,4.8,11,3.6,11c-0.6,0.2-0.7,0.4-0.4,0.5
		c0.2,0.1,0.3,0.2,0.5,0.2c0.3,0.1,0.7,0.3,1,0.4c1.7,0.7,2.7,2.1,4.2,3c0.8,0.5,1.6,0.9,2.4,1.2c0.2,0.1,0.4,0.1,0.5,0.1
		c0,0,0,0,0,0c1,0.3,2,0.3,3,0C15.6,16.4,16,16,16.3,15.4z"/>
	<path style="fill:#5E2C00;" d="M14.7,5c-1.2-1-3-0.9-4,0.4c-1,1.2-0.9,3,0.4,4c1.2,1,3,0.9,4-0.4C16,7.9,15.9,6,14.7,5z"/>
	<path style="fill:#DCEFE5;" d="M11.2,9.2c-1.1-0.9-1.2-2.5-0.3-3.6c0.9-1.1,2.5-1.2,3.6-0.3c1.1,0.9,1.2,2.5,0.3,3.6
		C13.9,10,12.3,10.1,11.2,9.2z"/>
	<g>
		<g>
			<path style="fill:#5E2C00;" d="M11.9,7.7c-0.3,0.4-0.8,0.6-1.1,0.4c-0.3-0.2-0.4-0.8-0.1-1.2c0.3-0.4,0.8-0.6,1.1-0.4
				C12.1,6.7,12.1,7.2,11.9,7.7z"/>
		</g>
		<g>
			<path style="fill:#FFFFFF;" d="M11.5,7c-0.1,0.1-0.2,0.2-0.3,0.1C11,7,11,6.9,11.1,6.7c0.1-0.1,0.2-0.2,0.3-0.1
				C11.5,6.7,11.5,6.8,11.5,7z"/>
		</g>
	</g>
	<path style="fill:#0E8ECE;" d="M12.8,14.5c0.6,0.2,1.5-0.1,1.8-0.7c0.1-0.3,0.2-0.6-0.1-0.8c-0.3-0.2-0.7-0.2-1.1-0.1
		c-0.2,0.1-0.5,0.2-0.6,0.4C12.3,13.7,12.1,14.3,12.8,14.5z"/>
</g>
</svg>
