<?xml version="1.0" encoding="utf-8"?>
<!-- Generator: Adobe Illustrator 24.1.1, SVG Export Plug-In . SVG Version: 6.00 Build 0)  -->
<svg version="1.1" id="Laag_1" xmlns="http://www.w3.org/2000/svg" xmlns:xlink="http://www.w3.org/1999/xlink" x="0px" y="0px"
	 viewBox="0 0 48 48" style="enable-background:new 0 0 48 48;" xml:space="preserve">
<g>
	<g>
		<path style="fill:#579832;" d="M21.8,18.1c0,0,1.2-10.5-13.3-14.7C8.5,3.4,9.8,17.3,21.8,18.1z"/>
		<path style="fill:#9DC430;" d="M8.5,3.4C23,7.6,21.8,18.1,21.8,18.1c0,0-0.1,0-0.1,0L8.5,3.4z"/>
	</g>
	<path style="fill:#683C13;" d="M35.9,32.5c-0.1-0.1-8.2-9.1-11.2-23.2c0-1.7,0.2-3.5,0.5-5.3c0,0-1.6-1-3.1,1.5c0,0,1.1,1,0.9,3.8
		C22.1,15,19.2,29,10.5,32.8c-0.2,0.1-0.3,0.4-0.2,0.6c0.1,0.2,0.3,0.3,0.4,0.3c0.1,0,0.1,0,0.2,0c9-4,12.1-17.7,13-23.9
		C27,24,35.1,33,35.2,33.1c0.2,0.2,0.5,0.2,0.7,0C36.1,32.9,36.1,32.6,35.9,32.5z"/>
	<g>
		<path style="fill:#E3313C;" d="M20.2,38.7c-1.7,4.5-6.6,6.8-11.1,5.2c-4.5-1.7-6.8-6.6-5.2-11.1c1.1-3,2.6-4.5,5.5-4.7
			c3.5-0.3,3.5,1.8,5,2.3c1.8,0.7,4-0.3,5.3,1.6C21.2,33.9,21.1,36.4,20.2,38.7z"/>
		<path style="fill:#FFFFFF;" d="M5.9,35.1c0.5-0.1,0.9-0.3,1.2-0.6c0.3-0.3,0.5-0.8,0.7-1.2c0.3-0.7,0.6-1.4,1-2
			c0.3-0.5,0.7-0.9,1.2-1.1c0.5-0.2,1-0.2,1.5-0.2c-0.5-0.5-1-1-2.5-0.9c-1.9,0.2-2.9,1.1-3.7,3.1C5,33.1,4.9,34.1,5.1,35
			C5.3,35.1,5.6,35.1,5.9,35.1z"/>
		<path style="fill:#E1C4D3;" d="M19.7,31.9c-0.7-1-1.7-1.2-2.8-1.3c0.1,0.2,0.2,0.3,0.3,0.5c0.6,1.2,1.7,5-0.9,8.4
			c-4.1,5.4-11.6,0.6-12.1,0.1c0,0,0,0,0,0c1,1.9,2.6,3.5,4.8,4.3c4.5,1.7,9.5-0.7,11.1-5.2C21.1,36.4,21.2,33.9,19.7,31.9z"/>
	</g>
	<g>
		<path style="fill:#E3313C;" d="M44.2,35.1c0.8,5-2.7,9.6-7.6,10.3c-5,0.8-9.6-2.7-10.3-7.6c-0.5-3.3,0.1-5.4,2.7-7.1
			c3.1-2,4.1-0.2,5.7-0.4c2-0.3,3.5-2.3,5.7-1.2C42.7,30.2,43.8,32.6,44.2,35.1z"/>
		<path style="fill:#FFFFFF;" d="M29.2,39.1c0.4-0.3,0.7-0.7,0.8-1.2c0.1-0.5,0.1-0.9,0.1-1.4c-0.1-0.8-0.2-1.6-0.1-2.4
			c0-0.6,0.2-1.2,0.6-1.7c0.3-0.4,0.8-0.7,1.3-0.9c-0.7-0.2-1.4-0.4-2.7,0.5c-1.7,1.1-2.1,2.5-1.8,4.7c0.2,1,0.6,2,1.2,2.8
			C28.7,39.3,29,39.2,29.2,39.1z"/>
		<path style="fill:#E1C4D3;" d="M40.3,29.1c-1.2-0.6-2.2-0.3-3.2,0.2c0.2,0.1,0.3,0.2,0.5,0.3c1.2,0.8,4.1,3.7,3.4,8.2
			C40,44.9,30.7,44.3,30,44c0,0,0,0-0.1,0c1.8,1.3,4.2,1.9,6.6,1.6c5-0.8,8.4-5.4,7.6-10.3C43.8,32.6,42.7,30.2,40.3,29.1z"/>
	</g>
</g>
</svg>
