<?xml version="1.0" encoding="utf-8"?>
<!-- Generator: Adobe Illustrator 24.1.1, SVG Export Plug-In . SVG Version: 6.00 Build 0)  -->
<svg version="1.1" id="Laag_1" xmlns="http://www.w3.org/2000/svg" xmlns:xlink="http://www.w3.org/1999/xlink" x="0px" y="0px"
	 viewBox="0 0 960 192" style="enable-background:new 0 0 960 192;" xml:space="preserve">
<g>
	<linearGradient id="SVGID_1_" gradientUnits="userSpaceOnUse" x1="675.8861" y1="-431.8595" x2="548.5518" y2="-89.1805">
		<stop  offset="0" style="stop-color:#CF5C2B"/>
		<stop  offset="1" style="stop-color:#59173E"/>
	</linearGradient>
	<path style="fill:url(#SVGID_1_);" d="M955.5,149.6c-0.5-3.8-1-7.5-1.4-11.3c-0.5-4-0.9-7.9-1.3-11.9c-0.3-2.7-0.7-5.6-0.8-8.4
		c-0.1-2.3,1.7-6.2-0.7-8.3c-1.4-1.3-4.5-1.6-7.2-1.9c-3.6-0.3-7.2-0.7-10.8-1c4.8-0.6,9.5-1.3,14.2-2.2c1-0.2,2.1-0.4,2.8-0.9
		c0.6-0.4,0.8-0.9,1-1.5c1.6-5.2,0.6-10.7,0.5-15.9c0-5.3-0.1-10.7-0.1-16c-0.1-5.1-0.1-10.2-0.2-15.2c0-1.7,1.3-5.3-0.3-6.8
		c-1.3-1.2-4.2-1.1-6.6-1.3c-2.4-0.1-4.8-0.1-7.1-0.1c-3.6,0.1-7.1,0.4-10.6,0.7c4.6-0.7,9.4-1,14-1.6c3-0.4,6-0.9,8.7-1.7
		c1.7-0.5,3.5-0.9,4.5-1.8c0.4-0.4,0.6-0.9,0.8-1.3c0.4-0.9,0.5-1.9,0.6-2.8c0.3-2.6,0.5-5.3,0.6-7.9c0-1.3,0.1-2.7,0-4
		c0-0.9-0.7-1.7-0.8-2.5c-0.6-3.6-3.3-7-7.7-9.8c-4.4-2.7-10.3-4.7-16.9-5.7c-2.4-0.3-4.9-0.5-7.5-0.6C626.7,3,336.1,2.9,51.7,8
		c-1.1,0-2.3,0-3.4,0.1c-1.2,0.2-2.3,0.4-3.4,0.6c-2.3,0.4-4.7,0.9-6.9,1.5c-4.3,1.1-8.4,2.6-11.2,4.7c-1.6,1.2-2.7,2.6-4.2,3.8
		c-0.8,0.6-1.8,1.1-2.4,1.8c-3,3.2-6,6.4-10.2,9.2c-4.1,2.8-5.3,7.1-4.8,10.5c0.6,4.6,0.8,9.2,1.6,13.8c1.2,7.3,0.1,14.6,1.6,21.9
		c0.2,1.1,0.5,2.2,2,2.9c1,0.5,2.4,0.6,3.8,0.8c4.4,0.5,8.8,1,13.1,1.5c-5.4,1.8-13.5,2-16.3,5c-0.9,1-1.1,2.1-1.2,3.2
		C9.2,93.2,8.5,97.1,8,101c-0.2,1.8-0.4,3.5-0.5,5.3c-0.1,1.7-0.4,3.3-0.7,4.9c-0.7,3.9-2.6,8.9-0.3,12.7c2.2,3.7,10.8,3.8,16.8,4.7
		c-3.2,0.2-5.6,1.5-7.4,2.9c-0.9,0.7-1.6,1.4-2.5,2.1c-0.8,0.6-1.5,1.3-2.1,1.9c-1.3,1.3-2.3,2.7-3.1,4.1c-0.5,1-0.8,1.7-0.9,2.7
		c-0.1,0.9-0.1,1.8-0.2,2.7c-0.1,1.8-0.2,3.5-0.3,5.3c-0.1,3.5-0.2,7.1-0.1,10.6c0.1,3.4-1.5,6.8,1.3,10.1c2.7,3.3,7.4,6.2,13.4,8.1
		c4.8,1.5,10.2,2.4,15.8,2.5c286,6.6,576.7,6.5,872,0c7.8-0.2,15.3-1.8,21.1-4.6c2.8-1.3,5.2-2.5,7.2-4.2c2.5-2,4.8-4.1,7-6.3
		C949.7,161.5,956.3,155.7,955.5,149.6z"/>
	<linearGradient id="SVGID_2_" gradientUnits="userSpaceOnUse" x1="528.8373" y1="-129.2562" x2="423.8631" y2="424.3971">
		<stop  offset="0" style="stop-color:#CF5C2B"/>
		<stop  offset="1" style="stop-color:#59173E"/>
	</linearGradient>
	<path style="fill:url(#SVGID_2_);" d="M923.7,168.5c-295.3,6.6-586,6.7-871.9,0c-12.7,0-24.6-4.8-29.3-10.8
		c-2.1-2.7-2.6-5.6-2.2-8.5c0-0.5,0.1-1,0.4-1.5c0.4-0.8,1.1-1.5,1.3-2.3c0.1-0.4,0.2-0.8,0.3-1.3c0.5-2.3,0.6-4.6,1-6.9
		c0.2-1.3,0.5-2.6,1.2-3.9c0.8-1.4,2-2.7,4.2-3.6c9.4-3.7,27.8-3.7,41.5-3.8c2.7-0.1,5.1-0.1,7.4-0.2c6-0.2,11.9-0.3,17.9-0.3
		c-14.1,0-28.3-0.7-42.2-2c-6.6-0.6-13.2-1.3-19.7-2.2c-1.6-0.2-3.2-0.5-4.7-0.9c-2-0.5-3.8-1.2-4.7-2.2c-0.8-0.9-0.7-1.9-0.7-2.9
		c0-0.9-0.2-1.9-0.1-2.8c0.1-2,0.6-3.9,1-5.9c0.4-1.6,0.7-3.2,0.9-4.8c0.5-4.3,1-8.5,1.6-12.8c0.2-1.3,0.5-2.7,2.2-3.6
		c1-0.6,2.4-0.8,3.7-1.1c3.6-0.7,7.3-1.2,11.1-1.6c1.8-0.2,3.7-0.2,5.4-0.4c2-0.3,3.6-0.6,5.8-0.7c20.9-1.3,41.7-2.6,62.5-3.8
		c2.5-0.2,5-0.3,7.5-0.5c-31.4-2-62.9-4.1-94.3-6.1c-1.4-0.1-2.8-0.2-4.1-0.3c-1.2-0.1-2.6-0.2-3.4-0.7c-0.1,0-0.1-0.1-0.2-0.1
		c-0.6-0.4-0.7-1-0.8-1.5c-1.4-9,0.2-18.2-0.8-27.2c-0.1-0.5-0.3-3-0.6-5.9c-0.4-4.1-1-8.9-1.2-8.9C18.3,17,32.8,8.4,51.7,8.1
		c284.3-5.2,575-5,871.3,0c19,0.3,33.6,9,32.2,19c-0.5,3.4,0.8,6.7-0.8,10.1c-0.3,0.8-0.9,1.6-2,2.2c-1,0.5-2.4,0.7-3.8,0.8
		c-3.6,0.5-7.1,0.9-10.8,1.4c-4.8,0.6-9.5,1.2-14.3,1.4c-28.6,1.6-57.1,3.2-85.7,4.8c-0.8,0-1.5,0.1-2.3,0.1
		c-0.9,0.1-1.9,0.1-2.8,0.2c2.3,0,4.5-0.1,6.8-0.1c35.8-0.3,71.6-0.6,107.4-1c1,0,2.1,0,2.9,0.3c0.9,0.4,1.1,1,1.3,1.6
		c0.2,0.8,0.2,1.6,0.2,2.3c0,2.4-0.9,4.7-0.9,7.1c0,2.2,1,4.3,1,6.5c-0.1,3.2-0.3,6.4-0.5,9.6c-0.6,7.3-1.5,14.6-3,21.9
		c-0.2,1.1-0.5,2.2-1.9,3c-1,0.6-2.6,0.9-4,1.2c-0.9,0.2-1.9,0.3-2.8,0.4c-21,3.2-44.1,0.7-65.6,2.6c-1.4,0.1-2.9,0.3-4.2,0.4
		c-0.5,0.1-1,0.1-1.4,0.2c1.8,0.1,3.5,0.1,5.3,0.2c23.6,0.9,47.2,2.2,70.7,3.7c2.8,0.2,5.8,0.5,7.4,1.6c1.2,0.9,1.3,2.1,1.3,3.2v3.7
		c0,3.7,0,7.4,0.3,11.1c0.4,4.9,1,9.8,1.6,14.7c0.3,2.4,0.6,4.8,0.9,7.2C956.9,159.5,942.5,168.1,923.7,168.5z"/>
	<linearGradient id="SVGID_3_" gradientUnits="userSpaceOnUse" x1="531.9554" y1="-136.718" x2="383.5419" y2="621.2154">
		<stop  offset="0" style="stop-color:#CF5C2B"/>
		<stop  offset="1" style="stop-color:#59173E"/>
	</linearGradient>
	<path style="fill:url(#SVGID_3_);" d="M951.5,65c-0.1,3.2-0.3,6.4-0.5,9.6c-12.1,0.6-24,1.1-35.6,1.8c-2.7,0.2-5.4,0.3-8.1,0.5
		c-10,0.6-20,1.1-30.1,1.5c-5,0.2-10,0.4-15,0.7c-3.2,0.1-6.1,0.8-9.2,1c-4.4,0.3-9.1-0.3-13.5-0.5c-4.9-0.2-9.8-0.2-14.7-0.2
		c-9.9,0.1-19.7,0.5-29.5,1c-19.6,1.2-39,3.1-58.5,4.9c-31.2,2.7-62.6,4.8-94.1,6.2c17.2,0.9,34.2,2.4,51,4.4
		c-6.3,0.3-12.6,0.5-18.9,0.7c-20,0.7-40.1,1-60.2,1.2c-20.1,0.2-40.2,0.2-60.3,0.2c-20.1,0-40.2,0-60.3,0.1
		c-20.1,0.1-40.1,0.3-60.2,0.8c-10,0.3-20,0.6-30,1c-2.5,0.1-5,0.2-7.5,0.3c-3,0.1-5.9,0.6-9,0.8c-23.9,1.5-47.8,3.3-71.5,5.8
		c-36.8,3.8-73.7,7.5-111.1,8.9c-6.8,0.2-13.5,0.5-20.3,0.7c-32.2,3.4-67,4.1-98.6,6.2c-10.7,0.7-21.7,1.1-32.6,1.3
		c-6.6-0.6-13.2-1.3-19.7-2.2c-1.6-0.2-3.2-0.5-4.7-0.9c-2-0.5-3.8-1.2-4.7-2.2c-0.8-0.9-0.7-1.9-0.7-2.9c0-0.9-0.2-1.9-0.1-2.8
		c0.1-2,0.6-3.9,1-5.9c28.9-1.3,58.5-5.7,86.4-7.8c35.7-2.7,72.1-4.3,108.1-5.3c40.8-1.2,81.4,1.4,122.1,1.4
		c37.6,0,75.2-1.7,112.7-3.3c73-3.1,145.9-6.3,218.8-9.7c-15.9-0.1-31.7-0.4-47.6-0.7c-20.2-0.4-40.4-0.9-60.6-1.4
		c-4.7-0.1-9.5-0.5-14.2-0.2c-4.8,0.3-9.7,0.4-14.6,0.3c-9.6-0.1-19.2-0.7-28.6-1.9c-5.5-0.7-10.9-1.6-16.5-2.1
		c-9.4-0.9-19-0.6-28.6-0.7c-35.7-0.2-70.9-5.2-106.6-5c-9.4,0.1-18.7,0.5-28,0.9c-9.9,0.5-19.8,1-29.8,1.1c-4.4,0.1-9,0.2-13.3-0.3
		c-3.3-0.4-7.1-0.2-10.5-0.3c-6-0.1-12.1-0.2-18.1-0.2c-12.1-0.1-24.2-0.2-36.2-0.2c-45.8-0.1-91.5,1.2-137.2,1
		c-19.5-0.1-39.4-0.3-58.7-1.8c-0.1,0-0.1-0.1-0.2-0.1c-0.6-0.4-0.7-1-0.8-1.5c-1.4-9,0.2-18.2-0.8-27.2c-0.1-0.5-0.3-3-0.6-5.9
		c23.3-1.1,46.9-1.3,70.2-2.2c45.7-1.8,91.5-2.5,137.4-2.4c91,0.2,181.7,3.3,272.4,6.9c90.8,3.6,181.3,8.1,272.1,11.5
		c45.9,1.7,91.8,2.8,137.8,2.8c13.5,0,27.1-0.4,40.7-1c0,2.4-0.9,4.7-0.9,7.1C950.6,60.7,951.6,62.8,951.5,65z M953,127.8
		c-0.3-3.7-0.3-7.4-0.3-11.1c-29-1.7-58-3.4-87.1-4.4c-50-1.8-100.1-1.5-150.1-0.4c-10.4,0.2-20.7,0.4-31,1c-5,0.3-10,0.7-15,1
		c-20,1.2-40,2.3-60,3.1c-7.8,0.3-15.6,0.6-23.5,0.8c20.3-0.1,40.5-0.2,60.8-0.2c20.3-0.1,40.5-0.2,60.8-0.2
		c10.1,0,20.3-0.1,30.4-0.1c5.1,0,10.1,0,15.2-0.1c2.1,0,4.3,0.1,6.4-0.2c1.3-0.1,2.5-0.4,3.8-0.5c4.5-0.4,9.6,0.1,14.2,0.3
		c5,0.1,10,0.3,15.1,0.5c10.1,0.3,20.1,0.7,30.2,1.1c15.8,0.6,31.6,1.3,47.4,2.1c17.2,0.8,34.4,1.9,51.5,3c-39,2-77.9,4-117,5.1
		c-89.9,2.6-179.8,5.9-269.9,5c-88.8-0.9-177.4-3.6-266.3-3.4c-46.8,0.1-93.6,0.5-140.3,1.2c-34.5,0.5-69.5,0.4-103.9,2.3
		c-0.7,1.2-1,2.6-1.2,3.9c-0.4,2.3-0.5,4.6-1,6.9c38.3,0.8,77.2-0.6,115.4-0.6c46.8-0.1,93.6,0.2,140.3,0.8
		c88.7,1.1,177.2,3.7,265.9,4.5c90.2,0.9,180.2-2.6,270.2-4.9c46.4-1.2,93.1-1.3,139.6-1.5h1C954,137.6,953.4,132.7,953,127.8z"/>
	<g>
		<path style="fill:#EB924D;" d="M690.8,41.8c-12.9-5.5-34.5-3.8-44.7,3.6c-6.5,4.6-6.8,13.3,0,17.9c14.9,10.1,41.2,5.8,50.7-6.7
			c0.2-0.1,0.4-0.2,0.5-0.4C704.5,51.2,699.4,43.1,690.8,41.8z"/>
		<linearGradient id="SVGID_4_" gradientUnits="userSpaceOnUse" x1="694.0071" y1="-3.2425" x2="667.1038" y2="68.679">
			<stop  offset="0" style="stop-color:#CF5C2B"/>
			<stop  offset="1" style="stop-color:#59173E"/>
		</linearGradient>
		<path style="fill:url(#SVGID_4_);" d="M694.8,37c-12.9-5.5-34.2-3.8-44.4,3.6c-6.4,4.6-6.7,13.3,0,17.9
			c14.8,10.1,40.9,5.8,50.3-6.7c0.2-0.1,0.4-0.2,0.5-0.4C708.5,46.4,703.4,38.3,694.8,37z"/>
		<linearGradient id="SVGID_5_" gradientUnits="userSpaceOnUse" x1="692.0797" y1="-6.5032" x2="630.0323" y2="137.3646">
			<stop  offset="0" style="stop-color:#CF5C2B"/>
			<stop  offset="1" style="stop-color:#59173E"/>
		</linearGradient>
		<path style="fill:url(#SVGID_5_);" d="M685.2,40.1c-11.5-5.5-30.6-3.8-39.7,3.6c-5.7,4.6-6,13.3,0,17.9c13.3,10.1,36.6,5.8,45-6.7
			c0.2-0.1,0.3-0.2,0.5-0.4C697.4,49.5,692.9,41.4,685.2,40.1z"/>
	</g>
	<g>
		<path style="fill:#EB924D;" d="M346.2,123c-13.6-5.5-36.2-3.8-46.9,3.6c-6.8,4.6-7.1,13.3,0,17.9c15.7,10.1,43.2,5.8,53.2-6.7
			c0.2-0.1,0.4-0.2,0.6-0.4C360.6,132.5,355.2,124.3,346.2,123z"/>
		<linearGradient id="SVGID_6_" gradientUnits="userSpaceOnUse" x1="343.7977" y1="69.8027" x2="318.9713" y2="136.1719">
			<stop  offset="0" style="stop-color:#CF5C2B"/>
			<stop  offset="1" style="stop-color:#59173E"/>
		</linearGradient>
		<path style="fill:url(#SVGID_6_);" d="M337.5,118.2c-10.2-5.5-27.1-3.8-35.1,3.6c-5.1,4.6-5.3,13.3,0,17.9
			c11.7,10.1,32.4,5.8,39.8-6.7c0.1-0.1,0.3-0.2,0.4-0.4C348.3,127.7,344.2,119.5,337.5,118.2z"/>
		<linearGradient id="SVGID_7_" gradientUnits="userSpaceOnUse" x1="410.6704" y1="-67.3191" x2="252.091" y2="293.5206">
			<stop  offset="0" style="stop-color:#CF5C2B"/>
			<stop  offset="1" style="stop-color:#59173E"/>
		</linearGradient>
		<path style="fill:url(#SVGID_7_);" d="M342.8,121.3c-12.7-5.5-33.8-3.8-43.8,3.6c-6.3,4.6-6.6,13.3,0,17.9
			c14.7,10.1,40.4,5.8,49.7-6.7c0.2-0.1,0.4-0.2,0.5-0.4C356.2,130.7,351.2,122.6,342.8,121.3z"/>
	</g>
	<path style="fill:#EB924D;" d="M27.8,115.1c-0.1,1.8-0.1,3.7,1,5.5c-2-0.5-3.8-1.2-4.7-2.2c-0.8-0.9-0.7-1.9-0.7-2.9
		c0-0.9-0.2-1.9-0.1-2.8c0.3-3.6,1.5-7.1,1.9-10.7c0.5-4.3,1-8.5,1.6-12.8c0.2-1.3,0.5-2.7,2.2-3.6c1-0.6,2.4-0.8,3.7-1.1
		c3.6-0.7,7.3-1.2,11.1-1.6c1.8-0.2,3.7-0.2,5.4-0.4c2-0.3,3.6-0.6,5.8-0.7c20.9-1.3,41.7-2.6,62.5-3.8c-22.4,2.4-44.8,4.7-67.2,7.1
		c-4.4,0.5-10.2,0.4-13.8,2c-1.4,0.6-2.6,1.4-3.7,2.1c-0.4,0.2-3.5,3.5-2.3,3.5c16.5,0.3,32.9,0.6,49.4,0.9
		c-12.2,1-24.3,2.2-36.5,3.5c-6.1,0.6-13,1.6-15.7,4.6c-1.7,1.9-1.6,4.4-1,6.4c0.2,0.7,0.6,1.3,0.9,2
		C28.4,111.8,27.9,113.5,27.8,115.1z"/>
	<path style="fill:#EB924D;" d="M835.6,48c-1.3-0.1-2.5-0.1-3.8-0.1h6.1C837.1,47.9,836.3,47.9,835.6,48z"/>
	<path style="fill:#EB924D;" d="M856.2,102.8c5.8,0.3,11.6,0.6,17.4,0.8c-1.4,0.1-2.9,0.3-4.2,0.4
		C864.9,103.6,860.5,103.2,856.2,102.8z"/>
	<path style="fill:#EB924D;" d="M941.9,98.3c0.9-1.9,0.7-3.9,0.4-5.9c-0.5-3.6-1-7.3-1.6-10.9c-0.1-0.7-0.3-1.5-1.3-1.9
		c-0.9-0.4-2-0.4-3.1-0.3c-8.7,0.2-17.3,0.3-25.9,0.5c9.3-0.4,18.6-1.7,27-3.9c2.4-0.6,5-1.4,5.9-2.7c0.5-0.7,0.5-1.4,0.5-2.1
		c-0.1-5.7-2-12.1-3.3-17.8c-4.1-2-10.2-2.3-15.8-2.5c-22.6-0.7-45.2-1.5-67.8-2.2c-5.4-0.2-11.4-0.3-17.2-0.4
		c35.8-0.3,71.6-0.6,107.4-1c1,0,2.1,0,2.9,0.3c0.9,0.4,1.1,1,1.3,1.6c0.8,3.2-0.7,6.3-0.7,9.5c0,2.2,1,4.3,1,6.5
		c-0.3,10.3-1.4,21-3.6,31.5c-0.2,1.1-0.5,2.2-1.9,3c-1,0.6-2.6,0.9-4,1.2c-0.9,0.2-1.9,0.3-2.8,0.4
		C940.5,100.2,941.4,99.2,941.9,98.3z"/>
	<path style="fill:#EB924D;" d="M21.5,41.7c-0.1-1.2-1.4-14.8-1.8-14.8C18.3,17,32.8,8.4,51.7,8.1c284.3-5.2,575-5,871.3,0
		c19,0.3,33.6,9,32.2,19c-0.5,3.4,0.8,6.7-0.8,10.1c-0.3,0.8-0.9,1.6-2,2.2c-1,0.5-2.4,0.7-3.8,0.8c-3.6,0.5-7.1,1-10.7,1.4
		c3.1-1.5,6.6-3.2,8.1-5.4c1-1.4,0.2-2.7-0.7-4.1c-1.4-2.1-1.7-4.2-1.8-6.4c-0.2-2.8,0.7-6.7-3.4-8.9c-3.1-1.7-7.3-3.1-11.2-4.1
		c-9.8-2.5-21-3.1-31.7-3.3c-0.5,0-1.1,0-1.6,0C875.6,9,855.7,8.9,836,10c-2.4,0.1-4.5,0.5-6.8,0.7c-2.9,0.3-6.3-0.1-9.3-0.2
		c-6.7-0.2-13.4-0.3-20.1-0.5c-13.4-0.3-26.9-0.5-40.3-0.5c-10.1-0.1-20.1-0.1-30.2-0.1c-3.2,0-6.4,0-9.5,0c-6.1,0-12.2,0-18.4,0
		c-8.5,0-17,0-25.4,0c-0.4,0-0.8,0-1.2,0c-13.4,0-26.9,0-40.3,0c-6.7,0-13.4,0-20.2,0c-3.1,0-6.5,0.2-9.5-0.1
		c-3.1-0.3-5.6-1.3-8.8-1.4C593,7.7,590,8,587.1,8.1c-7.3,0.3-14.7,0.7-22,1.1c-3.3,0.2-6.9,0.5-9.1,1.8c-0.8,0.5-1.3,1-2.3,1.4
		c-2.1,0.8-4.9,0.3-7.3-0.2c-4.8-0.9-9.8-1.4-14.8-1.5c-4.5-0.1-9.1,0.3-13.6,0.2c-2.9-0.1-5.6-0.5-8.4-0.7
		c-11.1-1.1-22.6-1.2-33.8-1.6c-8.3-0.3-16.6-0.5-25-0.7c-26.9-0.5-53.8-0.2-80.6,0.4c-13.4,0.3-26.9,0.7-40.3,1.1
		c-6.1,0.2-13,0.9-19.1,0.5c-1.8-0.1-3.4-0.5-5.2-0.7c-1.8-0.2-3.7-0.2-5.5-0.1c-7.5,0-14.9,0.1-22.4,0.1c-8.7,0-17.5,0-26.2,0
		c-2.9,0-5.8,0.3-8.7,0.3c-2.6,0-5.3-0.3-7.9-0.3c-5.5,0-11,0.6-16.2,1.7c-2,0.4-4,0.9-6.1,0.9c-3.9-0.1-6.6-2.1-10.2-3
		c-8.4-2.1-17.1,1.9-25.7,0.3c-4.3-0.8-8.7-0.7-13.2-0.7c-5.7,0-11.5,0-17.2,0c-19.5,0.1-39,0.4-58.4,1.4
		c-9.7,0.5-19.3,1.2-28.9,2.1c-4.6,0.4-9.3,1.2-14,1.4c-1.5,0.1-2.5,0.1-3.8,0.6C35.6,15.8,19.8,27.5,31,31.7
		c3.7,1.3,8.4,1.4,12.9,1.3c28.7-0.2,57.4-0.4,86.1-0.6c-31,1.3-61.9,2.6-92.9,3.9c-2,0.1-4.1,0.2-5.8,0.7c-6,1.7-3.9,5.7-4.8,8.5
		c-1.1,3.8,0.3,7.8,1,11.6c0.9,4.8,2,9.6,3.4,14.4c-1.4-0.1-2.8-0.2-4.1-0.3c-1.3-0.1-2.8-0.2-3.6-0.8c-0.6-0.4-0.7-1-0.8-1.5
		C20.8,60,22.4,50.8,21.5,41.7z"/>
	<path style="fill:#EB924D;" d="M923.7,168.5c-295.3,6.6-586,6.7-871.9,0c-12.7,0-24.6-4.8-29.3-10.8c-2.1-2.7-2.6-5.6-2.2-8.5
		c0-0.5,0.1-1,0.4-1.5c0.4-0.8,1.1-1.5,1.3-2.3c0.7-2.7,0.9-5.4,1.3-8.2c0.5-2.7,1.2-5.8,5.4-7.5c9.4-3.7,27.8-3.7,41.5-3.8
		c11.2,0.1,22.3,0.1,33.7,0.5c-3.3,0-6.3,0.8-9.5,1c-4.4,0.2-8.9,0.3-13.3,0.4c-8.7,0.3-17.4,0.5-26.1,0.8c-6,0.2-12.2,0.4-17.9,1.4
		c-2.2,0.4-4.4,0.9-5.9,1.8c-1.7,1-2.5,2.3-3.1,3.5c-1.2,2.5-2.7,5.4-2,8c0.2,0.8,0.8,1.5,0.9,2.3c0.2,0.8,0,1.7,0,2.5
		c-0.2,2.8,0.2,5.7,2.4,8.4c5.3,6.3,19.3,9,32.1,10.3c15.7,1.5,28.9,2.9,44.7,1.8c23.1,0.1,46.2,0.3,69.3,0.4
		c13.5,0.1,27,0.2,40.5,0.2c2.3,0,4.3-0.4,6.5-0.4c3.3,0,6.6,0.3,9.9,0.4c6.6,0.3,13.3,0.4,20,0.6c16.3,0.3,32.7,0.2,48.9-0.4
		c3.9-0.1,7.6-0.5,11.4,0.1c5.4,0.9,11.2,0.8,16.8,1c13.4,0.3,26.8,0.4,40.2,0.1c3.2-0.1,6.4-0.1,9.6-0.2c5.1-0.1,10.4-0.3,15.2-1.3
		c2.5-0.5,4.8-1.2,7.4-1.6c7.3-1.1,14.7,0.9,21.8,2.3c9.2,1.8,19.3,0.9,28.9,1.3c13.1,0.5,25.7,1,38.8,0.1c0.1,0,0.2,0,0.4,0
		c6.2-0.4,12.3-1.2,18-2.6c2.9-0.7,5.9-1.7,9.2-1.6c3.9,0,7.2,1.5,10.6,2.5c10.6,3.3,23.8,3.3,36,2.5c10.5-0.6,21-1.6,31.6-1.1
		c4.4,0.2,8.6-0.1,13-0.1c5.5,0,10.9,0,16.4,0c45.1,0.1,90.2,0.2,135.2-0.6c19-0.3,38.1-0.8,57.1-1.5c10.1-0.4,20.1-0.8,30.2-1.2
		c5-0.2,10-0.5,15.1-0.7c15.1-0.8,30.4-0.7,45.6-1.3c9.1-0.4,18.6-0.9,26.3-3.5c4.4-1.5,7.9-3.9,9.4-6.5c0.8-1.3,1-2.7,0.6-4
		c-0.2-0.7-0.7-1.3-0.8-1.9c-0.1-2.3-0.1-4.6-0.1-6.9c0-3.6,0.7-7.3-0.3-10.8c-0.1-0.4-0.2-0.8-0.8-1.1c-0.4-0.2-1-0.3-1.7-0.4
		c-2.6-0.4-5.1-0.8-7.6-1.1c3.4-0.9,7.1-1.9,8.3-3.8c0.6-0.9,0.5-1.8,0.5-2.6c-0.1-2.1-0.2-4.3-1.8-6.3c-1.6-2-1.9-3.6-5.8-4.1
		c-20-2.9-41.7-5.7-62.8-7.8c23.6,0.9,47.2,2.2,70.7,3.7c2.8,0.2,5.8,0.5,7.4,1.6c1.2,0.9,1.3,2.1,1.3,3.2c0,4.9-0.1,9.8,0.3,14.8
		c0.7,7.3,1.5,14.6,2.5,21.8C956.9,159.5,942.5,168.1,923.7,168.5z"/>
	<path style="fill:#EB924D;" d="M411,34c-31.2,2.8-63.4,2.7-94.5-0.5C348,32.6,379.5,33.4,411,34z"/>
	<path style="fill:#EB924D;" d="M665.9,47.5c-15.7,1.4-31.8,1-47.7,0.6C574.5,47,529.9,45.9,489.4,38c24.7,0,49.2,2.1,73.7,3.8
		C596.9,44.1,632,45.8,665.9,47.5z"/>
	<linearGradient id="SVGID_8_" gradientUnits="userSpaceOnUse" x1="637.1541" y1="-204.0225" x2="552.6535" y2="-44.192">
		<stop  offset="0" style="stop-color:#CF5C2B"/>
		<stop  offset="1" style="stop-color:#59173E"/>
	</linearGradient>
	<path style="fill:url(#SVGID_8_);" d="M685.8,46.8c-11.6-0.2-23.1-0.9-34.6-1.5c-52-3-104.1-6-156.1-9
		c-56.4-3.3-113.3-6.5-169.9-4.5c-7.5-0.1-15.6,0.4-23.1,0.4c34.7,2,69.7,2.7,104.6,1.9c13.7-0.3,27.5-0.8,41.2-0.1
		c11,0.6,21.7,2,32.5,3.2c20.2,2.3,40.6,4.1,61.1,5.6c57.2,4.1,114.9,5.6,172.6,5.5C703.4,47.6,696.5,47,685.8,46.8z"/>
	<path style="fill:#EB924D;" d="M227.7,73.5c-27.6,1.6-55.6,1.6-83.2-0.1C172.5,72,199.8,72.4,227.7,73.5z"/>
	<linearGradient id="SVGID_9_" gradientUnits="userSpaceOnUse" x1="382.3998" y1="-399.4077" x2="265.0724" y2="-109.7563">
		<stop  offset="0" style="stop-color:#CF5C2B"/>
		<stop  offset="1" style="stop-color:#59173E"/>
	</linearGradient>
	<path style="fill:url(#SVGID_9_);" d="M249.5,73.6c-39.1-0.4-78.3-0.5-117.4-0.3c4.6,0,9.5-0.6,14.2-0.9c4.9-0.3,9.7-0.6,14.6-0.9
		c9.8-0.5,19.6-0.7,29.4-0.3c1.7,0.1,3.1-0.1,4.7-0.2c2.2-0.2,4.7,0.1,6.9,0.1c5,0.2,10,0.4,15,0.6c10,0.4,20,1,29.9,1.7
		C247.8,73.5,248.6,73.6,249.5,73.6z"/>
	<path style="fill:#EB924D;" d="M325.4,107.2c-10.7,2.2-21.3,4.4-32,6.6c-6.7,1.4-13.4,2.8-20.4,3.7c-9,1.2-18.3,1.5-27.6,1.9
		c-23.3,0.9-47.1,1.6-69.8-1.4C226.2,117.7,275.8,112.5,325.4,107.2z"/>
	<linearGradient id="SVGID_10_" gradientUnits="userSpaceOnUse" x1="443.5208" y1="-327.6505" x2="342.0741" y2="-77.2043">
		<stop  offset="0" style="stop-color:#CF5C2B"/>
		<stop  offset="1" style="stop-color:#59173E"/>
	</linearGradient>
	<path style="fill:url(#SVGID_10_);" d="M372.9,101c-27,3.7-54,7.4-81,11.2c-12.9,1.8-25.8,3.6-38.9,4.6
		c-16.3,1.3-32.9,1.6-49.3,1.7c-14.6,0.1-29.3,0.1-43.9,0c5.6-0.5,11.3-0.9,17-1.2c2.3-0.1,4.8-0.1,7.1-0.3
		c11.9-1,23.2-0.6,35.4-0.8c12.7-0.2,25.2-2,37.6-3.1c19.8-1.7,39.4-3.7,59.1-5.8C334.9,105.3,353.9,103.2,372.9,101z"/>
	<path style="fill:#EB924D;" d="M843.9,128.9c-22.4,4.2-46.9,3.5-70.6,2.7c-5-0.2-10-0.3-15-0.1c-3.2,0.2-6.3,0.5-9.4,0.9
		c-14.1,1.5-28.3,3-42.7,3.4c-14.4,0.4-29-0.3-42.6-2.9c37.5,3.2,76.2-3,114.2-3.4c9.5-0.1,18.9,0.1,28.4-0.1
		C819.1,129,831,129,843.9,128.9z"/>
	
		<linearGradient id="SVGID_11_" gradientUnits="userSpaceOnUse" x1="906.7593" y1="-225.8026" x2="794.9931" y2="50.1196" gradientTransform="matrix(0.9996 2.700000e-02 -2.700000e-02 0.9996 3.5995 -11.3574)">
		<stop  offset="0" style="stop-color:#CF5C2B"/>
		<stop  offset="1" style="stop-color:#59173E"/>
	</linearGradient>
	<path style="fill:url(#SVGID_11_);" d="M649.2,132.1c20.6,1.5,41.4,3,62.1,2.2c13.4-0.6,26.5-2.1,39.9-2.9
		c15.8-0.9,31.8-0.7,47.7-0.8c28.6-0.2,57.1-1.5,85.3-3.8c-7.9-0.1-15.8-0.1-23.7,0.1c-7,0.1-13.9-0.1-20.9,0
		c-15.5,0.2-31,0.7-46.4,1.4c-15.4,0.7-30.8,1.5-46.2,2.2c-15.4,0.7-30.8,1.4-46.2,1.8c-15.4,0.4-30.9,0.5-46.4,0.1
		C652.7,132.2,650.9,132.2,649.2,132.1z"/>
</g>
</svg>
