<?xml version="1.0" encoding="utf-8"?>
<!-- Generator: Adobe Illustrator 24.1.1, SVG Export Plug-In . SVG Version: 6.00 Build 0)  -->
<svg version="1.1" id="Laag_1" xmlns="http://www.w3.org/2000/svg" xmlns:xlink="http://www.w3.org/1999/xlink" x="0px" y="0px"
	 viewBox="0 0 456 230" style="enable-background:new 0 0 456 230;" xml:space="preserve">
<g>
	<linearGradient id="SVGID_1_" gradientUnits="userSpaceOnUse" x1="316.9413" y1="-147.7558" x2="243.13" y2="70.1301">
		<stop  offset="0" style="stop-color:#CF5C2B"/>
		<stop  offset="1" style="stop-color:#59173E"/>
	</linearGradient>
	<path style="fill:url(#SVGID_1_);" d="M456,211.9c-0.1-1.5-0.2-3.1-0.3-4.6c-0.2-2.6-0.4-5.1-0.5-7.7c0-0.6-0.1-1.2-0.1-1.8
		c-0.2-2.4,0.3-4.8-1.5-6.9c-0.5-0.6-1.2-1.1-2.2-1.1c1.2-0.3,1.9-1.2,2.2-2c0.4-1.2,0.6-2.7,0.7-3.9c0-1.1-0.1-2.2-0.2-3.3
		c-0.1-1.3-0.1-2.5-0.2-3.8c-0.1-2.5-0.2-5.1-0.4-7.6c-0.1-2.5-0.2-5.1-0.3-7.6c0-0.5,0-0.9-0.1-1.4c-0.1-1.3-0.1-2.6-0.1-3.9
		c0-1-0.4-1.9-1.4-2.7c-0.8-0.7-2.1-1.1-3.4-1c1-0.2,2.1-0.4,2.8-1c2-1.4,1.6-3.4,1.6-5.2c-0.1-2.5-0.1-5-0.2-7.5
		c-0.1-2.5-0.1-5-0.2-7.5c0-2.5-0.1-5-0.1-7.5c0-2.5-0.1-5-0.1-7.4c0-2.5,0-4.9,0-7.4c0-3.9,0-7.7,0.1-11.6c0-1.5,0.3-2.9-1.3-4.1
		c-0.2-0.2-0.5-0.3-0.8-0.5c-0.1-0.1-0.7-0.4-0.9-0.4c1.1-0.3,1.9-0.8,2.4-1.5c0.2-0.4,0.4-0.7,0.4-1.1c0-0.9,0.1-1.9,0.1-2.8
		c0.1-3.1,0.1-6.3,0.3-9.4c0.1-1.7,0.1-3.3,0.2-5c0.1-1.5-0.9-2.8-1.9-4.2c0.9-0.2,1.6-0.8,1.8-1.5c0.3-0.6,0.1-1.2,0.2-1.8
		c0.2-2.4,0.2-4.8,0.3-7.2c0.1-1.2,0.1-2.4,0.2-3.6c0-0.3,0-0.6,0.1-0.9c0-0.2,0.1-0.3,0.1-0.5c0-0.6-0.3-1.2-0.7-1.7
		c-0.4-0.6-1.1-1.2-2-1.5c0.1-0.2,0.4-0.3,0.7-0.4c1.2-0.4,2.1-1.2,2.1-2.1c0-0.2,0-0.4-0.1-0.6c0-0.7,0.1-1.5,0.1-2.2
		c0-0.8,0.1-1.5,0.1-2.3c0.2-3.2,0.4-6.4,0.6-9.6c0.4-6.3,0.9-12.5,1.4-18.8c0.3-3.9-4-7.4-9.7-7.7c-143.6-8-287.6-7.8-431.8,0
		c-0.7,0-1.4,0.1-2.1,0.3C10.5,6.5,8.9,7.3,7.4,8C6.6,8.4,6,9.1,5.5,9.6c-0.7,0.7-1.3,1.3-2,2c-1.9,2.1-3.9,4.3-3.7,6.8
		c0.2,3.1,0.4,6.3,0.6,9.4c0.1,1.6,0.2,3.2,0.3,4.8c0,0.8,0.1,1.7,0.1,2.5c0,0.6,0,1.3,0.1,1.9c0.1,0.5-0.1,1.1-0.1,1.7
		c0,0.7,0.1,1.3,0.2,2c0.1,0.4,0.2,0.7,0.4,1c0.8,1,2.8,1.1,4.1,1.8c-1.3,0.1-2.5,0.4-3.6,0.7c-0.2,0.1-0.3,0.1-0.5,0.2
		c-0.1,0.1-0.2,0.3-0.2,0.5c0,1.7,0,3.4,0,5.1c0,0.7-0.1,1.5,0.2,2.2c0.3,0.7,0.2,1.5,0.2,2.3c0.1,3.3,0.3,6.7,0.4,10
		c0.1,2,0.1,4.1,0.2,6.1c0,1,0.1,1.9,0.1,2.9c0,0.2,0,0.3-0.1,0.4C2,74.7,2.3,75.4,2.9,76c1.2,1.3,3.3,2.1,5.5,2.2
		c-1.1,0.3-2.1,0.5-3.2,0.8c-0.7,0.2-1.5,0.4-1.9,0.8c-0.2,0.3-0.3,0.6-0.4,0.9c-0.8,4-0.5,8-0.3,12c0.2,4,0.2,8,0.3,12
		c0,3.4,0,6.7,0,10.1c0,3.4,0,6.7,0,10.1c0,2.4-0.1,4.9-0.1,7.3c0,0.4,0.1,0.7,0,1c-0.3,0.9-0.4,1.9,0.1,2.8c0.6,1.1,2,1.9,3.6,2.1
		c-1,0.2-2.1,0.4-2.8,1c-0.4,0.4-0.5,0.9-0.6,1.4c-0.1,0.8-0.2,1.6-0.2,2.5c0,0.7,0.2,1.5,0,2.2c-0.5,1.4-0.3,2.9-0.4,4.4
		c0,2-0.1,3.9-0.1,5.9c-0.1,3.4-0.2,6.8-0.3,10.2c-0.1,3.4-0.2,6.8-0.3,10.2c0,0.8-0.1,1.5-0.1,2.3c0,0.6,0.1,1.3-0.1,1.9
		c-0.1,0.2-0.2,0.5-0.3,0.7c-0.1,0.6-0.2,1.3,0.1,1.8c0.4,0.7,1.4,1.2,2.4,1.3c-1-0.2-1.8,0.5-2,1.2c-0.2,0.6-0.1,1.2-0.3,1.8
		c-0.1,0.2-0.1,0.5-0.2,0.7c-0.1,0.5-0.2,1-0.2,1.5c-0.1,1-0.2,2-0.2,2.9c0,0.2,0,0.3,0.1,0.5c0.1,0.1,0.3,0.2,0.5,0.3
		c1.3,0.7,2.7,1.2,4.3,1.4c-1.2,0.3-2.5,0.6-3.7,0.8c-0.3,0.1-0.6,0.1-0.8,0.3c-0.4,0.3-0.4,0.7-0.4,1.1c0,0.9,0,1.7,0,2.6
		c0,0.3-0.2,0.6-0.2,0.9c0,0.4,0,0.9-0.1,1.3c-0.1,1.7-0.2,3.4-0.3,5.1c0,0.1,0,0.2,0,0.4c-0.2,3.4-0.4,6.9-0.6,10.3
		c-0.2,3.9,4.1,7.3,9.8,7.6c146,7.4,289.9,7.5,431.9,0c2.3-0.1,4.6-0.8,6.3-1.9c0.4-0.2,0.8-0.4,1.2-0.7c2.1-1.6,4.7-4,5.8-6
		C455.4,214.6,456.1,213.3,456,211.9z"/>
	<g>
		<linearGradient id="SVGID_2_" gradientUnits="userSpaceOnUse" x1="311.0461" y1="-68.613" x2="76.3805" y2="458.2911">
			<stop  offset="0" style="stop-color:#CF5C2B"/>
			<stop  offset="1" style="stop-color:#59173E"/>
		</linearGradient>
		<path style="fill:url(#SVGID_2_);" d="M446.2,219.5c-141.9,7.4-285.9,7.4-431.9,0c-5.7-0.3-10-3.7-9.8-7.6
			c0.1-0.9,0.1-1.7,0.1-2.6c0-0.7-0.1-1.5,0.1-2.2c0.1-0.3,0.2-0.5,0.3-0.7c0.1-0.2,0.1-0.5,0.1-0.7c0.1-0.6,0.2-1.2,0.2-1.8
			c0.2-1.7,0.5-3.4,0.7-5.1c0-0.2,0-0.3,0.1-0.5c0-0.3,0.1-0.6,0.3-0.8c0.2-0.2,0.5-0.3,0.9-0.4c4.1-1.1,8.6-1.8,12.9-1.8
			c4.8,0,9.3-0.4,14-0.8c1.9-0.2,3.8-0.4,5.7-0.5h-1.9c-4.3,0-8.6-0.1-12.8-0.4c-2.5-0.1-4.9-0.3-7.4-0.5c-1.3-0.1-7.3-0.2-10.2-1
			c-0.9-0.2-1.5-0.5-1.6-0.9c-0.1-1.4-0.1-2.7,0-4.1c0-0.5-0.2-1.6,0.2-2c0.5-0.6,0.2-0.3,1.2-0.5c1-0.3,1.8-0.6,2.8-0.8
			c1.1-0.1,2.2-0.2,3.3-0.3c3.9-0.3,7.9-0.5,11.8-0.8c-1,0-2-0.1-3-0.1c-4.6-0.2-9.2-0.4-13.9-0.6c-0.7,0-1.5-0.1-2.2-0.1
			c-0.3,0-0.7,0-0.8-0.2c-0.1-0.1-0.1-0.2-0.1-0.3c0.1-2.1,0.3-4.1,0.4-6.2c0.3-5.1,0.7-10.2,0.8-15.3c0.1-0.7,0.1-1.4,0.1-2.1
			c0.1-4.3-0.3-8.7,0.5-13.1c0.1-0.4,0.5-4.7,0.5-4.7c14.3-0.7,28.7-1.1,43.1-1.1c1.1,0,2.3,0,3.4,0c-0.4,0-0.8,0-1.1-0.1l0,0
			c-5.7-0.4-11.3-0.8-17-1.2c-3-0.2-6.1-0.5-9.1-0.8c-2.5-0.2-4.9-0.6-7.3-0.9c-0.8-0.1-1.5,0-2.3,0c-2.3,0-4.7-0.6-6.9-0.9
			c-0.2,0-0.3,0-0.5-0.1c-0.4-0.1-0.8-0.2-1.2-0.4c-0.8-0.4-1-1.1-1.1-1.8c0-0.2,0-0.5,0-0.7c0-1.8-0.3-3.6-0.4-5.4
			c-0.2-2.1,0-4.2,0-6.3c0-5.1,0-10.1,0-15.2c0-1.2,0-2.3,0-3.5c0-3.9-0.1-7.7-0.1-11.6c0-1.3,0.2-2.7-0.4-4c-0.6-1.3-0.2-3,0.1-4.3
			c0.1-0.3,0.1-0.7,0.4-0.9C8,81,8.4,80.8,8.8,80.7c3.2-0.7,6.6-0.6,10-0.7c3.3-0.1,6.5-0.4,9.8-0.8c0.4,0,0.9-0.1,1.3-0.2
			c-5.2-0.3-10.4-0.7-15.5-1.6c-1.6-0.3-3.2-0.7-4.6-1.3c-0.3-0.1-0.5-0.2-0.7-0.4C7.9,75.1,7,74.1,7,73c0-0.1,0-0.3,0.1-0.4
			c0-0.1,0.1-0.2,0.1-0.4c0.3-0.7,0.1-1.5,0.1-2.2l-0.1-3.5C7,64.5,7,62.4,6.9,60.3c-0.1-2.1-0.1-4.1-0.5-6.2
			c-0.2-1-0.1-2.1-0.2-3.1c-0.1-1.3-0.1-2.5,0.2-3.8c0.1-0.7,0.3-1.4,0.7-2c0,0,0,0,0,0C7.6,44.6,8.4,44,9.5,44
			c1.7,0.1,3.3-0.2,5-0.3c3.7-0.3,7.4-0.5,11.1-0.6c7.6-0.3,15.2-0.5,22.9-0.6c3.7,0,7.4,0,11.2-0.1h0.5c3.3,0,6.7-0.1,10.1,0
			c-7.2-0.3-14.3-0.6-21.5-1c-3.7-0.2-7.4-0.5-11.2-0.7c-6.3-0.5-12.9-0.4-19.1-0.8c-3.5-0.2-6.9-0.4-10.4-0.4c-0.2,0-0.4,0-0.6,0
			c-0.2,0-0.5,0-0.6-0.1c-0.1-0.1-0.2-0.2-0.2-0.4c-0.6-2.6-1-5.2-1.1-7.8c-0.1-2.1-0.2-4.3-0.3-6.4C5,21,4.8,17.3,4.6,13.5
			c-0.2-3.9,4-7.3,9.7-7.6c144.2-7.8,288.2-8.1,431.8,0c5.7,0.3,10,3.7,9.7,7.7c-0.5,5.2-0.9,10.4-1.2,15.6
			c-0.2,2.3-0.3,4.5-0.5,6.8c-0.1,1.4-0.2,2.7-0.2,4.1c-0.1,0.7-0.1,1.3-0.4,2c-0.5,1.2-0.4,2.5-0.8,3.7c-0.2,0.4-0.3,0.8-0.8,1.1
			c-0.4,0.3-1,0.4-1.6,0.5c-0.1,0-0.1,0-0.2,0c-6.5,1.1-13.1,1.7-19.8,2c-1.2,0.1-2.5,0.1-3.7,0.1c7.7,0.5,15.4,1,23.1,1.6
			c0.7,0,1.5,0.1,2,0.5c0.4,0.3,0.5,0.6,0.7,1c0.1,0.4,0.2,0.7,0.3,1.1c0.3,1.3,0.3,2.6,0.3,3.9c-0.2,2.5-0.6,4.9-1.3,7.4
			c-0.4,1.2-1.4,1.2-2.6,1.1c-0.7-0.1-1.5-0.3-2.2-0.3c-1.8-0.2-3.7-0.3-5.5-0.4c-3.7-0.2-7.4-0.3-11.1-0.3c-2.4,0-4.8,0-7.2,0
			c-10,0.1-20,0.2-30,0.3c0.1,0,0.3,0,0.4,0.1c11.2,1.7,23,0.8,34.4,1.8c4.6,0.4,9.2,1.1,13.8,0.9c1.7-0.1,3.5-0.3,5.2,0
			c1.5,0.3,2.4,1,3.2,1.9c0.9,0.9,1.1,2.1,1.3,3.3c0.1,0.7,0.1,1.3,0.2,1.9c0.3,3.7-0.1,7.4-0.4,11.1c-0.1,0.7-0.1,1.3-0.2,2
			c0,0.5-0.1,1-0.6,1.3c-0.3,0.2-0.8,0.4-1.3,0.4c0,0-0.1,0-0.1,0c-1,0.2-2.1,0.3-3.2,0.3c-0.4,0-0.7-0.1-1-0.1
			c-1.3,0.1-2.5,0.4-3.8,0.5c-1.2,0.1-2.5,0.2-3.7,0.2c0.5,0.1,1,0.2,1.5,0.2c3.4,0.5,6.9,1.1,10.3,1.6c0.4,0.1,0.9,0.2,1.3,0.4
			c1.3,0.9,1,3.8,1.2,4.9c0.2,2.1,0.4,4.3,0.4,6.5c0,1,0,2,0,3.1c0,1.8,0,3.6-0.1,5.3c0,1.2,0,2.5-0.1,3.7
			c-0.1,5.2-0.2,10.4-0.2,15.6c0,2.3-0.1,4.6-0.1,7c0,2.5,0.5,6.7-1.4,9c-0.5,0.6-1.5,1-2.5,1.2c-0.9,0.2-1.9,0.3-2.9,0.3
			c-15.6,0.7-31.2,1.4-46.9,2.1c-0.1,0-0.2,0-0.2,0h-0.1c-0.1,0-0.1,0-0.1,0c0.3,0,0.7,0,1,0c17.6,0.2,35.2,1,52.8,2.1
			c0.8,0.1,1.1,1.3,1.2,1.7c0.4,1.3,0.6,2.6,0.7,3.8c0,0.2,0.1,0.4,0.1,0.7c0.5,4.1,0.6,8.2,0.7,12.4v0.2c0,0.4,0,0.8,0.1,1.2
			c0,0.5,0,0.9,0.1,1.4c0.1,2.4,0.3,5-0.1,7.4c-0.1,0.7-0.3,1.5-0.7,2.2c-0.2,0.3-0.3,0.7-0.6,1c-0.8,0.7-2,1.1-3.2,1.4
			c-0.4,0.1-0.9,0.2-1.3,0.3c-2.9,0.5-5.8,1-8.8,1.3c0.3,0,0.6,0.1,0.9,0.1c3.1,0.4,6.2,0.8,9.4,1.2c1.1,0.1,2.3,0.4,3.2,0.9
			c0.5,0.3,0.9,0.6,1.1,1c0.4,0.5,0.5,1,0.7,1.5c0,0.2,0.1,0.4,0.1,0.5c0.3,1.7-0.1,3.4,0.2,5.2c0.2,0.9,0.2,1.8,0.3,2.7
			c0.1,1.7,0.2,3.4,0.4,5.1c0.1,1.5,0.2,3.1,0.3,4.6C456.3,215.8,451.9,219.2,446.2,219.5z"/>
	</g>
	<linearGradient id="SVGID_3_" gradientUnits="userSpaceOnUse" x1="297.2179" y1="-41.7077" x2="57.162" y2="497.2995">
		<stop  offset="0" style="stop-color:#CF5C2B"/>
		<stop  offset="1" style="stop-color:#59173E"/>
	</linearGradient>
	<path style="fill:url(#SVGID_3_);" d="M454.2,36c-0.1,1.4-0.2,2.7-0.2,4.1c-0.1,0.7-0.1,1.3-0.4,2c-0.5,1.2-0.4,2.5-0.8,3.7
		c-0.2,0.4-0.3,0.8-0.8,1.1c-0.4,0.3-1,0.4-1.6,0.5c-0.1,0-0.1,0-0.2,0c-6.5,1.1-13.1,1.7-19.8,2c-1.2,0.1-2.5,0.1-3.7,0.1
		c7.7,0.5,15.4,1,23.1,1.6c0.7,0,1.5,0.1,2,0.5c0.4,0.3,0.5,0.6,0.7,1c0.1,0.4,0.2,0.7,0.3,1.1c-10-0.4-20.1-0.7-30.4-0.7
		c-73.5-0.4-147,2.5-220.1,8.1C165.8,64,129.3,67,92.7,69C64.5,70.5,35.6,72.7,7,72.6c0-0.1,0.1-0.2,0.1-0.4
		c0.3-0.7,0.1-1.5,0.1-2.2l-0.1-3.5c11.7-0.7,23.5-1.1,35.3-1.7c20.8-1.1,41.6-2.3,62.4-3.7c74.1-5.1,147.7-12.3,222.2-14.8
		c5.4-0.2,10.9-0.3,16.3-0.5c-13.9-0.5-27.8-1-41.7-1.4c-18.6-0.5-37.3-1.2-56-1.2c-19.5,0.1-38.8,1.1-58.3,1.4
		c-38.6,0.7-77.1,2.2-115.8,2.6c-19.1,0.2-38.9,1-57.8-1.2c-2.2-0.3-4.5-0.5-6.7-0.8C7.6,44.6,8.4,44,9.5,44c1.7,0.1,3.3-0.2,5-0.3
		c3.7-0.3,7.4-0.5,11.1-0.6c7.6-0.3,15.2-0.5,22.9-0.6c3.7,0,7.4,0,11.2-0.1h0.5c3.3,0,6.7-0.1,10.1,0c-7.2-0.3-14.3-0.6-21.5-1
		c-3.7-0.2-7.4-0.5-11.2-0.7c-6.3-0.5-12.9-0.4-19.1-0.8c-3.5-0.2-6.9-0.4-10.4-0.4c-0.2,0-0.4,0-0.6,0c-0.2,0-0.5,0-0.6-0.1
		c-0.1-0.1-0.2-0.2-0.2-0.4c-0.6-2.6-1-5.2-1.1-7.8c-0.1-2.1-0.2-4.3-0.3-6.4c6.6-0.6,13.2-1.1,19.9-1.3c21.8-0.7,43.7-0.5,65.6-1.3
		c37.8-1.2,76.2-3.2,114-1.6c37.6,1.6,75,4.7,112.5,7.1c39.1,2.5,78.2,4.8,117.3,7.1C441,35.2,447.6,35.6,454.2,36z M452.6,156.1
		c-0.1-0.4-0.4-1.6-1.2-1.7c-17.5-1.2-35.2-1.9-52.8-2.1c-0.3,0-0.7,0-1,0c0.1,0,0.1,0,0.1,0h0.1c0.1,0,0.2,0,0.2,0
		c15.6-0.7,31.2-1.4,46.9-2.1c1,0,2-0.1,2.9-0.3c1.1-0.2,2-0.6,2.5-1.2c1.9-2.2,1.4-6.5,1.4-9c0-2.3,0-4.6,0.1-7
		c-72-1.5-144-3.7-215.8-7.1c3.1-0.5,6.1-1,9.2-1.5c27.3-4.3,54.8-6.7,82.8-7.6c41.4-1.4,83-0.1,124.1-3.1c0-1.8,0.1-3.6,0.1-5.3
		c-42.5,0.9-85.1-0.3-127.6,0.7c-26.8,0.6-53.3,2.5-79.6,6.1c-19.7,2.6-39.3,5.8-59.1,8.2c-25.1-1.4-50.3-3-75.4-4.8
		c-19-1.4-38-2.9-56.9-4.5c-1-0.1-2-0.1-3-0.2c10.9-1.9,22-3.3,33-4.5c30.1-3.2,60.7-4.6,91-6.5c65-3.9,130.2-7,195.4-9.8
		c27.4-1.2,54.7-2.2,81.4-5.9c0.3-3.7,0.7-7.4,0.4-11.1c-0.1-0.6-0.1-1.3-0.2-1.9c-23.5-2.1-47.3-1.9-71.2-1.2
		c-33.2,1-66.3,2.1-99.5,3.7c-65.3,3.1-131.2,6-196.1,12.2C58,90.7,32.2,94.9,7.7,102c0,1.2,0,2.3,0,3.5c0,5.1,0,10.1,0,15.2
		c0,2.1-0.2,4.2,0,6.3c0.2,1.8,0.4,3.5,0.4,5.4c0,0.2,0,0.5,0,0.7c6.1,1.1,12.3,1.7,18.3,2.6c17,2.4,34.1,4.1,51.3,5.7
		c35,3.2,70.1,6.1,105.3,8.4c69.2,4.6,138.9,6.9,208.4,8.7c20.6,0.5,41.2,1,61.8,1.4C453.2,158.6,453,157.3,452.6,156.1z M454,192.3
		c-0.3-0.4-0.7-0.7-1.1-1c-0.9-0.5-2.1-0.7-3.2-0.9c-3.1-0.4-6.3-0.8-9.4-1.2c-0.3,0-0.6-0.1-0.9-0.1c3-0.3,5.9-0.8,8.8-1.3
		c0.4-0.1,0.9-0.2,1.3-0.3c1.2-0.3,2.4-0.7,3.2-1.4c0.3-0.3,0.5-0.7,0.6-1c0.4-0.7,0.6-1.4,0.7-2.2c0.4-2.3,0.2-5,0.1-7.4
		c0-0.4,0-0.9-0.1-1.4c-57.4,1.4-114.6,2.3-172,0.3c-63-2.1-126-6.2-188.8-10.1c-17.9-1.1-35.8-2.4-53.8-3.3
		c-10.4-0.5-21.6-1.3-32.5-1.2c-0.2,5.1-0.5,10.2-0.8,15.3c7.7,1.4,15.6,2.4,22.9,3.2c16.2,1.8,32.3,3.3,48.6,4.4
		c31.9,2.2,63.8,3.9,95.7,5.8c18.2,1.1,36.4,2.1,54.6,3c-13.3,0.8-26.5,1.5-39.8,2c-34.2,1.3-68.4,3.4-102.7,4.6
		c-26.5,0.9-52.9,0.4-79.3,0c0,0.1,0,0.3-0.1,0.5c-0.2,1.7-0.5,3.4-0.7,5.1c-0.1,0.6-0.1,1.2-0.2,1.8c25.2,3,51.4,2.9,76.9,2.1
		c34.3-1,68.3-3.4,102.3-6.8c35.8-3.5,72.5-4.8,108.6-6.3c0.7,0,1.3,0,2-0.1c23.6,0.8,47.2,1.2,70.9,1.2c29.7,0,59.3-0.5,88.9-2
		C454.6,193.3,454.4,192.8,454,192.3z"/>
	<g>
		<path style="fill:#EB924D;" d="M102,207.2c-2.6,0.9-4.9,1.3-7.3,1.2c0.7,0.3,1.3,0.7,1.7,1.2c0.8,1,0.9,2.2,0,3.2
			c-1.8,2-5.6,1.9-8.5,1.3c-2.9-0.6-5.2-2.9-5.2-4.9c0.1-1.5,1.7-2.6,3.9-2.7c-1.9-0.8-3.7-1.8-5.2-2.8c-4.2-2.8-7.1-7.8-5.2-11.6
			c0.9-1.8,4-3.5,7.1-2.7c3.7,1,6.9,2.4,10.2,3.8c0.9,0.4,1.8,0.8,2.7,1.1c0.5,0.2,2.2,0.7,0.9,0.3c3.6,1,6.1,2.1,8.1,4.5
			C107.5,201.6,106.4,205.7,102,207.2z M70.4,183.8c-0.2-0.2-0.3-0.4-0.5-0.6c-0.6-0.6-1.3-1.1-2.2-1.5c-1-0.4-2-0.6-3.1-0.6
			c-1.3,0.1-1.9,0.2-2.9,0.5c-0.9,0.2-1.5,0.6-2.2,1.1c-1.1,1-1.4,2.5-0.9,3.6c0.4,0.9,1.1,1.6,2.2,2.1c1,0.5,2.4,1,3.8,0.9
			c0.8,0,1.7-0.1,2.5-0.2C70.5,188.6,72.4,185.7,70.4,183.8z M377.5,155.8c-0.8-2-3.8-3.5-6.9-3.5c-1.1,0-2.1-0.2-3.3-0.2
			c-2,0-3.7,0.6-5.4,1c-2.9,0.8-5.6,1.9-7,3.8c-1.4,1.8-1.1,4.4,1.3,5.8c-0.4,0.2-0.7,0.5-1.2,0.7c-1.8,1-0.4,3.4,2,3.3
			c0.8-0.1,1.7,0.1,2.5,0.1c1.2,0,2.3-0.1,3.4-0.4c0.9-0.2,1.8-0.4,2.7-0.6c0.6-0.2,1.1-0.4,1.6-0.8c0.1-0.1,1.1-1.1,0.5-0.7
			c0.3-0.2,0.5-0.4,0.6-0.7c2-0.4,3.6-0.9,5.1-1.9c0.3-0.2,0.6-0.3,1-0.5C376.8,160,378.4,158,377.5,155.8z M368.3,146.4
			c-0.6-0.1-1.3-0.3-2-0.2c-0.7,0.1-1.4,0.4-2.1,0.6c-0.7,0.2-1,0.9-0.7,1.3c0.3,0.5,1.1,0.7,1.9,0.6c0.6-0.1,1.4-0.1,2-0.3
			c0.5-0.2,0.9-0.6,1.2-0.9C369.1,147.1,369.1,146.5,368.3,146.4z M383.5,133.5c-0.2-0.3-0.4-0.6-0.5-0.9c-4.1-1.9-7.3-2.1-9.8-0.6
			c-0.5,0.3-1,0.7-1.3,1.1c-1.4,1.7-0.8,4.2,1.9,5.1c1.4,0.5,3,0.7,4.6,0.4c0.8-0.2,1.6-0.4,2.4-0.7c0.4-0.2,0.8-0.4,1.2-0.6
			c0.6-0.4,1-0.8,1.2-1.3C383.7,135.3,384,134.3,383.5,133.5z M367.3,53.7c-0.3-0.8-0.6-1.6-1.4-2.3c-0.9-0.8-2.2-1.2-3.4-1.7
			c-1-0.4-2-0.9-3.1-1.1c-1.2-0.3-2.5-0.3-3.8-0.3c-2.2-0.1-3.5,0.8-4,2c-3.1-1.9-7.8-3-11.6-3.6c-4-0.6-14.1-0.3-13.3,4
			c0.6,3.4,4.4,5.5,8.6,7.2c4.1,1.7,7.6,3,11.9,2.7c3.5,0.3,7.7,0.6,9.4-2c0.5-0.7,0.5-1.4,0.4-2.1c0.9,0.4,1.7,0.9,2.8,1
			c1.5,0.3,3,0,4.4-0.1C366.7,57.1,367.8,55.1,367.3,53.7z M318.9,55.9c-0.9-0.6-1.7-1.2-2.8-1.7c-1.2-0.6-2.5-0.7-4-0.8
			c-1.2-0.1-2.6-0.4-3.8-0.3c-1.2,0.1-2.1,0.6-3,1.2c-0.5,0.3-0.6,0.8-0.5,1.2c0.3,0.7,0.6,1.4,1.3,1.9c1,0.6,2.6,0.9,3.8,1.2
			c1.2,0.3,2.3,0.7,3.7,0.7c1.3,0,2.7-0.3,4-0.5C319.6,58.4,320.2,56.8,318.9,55.9z M364.7,75.8c-0.2-0.9-1-1.6-1.9-2.2
			c-1.3-0.9-2.9-1.1-4.6-1.4c-1.4-0.3-2.9,0.1-3.7,0.8c-0.9,0.8-0.9,1.8-0.3,2.6c0.2,0.3,0.5,0.6,0.7,1c0.5,0.7,1.2,1.2,2.2,1.7
			c1,0.4,2,0.8,3.2,0.8c1.3,0,2.8-0.4,3.6-1.1C364.7,77.3,364.9,76.6,364.7,75.8z M276.4,152c-5.8-2.2-15.3-1.5-19.9,1.4
			c-2.9,1.9-3,5.4,0,7.2c6.7,4.1,18.3,2.4,22.6-2.7c0.1,0,0.2-0.1,0.2-0.2C282.5,155.8,280.2,152.5,276.4,152z M244.9,148.7
			c-1.6-0.6-2.9-1-4.9-0.8c-1.3,0.2-2.5,0.4-3.7,0.7c-1.6,0.4-2.6,1.3-2.4,2.4c0.3,1.2,1.6,1.8,3.3,1.9c1.3,0.1,2.6,0.2,3.9,0.2
			c1.9,0,3-0.7,4.4-1.5C246.8,150.9,246.4,149.3,244.9,148.7z M67.9,37c-2.6-2.5-8.1-2-11.4-0.5c-1.3,0.6-2.9,1.4-4.1,2.2
			c-1,0.7-1.5,1.5-1.8,2.4c-0.1,0.4-0.1,0.7-0.2,1.1c0.1-0.4,0.1-0.4,0,0.1c-0.6,2,1.3,3.8,4.4,3.9c0.2,0,0.3,0,0.4,0
			c0.1,0,0.1,0,0.2,0c1.8,0.3,3.6,0.1,5.2-0.5c1.1-0.4,2.2-0.8,3.3-1.3C67.4,43,70.7,39.8,67.9,37z M46.1,38.6
			c-1.4,0.3-2.8,0.6-3.8,1.4c-0.8,0.7-1.6,1.4-2.3,2.2c-1,1.2-0.5,2.9,1.4,3.6c2,0.7,4.2,0.3,5.4-0.9c0.2-0.3,0.5-0.5,0.8-0.7
			c0,0,0,0,0.1,0c0.2-0.1,0.3-0.3,0.5-0.4c0.7-0.5,1.1-1,1.4-1.6c0.1-0.3,0.3-0.6,0.4-0.8C51,39.7,48.4,38.2,46.1,38.6z M89.1,26.9
			c-1.1-0.1-2.3-0.2-3.3,0.2c-0.7,0.3-1.1,0.7-1.7,1.1c-0.7,0.6-1,1.4-0.4,2.1c0.7,0.7,1.7,0.9,2.9,0.8c0.7-0.1,1.6-0.1,2.3-0.4
			c1-0.4,1.4-1.1,1.8-1.7C91.3,28.1,90.4,27,89.1,26.9z M195.1,86.3c0.1-0.1,0.2-0.3,0.3-0.4c1.1-1.8,0.8-3.9-1.9-4.9
			c-0.4-0.1-0.8-0.3-1.2-0.4c-2.8-1.6-6-2-9.7-1.8c-3.7,0.2-6.9,1.4-10.2,2.4c-4.6,1.4-5.9,5.6-4.1,8.4c0.5,0.9,1.3,1.6,2.3,2.2
			c-2.8,0.8-5.4,1.9-7.5,2.8c-1.1,0.5-1.9,1.1-2.6,1.7c-2.4,1.4-3.4,3.4-1.1,6c4.4,5,17.2,3.6,23.9,1.9c4-1,8.7-2.5,10.8-5.2
			c2.4-3,0.6-6.6-3.6-8.3C192.8,89.9,194.5,88.4,195.1,86.3z M150.2,97.9c-1.1-0.2-1.8,0.2-2.7,0.5c0,0-0.1,0-0.2,0.1
			c-0.1,0-0.3,0.1-0.3,0.1c-0.3,0.1-0.7,0.1-1,0.2c-1.5,0.2-2.1,1.4-1.6,2.2c0.6,0.9,2.2,1.2,3.5,0.8c0.8-0.3,1.4-0.6,2.1-0.9
			c0.8-0.4,1.7-0.9,1.6-1.7C151.5,98.6,151,98,150.2,97.9z M135.8,92c-0.2-0.1-0.4-0.1-0.6-0.2c-3.1-1.6-7.8-0.7-10.5,1
			c-2,1.2-3.7,2.8-4.1,4.6c-0.3,1.3-0.1,2.5,1.4,3.5c1.3,0.9,3.5,1.3,5.2,0.9c4.2-1,9.9-2.9,10.5-6.1c0.1-0.1,0.1-0.2,0.2-0.3
			C138.5,94.3,137.5,92.5,135.8,92z M427.9,206.8c-0.4-1.1-1.6-2.1-3.1-2.7c-2.7-1-5.9-0.6-8.1,0.7c-1.1,0.7-2.3,1.4-3.4,2.1
			c-2.3,1.4-2.3,3.9-0.5,5.4c1.9,1.6,5.3,2.1,8,1.1c1.3-0.5,2.7-1,4-1.5C427.5,210.8,428.6,208.7,427.9,206.8z"/>
		<linearGradient id="SVGID_4_" gradientUnits="userSpaceOnUse" x1="351.654" y1="-187.7147" x2="168.557" y2="301.7634">
			<stop  offset="0" style="stop-color:#CF5C2B"/>
			<stop  offset="1" style="stop-color:#59173E"/>
		</linearGradient>
		<path style="fill:url(#SVGID_4_);" d="M103.3,205.3c-2.6,0.9-4.9,1.3-7.3,1.2c0.7,0.3,1.3,0.7,1.7,1.2c0.8,1,0.9,2.2,0,3.2
			c-1.8,2-5.6,1.9-8.5,1.3c-2.9-0.6-5.2-2.9-5.2-4.9c0.1-1.5,1.7-2.6,3.9-2.7c-1.9-0.8-3.7-1.8-5.2-2.8c-4.2-2.8-7.1-7.8-5.2-11.6
			c0.9-1.8,4-3.5,7.1-2.7c3.7,1,6.9,2.4,10.2,3.8c0.9,0.4,1.8,0.8,2.7,1.1c0.5,0.2,2.2,0.7,0.9,0.3c3.6,1,6.1,2.1,8.1,4.5
			C108.9,199.7,107.8,203.8,103.3,205.3z M71.8,181.8c-0.2-0.2-0.3-0.4-0.5-0.6c-0.6-0.6-1.3-1.1-2.2-1.5c-1-0.4-2-0.6-3.1-0.6
			c-1.3,0.1-1.9,0.2-2.9,0.5c-0.9,0.2-1.5,0.6-2.2,1.1c-1.1,1-1.4,2.5-0.9,3.6c0.4,0.9,1.1,1.6,2.2,2.1c1,0.5,2.4,1,3.8,0.9
			c0.8,0,1.7-0.1,2.5-0.2C71.8,186.7,73.8,183.8,71.8,181.8z M378.2,154.8c-0.8-2-3.8-3.5-6.9-3.5c-1.1,0-2.1-0.2-3.3-0.2
			c-2,0-3.7,0.6-5.4,1c-2.9,0.8-5.6,1.9-7,3.8c-1.4,1.8-1.1,4.4,1.3,5.8c-0.4,0.2-0.7,0.5-1.2,0.7c-1.8,1-0.4,3.4,2,3.3
			c0.8-0.1,1.7,0.1,2.5,0.1c1.2,0,2.3-0.1,3.4-0.4c0.9-0.2,1.8-0.4,2.7-0.6c0.6-0.2,1.1-0.4,1.6-0.8c0.1-0.1,1.1-1.1,0.5-0.7
			c0.3-0.2,0.5-0.4,0.6-0.7c2-0.4,3.6-0.9,5.1-1.9c0.3-0.2,0.6-0.3,1-0.5C377.5,158.9,379.1,157,378.2,154.8z M369,145.3
			c-0.6-0.1-1.3-0.3-2-0.2c-0.7,0.1-1.4,0.4-2.1,0.6c-0.7,0.2-1,0.9-0.7,1.3c0.3,0.5,1.1,0.7,1.9,0.6c0.6-0.1,1.4-0.1,2-0.3
			c0.5-0.2,0.9-0.6,1.2-0.9C369.9,146,369.8,145.5,369,145.3z M384.2,132.5c-0.2-0.3-0.4-0.6-0.5-0.9c-4.1-1.9-7.3-2.1-9.8-0.6
			c-0.5,0.3-1,0.7-1.3,1.1c-1.4,1.7-0.8,4.2,1.9,5.1c1.4,0.5,3,0.7,4.6,0.4c0.8-0.2,1.6-0.4,2.4-0.7c0.4-0.2,0.8-0.4,1.2-0.6
			c0.6-0.4,1-0.8,1.2-1.3C384.4,134.3,384.7,133.2,384.2,132.5z M368.7,51.7c-0.3-0.8-0.6-1.6-1.4-2.3c-0.9-0.8-2.2-1.2-3.4-1.7
			c-1-0.4-2-0.9-3.1-1.1c-1.2-0.3-2.5-0.3-3.8-0.3c-2.2-0.1-3.5,0.8-4,2c-3.1-1.9-7.8-3-11.6-3.6c-4-0.6-14.1-0.3-13.3,4
			c0.6,3.4,4.4,5.5,8.6,7.2c4.1,1.7,7.6,3,11.9,2.7c3.5,0.3,7.7,0.6,9.4-2c0.5-0.7,0.5-1.4,0.4-2.1c0.9,0.4,1.7,0.9,2.8,1
			c1.5,0.3,3,0,4.4-0.1C368,55.1,369.2,53.1,368.7,51.7z M320.2,54c-0.9-0.6-1.7-1.2-2.8-1.7c-1.2-0.6-2.5-0.7-4-0.8
			c-1.2-0.1-2.6-0.4-3.8-0.3c-1.2,0.1-2.1,0.6-3,1.2c-0.5,0.3-0.6,0.8-0.5,1.2c0.3,0.7,0.6,1.4,1.3,1.9c1,0.6,2.6,0.9,3.8,1.2
			c1.2,0.3,2.3,0.7,3.7,0.7c1.3,0,2.7-0.3,4-0.5C321,56.5,321.5,54.8,320.2,54z M366.1,73.8c-0.2-0.9-1-1.6-1.9-2.2
			c-1.3-0.9-2.9-1.1-4.6-1.4c-1.4-0.3-2.9,0.1-3.7,0.8c-0.9,0.8-0.9,1.8-0.3,2.6c0.2,0.3,0.5,0.6,0.7,1c0.5,0.7,1.2,1.2,2.2,1.7
			c1,0.4,2,0.8,3.2,0.8c1.3,0,2.8-0.4,3.6-1.1C366.1,75.4,366.3,74.6,366.1,73.8z M277.7,150c-5.8-2.2-15.3-1.5-19.9,1.4
			c-2.9,1.9-3,5.4,0,7.2c6.7,4.1,18.3,2.4,22.6-2.7c0.1-0.1,0.2-0.1,0.2-0.2C283.8,153.8,281.5,150.5,277.7,150z M246.2,146.8
			c-1.6-0.6-2.9-1-4.9-0.8c-1.3,0.2-2.5,0.4-3.7,0.7c-1.6,0.4-2.6,1.3-2.4,2.4c0.3,1.2,1.6,1.8,3.3,1.9c1.3,0.1,2.6,0.2,3.9,0.2
			c1.9,0,3-0.7,4.4-1.5C248.2,149,247.8,147.3,246.2,146.8z M68.7,35.9c-2.6-2.5-8.1-2-11.4-0.5c-1.3,0.6-2.9,1.4-4.1,2.2
			c-1,0.7-1.5,1.5-1.8,2.4c-0.1,0.4-0.1,0.7-0.2,1.1c0.1-0.4,0.1-0.4,0,0.1c-0.6,2,1.3,3.8,4.4,3.9c0.2,0,0.3,0,0.4,0
			c0.1,0,0.1,0,0.2,0c1.8,0.3,3.6,0.1,5.2-0.5c1.1-0.4,2.2-0.8,3.3-1.3C68.2,41.8,71.5,38.6,68.7,35.9z M47,37.5
			c-1.4,0.3-2.8,0.6-3.8,1.4c-0.8,0.7-1.6,1.4-2.3,2.2c-1,1.2-0.5,2.9,1.4,3.6c2,0.7,4.2,0.3,5.4-0.9c0.2-0.3,0.5-0.5,0.8-0.7
			c0,0,0,0,0.1,0c0.2-0.1,0.3-0.3,0.5-0.4c0.7-0.5,1.1-1,1.4-1.6c0.1-0.3,0.3-0.6,0.4-0.8C51.9,38.6,49.2,37,47,37.5z M90,25.7
			c-1.1-0.1-2.3-0.2-3.3,0.2c-0.7,0.3-1.1,0.7-1.7,1.1c-0.7,0.6-1,1.4-0.4,2.1c0.7,0.7,1.7,0.9,2.9,0.8c0.7-0.1,1.6-0.1,2.3-0.4
			c1-0.4,1.4-1.1,1.8-1.7C92.1,26.9,91.2,25.8,90,25.7z M196.5,84.4c0.1-0.1,0.2-0.3,0.3-0.4c1.1-1.8,0.8-3.9-1.9-4.9
			c-0.4-0.1-0.8-0.3-1.2-0.4c-2.8-1.6-6-2-9.7-1.8c-3.7,0.2-6.9,1.4-10.2,2.4c-4.6,1.4-5.9,5.6-4.1,8.4c0.5,0.9,1.3,1.6,2.3,2.2
			c-2.8,0.8-5.4,1.9-7.5,2.8c-1.1,0.5-1.9,1.1-2.6,1.7c-2.4,1.4-3.4,3.4-1.1,6c4.4,5,17.2,3.6,23.9,1.9c4-1,8.7-2.5,10.8-5.2
			c2.4-3,0.6-6.6-3.6-8.3C194.1,87.9,195.9,86.4,196.5,84.4z M151,96.8c-1.1-0.2-1.8,0.2-2.7,0.5c0,0-0.1,0-0.2,0.1
			c-0.1,0-0.3,0.1-0.3,0.1c-0.3,0.1-0.7,0.1-1,0.2c-1.5,0.2-2.1,1.4-1.6,2.2c0.6,0.9,2.2,1.2,3.5,0.8c0.8-0.3,1.4-0.6,2.1-0.9
			c0.8-0.4,1.7-0.9,1.6-1.7C152.3,97.4,151.8,96.9,151,96.8z M136.6,90.9c-0.2-0.1-0.4-0.1-0.6-0.2c-3.1-1.6-7.8-0.7-10.5,1
			c-2,1.2-3.7,2.8-4.1,4.6c-0.3,1.3-0.1,2.5,1.4,3.5c1.3,0.9,3.5,1.3,5.2,0.9c4.2-1,9.9-2.9,10.5-6.1c0.1-0.1,0.1-0.2,0.2-0.3
			C139.3,93.2,138.3,91.4,136.6,90.9z M429.3,204.8c-0.4-1.1-1.6-2.1-3.1-2.7c-2.7-1-5.9-0.6-8.1,0.7c-1.1,0.7-2.3,1.4-3.4,2.1
			c-2.3,1.4-2.3,3.9-0.5,5.4c1.9,1.6,5.3,2.1,8,1.1c1.3-0.5,2.7-1,4-1.5C428.9,208.9,429.9,206.8,429.3,204.8z"/>
		<linearGradient id="SVGID_5_" gradientUnits="userSpaceOnUse" x1="313.7164" y1="-88.2209" x2="130.6195" y2="401.257">
			<stop  offset="0" style="stop-color:#CF5C2B"/>
			<stop  offset="1" style="stop-color:#59173E"/>
		</linearGradient>
		<path style="fill:url(#SVGID_5_);" d="M102,206.5c-2.6,0.9-4.9,1.3-7.3,1.2c0.7,0.3,1.3,0.7,1.7,1.2c0.8,1,0.9,2.2,0,3.2
			c-1.8,2-5.6,1.9-8.5,1.3c-2.9-0.6-5.2-2.9-5.2-4.9c0.1-1.5,1.7-2.6,3.9-2.7c-1.9-0.8-3.7-1.8-5.2-2.8c-4.2-2.8-7.1-7.8-5.2-11.6
			c0.9-1.8,4-3.5,7.1-2.7c3.7,1,6.9,2.4,10.2,3.8c0.9,0.4,1.8,0.8,2.7,1.1c0.5,0.2,2.2,0.7,0.9,0.3c3.6,1,6.1,2.1,8.1,4.5
			C107.5,201,106.4,205,102,206.5z M70.4,183.1c-0.2-0.2-0.3-0.4-0.5-0.6c-0.6-0.6-1.3-1.1-2.2-1.5c-1-0.4-2-0.6-3.1-0.6
			c-1.3,0.1-1.9,0.2-2.9,0.5c-0.9,0.2-1.5,0.6-2.2,1.1c-1.1,1-1.4,2.5-0.9,3.6c0.4,0.9,1.1,1.6,2.2,2.1c1,0.5,2.4,1,3.8,0.9
			c0.8,0,1.7-0.1,2.5-0.2C70.5,187.9,72.4,185.1,70.4,183.1z M377.5,155.5c-0.8-2-3.8-3.5-6.9-3.5c-1.1,0-2.1-0.2-3.3-0.2
			c-2,0-3.7,0.6-5.4,1c-2.9,0.8-5.6,1.9-7,3.8c-1.4,1.8-1.1,4.4,1.3,5.8c-0.4,0.2-0.7,0.5-1.2,0.7c-1.8,1-0.4,3.4,2,3.3
			c0.8-0.1,1.7,0.1,2.5,0.1c1.2,0,2.3-0.1,3.4-0.4c0.9-0.2,1.8-0.4,2.7-0.6c0.6-0.2,1.1-0.4,1.6-0.8c0.1-0.1,1.1-1.1,0.5-0.7
			c0.3-0.2,0.5-0.4,0.6-0.7c2-0.4,3.6-0.9,5.1-1.9c0.3-0.2,0.6-0.3,1-0.5C376.8,159.6,378.4,157.7,377.5,155.5z M368.3,146
			c-0.6-0.1-1.3-0.3-2-0.2c-0.7,0.1-1.4,0.4-2.1,0.6c-0.7,0.2-1,0.9-0.7,1.3c0.3,0.5,1.1,0.7,1.9,0.6c0.6-0.1,1.4-0.1,2-0.3
			c0.5-0.2,0.9-0.6,1.2-0.9C369.1,146.7,369.1,146.1,368.3,146z M383.5,133.1c-0.2-0.3-0.4-0.6-0.5-0.9c-4.1-1.9-7.3-2.1-9.8-0.6
			c-0.5,0.3-1,0.7-1.3,1.1c-1.4,1.7-0.8,4.2,1.9,5.1c1.4,0.5,3,0.7,4.6,0.4c0.8-0.2,1.6-0.4,2.4-0.7c0.4-0.2,0.8-0.4,1.2-0.6
			c0.6-0.4,1-0.8,1.2-1.3C383.7,135,384,133.9,383.5,133.1z M367.3,53c-0.3-0.8-0.6-1.6-1.4-2.3c-0.9-0.8-2.2-1.2-3.4-1.7
			c-1-0.4-2-0.9-3.1-1.1c-1.2-0.3-2.5-0.3-3.8-0.3c-2.2-0.1-3.5,0.8-4,2c-3.1-1.9-7.8-3-11.6-3.6c-4-0.6-14.1-0.3-13.3,4
			c0.6,3.4,4.4,5.5,8.6,7.2c4.1,1.7,7.6,3,11.9,2.7c3.5,0.3,7.7,0.6,9.4-2c0.5-0.7,0.5-1.4,0.4-2.1c0.9,0.4,1.7,0.9,2.8,1
			c1.5,0.3,3,0,4.4-0.1C366.7,56.4,367.8,54.4,367.3,53z M318.9,55.2c-0.9-0.6-1.7-1.2-2.8-1.7c-1.2-0.6-2.5-0.7-4-0.8
			c-1.2-0.1-2.6-0.4-3.8-0.3c-1.2,0.1-2.1,0.6-3,1.2c-0.5,0.3-0.6,0.8-0.5,1.2c0.3,0.7,0.6,1.4,1.3,1.9c1,0.6,2.6,0.9,3.8,1.2
			c1.2,0.3,2.3,0.7,3.7,0.7c1.3,0,2.7-0.3,4-0.5C319.6,57.7,320.2,56.1,318.9,55.2z M364.7,75.1c-0.2-0.9-1-1.6-1.9-2.2
			c-1.3-0.9-2.9-1.1-4.6-1.4c-1.4-0.3-2.9,0.1-3.7,0.8c-0.9,0.8-0.9,1.8-0.3,2.6c0.2,0.3,0.5,0.6,0.7,1c0.5,0.7,1.2,1.2,2.2,1.7
			c1,0.4,2,0.8,3.2,0.8c1.3,0,2.8-0.4,3.6-1.1C364.7,76.7,364.9,75.9,364.7,75.1z M276.4,151.3c-5.8-2.2-15.3-1.5-19.9,1.4
			c-2.9,1.9-3,5.4,0,7.2c6.7,4.1,18.3,2.4,22.6-2.7c0.1-0.1,0.2-0.1,0.2-0.2C282.5,155.1,280.2,151.8,276.4,151.3z M244.9,148
			c-1.6-0.6-2.9-1-4.9-0.8c-1.3,0.2-2.5,0.4-3.7,0.7c-1.6,0.4-2.6,1.3-2.4,2.4c0.3,1.2,1.6,1.8,3.3,1.9c1.3,0.1,2.6,0.2,3.9,0.2
			c1.9,0,3-0.7,4.4-1.5C246.8,150.2,246.4,148.6,244.9,148z M67.9,36.6c-2.6-2.5-8.1-2-11.4-0.5c-1.3,0.6-2.9,1.4-4.1,2.2
			c-1,0.7-1.5,1.5-1.8,2.4c-0.1,0.4-0.1,0.7-0.2,1.1c0.1-0.4,0.1-0.4,0,0.1c-0.6,2,1.3,3.8,4.4,3.9c0.2,0,0.3,0,0.4,0
			c0.1,0,0.1,0,0.2,0c1.8,0.3,3.6,0.1,5.2-0.5c1.1-0.4,2.2-0.8,3.3-1.3C67.4,42.5,70.7,39.4,67.9,36.6z M46.1,38.2
			c-1.4,0.3-2.8,0.6-3.8,1.4c-0.8,0.7-1.6,1.4-2.3,2.2c-1,1.2-0.5,2.9,1.4,3.6c2,0.7,4.2,0.3,5.4-0.9c0.2-0.3,0.5-0.5,0.8-0.7
			c0,0,0,0,0.1,0c0.2-0.1,0.3-0.3,0.5-0.4c0.7-0.5,1.1-1,1.4-1.6c0.1-0.3,0.3-0.6,0.4-0.8C51,39.3,48.4,37.8,46.1,38.2z M89.1,26.4
			c-1.1-0.1-2.3-0.2-3.3,0.2c-0.7,0.3-1.1,0.7-1.7,1.1c-0.7,0.6-1,1.4-0.4,2.1c0.7,0.7,1.7,0.9,2.9,0.8c0.7-0.1,1.6-0.1,2.3-0.4
			c1-0.4,1.4-1.1,1.8-1.7C91.3,27.7,90.4,26.6,89.1,26.4z M195.1,85.6c0.1-0.1,0.2-0.3,0.3-0.4c1.1-1.8,0.8-3.9-1.9-4.9
			c-0.4-0.1-0.8-0.3-1.2-0.4c-2.8-1.6-6-2-9.7-1.8c-3.7,0.2-6.9,1.4-10.2,2.4c-4.6,1.4-5.9,5.6-4.1,8.4c0.5,0.9,1.3,1.6,2.3,2.2
			c-2.8,0.8-5.4,1.9-7.5,2.8c-1.1,0.5-1.9,1.1-2.6,1.7c-2.4,1.4-3.4,3.4-1.1,6c4.4,5,17.2,3.6,23.9,1.9c4-1,8.7-2.5,10.8-5.2
			c2.4-3,0.6-6.6-3.6-8.3C192.8,89.2,194.5,87.7,195.1,85.6z M150.2,97.5c-1.1-0.2-1.8,0.2-2.7,0.5c0,0-0.1,0-0.2,0.1
			c-0.1,0-0.3,0.1-0.3,0.1c-0.3,0.1-0.7,0.1-1,0.2c-1.5,0.2-2.1,1.4-1.6,2.2c0.6,0.9,2.2,1.2,3.5,0.8c0.8-0.3,1.4-0.6,2.1-0.9
			c0.8-0.4,1.7-0.9,1.6-1.7C151.5,98.2,151,97.6,150.2,97.5z M135.8,91.6c-0.2-0.1-0.4-0.1-0.6-0.2c-3.1-1.6-7.8-0.7-10.5,1
			c-2,1.2-3.7,2.8-4.1,4.6c-0.3,1.3-0.1,2.5,1.4,3.5c1.3,0.9,3.5,1.3,5.2,0.9c4.2-1,9.9-2.9,10.5-6.1c0.1-0.1,0.1-0.2,0.2-0.3
			C138.5,93.9,137.5,92.1,135.8,91.6z M427.9,206.1c-0.4-1.1-1.6-2.1-3.1-2.7c-2.7-1-5.9-0.6-8.1,0.7c-1.1,0.7-2.3,1.4-3.4,2.1
			c-2.3,1.4-2.3,3.9-0.5,5.4c1.9,1.6,5.3,2.1,8,1.1c1.3-0.5,2.7-1,4-1.5C427.5,210.1,428.6,208,427.9,206.1z"/>
	</g>
	<path style="fill:#EB924D;" d="M7.8,187c-0.2,0.7-0.3,1.3-0.3,2c0,0.3,0,0.7,0,1c0,0.1,0.1,0.2,0.1,0.3c0.1,0.3,0,0.7,0.1,1.1
		c0,0.3,0.1,0.6,0.1,0.8c-0.9-0.2-1.5-0.5-1.6-0.9c-0.1-1.4-0.1-2.7,0-4.1c0-0.5-0.2-1.6,0.2-2c0.5-0.6,0.2-0.3,1.2-0.5
		c1-0.3,1.8-0.6,2.8-0.8c1.1-0.1,2.2-0.2,3.3-0.3c3.9-0.3,7.9-0.5,11.8-0.8c-1,0-2-0.1-3-0.1c0.8,0,1.7,0,2.5-0.1
		c0.8,0,1.6,0,2.4-0.1c0.7,0,1.4,0,2.1-0.1c-5.5,0.6-11,1.2-16.3,2.2c-1.4,0.3-2.9,0.6-4.2,1c-0.4,0.1-0.7,0.3-0.9,0.5
		C8,186.5,7.9,186.7,7.8,187z"/>
	<path style="fill:#EB924D;" d="M8.3,86.8C8.3,86.8,8.3,86.8,8.3,86.8c0,0.4,0.2,0.7,0.3,1c0.2,0.9-0.1,1.9-0.1,2.9
		c0.1,1.8,0.7,3.7,2.6,5.1c2.3,1.7,5.7,2.1,9,2.5c-2.5,0-5.1,0-7.6,0.1c-0.5,0-1.1,0-1.5,0.2c-0.8,0.3-1.1,1-1.3,1.5
		c-1.2,3.6-1.6,7.3-1.3,10.9c1.2,0.5,2.5,0.8,3.9,1c-1.8,0-2.9,1.6-2.5,2.8c0.4,1.2,1.9,2.1,3.3,2.9c-2.2,0-3.7,1.6-4,3.1
		c-0.3,1.2-0.2,2.4-0.5,3.6c-0.1,0.4-0.1,0.8,0,1.2c0.1,0.5,0,1.1,0,1.6c0,1.4,0.2,2.9,0.5,4.3c0.2,0.8,0.5,1.6,0.8,2.3
		c0.2,0.4,0.4,0.8,0.6,1.2c0.1,0.1,0.1,0.2,0.1,0.2c-0.4-0.1-0.8-0.2-1.2-0.4c-1-0.5-1.1-1.6-1.1-2.5c0-1.8-0.3-3.6-0.4-5.4
		c-0.2-2.1,0-4.2,0-6.3c0-5.1,0-10.1,0-15.2c0-5-0.1-10.1-0.1-15.1c0-1.3,0.2-2.7-0.4-4c-0.6-1.3-0.2-3,0.1-4.3
		c0.1-0.3,0.1-0.7,0.4-0.9C8,81,8.4,80.8,8.8,80.7c3.2-0.7,6.6-0.6,10-0.7c3.3-0.1,6.5-0.4,9.8-0.8c0.8,0,1.7-0.1,2.5-0.2
		c-5.3,0.8-10.7,1.5-16.1,2.1c-1.1,0.1-2.2,0.3-3.3,0.5c-1,0.3-2,0.8-2.6,1.5c-0.5,0.6-0.6,1.4-0.6,2.1C8.4,85.7,8.2,86.3,8.3,86.8z
		"/>
	<path style="fill:#EB924D;" d="M51.2,139.1c-10.6,0.4-21.2,1.6-31.8,1.9c-2.7,0.1-5.4,0.1-7.8,0.7c-1.7,0.4-3.5,2.8-1.4,3.7
		c0.3,0.1,0.7,0.2,1,0.2c1.9,0.2,3.9,0.4,5.9,0.3c-2.5,0.3-4.8,1.1-7.1,2c-0.4,0.1-0.8,0.3-1.1,0.6c-0.3,0.2-0.4,0.5-0.5,0.8
		c-0.2,0.7-0.7,1.6-0.5,2.3c0.1,0.5,0.1,1,0,1.6c-0.2,2.1-0.2,4.2-0.1,6.3c0,0.2,0,0.5,0.2,0.7c0.2,0.3,0.6,0.5,1,0.7
		c0.9,0.4,1.8,0.8,2.6,1.3c0.1,0,0.1,0.1,0.2,0.1c0.1,0.1-0.1,0.2-0.2,0.3c-1.3,1-2.9,1.9-3.6,3.2c-0.3,0.6-0.9,1.1-0.9,1.8
		c-0.2,1.6,0,3.2,0.6,4.7c0.2,0.6,0.5,1.2,1.2,1.6c0.6,0.3,1.3,0.5,2,0.7c3,0.6,6.1,1.1,9.2,1.5c-4,0.1-8,0.2-12,0.3
		c-0.1,0-0.4,3.2-0.5,3.4c-0.1,0.4-0.3,0.7,0,1.1c0.3,0.5,0.7,0.9,1.3,1.2c-0.7,0-1.5-0.1-2.2-0.1c-0.3,0-0.7,0-0.8-0.2
		c-0.1-0.1-0.1-0.2-0.1-0.3c0.5-7.8,1.1-15.7,1.3-23.6c0.1-4.3-0.3-8.7,0.5-13.1c0.1-0.4,0.5-4.7,0.5-4.7
		C22.4,139.4,36.8,139.1,51.2,139.1z"/>
	<path style="fill:#EB924D;" d="M53.5,139L53.5,139c0.1,0,0.1,0,0.2,0C53.6,139,53.6,139,53.5,139z"/>
	<path style="fill:#EB924D;" d="M60.2,42.5c-6.4,0.5-13-0.1-19.3,0.7c-2.1,0.2-4.2,0.6-6.3,0.8c-2,0.1-3.9,0-5.9,0.1
		c-4.9,0.1-9.8,0.8-14.5,1.9c-1.6,0.3-3.2,0.7-4.4,1.6c-0.4,0.3-0.8,0.7-1.1,1.1c-0.5,0.7-1,1.6-0.9,2.4c0,0.2,0.1,0.4,0,0.7
		c-0.1,0.7-0.2,1.4-0.2,2.1c0,1.4,0.2,2.8,0.7,4.1c0.1,0.4,0.3,0.8,0.7,1c0.4,0.3,1,0.3,1.6,0.4c2.4,0.3,4.8,0.5,7.2,0.8
		c-3.3,0.2-6.6,0.3-9.9,0.5c0.2,0,0.2,5.4,0.2,5.9c0.2,1.8,0.2,3.7,0.4,5.5c0.1,1.2,0.3,2.4,0.8,3.5c0.1,0.3,0.3,0.5,0.4,0.8
		c-0.3-0.1-0.5-0.2-0.7-0.4C7.9,75.1,7,74.1,7,73c0-0.3,0.1-0.5,0.2-0.7c0.3-0.7,0.1-1.5,0.1-2.2c-0.1-3.3-0.2-6.5-0.3-9.8
		c-0.1-2.1-0.1-4.1-0.5-6.2c-0.2-1-0.1-2.1-0.2-3.1c-0.1-1.3-0.1-2.5,0.2-3.8c0.1-0.7,0.3-1.4,0.7-2C7.6,44.6,8.4,44,9.5,44
		c1.7,0.1,3.3-0.2,5-0.3c3.7-0.3,7.4-0.5,11.1-0.6c7.6-0.3,15.2-0.5,22.9-0.6c3.7,0,7.4,0,11.2-0.1H60.2z"/>
	<path style="fill:#EB924D;" d="M393.6,65.6c11.2,1.7,23,0.8,34.4,1.8c4.6,0.4,9.2,1.1,13.8,0.9c1.7-0.1,3.5-0.3,5.2,0
		c1.5,0.3,2.4,1,3.2,1.9c1.4,1.5,1.3,3.5,1.4,5.2c0.4,4.4-0.3,8.7-0.6,13.1c0,0.5-0.1,1-0.6,1.3c-0.3,0.2-0.8,0.4-1.3,0.4
		c0-0.1,0-0.2,0-0.3c-0.1-0.7,0-1.4,0.1-2.1c0.2-1,0.5-1.9,0.5-2.9c0-0.4,0-0.7,0-1c0-0.1,0-0.2,0-0.3c-0.1-0.4-0.2-0.8-0.3-1.3
		c-0.2-0.6-0.1-1.2-0.1-1.7c-0.1-1.2-0.2-2.5-0.5-3.7c0-0.2-0.1-0.5-0.4-0.6c-0.2-0.1-0.5-0.1-0.7-0.1c-6.2,0-12.4,0.3-18.6,0.8
		c5.3-0.2,10.7-0.7,15.8-1.7c1-0.2,2.1-0.4,2.6-1.1c0.4-0.5,0.2-1.1,0.1-1.7c-0.2-0.7-0.5-1.4-1.3-1.8c-0.5-0.3-1.1-0.3-1.7-0.4
		c-0.4,0-0.7-0.1-1.1-0.1c-3.6-0.5-7.3-0.8-10.9-1.1c-1.8-0.1-3.7-0.2-5.5-0.3c-1.9-0.1-3.6-0.3-5.4-0.4c-1.1,0-2.2-0.1-3.3-0.1
		c-3.8-0.2-7.5-0.3-11.3-0.5c-1.9-0.1-3.7-0.1-5.6-0.2c-0.5,0-1-0.2-1.5-0.3c-0.3-0.1-0.6-0.1-0.9-0.2c-1.6-0.2-3.3-0.4-5-0.6
		c-1.2-0.1-2.4-0.3-3.5-0.4l-1.6-0.2c-0.4,0-0.9-0.2-1.3-0.2C389.7,65.6,391.7,65.6,393.6,65.6z"/>
	<path style="fill:#EB924D;" d="M452,117c-0.1,7.5-0.2,15-0.3,22.6c0,2.5,0.5,6.7-1.4,9c-0.5,0.6-1.5,1-2.5,1.2
		c0.1-0.2,0.2-0.4,0.3-0.6c0.6-1.1,1-2.2,1.2-3.3c0.1-0.5,0.1-1.1,0.4-1.5c0.3-0.5,0.2-1.1,0.3-1.6c0.2-1.6,0.4-3.2,0.6-4.8
		c0.2-1.3,0.3-2.6,0.5-3.9c0.1-0.6,0.2-1.3,0.2-1.9c0-0.3,0.1-0.6,0.1-0.8c0-0.1-0.1-0.2-0.1-0.3c-0.1-0.3,0-0.7-0.4-0.9
		c-0.2-0.2-0.5-0.2-0.8-0.3c-2.9-0.5-5.8-0.7-8.8-0.8c1.2-0.2,2.5-0.2,3.8-0.1c1.3,0,2.6,0.1,3.8-0.2c0.8-0.2,1.6-0.6,2-1.1
		c0.2-0.3,0.3-0.5,0.4-0.8c0.2-0.5,0-1,0-1.5c0-0.9,0-1.9,0-2.8c0-2.6-0.1-5.2-0.4-7.8c-0.2-2-0.5-3.9-0.6-5.9
		c-0.1-0.6-0.6-1-0.8-1.6c-0.3-0.7,0.3-1.5-0.3-2.2c-0.5-0.5-1.6-0.6-2.5-0.6c-5.9-0.1-11.9-0.1-17.8-0.2c5.5,0.3,11.1-0.5,16.5-1.2
		c0.7-0.1,1.4-0.2,2-0.4c1-0.4,1.7-1.1,2.1-1.8c0.2-0.4,0.4-0.7,0.6-1.1c0.1-0.1,0.2-0.2,0.2-0.4c0.1-0.5-0.1-1-0.1-1.5
		c0-0.6-0.1-1.1-0.1-1.7c0-0.6-0.1-1.3-0.6-1.9c-0.7-0.7-2.1-1-3.4-1.2c-3.2-0.5-6.4-1.1-9.5-1.6c0.8-0.1,1.6-0.2,2.5-0.2
		c3.4,0.5,6.9,1.1,10.3,1.6c0.4,0.1,0.9,0.2,1.3,0.4c1.3,0.9,1,3.8,1.2,4.9c0.2,2.1,0.4,4.3,0.4,6.5C452.2,108.9,452,112.9,452,117z
		"/>
	<path style="fill:#EB924D;" d="M430.4,49.5c-1.2,0.1-2.5,0.1-3.7,0.1c7.7,0.5,15.4,1,23.1,1.6c0.7,0,1.5,0.1,2,0.5
		c0.4,0.3,0.5,0.6,0.7,1c0.6,1.7,0.6,3.3,0.6,5c-0.2,2.5-0.6,4.9-1.3,7.4c-0.4,1.2-1.4,1.2-2.6,1.1c0.7-0.3,1.1-0.8,1.2-1.3
		c0.2-3.1,0.4-6.2,0-9.3c-0.1-0.6-0.2-1.2-0.5-1.7c-0.2-0.4-0.6-0.7-1-0.9c-0.2-0.1-0.5-0.2-0.7-0.3c-0.1,0-0.2-0.1-0.3-0.1
		c-0.2,0-0.3-0.1-0.4-0.1c-0.2-0.1-0.5-0.1-0.8-0.1c-1.1-0.1-2.3-0.3-3.4-0.4c-4.5-0.5-9.1-0.9-13.7-1.2c-3-0.2-6-0.3-8.8-0.8
		c2.2-0.1,4.1-0.2,6.2-0.3C428.1,49.5,429.2,49.5,430.4,49.5z"/>
	<path style="fill:#EB924D;" d="M451.4,184.9c0.2-0.7,0.4-1.4,0.5-2.2c0.2-1.2,0.1-2.4,0.1-3.7c0-1,0.2-2.1-0.3-3.2
		c-0.4-0.8-0.6-1.4-0.6-2.3c0.1-1,0.1-2.1-0.9-2.8c-1.1-0.9-3-0.9-4.7-0.9c-2.9,0-5.8,0-8.6-0.1c3.8-0.3,7.6-0.7,11.4-1.3
		c0.6-0.1,1.2-0.2,1.5-0.5c0.3-0.3,0.3-0.7,0.3-1.1c-0.2-2.6-0.2-5.2-0.5-7.8c-0.1-1.4-0.5-2.7-2.7-3.2c-2.4-0.5-5.1-0.6-7.6-0.9
		c-4.5-0.5-9-0.9-13.5-1.2c-9-0.7-18.1-1.2-27.2-1.5c17.6,0.2,35.2,1,52.8,2.1c0.8,0.1,1.1,1.3,1.2,1.7c0.5,1.5,0.7,3,0.8,4.5
		c0.5,4.1,0.6,8.2,0.7,12.4v0.2c0,0.8,0.1,1.7,0.1,2.5c0.1,2.4,0.3,5-0.1,7.4c-0.1,0.7-0.3,1.5-0.7,2.2c-0.2,0.3-0.3,0.7-0.6,1
		c-0.8,0.7-2,1.1-3.2,1.4c0.6-0.5,1-1,1.4-1.6C451.1,185.6,451.2,185.2,451.4,184.9z"/>
	<path style="fill:#EB924D;" d="M5.5,31.2C5.3,25.3,5,19.4,4.6,13.5c-0.2-3.9,4-7.3,9.7-7.6c144.2-7.8,288.2-8.1,431.8,0
		c5.7,0.3,10,3.7,9.7,7.7c-0.5,5.2-0.9,10.4-1.2,15.6c-0.2,3.6-0.5,7.3-0.7,10.9c-0.1,0.7-0.1,1.3-0.4,2c-0.5,1.2-0.4,2.5-0.8,3.7
		c-0.2,0.4-0.3,0.8-0.8,1.1c-0.4,0.3-1,0.4-1.6,0.5c-0.1,0-0.1,0-0.2,0c0,0,0-0.1,0-0.1c0.2-1.6,0.6-3.3,0.5-4.9
		c0-0.6-0.2-1-0.1-1.6c0.1-0.8,0.2-1.6-0.2-2.3c-0.8-1.9-4-3.2-6.9-2.8c2.1-1.3,6.1-0.6,7.6-2.3c0.8-0.9,0.5-2,0.1-3
		c-8.9-0.6-17.8-0.9-26.8-0.7c7.7,0.3,15.4-0.3,22.8-1.7c1.2-0.2,2.4-0.5,3.2-1.2c0.7-0.6,0.9-1.4,1.1-2.2c0.3-1.3,0.4-2.6,0.8-3.9
		c0.1-0.4,0.4-0.7,0.5-1.1c0.2-0.6,0.1-1.3,0.1-1.9c0-1.5-0.2-2.9-0.7-4.4c-0.3-0.9-0.8-1.7-1.4-2.5c-0.9-1.1-1.4-1.7-3.3-2.2
		c-1.1-0.3-2.4-0.4-3.6-0.4c-4-0.2-6.7-0.3-10.7-0.6c-5.5-0.4-11-0.8-16.5-1.2c-7.4-0.5-14.9-0.9-22.3-1.3
		c-3.7-0.2-7.5-0.3-11.2-0.5c-0.8,0-1.6-0.1-2.4,0c-0.6,0.1-1.1,0.1-1.8,0c-1.8-0.2-3.6-0.5-5.4-0.5c-2.3,0.1-4.8,1-5.3,2.5
		c-0.6-0.6-0.9-1.3-0.8-2.1c-1,0.6-1.9,1.4-2.5,2.3c-1.3-0.9-2.1-2.1-2.4-3.3c-4.5,0.4-9.1,0.3-13.6-0.1c-0.6,1.1-1.3,2.2-1.9,3.4
		c-2.3-2.5-6.7-3.8-11-4.2c-4.3-0.4-8.6,0.1-13,0.4c-5.6,0.3-11.3,0.3-16.9-0.1c-0.7,0-1.4-0.1-2,0.2c-0.4,0.2-0.6,0.5-0.7,0.8
		c-0.5,0.9-1,1.9-1.2,2.8c-0.6-1.6-2.4-2.9-4.6-3.5c-2.2-0.7-4.6-0.9-7-0.8c-4.4,0-8.7,0.6-13.1,0.6c-2.4,0-4.8-0.1-7.2-0.3
		c-3.5-0.3-7-0.6-10.6-0.5c-0.9,0-1.7,0.1-2.6,0.2c-0.8,0.1-1.5,0.2-2.3,0.2c-0.5,0-1-0.1-1.5-0.2c-1-0.1-2,0-3-0.1
		c-2.2,0-4.4,0-6.6,0c-7.5-0.1-15-0.1-22.6-0.2c-7.5-0.1-15-0.1-22.6-0.2c-3.7,0-7.5-0.1-11.3-0.1c-0.8,0-1.6-0.1-2.5-0.1
		c-4.7,0.1-9.4,0.3-14.1,0.4c-3.9,0.1-7.8,0.2-11.6,0.4c-1.7,0.1-3-0.3-4.6-0.4c-1.8-0.1-3.6-0.2-5.3,0.3c-2.4,0.6-4.4,2.4-3.6,4.1
		c0.2-1.9-2.3-3.5-5-4c-2.7-0.5-5.5-0.1-8.3,0.2c-6.9,0.8-14,1.1-21,0.9c-0.2,1.4-0.4,2.7-0.7,4.1c-0.5-1.4-1.4-2.8-2.5-4.1
		c-1.3,1.9-1.6,4-0.8,6c-1.9-1.8-1.6-4.8-4.4-5.9c-2.9-1.1-6.5,0.8-9.8,0.5c0.1,1.3,0.2,2.6,0.4,3.9c-0.2-1.4-1.4-2.6-3-3.3
		c-2.3-1.1-4.4-0.7-7-0.6c-2.8,0.1-5.6,0.3-8.4,0.4c-5,0.3-10,0.5-15,0.8c-1.1,0.1-2.2,0.2-3.3,0.1c-0.8-0.1-1.4-0.3-2.2-0.2
		c-12.2,0.2-24.5,0.7-36.5,2c-2.2,0.3-4.5,0.6-6.4,1.3c-1.3,0.5-2.4,1.1-3.2,2c-0.6,0.6-0.8,1.3-1,2c-0.2,0.5-0.6,0.9-0.8,1.3
		C6.3,15,5.8,16,5.7,17c-0.1,1.6,0.7,3.3,2.8,4c2.4,0.9,5.5,0.2,7.9,1.1c-2.8-0.2-5.7-0.1-8.4,0.5c-0.4,0.1-0.8,0.2-1.1,0.4
		c-0.2,0.2-0.3,0.5-0.3,0.7c-0.2,1.2-0.2,2.4,0.1,3.6C6.8,27.9,7,28.4,7.1,29c0.1,0.6,0.1,1.3,0.1,1.9c0.2,2.5,0.5,5.1,0.7,7.6
		c0,0.4,0.2,0.7,0.2,1c-0.2,0-0.4,0-0.6,0c-0.2,0-0.5,0-0.6-0.1c-0.1-0.1-0.2-0.2-0.2-0.4C6.1,36.4,5.6,33.8,5.5,31.2z"/>
	<path style="fill:#EB924D;" d="M446.2,219.5c-141.9,7.4-285.9,7.4-431.9,0c-5.7-0.3-10-3.7-9.8-7.6c0.1-0.9,0.1-1.7,0.1-2.6
		c0-0.7-0.1-1.5,0.1-2.2c0.1-0.3,0.2-0.5,0.3-0.7c0.2-0.8,0.2-1.7,0.4-2.6c0.2-1.7,0.5-3.4,0.7-5.1c0-0.2,0-0.3,0.1-0.5
		c0-0.3,0.1-0.6,0.3-0.8c0.2-0.2,0.5-0.3,0.9-0.4c4.1-1.1,8.6-1.8,12.9-1.8c4.8,0,9.3-0.4,14-0.8c1.9-0.2,3.8-0.4,5.7-0.5h0.5
		c0.4,0,0.7,0,1.1,0c0.3,0,0.7,0,0.9,0c-9.6,1.4-19.3,2.3-28.9,3.3c-1.3,0.1-2.6,0.3-3.7,0.7c-0.1,0-0.2,0.1-0.3,0.1
		c-1.3,0.5-2.5,1.4-2.4,2.5c0,0.5-0.2,1-0.2,1.5c-0.1,0.9,0.1,2,1.2,2.6c0.6,0.4,1.5,0.6,2.3,0.8c5.3,1.2,10.8,1.8,16.3,1.9
		c-4.5,0-8.9-0.1-13.4-0.1c-1.4,0-2.7-0.1-4.1,0c-0.9,0-2.6,0-3.2,0.5c-0.3,0.2-0.4,0.5-0.4,0.7c-0.3,1.4,0.4,2.8,0.3,4.2
		c0,0.8-0.1,1.7,0.3,2.5c0.8,1.6,3,2.6,5.4,3.1c1.1,0.2,2.3,0.3,3.5,0.4c0.6,0,1.2,0.1,1.8,0.1c0.3,0,0.6,0,0.9,0.1
		c0.3,0,0.6,0.1,0.8,0.1c0.1,0,0.3,0,0.4,0c0.4,0,0.9,0,1.4,0h2c2.4,0,4.8,0,7.2,0c1.2,0,2.4,0.1,3.6,0.2c0.3,0,0.5,0.1,0.8,0.1
		c0.2,0,0.3,0,0.5,0c0.1,0,0.3,0,0.4,0c1.2,0.1,2.1,0.2,3.3,0.4c0.7,0.1,1.4,0.1,2.1-0.1c1.1-0.3,1.7-1.1,2-1.9
		c0.3-0.8,0.4-1.6,0.9-2.3c0.2,0.8-0.1,1.7-0.1,2.5c0,0.9,0.4,1.8,1.5,2.2c0.6,0.2,1.4,0.3,2.2,0.3c1.2,0,2.4,0,3.7,0.1
		c0.8,0,1.5-0.1,2.4-0.2c1.1-0.1,2.4,0.1,3.5,0.1c1.2,0.1,2.5,0.1,3.7,0.2c5,0.2,10,0.4,15,0.6c1.3,0.1,2.7,0.2,4.1,0.2
		c12.5,0.5,24.9,0.8,37.4,1.1c3.7,0.1,7.5,0,11.3,0.2c0.5,0,0.9,0.1,1.4,0.2c1.1,0.2,2.2-0.1,3.2-0.4c2.3-0.6,4.3-1.7,5.7-3.1
		c1.2,2.8,5.7,4.3,9.9,4.6s8.4-0.3,12.6-0.2c1.2,0,2.4,0,3.6,0c0.8,0,1.6,0.2,2.5,0.3c1.8,0.1,3.6,0,5.3-0.4
		c0.2-2.4,0.5-4.9,0.7-7.3c0.2,2.4,0.8,4.7,1.8,7c0.2,0.4,0.3,0.8,0.8,1c0.5,0.2,1.1,0.2,1.7,0.2c5.1-0.2,10.1-0.3,15.2-0.5
		c0.1-1.2,0.4-2.4,1-3.5c0.5,1.5,1.6,2.9,3.1,3.9c0.8-1.8,2.1-3.4,3.9-4.8c0.4,1.6,1.2,3.6,3.5,4.1c1.1,0.2,2.3,0.1,3.4,0
		c2.4-0.3,4.9-0.4,7.4-0.4c1,0,1.8,0,2.7-0.2c1.1-0.2,2.3,0,3.4,0c1.8,0,3.7,0,5.5,0c7.5,0,15,0,22.6,0c2.1,0,4.2,0,6.3,0
		c1,0,2.1,0,3.1,0c7.5,0,15,0.1,22.5,0.2c7.5,0.1,15,0.2,22.5,0.3c3.7,0,7.5,0.1,11.3,0.2c1.9,0,3.8,0.1,5.6,0.1c1.4,0,2.7,0,4-0.3
		c0.6-0.1,1.2-0.2,1.8-0.2c1.2-0.1,2.5-0.1,3.7-0.2c0.4,0,0.8,0,1.2-0.1c0.6-0.1,0.9-0.3,1.5-0.3c0.4,0,0.8,0,1.1-0.1
		c0.7-0.1,1.4-0.4,2.1-0.7c1.3-0.6,2.4-1.5,3.5-2.3c1,0.9,2,1.7,3.2,2.5c0.2,0.1,0.4,0.3,0.7,0.3c1,0.2,1.5-0.8,2.5-1.1
		c0.5,0.6,1.6,0.9,2.6,0.9c1,0,2-0.2,3-0.3c2.9-0.5,6-0.6,9-0.4c0.4-0.4,0.7-0.8,1.1-1.2c0.5,1.1,2.6,1.4,4.3,1.4
		c1.2,0,2.4,0,3.6-0.2c1-0.1,2-0.3,3-0.2c2.1,0.2,4.2,0,6.4-0.1c5-0.2,10-0.4,15-0.7c5-0.2,10-0.5,15-0.8c4.9-0.3,9.7-0.5,14.6-0.8
		c1.1-0.1,2.3-0.1,3.4-0.1c3.7-0.1,7.4-0.2,11.1-0.4c1.9-0.1,3.7-0.2,5.6-0.3c0.9-0.1,1.9-0.1,2.8-0.2c0.3,0,0.5-0.1,0.8-0.2
		c1.7-0.3,3.4-0.3,4.8-1.1c0.9-0.6,1.4-1.4,1.7-2.2c0.1-0.4,0.2-0.9,0.3-1.3c0.1-0.8,0.3-1.6,0.2-2.5c0-3-0.1-6.1-0.1-9.1
		c0-0.3,0-0.6,0-0.9c0-1.3-0.1-2.5-0.3-3.8c-0.1-0.5-0.4-1.2-0.3-1.7c0-0.2,0.1-0.3,0.1-0.5c0-0.7-0.5-1.4-1.1-1.8
		c-0.4-0.3-0.9-0.6-1.4-0.9c-0.4-0.2-0.7-0.4-1.2-0.5c-0.9-0.3-1.8-0.4-2.8-0.6c-2.2-0.4-4.5-0.7-6.7-1.1c-0.6-0.1-1.2-0.2-1.6-0.5
		c0.8-0.1,1-0.3,1.8-0.3h0.5c3.1,0.4,6.2,0.8,9.4,1.2c1.1,0.1,2.3,0.4,3.2,0.9c0.5,0.3,0.9,0.6,1.1,1c0.5,0.6,0.7,1.3,0.8,2
		c0.3,1.7-0.1,3.4,0.2,5.2c0.2,0.9,0.2,1.8,0.3,2.7c0.1,1.7,0.2,3.4,0.4,5.1c0.1,1.5,0.2,3.1,0.3,4.6
		C456.3,215.8,451.9,219.2,446.2,219.5z"/>
	<g>
		<path style="fill:#EB924D;" d="M192.1,20.9c22.5,0.7,45,1.4,67.4,3.2c18.5,1.5,37,3.7,55.7,3.8C273.1,29.7,234.3,21.7,192.1,20.9z
			 M281.3,57c-1.4,0-2.8-0.1-4.1-0.1c-7.4-0.1-14.9-0.1-22.3,0.1c-7.4,0.2-14.8,0.6-22.2,1.1c-3.7,0.2-7.4,0.5-11.1,0.8
			c-1.9,0.1-3.7,0.3-5.5,0.5c-0.9,0.1-1.8,0.2-2.8,0.2c-0.7,0.1-1.3,0-2,0.1c-0.9,0.1-1.8,0.3-2.6,0.5c-0.9,0.2-1.8,0.4-2.7,0.5
			c-1.8,0.3-3.6,0.7-5.4,1c-3.6,0.7-7.2,1.3-10.8,1.9c-3,0.5-6,0.9-9,1.2c-7.2,0.8-14.5,1.4-21.8,1.6c-3.7,0.1-7.3,0.2-11,0.1
			c-0.8,0-1.7-0.1-2.5,0c-1.6,0.2-3.2,0.3-4.9,0.5c-1.8,0.2-3.7,0.4-5.5,0.5c-0.7,0.1-1.2,0.3-1.9,0.4c-0.9,0.1-1.8,0.2-2.7,0.3
			c-3.6,0.2-7.2,0.1-10.8,0.2c-9.9,0.2-19.5,2.2-29.3,3.2c-7.3,0.8-14.7,1-22.1,1.2c0.8,0,1.6,0,2.5-0.1c7.5-0.2,14.9-0.5,22.4-0.8
			c7.5-0.4,14.9-0.8,22.3-1.3c3.7-0.3,7.4-0.5,11.2-0.8c2.1-0.2,4.3-0.2,6.4-0.3c4.5-0.2,9-0.4,13.5-0.7c9-0.6,18-1.4,27-2.3
			C209.3,62.9,244.9,57.6,281.3,57z M142.2,147.5c8.1,2,16.6,2.8,25.1,3.5c4.3,0.3,8.6,0.6,12.9,1c1.1,0.1,2.2,0.2,3.3,0.3
			c0.8,0.1,1.7,0.1,2.5,0.2c0.3,0,0.5,0.1,0.8,0.1c0.7,0.1,1.6,0.1,2.3,0.2c1.6,0.2,3.2,0.5,4.8,0.8c2,0.4,4.1,0.7,6.2,0.6
			c1.5-0.1,3-0.4,4.5-0.6c1.8-0.2,3.6-0.3,5.4-0.2c3.6,0,7.3,0.3,10.8,0.8c1.6,0.2,3.2,0.5,4.8,0.8c1.7,0.3,3.4,0.7,5.1,1.1
			c1.2,0.2,2.2,0.2,3.3,0.2c1.5-0.1,3.1,0.2,4.6,0.3c1.8,0.2,3.5,0.4,5.3,0.5c7.1,0.6,14.2,1.1,21.4,1.4c7.2,0.3,14.4,0.4,21.6,0.4
			c7.1,0,14.3-0.2,21.4-0.5c2.7-0.1,5.4-0.3,8.1-0.4c-9.2,0.3-18.4,0.1-27.6-0.5c-4.6-0.3-9.3-0.6-13.9-1c-0.8-0.1-1.6-0.2-2.4-0.2
			c-0.1,0-0.3,0-0.4,0c-0.4,0.1-0.7,0.1-1.1,0.1c-3.3,0.1-6.6,0-9.9-0.1c-17.8-0.6-35.4-3.6-53.2-4c-3.3-0.1-6.5,0-9.8,0.1
			c-2.2,0-4.4-0.1-6.6-0.3c-2.2-0.3-4.4-0.6-6.6-0.9c-3.4-0.4-6.8-0.5-10.2-0.7c-3.7-0.2-7.3-0.4-11-0.7c-3.7-0.3-7.3-0.6-11-1
			C149.2,148.4,145.7,148,142.2,147.5z M238.3,127.1c1.5,0,3-0.1,4.5-0.1c1.2,0,2.4,0,3.6,0.1c0.4,0,0.8,0.1,1.2,0
			c0.9-0.1,1.8,0.1,2.7,0.2c0.4,0.1,0.8,0,1.2,0c1.4,0,2.8,0.1,4.2,0.2c1.5,0.1,2.9,0.1,4.4,0.2c3.1,0.2,6.1,0.3,9.2,0.5
			c24.4,1.5,49,3.8,73.6,2.5c-28.7-1.3-57.3-2.7-86-4c1.3,0.1,3.1-0.4,4.3-0.6c1.5-0.2,3-0.4,4.4-0.7c1.4-0.2,2.8-0.4,4.2-0.7
			c0.8-0.1,1.6-0.2,2.4-0.4c0.5-0.1,1-0.3,1.5-0.5c1-0.3,2-0.6,3-0.9c2-0.6,4.1-1.1,6.2-1.5c4.2-0.9,8.5-1.5,12.8-2
			c4.4-0.5,8.8-0.8,13.2-1c4.4-0.2,8.9-0.4,13.3-0.6c2.3-0.1,4.5-0.2,6.8-0.3c0.8,0,1.5-0.1,2.3-0.3c0.5-0.1,1-0.4,1.5-0.5
			c1-0.3,2.1-0.4,3.2-0.4c2.8-0.2,5.5-0.3,8.3-0.5c4.8-0.3,9.7-0.6,14.5-0.3c4.6,0.2,9.1,0.8,13.6,1c5.3,0.2,10.7-0.3,16-0.8
			c-10.6-0.7-21.3-1-32-0.9c-5.4,0.1-10.9,0.3-16.3,0.4c-4.8,0.2-9.5,0.3-14.3,0.5c-4.8,0.2-9.5,0.5-14.3,0.9
			c-4.7,0.4-9.4,0.9-14.1,1.5c-2.3,0.3-4.7,0.7-7,1.1c-0.7,0.1-1.3,0.3-2,0.4c-0.3,0.1-0.5,0.1-0.8,0.1c-0.3,0-0.5,0.1-0.8,0.1
			c-2.3,0.5-4.6,1-7,1.3c-2.3,0.4-4.7,0.7-7.1,1c-0.3,0-0.7,0.1-1,0.1c-2.5,0.3-4.9,0.7-7.4,1s-4.9,0.7-7.4,1
			c-1.2,0.2-2.5,0.3-3.7,0.5c-0.6,0.1-1.2,0.2-1.8,0.3c-0.3,0-0.5,0.1-0.8,0.1c-0.6,0-1.2,0.2-1.8,0.1c-1-0.1-2.1,0.1-3.1,0.2
			c-1.2,0.1-2.5,0.2-3.7,0.4c-2.5,0.2-4.9,0.5-7.4,0.6c-4.9,0.4-9.9,0.6-14.8,0.6C226.1,127.3,232.2,127.2,238.3,127.1z M167.1,189
			c-2.9,0.2-5.9,0.2-8.9,0.1c-3.1,0-6.2-0.1-9.2-0.2c-6.2-0.3-12.3-0.7-18.5-1.3c-3.1-0.3-6.2-0.6-9.2-0.9c-1.5-0.1-2.9-0.3-4.4-0.4
			c-0.2,0-0.5-0.1-0.7-0.1c-0.9-0.2-2-0.1-3,0c-3.8,0.2-7.7,0.3-11.5-0.3c-2-0.3-4-0.8-6.1-0.9c-1.9-0.2-3.9,0-5.8-0.2
			c-1.6-0.1-3.1-0.5-4.7-0.7c-10.7-1.9-22-1.3-32.9,0.1c16.3-1.3,32.8,1,49,2.7c2.9,0.3,5.7,0.6,8.6,0.7c2.3,0.1,4.7,0.2,7,0.4
			c2.3,0.2,4.6,0.6,7,0.9c1.2,0.1,2.3,0.2,3.5,0.3c0.6,0,1.2,0,1.8,0c0.5,0,1,0,1.5,0.1c5,0.2,9.9,0.4,14.9,0.4
			c4.9,0,9.7,0,14.6-0.2C162.4,189.3,164.8,189.1,167.1,189z M405.4,196c-22,0.8-43.9,1-65.9,0.9C360,200.4,384.5,198.5,405.4,196z"
			/>
		<linearGradient id="SVGID_6_" gradientUnits="userSpaceOnUse" x1="393.5045" y1="-303.688" x2="208.8341" y2="169.7986">
			<stop  offset="0" style="stop-color:#CF5C2B"/>
			<stop  offset="1" style="stop-color:#59173E"/>
		</linearGradient>
		<path style="fill:url(#SVGID_6_);" d="M192.3,19.9c22.5,0.7,45,1.4,67.4,3.2c18.5,1.5,37,3.7,55.7,3.8
			C273.2,28.7,234.5,20.7,192.3,19.9z M281.4,55.9c-0.4,0-0.7,0-1.1,0c-7.5-0.2-14.9-0.2-22.4,0c-7.5,0.2-14.9,0.5-22.3,1
			c-0.7,0-1.4,0.1-2.1,0.2c-0.7,0.1-1.5,0.1-2.2,0.1c-1.8,0-3.6,0.1-5.4,0.3c-3.6,0.3-7.1,0.9-10.7,1.3c-9.1,1-18.3,1-27.5,1
			c3.5,0.3,6.9,0.6,10.4,0.9c-4.4,1.4-9.1,2.1-13.9,2.7c-5,0.6-10,1.2-15,1.6c-7.3,0.7-14.7,1.2-22.1,1.6c-3.7,0.2-7.4,0.3-11.1,0.5
			c-0.9,0-1.9,0.1-2.8,0.1c-0.7,0-1.3-0.1-1.9-0.1c-1.4-0.1-2.7,0.3-4.1,0.3c-0.4,0-0.7-0.1-1.1-0.1c-1.2,0-2.5,0.2-3.7,0.3
			c-2.5,0.2-5,0.4-7.4,0.6c-5,0.4-9.9,0.8-14.9,1.2c-9.9,0.8-19.8,1.7-29.7,2.6c-9.9,0.9-19.8,1.8-29.7,2.8c-0.4,0-0.8,0.1-1.2,0.1
			c22.8-1.2,45.7-2.3,68.3-4.8c5.8-0.6,11.6-1.3,17.5-1.3c2.3,0,4.7,0.1,7,0c1-0.1,2-0.3,3.1-0.2c1,0,2,0,3.1-0.1
			c4.8-0.3,9.6-0.6,14.4-0.9c9.7-0.7,19.3-1.7,28.9-2.7c9.6-1,19.3-2.2,28.9-3.2c9.6-1.1,19.2-2.1,28.9-3c9.6-0.9,19.2-1.6,28.9-2.1
			C272.7,56.2,277,56,281.4,55.9z M316.6,157c-7.1,0.4-14.3,0.1-21.4-0.2c-5.4-0.2-10.7-1-16.1-1.1c-5.4-0.1-10.7,0.2-16.1,0
			c-12.5-0.4-24.7-2.9-37.2-3.6c-3.4-0.2-6.8-0.3-10.1-0.4c-2.9-0.1-5.8-0.1-8.7-0.2c-0.8,0-1.6,0-2.4-0.1c-1.8-0.1-3.6-0.2-5.4-0.4
			c-1-0.1-1.9-0.3-2.9-0.4c-4.5-0.3-9-0.6-13.6-0.8c-4.6-0.2-9.2-0.5-13.8-0.8c-4.6-0.3-9.1-0.7-13.7-1.1c-2.4-0.2-4.7-0.5-7.1-0.8
			c-1.1-0.1-2.2-0.3-3.3-0.4c-0.9-0.1-1.9-0.2-2.7-0.4c15.9,3.9,33.1,3.5,49.6,5.7c1.4,0.2,2.9,0.3,4.2,0.7c0.5,0.2,1,0.3,1.5,0.3
			c1.8,0.1,3.7,0.1,5.6,0.1c3.7-0.1,7.5-0.2,11.2-0.2c3.1,0,6.1,0.6,9.2,0.9c2.8,0.3,5.6,0.5,8.4,0.7c1.6,0.1,3.3,0.2,4.9,0.5
			c0.7,0.2,1.2,0.3,1.9,0.4c0.9,0.1,1.8,0.2,2.6,0.3c3.5,0.3,7.1,0.6,10.6,0.9c7.2,0.5,14.4,0.8,21.6,1c7.2,0.2,14.4,0.2,21.6,0.1
			c7.1-0.1,14.2-0.4,21.3-0.8C316.5,157,316.5,157,316.6,157z M274.8,122.9c0.7-0.2,1.4-0.3,2.1-0.5c3.6-0.8,7.3-1.4,11-2
			c2-0.3,4-0.8,6-1.1c3.4-0.5,6.9-1.1,10.4-1.3c0.6,0,1.1,0,1.6,0.1c1.5,0.1,3-0.2,4.4-0.3c3.6-0.4,7.3-0.7,10.9-0.8
			c0.8,0,1.6-0.1,2.4-0.1c0.4,0,0.9-0.1,1.3,0c0.3,0.1,0.7,0.1,1,0c0.7,0,1.3-0.2,2-0.3c1.2-0.2,2.4-0.4,3.6-0.5
			c0.5,0,0.9-0.1,1.4-0.2c0.5-0.1,1-0.2,1.6-0.2c2.4-0.2,4.8-0.4,7.2-0.5c3.5-0.1,7-0.2,10.5-0.3c3.5-0.1,7-0.1,10.4,0.1
			c1,0.1,2,0.2,3,0.2c4.7,0.5,9.4,1.2,14.2,1.1c1.2,0,2.3-0.2,3.5-0.2c0.7,0,1.4,0.1,2.1,0.1c1.9,0.1,4-0.1,5.9-0.1
			c2.9-0.1,5.9-0.1,8.8-0.2c6.1-0.1,12.3-0.3,18.4-0.4c-12.6-0.3-25.2-0.6-37.8-0.9c-12.6-0.3-25.3-0.6-37.9-0.3
			c-2.5,0.1-5.1,0.2-7.6,0.3c-9.8,0.5-19.5,1.3-29.2,2.4c-4.8,0.5-9.7,1.2-14.5,1.8c-0.6,0.1-1.2,0.2-1.8,0.3c-0.2,0-0.3,0-0.4,0
			c-0.3,0-0.5,0.1-0.8,0.1c-0.6,0.1-1.2,0.2-1.8,0.3c-1.3,0.2-2.6,0.5-3.9,0.7c-2.3,0.3-4.7,0.5-7,0.8c-2.1,0.3-4.2,0.6-6.2,1
			c-2.3,0.4-4.6,0.9-6.9,1.3c-1.2,0.2-2.3,0.4-3.5,0.5c-0.6,0.1-1.2,0.1-1.8,0.2c-0.2,0-0.5,0.1-0.8,0c-0.7-0.1-1.4,0.1-2,0.1
			c-2.4,0.2-4.8,0.4-7.2,0.5c-2.4,0.1-4.8,0.2-7.2,0.2c-0.9,0-1.8,0-2.7,0c-0.2,0-0.4,0-0.6,0c-0.1,0-0.3,0.1-0.4,0.1
			c-0.5,0.1-0.9,0.1-1.4,0.1c-1.2,0.1-2.5,0.2-3.7,0.3c-0.5,0-0.9,0.1-1.3,0.2c-0.9,0.2-1.9,0.2-2.9,0.3c-2.1,0.2-4.3,0.4-6.4,0.6
			c-3.4,0.3-6.9,0.7-10.3,1c6.6,0.2,13.2,0.4,19.7-0.1c2.8-0.3,5.6-0.7,8.3-1c2-0.2,4-0.4,6-0.5c4.4-0.2,8.8,0.2,13.2,0.6
			c3.7,0.3,7.4,0.7,11.1,1c1.3,0.1,2.4,0.1,3.7,0c1.5-0.2,3.1,0,4.6,0.1c7.5,0.5,14.9,1,22.4,1.5c7.4,0.4,14.9,0.8,22.4,0.9
			c3.5,0.1,7.1,0.1,10.6,0c1.8,0,3.6-0.1,5.4-0.1c1.7-0.1,3.5-0.2,5.3-0.2c-28.7-1.3-57.3-2.7-86-4c1.3,0.1,3.1-0.4,4.3-0.6
			c1.2-0.2,2.3-0.4,3.5-0.5c0.2,0,0.4,0,0.6,0c0.4,0,0.7,0,1.1,0c1.2-0.2,2.3-0.4,3.4-0.7C271.7,123.6,273.3,123.2,274.8,122.9z
			 M167.2,188c-3.8,0.1-7.5,0.2-11.3,0.1c-2.5,0-5-0.1-7.5-0.2c-1.2-0.1-2.5-0.1-3.7-0.2c-1.2-0.1-2.4-0.1-3.5-0.3
			c-1.2-0.2-2.4-0.2-3.6-0.3c-1.2-0.1-2.5-0.2-3.7-0.3c-2.5-0.2-5-0.4-7.5-0.6c3.3-1.4,7.4-1.7,11.3-2.1c6.4-0.6,12.7-1.5,18.9-2.7
			c-10.7,0.5-21.3,1.3-31.8,2.5c-2.9,0.3-5.7,0.7-8.7,0.9c-0.6,0-1.2,0.1-1.8,0.2c-1,0.2-2,0.1-3,0.1c-2.5,0-4.9-0.1-7.4-0.2
			c-4.9-0.1-9.8-0.4-14.6-0.9c-1.6-0.1-3.1-0.3-4.6-0.5c-3-0.4-6-0.9-9.1-1.1c-6-0.5-12.1,0.1-18,0.8c2.8,0,5.7,0,8.5,0
			c3.7,0,7.4,0,11.1,0.2c2.5,0.1,4.9,0.4,7.3,0.7c2.4,0.3,4.7,0.7,7.1,0.9c4.8,0.5,9.5,0.9,14.3,1.4c4.8,0.4,9.6,0.8,14.4,1.1
			c4.8,0.3,9.6,0.6,14.4,0.7c4.7,0.2,9.5,0.3,14.2,0.3c4.6,0,9.3-0.1,13.9-0.3C164.2,188.1,165.7,188,167.2,188z M405.5,195
			c-22,0.8-43.9,1-65.9,0.9C360.1,199.4,384.7,197.5,405.5,195z"/>
	</g>
</g>
</svg>
